<svg width="1000" height="1000" viewBox="0 0 1000 1000" fill="none" xmlns="http://www.w3.org/2000/svg">
<path d="M786.641 400.127C788.235 402.111 790.384 403.423 792.944 403.612L791.535 401.157C790.544 403.141 789.939 405.243 789.837 407.465C789.734 409.711 790.257 411.928 790.643 414.126C791.478 418.889 791.704 423.738 791.433 428.564C791.315 430.662 794.578 430.655 794.696 428.564C794.947 424.089 794.737 419.626 794.098 415.191C793.48 410.903 792.299 406.914 794.353 402.804C794.929 401.653 794.214 400.443 792.944 400.349C791.256 400.224 789.963 399.082 788.948 397.819C787.633 396.182 785.337 398.504 786.641 400.127Z" fill="black"/>
<path d="M744.925 431.877C748.117 431.318 749.098 427.388 749.398 424.672C749.786 421.165 749.02 417.634 747.874 414.333C745.515 407.54 742.242 401.105 741.282 393.889C740.845 390.604 740.625 386.797 742.108 383.733C743.454 380.952 745.891 378.52 748.327 376.667C753.322 372.869 759.331 371.886 765.263 373.935C772.287 376.362 777.224 382.242 780.731 388.551C781.751 390.387 784.571 388.743 783.549 386.904C780.289 381.04 775.889 375.584 769.862 372.407C764.065 369.352 757.28 368.56 751.185 371.216C748.222 372.506 745.574 374.478 743.31 376.771C741.052 379.058 739.019 381.723 738.248 384.898C736.532 391.963 738.847 399.831 741.308 406.432C742.783 410.392 744.678 414.246 745.674 418.368C746.136 420.28 746.368 422.259 746.181 424.225C746.053 425.57 745.725 428.438 744.058 428.73C741.993 429.091 742.868 432.237 744.925 431.877Z" fill="black"/>
<path d="M582.845 286.576C583.5 352.062 585.672 417.515 587.44 482.974C588.349 516.612 589.158 550.254 589.599 583.902C589.714 592.654 590.52 601.374 590.848 610.117C591.176 618.851 590.562 627.503 590.276 636.23C590.267 636.529 590.247 636.855 590.057 637.074C589.929 637.221 589.746 637.294 589.569 637.36C586.143 638.633 582.404 638.934 578.837 638.227C578.078 638.076 577.23 637.801 576.901 637.057C576.775 636.773 576.744 636.453 576.714 636.141C575.907 627.617 575.027 619.249 574.933 610.689C574.837 601.966 574.751 593.244 574.67 584.521C574.349 549.623 574.123 514.724 573.754 479.827C573.386 444.936 572.876 410.045 571.988 375.165C571.1 340.299 569.834 305.442 567.953 270.62C583.563 259.991 582.728 274.824 582.845 286.576Z" fill="black"/>
<path d="M581.213 286.576C581.694 334.222 582.969 381.855 584.312 429.484C585.647 476.807 587.046 524.13 587.788 571.467C587.88 577.312 587.879 583.163 588.104 589.004C588.338 595.075 588.8 601.135 589.091 607.203C589.37 613.014 589.326 618.812 589.109 624.625C589 627.525 588.864 630.424 588.75 633.324C588.723 634.032 588.771 634.803 588.669 635.503L588.644 636.23C588.551 635.86 588.307 635.848 587.914 636.195C586.584 636.323 585.299 636.836 583.936 636.927C582.596 637.017 581.228 636.98 579.901 636.767C579.324 636.675 578.722 636.663 578.346 636.14C578.098 635.798 578.184 634.445 578.143 634.012C577.85 630.955 577.555 627.898 577.301 624.837C576.83 619.155 576.594 613.481 576.533 607.781C576.406 596.001 576.296 584.221 576.194 572.44C575.782 524.977 575.496 477.513 574.739 430.053C573.985 382.738 572.762 335.424 570.481 288.156C570.198 282.31 569.899 276.464 569.584 270.62L568.776 272.029C572.007 269.863 577.946 266.044 579.968 271.464C581.707 276.124 581.169 281.697 581.213 286.576C581.233 288.675 584.496 288.68 584.477 286.576C584.443 282.896 584.527 279.19 584.114 275.527C583.796 272.704 583.277 269.525 581.283 267.346C579.233 265.105 576.145 265.003 573.416 265.911C571.31 266.612 569.177 267.719 567.392 269.035C566.228 269.893 566.325 270.701 566.399 272.081C566.49 273.786 566.58 275.491 566.669 277.195C568.051 303.865 569.081 330.552 569.865 357.245C570.646 383.827 571.184 410.416 571.583 437.007C571.983 463.603 572.243 490.201 572.47 516.799C572.697 543.371 572.889 569.943 573.153 596.515C573.218 603.13 573.159 609.762 573.47 616.371C573.77 622.738 574.388 629.089 575.015 635.431C575.278 638.1 576.298 639.449 579.034 639.914C581.754 640.377 584.526 640.31 587.224 639.737C588.416 639.483 589.876 639.221 590.88 638.483C591.87 637.755 591.883 636.626 591.932 635.504C592.08 632.119 592.213 628.734 592.344 625.349C592.599 618.805 592.621 612.289 592.281 605.747C591.934 599.074 591.42 592.407 591.264 585.725C590.954 572.442 590.858 559.152 590.59 545.867C590.052 519.282 589.349 492.701 588.609 466.121C587.867 439.498 587.086 412.875 586.394 386.251C585.7 359.504 585.096 332.754 584.713 306.001C584.621 299.526 584.542 293.051 584.477 286.576C584.455 284.477 581.192 284.472 581.213 286.576Z" fill="black"/>
<path d="M901.552 461.455C904.563 468.377 905.499 475.996 905.289 483.49C905.119 489.543 904.528 495.839 902.72 501.649C901.356 506.031 899.382 510.264 896.808 514.069C894.739 517.128 891.923 520.527 888.248 521.643C884.357 522.823 881.05 520.286 878.748 517.32C875.113 512.637 873.086 506.792 871.988 501.026C869.735 489.194 871.172 476.612 874.18 465.043C875.116 461.447 876.275 457.85 878.382 454.752C880.295 451.938 883.25 449.149 886.633 448.313C889.962 447.49 893.077 449.674 895.304 451.931C897.993 454.655 899.994 457.979 901.552 461.455C902.41 463.368 905.223 461.711 904.37 459.808C901.701 453.854 896.881 446.4 889.948 445.047C882.953 443.683 876.638 450.333 873.885 456.042C870.96 462.109 869.661 469.121 868.711 475.748C867.747 482.479 867.358 489.319 868.02 496.098C868.66 502.654 870.225 509.181 873.391 514.999C875.855 519.525 879.636 524.516 885.14 525.16C889.513 525.672 893.459 522.982 896.31 519.93C899.811 516.181 902.332 511.584 904.284 506.873C906.56 501.382 907.534 495.694 908.134 489.798C908.966 481.629 908.757 473.216 906.402 465.297C905.844 463.423 905.15 461.601 904.37 459.808C903.534 457.887 900.722 459.547 901.552 461.455Z" fill="black"/>
<path d="M794.509 447.984C797.706 446.626 800.81 445.025 803.659 443.037C805.043 442.072 806.387 440.993 807.328 439.592C809.151 436.877 809.209 433.4 809.911 430.207C810.909 425.67 815.04 420.43 819.491 424.708C824.657 429.674 829.195 435.292 832.962 441.387C833.538 442.318 834.107 443.291 834.272 444.373C834.453 445.554 834.136 446.753 833.756 447.886C831.226 455.424 825.785 461.799 819.177 466.221C812.569 470.643 804.844 473.205 796.999 474.497C781.578 477.037 765.283 474.676 751.525 467.261C748.803 465.794 746.159 464.117 743.982 461.921C739.888 457.791 737.75 452.164 735.722 446.714C735.482 446.07 741.035 448.405 741.393 448.551C743.846 449.544 746.381 450.358 748.936 451.041C753.929 452.376 759.069 453.154 764.232 453.374C774.555 453.815 784.989 452.025 794.509 447.984Z" fill="white"/>
<path d="M795.332 449.393C798.318 448.113 801.223 446.645 803.921 444.83C806.474 443.113 808.69 441.167 809.833 438.239C810.869 435.584 810.88 432.708 811.648 429.989C812.177 428.117 813.386 425.526 815.406 424.874C816.375 424.562 817.26 424.963 818.02 425.573C819.277 426.582 820.383 427.874 821.483 429.049C823.632 431.344 825.662 433.754 827.534 436.281C828.423 437.48 829.28 438.703 830.104 439.947C830.934 441.199 832.025 442.575 832.505 444.014C832.99 445.469 832.363 447.007 831.856 448.372C831.362 449.703 830.756 450.986 830.072 452.229C824.376 462.592 813.694 468.813 802.516 471.68C790.622 474.731 777.848 474.581 766.018 471.309C759.554 469.521 752.872 466.871 747.475 462.813C744.743 460.758 742.674 458.087 741.06 455.094C740.269 453.628 739.575 452.11 738.945 450.569C738.628 449.794 738.325 449.014 738.028 448.231C737.788 447.603 737.389 446.895 737.289 446.234L737.124 447.492C737.071 447.595 735.851 448.413 735.7 448.207C735.723 448.238 735.873 448.234 735.909 448.254C736.074 448.341 736.326 448.368 736.508 448.425C737.093 448.607 737.669 448.821 738.242 449.038C739.106 449.365 739.961 449.716 740.817 450.065C744.809 451.692 748.993 452.88 753.222 453.702C762.163 455.442 771.367 455.504 780.33 453.893C785.347 452.991 790.244 451.532 794.943 449.557C795.761 449.213 796.328 448.481 796.082 447.55C795.88 446.782 794.887 446.069 794.075 446.41C777.183 453.512 757.934 453.523 740.977 446.628C739.887 446.185 738.792 445.745 737.674 445.375C736.694 445.051 735.423 444.634 734.579 445.481C733.925 446.137 734.078 446.959 734.367 447.733C734.756 448.776 735.15 449.819 735.563 450.854C736.362 452.856 737.216 454.844 738.242 456.742C740.319 460.587 743.123 463.79 746.726 466.273C750.422 468.82 754.592 470.751 758.772 472.357C775.135 478.643 794.69 478.982 811.008 472.327C818.797 469.151 825.776 464.22 830.708 457.337C833.001 454.136 835.312 450.094 835.862 446.138C836.176 443.879 835.303 442.052 834.134 440.183C832.908 438.221 831.6 436.309 830.218 434.454C827.459 430.75 824.433 427.25 821.127 424.022C819.741 422.669 818.136 421.487 816.11 421.49C814.46 421.493 812.952 422.302 811.775 423.411C808.826 426.189 808.306 430.067 807.621 433.837C807.245 435.912 806.728 437.999 805.256 439.586C803.725 441.235 801.711 442.451 799.777 443.568C797.813 444.702 795.768 445.682 793.685 446.575C791.76 447.399 793.421 450.211 795.332 449.393Z" fill="black"/>
<path d="M800.427 521.245C778.649 522.947 756.485 521.982 735.59 520.386C719.496 519.156 703.457 517.207 687.536 514.548C678.459 513.031 669.231 512.946 660.095 511.965C653.78 511.287 641.573 510.627 637.4 504.982C636.873 504.268 636.446 503.421 636.501 502.535C636.665 499.892 638.988 497.964 639.145 495C639.243 493.124 638.848 491.299 638.462 489.485C637.202 483.567 635.119 477.709 633.465 471.888C629.877 459.257 626.288 446.627 622.699 433.997C621.588 430.086 620.474 426.162 619.859 422.143C619.686 421.017 619.556 419.844 619.897 418.756C622.227 411.306 642.068 415.912 646.731 417.854C658.889 422.916 664.546 436.511 672.38 447.097C673.893 449.143 675.615 451.177 677.956 452.174C680.214 453.137 682.767 453.016 685.216 452.844C694.789 452.173 704.324 450.966 713.763 449.233C720.284 448.036 727.217 447.497 733.864 447.065C734.737 447.008 735.643 446.962 736.46 447.279C737.322 447.613 737.981 448.309 738.657 448.94C741.316 451.421 744.606 453.117 747.945 454.558C769.495 463.862 795.07 463.331 816.216 453.142C820.376 451.137 824.458 448.705 827.385 445.132C828.461 443.818 829.422 442.317 830.922 441.521C833.457 440.177 837.895 443.298 840.308 444.286C844.229 445.89 848.137 447.534 851.966 449.35C859.502 452.923 866.851 457.186 872.865 463.034C877.679 467.715 882.043 473.464 882.641 480.152C883.212 486.537 880.164 492.856 875.684 497.44C871.204 502.025 865.412 505.094 859.535 507.652C841.094 515.678 820.932 519.643 800.427 521.245Z" fill="white"/>
<path d="M800.428 519.613C775.876 521.508 751.091 520.273 726.607 517.992C714.185 516.835 701.806 515.247 689.495 513.227C678.458 511.415 667.263 511.1 656.15 509.935C652.147 509.516 648.083 508.971 644.273 507.614C642.635 507.031 640.961 506.246 639.669 505.059C638.973 504.419 638.111 503.546 638.133 502.535C638.154 501.549 638.797 500.555 639.235 499.711C640.471 497.332 640.989 495.164 640.652 492.47C640.279 489.487 639.494 486.533 638.686 483.643C637.026 477.705 635.145 471.828 633.46 465.897C630.005 453.737 626.375 441.612 623.113 429.399C622.351 426.546 621.351 423.408 621.321 420.435C621.307 419.04 621.804 418.198 622.901 417.542C625.337 416.084 628.695 416.196 631.43 416.347C634.75 416.531 638.045 417.105 641.272 417.893C644.079 418.579 646.716 419.44 649.212 420.932C656.99 425.58 661.688 433.903 666.462 441.301C668.964 445.177 671.515 449.79 675.316 452.534C677.537 454.138 680.206 454.63 682.902 454.591C685.892 454.547 688.901 454.209 691.876 453.922C704.059 452.749 716.021 450.066 728.218 449.098C729.612 448.988 731.006 448.888 732.4 448.794C733.718 448.705 735.343 448.319 736.478 449.167C737.438 449.884 738.258 450.792 739.212 451.527C740.354 452.405 741.557 453.186 742.816 453.884C747.484 456.474 752.662 458.329 757.795 459.751C768.156 462.62 779.103 463.479 789.787 462.296C800.308 461.131 810.855 458.135 820.128 452.956C822.387 451.695 824.556 450.229 826.463 448.474C827.401 447.612 828.24 446.668 829.029 445.67C829.729 444.784 830.43 443.728 831.409 443.126C832.948 442.182 835.258 443.592 836.649 444.295C838.786 445.375 840.953 446.293 843.163 447.219C853.486 451.547 863.947 456.533 872.011 464.482C875.613 468.032 878.992 472.182 880.413 477.122C881.854 482.131 880.737 487.298 878.086 491.7C872.4 501.142 860.974 505.669 851.097 509.275C840.216 513.246 828.894 515.928 817.453 517.68C811.805 518.545 806.123 519.163 800.428 519.613C798.348 519.778 798.33 523.043 800.428 522.877C812.523 521.921 824.583 520.184 836.355 517.207C842.097 515.755 847.767 514.008 853.312 511.922C858.6 509.933 863.909 507.742 868.765 504.83C877.892 499.359 885.903 489.791 884.059 478.476C883.222 473.342 880.31 468.796 876.939 464.944C873.312 460.8 868.998 457.29 864.386 454.3C859.473 451.115 854.206 448.509 848.859 446.143C846.139 444.94 843.345 443.892 840.64 442.661C838.626 441.744 836.74 440.529 834.597 439.909C832.366 439.263 830.421 439.605 828.663 441.148C826.756 442.822 825.462 445.07 823.511 446.738C819.384 450.268 814.067 452.569 809.021 454.444C798.633 458.306 787.507 459.978 776.441 459.45C765.56 458.931 754.053 456.386 744.463 451.066C743.27 450.404 742.101 449.677 741.027 448.832C739.982 448.01 739.102 446.953 737.977 446.235C735.585 444.707 732.109 445.54 729.452 445.739C723.35 446.198 717.33 446.967 711.305 448.023C705.034 449.123 698.724 449.986 692.387 450.609C689.244 450.918 686.062 451.285 682.902 451.327C679.953 451.367 677.613 450.581 675.564 448.419C672.242 444.916 669.796 440.449 667.196 436.408C664.658 432.463 662.053 428.525 658.942 425.002C655.949 421.614 652.386 418.616 648.242 416.744C645.693 415.592 642.961 414.891 640.232 414.311C636.701 413.561 633.065 413.026 629.449 413.026C626.512 413.027 623.138 413.318 620.685 415.105C616.648 418.044 618.299 423.454 619.278 427.557C620.78 433.86 622.728 440.072 624.499 446.303C628.03 458.73 631.691 471.117 635.26 483.53C636.143 486.598 637.101 489.789 637.449 492.972C637.591 494.274 637.567 495.524 637.068 496.747C636.657 497.754 636.058 498.678 635.62 499.673C634.512 502.193 634.781 504.449 636.587 506.566C637.82 508.009 639.498 509.083 641.21 509.869C645.097 511.652 649.352 512.372 653.564 512.903C658.264 513.496 663 513.915 667.724 514.257C674.11 514.72 680.523 515.049 686.85 516.08C693.177 517.111 699.517 518.082 705.876 518.922C730.988 522.239 756.513 524.138 781.852 523.728C788.051 523.627 794.246 523.354 800.428 522.877C802.508 522.716 802.525 519.452 800.428 519.613Z" fill="black"/>
<path d="M787.031 575.38C777.121 545.99 770.563 513.881 763.903 483.588C756.812 484.559 746.498 487.94 740.879 488.679C740.372 494.1 741.851 499.192 743.07 504.406C748.902 529.356 751.545 554.964 757.305 579.931C757.983 582.868 758.739 585.874 760.484 588.332C765.735 595.726 776.763 594.908 785.688 593.298" fill="white"/>
<path d="M788.604 574.947C780.735 551.558 775.19 527.468 769.9 503.391C768.418 496.647 766.959 489.898 765.476 483.155C765.27 482.216 764.304 481.897 763.469 482.015C755.671 483.115 748.239 486.039 740.445 487.105C739.705 487.207 739.301 488.029 739.247 488.679C738.863 493.303 739.822 497.844 740.894 502.317C741.984 506.864 742.991 511.427 743.908 516.012C745.768 525.316 747.319 534.679 748.881 544.036C750.443 553.394 752.017 562.752 753.924 572.047C754.829 576.461 755.537 581.126 757.14 585.352C758.419 588.725 760.561 591.593 763.715 593.413C770.377 597.258 778.908 596.161 786.122 594.871C788.186 594.503 787.311 591.357 785.254 591.725C779.284 592.792 772.216 593.803 766.494 591.182C763.485 589.804 761.352 587.384 760.213 584.283C758.731 580.249 758.035 575.853 757.169 571.656C753.512 553.942 751.086 536.004 747.664 518.247C746.699 513.239 745.659 508.245 744.481 503.283C743.336 498.463 742.095 493.677 742.511 488.679L741.313 490.252C749.106 489.185 756.539 486.261 764.337 485.162L762.33 484.022C767.625 508.114 772.634 532.297 779.359 556.043C781.239 562.679 783.257 569.276 785.457 575.814C786.123 577.794 789.276 576.945 788.604 574.947Z" fill="black"/>
<path d="M778.82 480.882C771.028 481.628 763.323 483.288 755.915 485.816C755.332 486.016 754.693 486.27 754.428 486.826C754.218 487.268 754.302 487.787 754.391 488.268C759.539 516.261 762.473 544.842 768.334 572.912C769.323 577.648 770.39 582.495 773.02 586.555C775.651 590.615 780.214 593.78 785.034 593.367C791.114 592.847 795.299 587.199 798.435 581.964C815.427 553.596 826.312 521.591 830.137 488.745C830.246 487.812 830.338 486.814 829.901 485.983C829.354 484.942 828.149 484.463 827.035 484.09C818.729 481.311 809.973 479.879 801.215 479.869" fill="white"/>
<path d="M778.82 479.251C773.688 479.754 768.592 480.601 763.588 481.852C761.007 482.497 758.447 483.239 755.927 484.092C753.831 484.802 752.4 485.916 752.756 488.336C753.527 493.578 754.598 498.788 755.437 504.023C756.284 509.31 757.085 514.606 757.874 519.902C759.457 530.519 760.992 541.144 762.753 551.733C763.649 557.113 764.602 562.484 765.648 567.838C766.59 572.652 767.389 577.623 769.107 582.236C770.67 586.433 773.1 590.244 776.898 592.74C780.407 595.047 784.8 595.732 788.734 594.126C792.564 592.562 795.396 589.411 797.721 586.089C800.384 582.284 802.613 578.132 804.821 574.053C814.176 556.776 821.374 538.311 826.181 519.261C828.587 509.73 830.38 500.053 831.583 490.298C831.855 488.094 832.251 485.693 830.405 484.032C828.765 482.555 826.168 482.064 824.108 481.473C819.156 480.051 814.072 479.11 808.945 478.615C806.375 478.367 803.796 478.248 801.215 478.237C799.115 478.228 799.112 481.492 801.215 481.5C806.078 481.521 810.928 481.944 815.709 482.839C818.015 483.27 820.303 483.8 822.563 484.428C823.694 484.743 824.817 485.081 825.933 485.443C826.701 485.693 827.961 485.942 828.419 486.691C828.886 487.453 828.501 488.8 828.401 489.633C828.258 490.819 828.107 492.004 827.943 493.187C827.638 495.4 827.3 497.609 826.931 499.813C826.168 504.366 825.269 508.897 824.237 513.398C820.159 531.191 814.012 548.509 805.909 564.869C803.893 568.939 801.758 572.951 799.507 576.897C797.479 580.452 795.475 584.164 792.712 587.215C790.291 589.888 787.109 592.094 783.336 591.735C779.408 591.361 776.062 588.448 774.091 585.189C771.832 581.454 770.883 577.121 769.996 572.897C768.978 568.056 768.051 563.196 767.183 558.326C765.428 548.473 763.925 538.578 762.453 528.68C760.985 518.806 759.548 508.926 757.92 499.076C757.511 496.6 757.09 494.126 756.653 491.655C756.456 490.54 756.245 489.427 756.052 488.312C756.067 488.397 755.883 487.615 755.929 487.532C755.898 487.589 755.695 487.777 756.055 487.495C756.447 487.189 757.219 487.096 757.686 486.944C762.301 485.442 767.024 484.273 771.807 483.451C774.133 483.051 776.471 482.745 778.82 482.514C780.891 482.311 780.912 479.045 778.82 479.251Z" fill="black"/>
<path d="M746.625 516.337C750.34 515.541 754.056 514.744 757.772 513.948C758.634 513.763 759.135 512.755 758.912 511.94C758.667 511.049 757.769 510.615 756.904 510.801C753.189 511.597 749.473 512.394 745.757 513.191C744.895 513.375 744.393 514.383 744.617 515.198C744.862 516.089 745.76 516.523 746.625 516.337Z" fill="black"/>
<path d="M754.205 555.137C756.739 555.137 759.273 555.137 761.808 555.137C762.661 555.137 763.479 554.387 763.439 553.506C763.4 552.622 762.722 551.874 761.808 551.874C759.273 551.874 756.739 551.874 754.205 551.874C753.352 551.874 752.534 552.624 752.573 553.506C752.613 554.39 753.29 555.137 754.205 555.137Z" fill="black"/>
<path d="M883.893 481.336C884.213 481.281 883.671 481.336 883.992 481.327C884.148 481.323 884.302 481.317 884.458 481.323C884.525 481.326 884.905 481.376 884.702 481.338C884.492 481.299 884.714 481.344 884.746 481.352C884.854 481.378 884.962 481.4 885.068 481.429C885.197 481.464 885.323 481.504 885.448 481.549C885.511 481.571 885.573 481.595 885.635 481.619C885.575 481.596 885.344 481.477 885.61 481.618C885.868 481.754 886.12 481.894 886.359 482.061C886.4 482.09 886.62 482.267 886.464 482.135C886.317 482.011 886.488 482.16 886.507 482.178C886.607 482.269 886.708 482.357 886.804 482.452C886.915 482.563 887.022 482.678 887.125 482.798C887.169 482.849 887.211 482.901 887.254 482.953C887.162 482.841 887.149 482.808 887.24 482.945C887.399 483.189 887.528 483.447 887.677 483.696C887.77 483.85 887.657 483.633 887.647 483.61C887.672 483.671 887.696 483.733 887.718 483.796C887.778 483.962 887.829 484.131 887.871 484.303C887.886 484.363 887.963 484.748 887.928 484.541C887.893 484.333 887.928 484.55 887.93 484.587C887.934 484.676 887.941 484.764 887.943 484.853C887.946 484.987 887.938 485.12 887.933 485.254C887.932 485.291 887.906 485.518 887.934 485.299C887.962 485.077 887.922 485.346 887.912 485.388C887.852 485.644 887.777 485.886 887.687 486.133C887.781 485.873 887.731 486.025 887.652 486.176C887.578 486.317 887.497 486.454 887.409 486.586C887.32 486.723 887.204 486.85 887.383 486.642C887.292 486.748 887.204 486.856 887.108 486.958C887.025 487.046 886.94 487.131 886.852 487.213C886.808 487.254 886.763 487.295 886.718 487.334C886.681 487.367 886.409 487.578 886.602 487.435C886.774 487.308 886.472 487.522 886.422 487.554C886.321 487.621 886.218 487.685 886.113 487.745C885.99 487.816 885.863 487.877 885.737 487.943C885.704 487.961 885.52 488.059 885.711 487.961C885.906 487.861 885.671 487.977 885.626 487.993C885.34 488.093 885.053 488.182 884.756 488.242C884.698 488.253 884.636 488.259 884.579 488.274C884.383 488.324 884.908 488.257 884.596 488.269C884.457 488.274 884.319 488.287 884.179 488.287C884.02 488.288 883.86 488.264 883.703 488.267C883.506 488.27 883.849 488.286 883.841 488.288C883.784 488.303 883.664 488.257 883.607 488.245C883.451 488.212 883.296 488.171 883.145 488.121C883.09 488.103 883.03 488.072 882.974 488.061C882.77 488.023 883.313 488.218 882.974 488.058C882.204 487.694 881.178 487.818 880.742 488.644C880.359 489.369 880.503 490.487 881.327 490.876C884.207 492.238 887.781 491.357 889.765 488.856C890.849 487.488 891.369 485.851 891.135 484.107C890.911 482.443 890.005 480.856 888.711 479.783C887.083 478.433 885.123 477.825 883.025 478.19C882.182 478.337 881.632 479.415 881.885 480.197C882.179 481.105 882.989 481.494 883.893 481.336Z" fill="black"/>
<path d="M893.53 461.801C894.243 462.527 894.602 462.975 895.107 463.775C895.347 464.155 895.569 464.546 895.771 464.948C895.873 465.148 895.968 465.352 896.061 465.557C896.176 465.812 895.989 465.373 896.094 465.633C896.147 465.763 896.198 465.894 896.246 466.026C896.559 466.872 896.78 467.742 896.935 468.63C896.951 468.717 896.974 468.876 896.95 468.696C896.965 468.807 896.977 468.919 896.988 469.031C897.014 469.282 897.032 469.534 897.043 469.787C897.065 470.265 897.059 470.742 897.032 471.219C896.984 472.073 897.817 472.889 898.664 472.851C899.589 472.809 900.244 472.134 900.296 471.219C900.537 466.901 898.86 462.573 895.838 459.493C895.22 458.864 894.149 458.874 893.53 459.493C892.9 460.123 892.911 461.17 893.53 461.801Z" fill="black"/>
<path d="M900.131 483.388C902.231 483.388 902.234 480.125 900.131 480.125C898.031 480.125 898.028 483.388 900.131 483.388Z" fill="black"/>
<path d="M799.839 430.314C799.622 434.783 797.018 438.816 791.862 439.752C788.114 440.433 784.355 438.994 780.634 438.181C776.975 437.382 773.185 437.184 769.462 437.598C766.848 437.889 764.227 438.495 761.939 439.792C757.843 442.114 754.177 448.28 749.455 449.084C743.782 450.051 738.064 445.032 732.555 444.267C725.702 443.315 719.462 439.703 712.437 439.469C707.154 439.293 701.405 441.378 698.89 446.026C692.624 439.956 687.812 432.223 683.287 424.805C682.777 423.969 682.257 422.991 682.555 422.058C682.777 421.359 683.405 420.88 684.011 420.467C690.408 416.109 698.223 414.001 705.962 414.066C713.702 414.131 721.356 416.31 728.213 419.902C732.239 422.011 736.037 424.613 740.311 426.16C749.347 429.431 754.807 423.893 763.188 421.942C767.507 420.938 772.164 421.455 776.156 423.383C778.284 424.411 780.214 425.817 782.356 426.814C787.249 429.092 793.2 426.544 793.561 420.605C796.177 420.743 798.325 422.958 799.153 425.443C799.686 427.04 799.917 428.705 799.839 430.314Z" fill="#B78437"/>
<path d="M678.647 427.388C679.444 426.571 680.296 425.81 681.198 425.111L680.868 425.366C681.514 424.868 682.184 424.403 682.875 423.972C683.599 423.52 683.948 422.495 683.461 421.739C682.993 421.014 682.003 420.67 681.228 421.154C679.454 422.261 677.799 423.583 676.339 425.081C675.743 425.693 675.684 426.787 676.339 427.388C676.984 427.98 678.011 428.042 678.647 427.388Z" fill="black"/>
<path d="M681.408 430.815C682.299 429.924 683.189 429.034 684.08 428.143C684.376 427.847 684.558 427.408 684.558 426.989C684.558 426.589 684.38 426.111 684.08 425.835C683.769 425.55 683.361 425.338 682.926 425.357C682.493 425.377 682.085 425.523 681.772 425.835C680.882 426.726 679.991 427.617 679.1 428.507C678.805 428.803 678.622 429.243 678.622 429.661C678.622 430.061 678.8 430.539 679.1 430.815C679.411 431.1 679.82 431.312 680.254 431.293C680.687 431.273 681.096 431.127 681.408 430.815Z" fill="black"/>
<path d="M685.031 435.623C685.134 435.458 685.245 435.299 685.363 435.145L685.108 435.475C685.431 435.057 685.804 434.683 686.22 434.358L685.89 434.613C686.253 434.334 686.644 434.095 687.06 433.901C687.411 433.737 687.711 433.285 687.81 432.926C687.917 432.535 687.869 432.015 687.645 431.668C687.421 431.32 687.086 431.013 686.67 430.918L686.236 430.86C685.942 430.861 685.667 430.935 685.413 431.083C684.753 431.391 684.153 431.822 683.608 432.302C683.065 432.782 682.598 433.364 682.213 433.976C681.992 434.327 681.94 434.838 682.048 435.233C682.153 435.611 682.445 436.022 682.798 436.208C683.177 436.408 683.636 436.508 684.056 436.373C684.468 436.239 684.797 435.994 685.031 435.623Z" fill="black"/>
<path d="M688.651 440.648C689.393 440.129 690.135 439.609 690.878 439.09C691.068 438.988 691.22 438.847 691.335 438.67C691.48 438.512 691.577 438.327 691.627 438.115C691.695 437.898 691.705 437.681 691.657 437.464C691.647 437.247 691.582 437.045 691.463 436.857C691.238 436.509 690.904 436.202 690.488 436.108C690.08 436.015 689.587 436.023 689.231 436.272C688.488 436.791 687.746 437.311 687.004 437.83C686.814 437.933 686.661 438.073 686.546 438.251C686.402 438.408 686.305 438.593 686.254 438.805C686.186 439.022 686.176 439.239 686.225 439.456C686.235 439.673 686.299 439.876 686.419 440.063C686.643 440.411 686.978 440.718 687.394 440.813C687.802 440.906 688.295 440.898 688.651 440.648Z" fill="black"/>
<path d="M693.451 446.063C693.623 445.748 693.819 445.448 694.038 445.163L693.782 445.493C694.141 445.031 694.555 444.615 695.016 444.255L694.686 444.51C694.822 444.405 694.963 444.304 695.106 444.209C695.461 443.973 695.741 443.652 695.856 443.233C695.924 443.017 695.934 442.8 695.885 442.583C695.876 442.366 695.811 442.163 695.692 441.976C695.467 441.628 695.133 441.321 694.717 441.226C694.302 441.132 693.825 441.148 693.459 441.391C692.297 442.163 691.307 443.187 690.633 444.416C690.426 444.793 690.353 445.253 690.469 445.673C690.573 446.051 690.866 446.462 691.219 446.648C691.597 446.848 692.056 446.948 692.476 446.813C692.874 446.684 693.244 446.439 693.451 446.063Z" fill="black"/>
<path d="M697.237 449.982C698.127 449.017 699.018 448.052 699.908 447.087C700.199 446.772 700.386 446.369 700.386 445.933C700.386 445.533 700.208 445.055 699.908 444.779C699.597 444.494 699.189 444.282 698.755 444.302C698.332 444.32 697.896 444.46 697.601 444.779C696.71 445.744 695.82 446.709 694.929 447.674C694.638 447.989 694.451 448.392 694.451 448.828C694.451 449.228 694.629 449.706 694.929 449.982C695.24 450.267 695.648 450.479 696.083 450.459C696.506 450.441 696.941 450.301 697.237 449.982Z" fill="black"/>
<path d="M628.098 415.847C636.06 439.874 644.022 463.902 651.985 487.93C653.052 491.15 654.12 494.368 655.185 497.588C656.194 500.636 657.37 503.883 656.318 507.075C655.66 509.074 658.81 509.931 659.465 507.942C660.401 505.1 659.968 502.126 659.155 499.309C658.324 496.425 657.295 493.59 656.351 490.742C654.335 484.659 652.32 478.577 650.304 472.494C646.242 460.237 642.18 447.98 638.119 435.722C635.827 428.808 633.536 421.893 631.245 414.979C630.587 412.995 627.434 413.845 628.098 415.847Z" fill="black"/>
<path d="M632.586 461.145C636.099 460.654 639.612 460.164 643.124 459.674C643.973 459.555 644.511 458.43 644.264 457.667C643.963 456.736 643.166 456.4 642.257 456.527C638.744 457.017 635.231 457.508 631.718 457.998C630.87 458.116 630.332 459.242 630.579 460.005C630.88 460.936 631.677 461.272 632.586 461.145Z" fill="black"/>
<path d="M701.481 476.52C704.826 480.563 705.661 486.857 704.188 491.796C703.323 494.695 701.56 496.768 698.981 498.318C697.631 499.13 696.049 500.261 694.437 500.349C693.046 500.425 691.571 500.184 690.218 499.883C685.061 498.735 680.161 495.462 678.413 490.28C676.51 484.636 678.587 478.549 683.1 474.78C688.672 470.126 696.782 471.133 701.481 476.52C702.865 478.106 705.165 475.789 703.789 474.212C698.714 468.395 689.949 466.735 683.256 470.701C677.099 474.35 673.536 481.554 674.654 488.638C675.725 495.425 681.073 500.453 687.428 502.507C690.742 503.578 694.654 504.236 697.88 502.655C701.252 501.002 704.478 498.881 706.223 495.448C709.569 488.863 708.476 479.878 703.789 474.212C702.449 472.593 700.152 474.913 701.481 476.52Z" fill="black"/>
<path d="M694.567 482.941C695.915 484.53 696.152 487.683 694.687 489.29C694.282 489.734 693.746 490.031 693.22 490.32C692.896 490.498 692.553 490.68 692.184 490.678C689.61 490.663 687.068 489.098 686.847 486.31C686.66 483.956 688.587 481.601 690.942 481.424C692.298 481.323 693.687 481.904 694.567 482.941Z" fill="black"/>
<path d="M693.413 484.095C693.119 483.737 693.491 484.221 693.546 484.315C693.585 484.381 693.623 484.449 693.658 484.517C693.668 484.537 693.849 484.879 693.727 484.643C693.606 484.41 693.768 484.756 693.777 484.782C693.804 484.859 693.829 484.936 693.853 485.014C693.919 485.23 693.972 485.451 694.013 485.673C694.037 485.809 694.147 485.994 694.018 485.672C694.041 485.73 694.036 485.868 694.04 485.921C694.054 486.129 694.058 486.337 694.05 486.546C694.047 486.628 694.04 486.711 694.036 486.794C694.021 487.102 694.052 486.773 694.052 486.728C694.052 486.934 693.968 487.185 693.911 487.381C693.883 487.476 693.849 487.57 693.818 487.665C693.718 487.971 693.848 487.618 693.847 487.602C693.857 487.725 693.622 488.005 693.562 488.106C693.478 488.245 693.548 488.253 693.609 488.05C693.583 488.136 693.44 488.234 693.375 488.295C693.319 488.348 693.063 488.536 693.299 488.369C693.176 488.456 693.049 488.536 692.921 488.614C692.749 488.717 692.573 488.815 692.396 488.91C692.367 488.926 691.971 489.202 692.211 489.02C692.138 489.076 691.922 489.041 692.184 489.046C691.997 489.043 691.811 489.035 691.625 489.018C691.28 488.986 691.621 488.982 691.628 489.022C691.627 489.017 691.281 488.955 691.264 488.952C691.083 488.912 690.905 488.863 690.729 488.807C690.617 488.771 690.124 488.544 690.492 488.733C690.132 488.548 689.783 488.368 689.457 488.125C689.804 488.383 689.318 487.979 689.25 487.91C689.139 487.797 689.035 487.678 688.935 487.555C689.206 487.89 688.84 487.377 688.792 487.29C688.753 487.22 688.719 487.146 688.68 487.076C688.51 486.764 688.746 487.331 688.657 487.012C688.6 486.807 688.544 486.606 688.492 486.4C688.47 486.314 688.471 486.1 688.491 486.444C688.485 486.333 688.472 486.224 688.469 486.114C688.463 485.917 688.477 485.724 688.493 485.528C688.464 485.887 688.472 485.66 688.495 485.576C688.536 485.43 688.565 485.281 688.61 485.136C688.643 485.032 688.68 484.93 688.718 484.828C688.697 484.886 688.572 485.124 688.711 484.86C688.803 484.685 688.895 484.514 689.002 484.348C689.061 484.257 689.124 484.167 689.189 484.079C688.991 484.347 689.13 484.155 689.18 484.105C689.349 483.935 689.522 483.77 689.692 483.602C689.868 483.427 689.38 483.802 689.722 483.58C689.831 483.509 689.937 483.437 690.05 483.372C690.125 483.329 690.203 483.293 690.278 483.25C690.59 483.069 690.044 483.305 690.363 483.212C690.467 483.182 690.568 483.145 690.672 483.118C690.766 483.093 691.233 483.027 690.812 483.068C691.044 483.045 691.272 483.047 691.504 483.052C691.812 483.06 691.558 483.052 691.489 483.04C691.651 483.067 691.81 483.102 691.969 483.146C692.082 483.177 692.192 483.216 692.303 483.252C692.621 483.355 692.119 483.123 692.429 483.313C692.629 483.435 692.835 483.542 693.025 483.682C692.768 483.494 693.013 483.684 693.073 483.74C693.194 483.852 693.305 483.971 693.413 484.095C693.978 484.738 695.151 484.715 695.721 484.095C696.351 483.409 696.324 482.473 695.721 481.787C693.914 479.729 690.777 479.192 688.403 480.554C686.103 481.873 684.868 484.545 685.322 487.14C685.732 489.484 687.612 491.212 689.803 491.935C691.094 492.362 692.518 492.49 693.761 491.878C694.915 491.31 696.021 490.529 696.614 489.354C697.837 486.935 697.427 483.862 695.721 481.787C695.177 481.125 693.97 481.181 693.414 481.787C692.768 482.491 692.833 483.388 693.413 484.095Z" fill="black"/>
<path d="M588.078 449.627C588.431 479.46 590.672 501.618 590.942 531.452C591.072 545.771 591.486 579.687 591.486 594C591.486 617.932 588.954 616.026 591.373 618C566.947 598.068 535.394 587.06 503.87 587.473C474.811 587.854 443.846 596.04 416.085 604.254C390.608 611.792 368.739 630.018 343.615 639.437C319.389 648.52 291.245 651.499 268.266 639.61C253.605 632.024 243.146 621.927 227.065 617.558C210.872 613.159 194.992 612.808 178.873 617.998C167.359 621.705 156.191 626.774 144.246 628.681C136.481 629.92 128.497 629.784 120.778 628.281C119.931 628.116 119.026 627.901 118.451 627.257C117.747 626.47 117.751 625.298 117.794 624.243C119.254 588.517 117.615 553.142 117.391 517.42C117.141 477.572 116.639 437.722 115.394 397.89C114.484 364.894 115.041 331.492 118.294 299.038C145.585 305.866 170.124 302.12 196.311 292.035C210.345 286.629 224.477 280.199 239.515 279.972C257.127 279.707 277.952 289.628 294.362 296.283C317.472 305.655 338.752 318.65 364.397 319.67C397.931 321.003 428.472 302.396 459.661 290.005C479.421 282.154 500.553 276.868 521.887 276.424C544.476 275.954 560.627 282.362 580.088 292.29C581.231 292.873 582.419 293.495 583.155 294.545C583.924 295.644 584.082 297.044 584.216 298.379C589.183 347.79 587.487 399.719 588.078 449.627Z" fill="#B78437"/>
<path d="M400.612 384.297C428.025 376.955 452.561 361.858 479.836 354.115C492.951 350.392 506.766 348.271 520.382 350.04C525.878 350.755 531.104 352.393 536.43 353.836C541.306 355.156 546.203 356.396 551.079 357.713C556.915 359.291 562.74 360.947 568.449 362.944C573.109 364.575 577.834 366.39 581.96 369.146C583.711 370.316 585.347 367.491 583.607 366.328C579.9 363.852 575.689 362.137 571.527 360.593C566.468 358.717 561.291 357.166 556.097 355.708C551.018 354.283 545.908 352.97 540.807 351.625C535.91 350.333 531.061 348.722 526.099 347.709C498.271 342.03 470.481 352.688 445.355 363.612C430.416 370.107 415.527 376.923 399.744 381.15C397.718 381.693 398.578 384.841 400.612 384.297Z" fill="black"/>
<path d="M129.659 385.076C142.74 388.183 156.316 388.73 169.607 386.725C182.732 384.745 194.84 379.685 207.104 374.851C213.993 372.137 220.963 369.593 228.194 367.947C230.241 367.481 229.374 364.333 227.326 364.8C214.744 367.664 203.063 373.25 190.998 377.668C178.693 382.175 165.973 384.79 152.832 384.662C145.314 384.589 137.84 383.666 130.527 381.929C128.485 381.444 127.613 384.59 129.659 385.076Z" fill="black"/>
<path d="M445.614 449.355C449.856 449.159 453.455 447.011 457.013 444.895C461.125 442.45 465.566 440.875 470.064 439.283C479.795 435.838 489.787 433.054 500.007 431.516C518.449 428.741 537.592 430.698 554.655 438.445C563.602 442.506 571.82 448.05 578.745 455.033C580.226 456.527 582.533 454.219 581.052 452.726C568.499 440.065 551.82 431.962 534.369 428.717C514.219 424.969 493.745 428.075 474.428 434.358C471.61 435.274 468.813 436.253 466.033 437.281C463.475 438.227 460.845 439.114 458.413 440.358C454.311 442.455 450.407 445.87 445.614 446.092C443.523 446.189 443.511 449.453 445.614 449.355Z" fill="black"/>
<path d="M227.76 450.134C229.86 450.134 229.863 446.871 227.76 446.871C225.66 446.871 225.657 450.134 227.76 450.134Z" fill="black"/>
<path d="M129.659 467.205C138.374 469.269 147.361 469.892 156.261 468.822C165.161 467.751 173.959 465.303 182.179 461.739C186.402 459.907 191.016 457.516 195.763 458.374C197.816 458.745 198.697 455.6 196.63 455.227C192.407 454.464 188.413 455.576 184.526 457.194C180.417 458.905 176.382 460.645 172.131 461.993C163.623 464.689 154.791 466.274 145.846 466.076C140.673 465.961 135.559 465.25 130.527 464.058C128.485 463.575 127.613 466.72 129.659 467.205Z" fill="black"/>
<path d="M423.692 532.714C442.51 524.374 462.804 519.308 483.336 517.838C493.366 517.12 503.406 517.298 513.346 518.909C522.733 520.43 531.91 523.031 540.857 526.227C551.319 529.964 561.475 534.489 571.604 539.035C573.505 539.887 575.166 537.076 573.251 536.217C555.158 528.098 536.801 519.934 517.19 516.281C496.824 512.488 475.704 514.118 455.597 518.703C444.074 521.33 432.847 525.109 422.044 529.896C420.128 530.746 421.787 533.559 423.692 532.714Z" fill="black"/>
<path d="M123.676 566.195C134.97 568.866 146.55 568.544 157.858 566.13C168.766 563.8 179.206 559.768 189.624 555.867C195.677 553.6 201.745 551.37 207.93 549.484C209.933 548.874 209.079 545.723 207.062 546.338C186.163 552.709 166.061 563.616 143.878 564.77C137.372 565.108 130.884 564.548 124.544 563.048C122.501 562.565 121.63 565.711 123.676 566.195Z" fill="black"/>
<path d="M367.516 339.766C369.141 364.551 370.766 389.335 372.392 414.12C400.473 401.714 429.856 392.253 459.901 385.944C445.056 409.569 430.125 433.14 415.11 456.657C439.546 467.046 462.45 481.029 482.858 498.016C457.324 509.515 426.71 503.929 400.932 514.868C408.941 536.819 411.915 562.347 417.342 585.299C414.032 586.14 410.745 584.1 407.936 582.157C387.628 568.106 367.319 554.055 347.011 540.004C341.962 566.599 333.333 592.512 321.431 616.825C314.469 588.732 307.25 560.703 299.775 532.743C271.332 545.547 241.227 554.652 210.456 559.757C227.156 538.226 243.092 516.101 258.223 493.438C259.224 491.939 260.268 490.188 259.807 488.444C259.279 486.45 257.082 485.482 255.163 484.723C229.955 474.754 210.049 455.068 190.894 435.886C216.295 430.624 242.411 428.826 268.293 430.557C262.624 430.178 249.029 356.886 247.507 348.837C253.903 351.589 259.145 360.509 264.366 365.247C273.459 373.499 282.697 381.596 291.861 389.769C298.733 395.898 305.101 402.213 310.941 409.315C318.068 398.247 329.915 388.943 338.14 378.186C347.932 365.379 357.724 352.572 367.516 339.766Z" fill="white"/>
<path d="M365.884 339.766C367.509 364.551 369.135 389.335 370.76 414.12C370.846 415.44 372.06 416.039 373.215 415.529C394.99 405.926 417.546 398.1 440.587 392.142C447.133 390.449 453.718 388.911 460.335 387.517L458.492 385.12C446.945 403.495 435.348 421.837 423.699 440.147C420.371 445.379 417.038 450.607 413.702 455.834C413.27 456.509 413.496 457.729 414.287 458.066C433.21 466.132 451.214 476.31 467.859 488.399C472.592 491.836 477.205 495.432 481.704 499.17L482.034 496.607C461.934 505.569 439.243 504.023 418.021 508.133C412.028 509.294 406.132 510.928 400.499 513.295C399.737 513.615 399.027 514.388 399.359 515.302C405.793 533.037 408.799 551.763 412.449 570.204C413.477 575.397 414.555 580.58 415.769 585.733L416.908 583.726C414.418 584.252 412.079 582.924 410.055 581.619C407.822 580.181 405.667 578.609 403.483 577.098C399.005 574 394.528 570.902 390.051 567.804C381.096 561.608 372.141 555.412 363.186 549.216C358.069 545.676 352.952 542.135 347.834 538.595C347.01 538.024 345.626 538.58 345.437 539.57C341.514 560.138 335.489 580.289 327.443 599.623C325.14 605.157 322.653 610.615 320.022 616.002L323.004 616.391C317.573 594.479 311.988 572.605 306.245 550.773C304.625 544.615 302.993 538.46 301.348 532.309C301.053 531.205 299.89 530.912 298.951 531.334C276.913 541.235 253.878 548.907 230.308 554.218C223.585 555.733 216.82 557.051 210.022 558.184L211.609 560.911C227.009 541.047 241.779 520.699 255.858 499.877C257.512 497.432 259.51 494.987 260.772 492.312C261.832 490.067 261.837 487.563 260.036 485.696C258.381 483.981 255.907 483.305 253.773 482.408C251.193 481.323 248.661 480.12 246.176 478.833C236.489 473.813 227.583 467.415 219.25 460.401C209.705 452.367 200.857 443.554 192.048 434.732L191.328 437.46C211.036 433.397 231.143 431.412 251.266 431.558C256.947 431.6 262.625 431.815 268.293 432.188C270.41 432.328 270.35 429.131 268.293 428.925C269.289 429.025 267.898 428.818 268.798 429.055C268.774 429.049 268.619 428.932 268.609 428.938C268.72 428.869 268.96 429.29 268.672 428.959C268.587 428.862 268.266 428.464 268.599 428.906C268.218 428.401 267.914 427.84 267.633 427.274C266.827 425.653 266.18 423.793 265.522 421.794C263.569 415.861 262.051 409.781 260.587 403.712C257.208 389.7 254.324 375.567 251.567 361.422C250.722 357.085 249.901 352.744 249.08 348.403L246.683 350.245C250.932 352.151 254.017 355.991 256.95 359.471C258.459 361.263 259.944 363.081 261.561 364.777C263.546 366.86 265.773 368.722 267.912 370.643C277.208 378.992 286.791 387.062 295.863 395.656C300.788 400.321 305.467 405.237 309.787 410.469C310.492 411.323 311.827 410.943 312.35 410.139C318.206 401.132 326.391 393.969 333.589 386.087C337.447 381.863 340.856 377.3 344.327 372.76C348.161 367.746 351.995 362.731 355.829 357.716C360.194 352.007 364.56 346.298 368.925 340.589C370.2 338.922 367.367 337.295 366.107 338.942C358.438 348.972 350.77 359.001 343.102 369.03C339.525 373.708 336.053 378.474 332.115 382.859C328.489 386.897 324.631 390.716 320.894 394.65C316.781 398.981 312.795 403.472 309.532 408.491L312.095 408.161C304.239 398.647 295.122 390.471 285.916 382.305C281.106 378.039 276.293 373.779 271.505 369.488C267.415 365.824 263.503 362.215 259.967 358.008C256.646 354.057 253.159 349.593 248.33 347.428C247.002 346.832 245.656 347.805 245.933 349.27C247.929 359.829 249.972 370.378 252.169 380.897C255.074 394.813 257.888 408.938 262.312 422.469C263.05 424.729 263.834 427.024 264.926 429.142C265.647 430.54 266.596 432.019 268.293 432.188V428.925C248.013 427.589 227.634 428.402 207.52 431.314C201.805 432.142 196.116 433.147 190.46 434.313C189.233 434.566 188.916 436.215 189.74 437.04C204.67 451.99 219.886 467.151 238.13 478.075C242.67 480.794 247.382 483.218 252.257 485.282C253.961 486.003 257.055 486.655 258.031 488.408C258.698 489.604 257.857 490.966 257.22 491.987C256.392 493.313 255.489 494.596 254.616 495.893C247.904 505.873 241.035 515.748 234.012 525.512C225.974 536.689 217.736 547.723 209.301 558.604C208.288 559.911 209.208 561.611 210.889 561.331C235.043 557.305 258.776 550.854 281.632 542.063C288.026 539.603 294.349 536.959 300.598 534.152L298.201 533.176C304.03 554.986 309.707 576.836 315.225 598.727C316.781 604.901 318.325 611.078 319.857 617.259C320.18 618.561 322.217 618.923 322.839 617.649C332.13 598.628 339.481 578.669 344.669 558.144C346.15 552.282 347.451 546.376 348.584 540.438L346.187 541.413C364.896 554.358 383.606 567.302 402.315 580.247C406.786 583.341 411.902 588.115 417.775 586.872C418.661 586.685 419.107 585.682 418.915 584.865C414.585 566.48 411.994 547.717 407.158 529.447C405.817 524.38 404.293 519.363 402.505 514.435L401.366 516.442C421.895 507.817 444.67 509.465 466.136 504.988C472.167 503.729 478.049 501.936 483.681 499.425C484.594 499.018 484.765 497.489 484.011 496.862C468.013 483.572 450.559 472.068 431.986 462.7C426.718 460.043 421.362 457.562 415.933 455.248L416.519 457.481C428.197 439.189 439.824 420.866 451.4 402.509C454.707 397.265 458.01 392.017 461.309 386.768C462.111 385.492 460.792 384.091 459.467 384.371C435.86 389.343 412.666 396.229 390.183 404.979C383.921 407.417 377.716 410 371.567 412.712L374.023 414.121C372.398 389.336 370.772 364.551 369.147 339.766C369.01 337.681 365.746 337.666 365.884 339.766Z" fill="black"/>
<path d="M305.439 435.595C294.953 444.728 289.332 460.083 290.247 473.868C291.132 487.219 297.688 500.1 307.961 508.673C320.611 519.228 343.902 526.079 358.781 517.178C374.943 507.509 385.432 488.413 384.173 469.538C382.81 449.109 367.413 430.2 347.521 425.352C332.946 421.8 316.751 425.742 305.439 435.595Z" fill="white"/>
<path d="M288.984 362.5C296.662 362.68 304.105 365.049 310.509 369.281C312.266 370.443 313.903 367.618 312.156 366.463C305.286 361.923 297.212 359.429 288.984 359.236C286.883 359.187 286.884 362.45 288.984 362.5Z" fill="black"/>
<path d="M578.319 270.34C587.599 289.817 596.818 309.323 605.974 328.858C615.094 348.319 624.153 367.808 633.149 387.327C638.235 398.362 643.301 409.407 648.348 420.461C649.219 422.369 652.032 420.712 651.166 418.814C642.205 399.188 633.183 379.59 624.097 360.022C615.047 340.529 605.934 321.065 596.758 301.63C591.571 290.642 586.363 279.663 581.136 268.693C580.234 266.798 577.419 268.452 578.319 270.34Z" fill="black"/>
<path d="M591.387 622.145C601.254 608.374 610.756 594.342 619.869 580.06C628.982 565.779 637.709 551.251 646.038 536.499C650.743 528.167 655.318 519.762 659.768 511.291C660.744 509.433 657.928 507.782 656.95 509.644C649.071 524.642 640.795 539.43 632.121 553.982C623.448 568.535 614.381 582.853 604.936 596.916C599.601 604.86 594.143 612.72 588.569 620.498C587.344 622.208 590.173 623.84 591.387 622.145Z" fill="black"/>
<path d="M518.43 723.815C523.939 725.454 528.911 729.061 533.01 733.002C537.22 737.049 541.154 742.11 542.394 747.939C542.899 750.312 542.804 752.839 541.856 755.094C540.669 757.919 538.283 760.043 535.707 761.591C529.051 765.591 520.654 766.075 513.087 766.336C509.094 766.474 505.098 766.458 501.103 766.518C496.472 766.587 491.845 766.862 487.218 767.049C476.336 767.489 465.449 767.822 454.56 768.052C433.203 768.502 411.788 768.567 390.497 766.598C385.186 766.106 379.887 765.49 374.61 764.712C370.199 764.06 365.777 763.301 361.532 761.904C353.919 759.398 346.925 754.156 345.686 745.756C345.15 742.124 346.042 738.379 348.649 735.715C351.685 732.614 356.218 731.252 360.406 730.65C362.729 730.317 365.163 730.253 367.483 730.635C369.455 730.96 371.722 731.513 373.289 732.823C374.145 733.537 375.701 735.237 375.035 736.482C374.231 737.984 372.397 736.38 371.738 735.615C370.366 734.02 369.99 731.929 369.837 729.887C369.662 727.541 369.863 725.185 370.362 722.888C371.349 718.337 373.308 714.059 375.707 710.086C379.933 703.089 385.765 697.054 392.581 692.545C407.551 682.641 426.681 680.844 443.351 687.432C450.997 690.454 458.769 695.414 462.739 702.851C464.606 706.349 465.507 710.489 464.62 714.408C464.184 716.337 463.363 718.199 462.012 719.665C461.66 720.047 460.901 721.05 460.368 720.707C459.788 720.333 459.935 718.846 459.989 718.304C460.411 714.102 463.705 710.754 467.288 708.896C471.232 706.85 475.93 706.1 480.327 705.855C484.216 705.639 488.353 705.899 491.935 707.565C495.764 709.347 498.221 712.6 499.427 716.6C500.045 718.65 500.397 720.771 500.617 722.898C500.709 723.785 500.891 724.722 500.66 725.599C500.575 725.922 500.375 726.19 500.281 726.496C500.28 726.499 500.105 726.759 500.092 726.737C499.943 726.48 501.11 727.086 500.434 726.603L501.02 728.835C503.953 722.4 512.517 722.137 518.43 723.815C520.454 724.389 521.318 721.241 519.297 720.668C512.057 718.613 501.749 719.406 498.202 727.188C497.809 728.05 498.008 728.863 498.787 729.421C500.618 730.73 502.557 729.348 503.378 727.605C504.389 725.457 503.943 723.12 503.634 720.858C502.975 716.048 501.499 711.117 497.878 707.679C491.085 701.229 479.908 701.769 471.464 703.907C466.556 705.15 461.923 707.613 459.03 711.886C457.047 714.814 454.783 721.583 459.05 723.741C461.347 724.903 463.558 722.975 464.913 721.276C466.348 719.477 467.327 717.344 467.806 715.094C468.778 710.522 467.896 705.839 465.814 701.699C461.454 693.031 452.419 687.416 443.631 684.057C434.051 680.395 423.531 679.38 413.411 680.959C394.697 683.881 377.731 696.735 369.942 714.029C367.715 718.973 366.169 724.417 366.573 729.887C366.875 733.963 368.583 739.576 373.376 740.284C375.41 740.584 377.409 739.427 378.143 737.49C378.877 735.556 378.077 733.466 376.882 731.907C373.904 728.023 368.254 727.043 363.637 727.131C354.3 727.308 343.387 731.696 342.35 742.175C341.441 751.356 347.909 759.312 355.787 763.096C360.331 765.279 365.252 766.46 370.2 767.302C375.953 768.28 381.762 768.987 387.567 769.577C399.452 770.784 411.396 771.33 423.339 771.507C447.617 771.865 471.938 771.027 496.189 769.926C505.267 769.514 514.382 770.019 523.413 768.776C531.029 767.728 539.805 765.12 543.989 758.068C547.453 752.227 545.796 745.255 542.562 739.719C538.984 733.593 533.57 728.415 527.619 724.611C525.034 722.958 522.245 721.545 519.297 720.668C517.28 720.068 516.419 723.216 518.43 723.815Z" fill="black"/>
<path d="M679.804 683.996C675.423 682.307 668.247 677.719 672.274 672.259C674.118 669.758 677.308 668.464 680.171 667.569C683.471 666.537 687.14 665.747 690.617 666.005C692.831 666.17 696.475 667.085 696.565 669.844L697.763 668.27C695.22 668.791 693.535 665.891 692.854 663.865C691.986 661.281 692.077 658.378 692.424 655.703C693.108 650.441 695.36 645.455 698.529 641.229C704.86 632.786 715.359 627.04 726.046 627.685C731.462 628.011 737.048 630.083 740.953 633.923C745.248 638.145 747.529 644.082 748.341 649.966C748.744 652.885 748.914 656.064 748.378 658.975C747.93 661.412 746.661 664.475 743.703 664.233C742.904 664.167 741.849 663.843 741.481 663.045C740.942 661.876 742.021 660.363 742.799 659.55C744.396 657.884 746.742 657.195 748.979 656.949C751.594 656.661 754.262 656.855 756.864 657.184C759.404 657.505 762.254 657.753 764.589 658.847C767.31 660.122 769.517 662.607 769.192 665.776C768.934 668.293 766.915 670.184 764.346 669.47C763.324 669.185 762.488 668.542 762.19 667.501L761.051 669.508C768.858 668.101 779.705 666.412 784.402 674.632C785.94 677.323 786.498 680.902 784.423 683.478C781.757 686.788 776.561 687.259 772.681 687.97C752.443 691.68 731.707 692.466 711.225 690.579C700.56 689.597 689.863 687.77 679.804 683.996C677.836 683.257 676.986 686.41 678.937 687.142C688.646 690.785 698.951 692.595 709.236 693.649C720.017 694.754 730.906 695.087 741.734 694.655C753.05 694.204 764.339 692.897 775.46 690.757C779.859 689.911 784.652 688.822 787.391 684.934C789.646 681.732 789.36 677.55 787.802 674.127C785.867 669.875 782.061 666.957 777.585 665.796C771.867 664.313 765.884 665.334 760.183 666.361C759.32 666.517 758.819 667.581 759.044 668.368C759.973 671.622 763.413 673.285 766.63 672.784C770.26 672.22 772.43 668.764 772.482 665.268C772.54 661.318 769.995 657.959 766.577 656.197C763.61 654.668 760.134 654.329 756.864 653.92C751.024 653.19 743.471 653.021 739.604 658.322C737.461 661.259 737.585 665.32 741.212 666.916C744.437 668.335 747.894 667.073 749.833 664.246C751.958 661.148 752.045 656.893 751.891 653.276C751.733 649.564 751.084 645.835 749.84 642.329C747.393 635.438 742.757 629.72 735.962 626.79C723.417 621.38 709.053 625.759 699.607 635.078C694.936 639.686 691.369 645.555 689.823 651.958C688.388 657.898 687.927 666.86 693.882 670.625C695.333 671.542 696.967 671.757 698.631 671.417C699.307 671.279 699.851 670.522 699.829 669.844C699.709 666.207 696.715 664.023 693.435 663.184C689.427 662.158 684.986 662.901 681.054 663.922C677.219 664.917 673.073 666.456 670.355 669.482C667.782 672.347 667.097 676.294 668.965 679.73C670.991 683.458 675.126 685.674 678.937 687.142C680.898 687.898 681.747 684.744 679.804 683.996Z" fill="black"/>
<path d="M669.7 298.045C663.273 296.881 654.593 294.964 652.207 287.905C649.818 280.837 654.411 273.525 661.335 271.535C664.745 270.554 668.606 270.656 671.899 272.039C673.362 272.653 675.123 273.734 675.53 275.393C675.774 276.388 675.278 278.038 674.14 278.305C672.753 278.631 672.106 276.635 671.976 275.619C671.767 273.991 672.19 272.211 672.828 270.721C674.251 267.396 677.06 264.747 679.987 262.728C683.161 260.538 686.706 258.785 690.487 257.953C693.838 257.215 698.132 257.253 700.757 259.82C700.475 259.544 701.535 259.799 700.675 259.72C700.573 259.711 700.396 259.765 700.291 259.771C700.013 259.788 699.721 259.725 699.463 259.619C698.716 259.312 698.118 258.624 697.683 257.968C696.696 256.479 696.251 254.693 696.001 252.943C695.48 249.312 696.018 245.51 697.424 242.13C700.339 235.119 707.211 230.416 714.765 229.974C722.947 229.495 729.746 234.306 735.291 239.83C740.3 244.821 745.746 250.311 747.726 257.303C748.658 260.595 749.088 264.886 747.808 268.148C747.231 269.62 745.763 270.329 744.485 269.074C743.162 267.775 743.301 265.508 743.916 263.912C746.58 256.996 756.085 257.286 762.086 257.96C765.38 258.329 768.652 258.997 771.871 259.784C776.04 260.802 780.003 262.399 783.09 265.466C787.097 269.446 791.787 279.413 784.788 282.937C783.039 283.817 780.963 283.893 779.161 283.306C778.466 283.079 777.779 282.694 777.321 282.144C777.076 281.849 776.92 281.331 776.979 280.993C777.502 277.969 781.276 277.267 783.89 277.494C787.374 277.796 790.769 279.262 793.523 281.394C796.35 283.582 798.728 286.628 799.888 290.031C800.483 291.775 800.867 293.834 800.016 295.561C799.14 297.339 797.16 298.3 795.459 299.118C787.717 302.84 778.883 303.834 770.388 303.839C765.775 303.842 761.163 303.563 756.55 303.485C751.668 303.402 746.784 303.391 741.901 303.372C722.47 303.3 703.043 302.69 683.752 300.209C679.051 299.604 674.366 298.879 669.7 298.045C667.646 297.679 666.765 300.823 668.832 301.192C691.72 305.279 714.957 306.495 738.172 306.619C744.05 306.651 749.929 306.645 755.807 306.736C761.312 306.821 766.823 307.194 772.329 307.082C777.458 306.978 782.621 306.469 787.617 305.274C790.126 304.674 792.584 303.887 794.964 302.891C797.142 301.98 799.385 300.977 801.146 299.366C804.952 295.884 803.952 290.488 801.841 286.373C799.838 282.467 796.592 279.162 792.78 277C789.14 274.935 784.565 273.629 780.372 274.368C777.162 274.934 773.625 277.747 773.71 281.305C773.771 283.894 775.927 285.642 778.201 286.421C780.791 287.307 783.788 287.05 786.233 285.855C789.576 284.221 791.418 280.749 791.573 277.108C791.778 272.299 789.345 267.487 786.19 263.99C782.795 260.226 778.252 258.057 773.405 256.804C769.402 255.77 765.293 254.993 761.176 254.601C757.028 254.206 752.559 254.192 748.593 255.639C744.667 257.072 741.174 260.194 740.386 264.458C739.962 266.755 740.339 269.295 741.918 271.097C743.413 272.804 745.957 273.531 748.055 272.549C752.029 270.691 752.02 264.452 751.666 260.775C750.804 251.81 744.894 244.982 738.854 238.796C732.272 232.055 724.148 225.912 714.199 226.751C704.87 227.538 696.85 233.585 693.82 242.483C692.387 246.691 692.155 251.347 693.223 255.666C694.127 259.323 697.35 264.446 701.866 262.749C704.267 261.847 704.71 259.14 702.927 257.379C701.362 255.832 699.022 254.89 696.882 254.529C692.269 253.75 687.623 255.027 683.456 256.973C679.445 258.847 675.525 261.497 672.683 264.925C669.998 268.163 667.994 272.518 668.888 276.807C669.292 278.746 670.484 280.655 672.418 281.343C674.268 282.001 676.216 281.292 677.442 279.82C680.502 276.147 678.066 271.573 674.344 269.601C666.561 265.478 655.6 267.874 650.831 275.419C648.522 279.073 647.717 283.736 648.807 287.931C649.897 292.122 652.995 295.402 656.735 297.432C660.475 299.463 664.677 300.439 668.832 301.192C670.886 301.564 671.767 298.42 669.7 298.045Z" fill="black"/>
<path d="M350.797 249.343C352.451 253.023 352.308 256.874 350.034 260.241C347.852 263.471 344.356 265.723 340.94 267.458C337.086 269.417 332.48 268.892 328.295 268.924C322.992 268.965 317.679 269.687 312.376 269.909C301.14 270.379 289.872 270.113 278.671 269.113C275.842 268.86 273.015 268.569 270.197 268.214C267.949 267.93 265.639 267.562 263.532 266.692C259.645 265.087 257.08 261.172 257.702 256.911C258.388 252.203 262.905 248.544 266.736 246.264C269.034 244.896 276.026 241.675 276.621 246.52C276.767 247.705 276.191 248.856 274.838 248.363C272.905 247.659 272.039 245.011 271.903 243.168C271.588 238.872 273.926 234.674 276.719 231.583C287.281 219.896 308.464 217.737 319.74 229.676C322.87 232.99 324.714 237.716 323.322 242.231C322.826 243.843 321.42 246.573 319.34 246.267C316.802 245.895 319.007 243.573 320.078 242.925C322.189 241.649 324.846 241.001 327.232 240.462C329.761 239.891 332.344 239.617 334.937 239.733C339.344 239.931 343.781 241.45 347.101 244.417C348.666 245.815 349.891 247.451 350.797 249.343C351.703 251.236 354.518 249.583 353.615 247.696C351.326 242.914 346.925 239.521 341.991 237.776C336.337 235.777 330.056 236.218 324.365 237.824C321.674 238.584 318.686 239.469 316.632 241.473C314.855 243.206 314.132 245.976 315.945 247.977C317.693 249.906 320.661 249.935 322.741 248.552C325.041 247.021 326.38 244.21 326.832 241.555C328.769 230.158 317.727 221.829 307.849 219.435C298.52 217.174 288.176 218.95 280.196 224.315C276.13 227.048 272.452 230.737 270.373 235.225C268.258 239.792 267.485 246.162 271.521 249.993C273.311 251.693 276.159 252.491 278.223 250.779C279.786 249.483 280.147 247.299 279.717 245.396C279.209 243.144 277.484 241.507 275.267 240.946C272.584 240.267 269.798 241.084 267.367 242.225C262.306 244.602 257.003 248.816 255.039 254.219C253.269 259.089 255.079 264.816 259.17 267.924C263.868 271.494 270.596 271.589 276.222 272.146C282.995 272.816 289.794 273.217 296.599 273.349C303.343 273.479 310.093 273.345 316.827 272.948C320.093 272.755 323.356 272.361 326.624 272.224C329.336 272.111 332.053 272.273 334.766 272.135C337.306 272.005 339.807 271.635 342.112 270.513C344.305 269.447 346.386 268.164 348.306 266.662C352.003 263.768 354.961 259.778 355.215 254.947C355.348 252.415 354.643 249.982 353.615 247.696C352.755 245.784 349.942 247.441 350.797 249.343Z" fill="black"/>
<path d="M771.116 369.311C769.798 368.933 768.975 370.719 768.858 372.085C768.252 379.15 770.353 386.363 768.87 393.297C767.035 401.876 759.716 408.637 751.363 411.318C743.009 413.998 733.827 413.041 725.504 410.268C721.342 408.881 717.291 407.03 713.815 404.353C710.77 402.009 708.018 398.425 708.775 394.658C709.498 391.063 713.296 388.754 716.956 388.514C720.616 388.274 724.172 389.623 727.591 390.95C731.113 392.317 734.635 393.683 738.157 395.05C734.315 390.687 732.574 384.552 733.551 378.821C734.528 373.09 738.204 367.878 743.275 365.035C745.962 363.528 748.97 362.676 752.001 362.123C755.701 361.449 759.492 361.205 763.232 361.596C765.587 361.842 767.941 362.347 770.067 363.389C773.507 365.076 776.136 368.051 778.365 371.167C778.969 372.011 779.654 372.941 780.674 373.132C781.148 373.221 781.664 373.139 782.095 373.356C782.925 373.773 782.913 374.965 782.636 375.851C782.224 377.176 781.491 378.4 780.518 379.39C780.282 379.63 780.002 379.869 779.666 379.886C779.227 379.909 778.873 379.554 778.568 379.237C775.997 376.567 772.556 374.748 768.901 374.128" fill="black"/>
<path d="M771.55 367.737C766.734 366.883 767.037 373.725 767.15 376.71C767.331 381.471 768.156 386.262 767.603 391.027C766.703 398.786 761.123 405.06 754.279 408.402C746.113 412.391 736.398 411.804 727.89 409.306C723.518 408.022 719.247 406.251 715.519 403.596C712.723 401.604 709.067 397.905 710.63 394.116C712.423 389.768 718.148 389.716 721.93 390.718C724.504 391.4 726.976 392.453 729.454 393.415C732.211 394.484 734.967 395.554 737.723 396.623C739.38 397.266 740.263 395.002 739.311 393.896C735.553 389.536 734.011 383.369 735.439 377.773C736.846 372.263 740.845 367.664 746.084 365.469C749.113 364.2 752.469 363.549 755.726 363.232C759.08 362.906 762.571 362.907 765.87 363.664C768.984 364.379 771.575 365.917 773.807 368.187C774.77 369.166 775.654 370.223 776.473 371.325C777.311 372.454 778.071 373.729 779.37 374.382C779.649 374.522 779.937 374.633 780.24 374.705C780.505 374.744 780.77 374.777 781.036 374.806C781.47 374.883 781.518 374.851 781.18 374.71C781.274 375.303 780.847 376.067 780.584 376.561C780.455 376.803 780.311 377.048 780.156 377.275C780.008 377.51 779.839 377.729 779.649 377.932C779.184 378.261 779.288 378.391 779.96 378.322C780.018 378.249 778.354 376.81 778.265 376.736C775.685 374.607 772.63 373.153 769.335 372.555C767.281 372.182 766.401 375.326 768.467 375.702C771.961 376.336 774.873 377.941 777.414 380.391C778.739 381.669 780.29 381.871 781.672 380.544C782.932 379.333 783.974 377.538 784.32 375.821C784.629 374.287 784.25 372.58 782.724 371.865C782.098 371.571 781.341 371.735 780.755 371.427C780.075 371.069 779.61 370.106 779.167 369.513C777.043 366.673 774.591 363.976 771.436 362.264C768.016 360.409 764.029 359.847 760.185 359.783C756.154 359.717 752.014 360.242 748.13 361.332C741.322 363.242 735.797 367.779 733.123 374.39C730.15 381.742 731.882 390.261 737.003 396.204L738.591 393.477C733.594 391.538 728.607 389.267 723.461 387.759C719.256 386.526 714.507 386.332 710.802 389.021C707.256 391.596 706.123 395.845 707.936 399.847C709.797 403.955 713.925 406.787 717.796 408.806C733.557 417.026 757.187 417.754 767.576 400.801C770.25 396.437 771.16 391.51 771.027 386.44C770.951 383.499 770.612 380.574 770.457 377.637C770.383 376.25 770.348 374.858 770.404 373.47C770.429 372.851 770.42 372.206 770.602 371.609C770.738 371.164 771.123 370.963 770.682 370.884C772.736 371.249 773.618 368.104 771.55 367.737Z" fill="black"/>
<path d="M768.604 391.896C772.939 391.098 777.3 390.464 781.685 390.02C782.854 389.902 784.024 389.796 785.195 389.702C785.673 389.664 787.108 389.308 787.539 389.625C787.347 389.484 787.586 390.042 787.618 390.252C787.703 390.809 787.73 391.384 787.748 391.946C787.783 393.003 787.743 394.073 787.585 395.119C787.481 395.81 787.449 396.428 786.783 396.74C785.962 397.125 784.878 397.257 783.994 397.436C781.991 397.841 780.201 397.746 778.386 396.768C776.641 395.827 775.027 394.873 773.026 394.603C770.942 394.322 768.849 394.602 766.769 394.795C764.696 394.987 764.676 398.252 766.769 398.058C768.677 397.882 770.678 397.551 772.591 397.816C774.398 398.067 775.804 399.162 777.408 399.93C779.191 400.783 781.054 401.092 783.021 400.872C784.766 400.677 786.728 400.354 788.336 399.615C790.011 398.846 790.554 397.26 790.795 395.553C791.083 393.511 791.109 391.435 790.767 389.397C790.049 385.112 784.979 386.428 781.904 386.735C777.157 387.209 772.429 387.885 767.736 388.749C765.674 389.128 766.547 392.274 768.604 391.896Z" fill="black"/>
<path d="M777.75 406.764C777.707 407.397 777.817 408.071 778.056 408.659C778.348 409.379 778.732 410.021 779.287 410.574C780.271 411.554 781.696 412.202 783.102 412.102C783.538 412.071 783.938 411.941 784.255 411.624C784.538 411.341 784.751 410.877 784.733 410.47C784.714 410.048 784.576 409.611 784.255 409.317C783.949 409.036 783.531 408.808 783.102 408.839C782.894 408.854 782.688 408.848 782.481 408.823L782.915 408.882C782.624 408.842 782.344 408.765 782.073 408.654L782.463 408.818C782.159 408.689 781.877 408.522 781.616 408.321L781.946 408.577C781.686 408.371 781.455 408.137 781.252 407.875L781.507 408.206C781.319 407.956 781.162 407.689 781.039 407.402L781.203 407.792C781.091 407.521 781.013 407.241 780.972 406.951L781.031 407.384C781.005 407.178 780.999 406.972 781.013 406.764C781.04 406.364 780.812 405.887 780.535 405.61C780.252 405.327 779.788 405.114 779.381 405.132C778.959 405.151 778.522 405.29 778.227 405.61C777.923 405.941 777.78 406.313 777.75 406.764Z" fill="black"/>
<path d="M777.819 407.664C778.416 407.237 779.057 406.878 779.733 406.591L779.343 406.755C779.851 406.543 780.374 406.372 780.91 406.245C781.3 406.152 781.685 405.837 781.885 405.495C782.09 405.145 782.176 404.63 782.049 404.238C781.769 403.372 780.933 402.886 780.042 403.098C778.666 403.425 777.323 404.024 776.172 404.847C775.818 405.1 775.541 405.389 775.422 405.822C775.314 406.212 775.363 406.733 775.586 407.079C775.811 407.428 776.145 407.734 776.561 407.829C776.967 407.921 777.466 407.916 777.819 407.664Z" fill="black"/>
<path d="M772.587 442.506C777.881 440.428 783.558 440.989 789.093 441.466C795.076 441.981 800.941 441.951 806.875 440.935C808.941 440.581 808.065 437.436 806.008 437.788C800.059 438.807 794.176 438.639 788.19 438.125C782.676 437.651 776.978 437.294 771.719 439.359C769.787 440.118 770.628 443.275 772.587 442.506Z" fill="black"/>
<mask id="path-55-outside-1_15_2113" maskUnits="userSpaceOnUse" x="269" y="439" width="135" height="57" fill="black">
<rect fill="white" x="269" y="439" width="135" height="57"/>
<path d="M301.712 455.968C303.429 463.696 304.288 470.304 304.288 475.792C304.288 478.891 303.877 481.597 303.056 483.912C302.235 486.227 301.189 487.888 299.92 488.896C298.464 490.016 296.373 490.931 293.648 491.64C290.923 492.387 288.179 492.76 285.416 492.76C280.637 492.76 277.016 491.603 274.552 489.288C272.088 486.973 270.856 483.613 270.856 479.208C270.856 476.931 271.211 474.317 271.92 471.368C272.629 468.381 273.824 464.648 275.504 460.168L282.504 462.352C280.339 468.251 279.256 472.731 279.256 475.792C279.256 477.659 279.853 479.115 281.048 480.16C282.28 481.168 284.147 481.672 286.648 481.672C288.365 481.672 290.083 481.485 291.8 481.112C293.555 480.739 295.029 480.272 296.224 479.712C296.299 479.077 296.299 478.368 296.224 477.584C296.187 475.755 295.832 472.899 295.16 469.016C294.488 465.133 293.779 461.493 293.032 458.096L301.712 455.968ZM285.976 456.64L280.768 451.432L285.976 446.224L291.184 451.432L285.976 456.64ZM310.798 459.328C310.798 455.333 310.723 452.235 310.574 450.032C310.424 447.829 310.126 445.197 309.678 442.136L318.078 440.68C318.526 443.293 318.824 445.795 318.974 448.184C319.123 450.573 319.198 454.083 319.198 458.712V481H310.798V459.328ZM347.946 481C347.237 483.875 346.042 486.301 344.362 488.28C342.682 490.259 340.89 491.733 338.986 492.704C337.119 493.675 335.477 494.16 334.058 494.16C332.863 494.16 331.314 493.843 329.41 493.208C327.506 492.611 325.434 491.808 323.194 490.8L325.098 484.696C326.181 484.92 327.357 485.107 328.626 485.256C329.895 485.405 330.885 485.48 331.594 485.48C333.423 485.48 335.234 485.032 337.026 484.136C338.855 483.24 340.199 482.157 341.058 480.888L341.114 480.328C338.501 480.776 336.205 481 334.226 481C331.314 481 329.111 480.235 327.618 478.704C326.162 477.136 325.434 474.989 325.434 472.264C325.434 469.315 325.938 466.645 326.946 464.256C327.991 461.867 329.373 459.981 331.09 458.6C332.807 457.219 334.618 456.528 336.522 456.528C339.509 456.528 342.047 457.704 344.138 460.056C346.229 462.408 347.591 465.693 348.226 469.912H351.138V481H347.946ZM332.77 469.24C332.807 469.987 333.05 470.509 333.498 470.808C333.983 471.069 334.749 471.2 335.794 471.2C337.474 471.2 339.154 471.144 340.834 471.032C340.087 467.299 338.482 465.432 336.018 465.432C335.159 465.432 334.413 465.805 333.778 466.552C333.181 467.261 332.845 468.157 332.77 469.24ZM371.565 455.464C372.312 460.728 372.685 465.376 372.685 469.408C372.685 471.275 372.162 473.16 371.117 475.064C370.109 476.931 368.728 478.349 366.973 479.32C365.853 479.917 364.08 480.347 361.653 480.608C359.226 480.869 355.717 481 351.125 481C350.005 481 349.445 479.245 349.445 475.736C349.445 473.907 349.594 472.488 349.893 471.48C350.192 470.435 350.602 469.912 351.125 469.912C354.821 469.912 357.64 469.856 359.581 469.744C361.522 469.595 362.941 469.333 363.837 468.96C363.65 464.181 363.258 460.243 362.661 457.144L371.565 455.464ZM363.949 494.272L359.637 489.96L355.325 494.272L350.341 489.288L355.325 484.304L359.637 488.616L363.949 484.304L368.933 489.288L363.949 494.272ZM389.796 450.592C393.753 452.533 396.87 455.147 399.148 458.432C401.425 461.717 402.564 465.208 402.564 468.904C402.564 470.285 402.284 471.741 401.724 473.272C401.164 474.765 400.454 476.091 399.596 477.248C398.737 478.368 397.878 479.152 397.02 479.6C394.369 480.907 390.972 481.56 386.828 481.56C384.364 481.56 382.46 481.187 381.116 480.44C379.809 479.693 378.894 478.555 378.372 477.024C377.886 475.493 377.644 473.44 377.644 470.864V465.936H384.028V468.12C384.028 468.979 384.27 469.595 384.756 469.968C385.241 470.304 386.174 470.472 387.556 470.472C390.356 470.472 392.801 470.155 394.892 469.52C394.556 467.728 393.492 465.861 391.7 463.92C389.908 461.941 387.798 460.392 385.372 459.272L389.796 450.592Z"/>
</mask>
<path d="M301.712 455.968C303.429 463.696 304.288 470.304 304.288 475.792C304.288 478.891 303.877 481.597 303.056 483.912C302.235 486.227 301.189 487.888 299.92 488.896C298.464 490.016 296.373 490.931 293.648 491.64C290.923 492.387 288.179 492.76 285.416 492.76C280.637 492.76 277.016 491.603 274.552 489.288C272.088 486.973 270.856 483.613 270.856 479.208C270.856 476.931 271.211 474.317 271.92 471.368C272.629 468.381 273.824 464.648 275.504 460.168L282.504 462.352C280.339 468.251 279.256 472.731 279.256 475.792C279.256 477.659 279.853 479.115 281.048 480.16C282.28 481.168 284.147 481.672 286.648 481.672C288.365 481.672 290.083 481.485 291.8 481.112C293.555 480.739 295.029 480.272 296.224 479.712C296.299 479.077 296.299 478.368 296.224 477.584C296.187 475.755 295.832 472.899 295.16 469.016C294.488 465.133 293.779 461.493 293.032 458.096L301.712 455.968ZM285.976 456.64L280.768 451.432L285.976 446.224L291.184 451.432L285.976 456.64ZM310.798 459.328C310.798 455.333 310.723 452.235 310.574 450.032C310.424 447.829 310.126 445.197 309.678 442.136L318.078 440.68C318.526 443.293 318.824 445.795 318.974 448.184C319.123 450.573 319.198 454.083 319.198 458.712V481H310.798V459.328ZM347.946 481C347.237 483.875 346.042 486.301 344.362 488.28C342.682 490.259 340.89 491.733 338.986 492.704C337.119 493.675 335.477 494.16 334.058 494.16C332.863 494.16 331.314 493.843 329.41 493.208C327.506 492.611 325.434 491.808 323.194 490.8L325.098 484.696C326.181 484.92 327.357 485.107 328.626 485.256C329.895 485.405 330.885 485.48 331.594 485.48C333.423 485.48 335.234 485.032 337.026 484.136C338.855 483.24 340.199 482.157 341.058 480.888L341.114 480.328C338.501 480.776 336.205 481 334.226 481C331.314 481 329.111 480.235 327.618 478.704C326.162 477.136 325.434 474.989 325.434 472.264C325.434 469.315 325.938 466.645 326.946 464.256C327.991 461.867 329.373 459.981 331.09 458.6C332.807 457.219 334.618 456.528 336.522 456.528C339.509 456.528 342.047 457.704 344.138 460.056C346.229 462.408 347.591 465.693 348.226 469.912H351.138V481H347.946ZM332.77 469.24C332.807 469.987 333.05 470.509 333.498 470.808C333.983 471.069 334.749 471.2 335.794 471.2C337.474 471.2 339.154 471.144 340.834 471.032C340.087 467.299 338.482 465.432 336.018 465.432C335.159 465.432 334.413 465.805 333.778 466.552C333.181 467.261 332.845 468.157 332.77 469.24ZM371.565 455.464C372.312 460.728 372.685 465.376 372.685 469.408C372.685 471.275 372.162 473.16 371.117 475.064C370.109 476.931 368.728 478.349 366.973 479.32C365.853 479.917 364.08 480.347 361.653 480.608C359.226 480.869 355.717 481 351.125 481C350.005 481 349.445 479.245 349.445 475.736C349.445 473.907 349.594 472.488 349.893 471.48C350.192 470.435 350.602 469.912 351.125 469.912C354.821 469.912 357.64 469.856 359.581 469.744C361.522 469.595 362.941 469.333 363.837 468.96C363.65 464.181 363.258 460.243 362.661 457.144L371.565 455.464ZM363.949 494.272L359.637 489.96L355.325 494.272L350.341 489.288L355.325 484.304L359.637 488.616L363.949 484.304L368.933 489.288L363.949 494.272ZM389.796 450.592C393.753 452.533 396.87 455.147 399.148 458.432C401.425 461.717 402.564 465.208 402.564 468.904C402.564 470.285 402.284 471.741 401.724 473.272C401.164 474.765 400.454 476.091 399.596 477.248C398.737 478.368 397.878 479.152 397.02 479.6C394.369 480.907 390.972 481.56 386.828 481.56C384.364 481.56 382.46 481.187 381.116 480.44C379.809 479.693 378.894 478.555 378.372 477.024C377.886 475.493 377.644 473.44 377.644 470.864V465.936H384.028V468.12C384.028 468.979 384.27 469.595 384.756 469.968C385.241 470.304 386.174 470.472 387.556 470.472C390.356 470.472 392.801 470.155 394.892 469.52C394.556 467.728 393.492 465.861 391.7 463.92C389.908 461.941 387.798 460.392 385.372 459.272L389.796 450.592Z" fill="#B78437"/>
<path d="M301.712 455.968L302.688 455.751L302.466 454.753L301.474 454.997L301.712 455.968ZM303.056 483.912L303.998 484.246L303.998 484.246L303.056 483.912ZM299.92 488.896L300.53 489.689L300.536 489.684L300.542 489.679L299.92 488.896ZM293.648 491.64L293.396 490.672L293.384 490.676L293.648 491.64ZM274.552 489.288L275.237 488.559L275.237 488.559L274.552 489.288ZM271.92 471.368L272.892 471.602L272.893 471.599L271.92 471.368ZM275.504 460.168L275.802 459.213L274.9 458.932L274.568 459.817L275.504 460.168ZM282.504 462.352L283.443 462.697L283.805 461.71L282.802 461.397L282.504 462.352ZM281.048 480.16L280.389 480.913L280.402 480.923L280.415 480.934L281.048 480.16ZM291.8 481.112L291.592 480.134L291.588 480.135L291.8 481.112ZM296.224 479.712L296.648 480.617L297.152 480.381L297.217 479.829L296.224 479.712ZM296.224 477.584L295.224 477.604L295.225 477.642L295.229 477.679L296.224 477.584ZM295.16 469.016L296.145 468.845L295.16 469.016ZM293.032 458.096L292.794 457.125L291.846 457.357L292.055 458.311L293.032 458.096ZM285.976 456.64L285.269 457.347L285.976 458.054L286.683 457.347L285.976 456.64ZM280.768 451.432L280.061 450.725L279.354 451.432L280.061 452.139L280.768 451.432ZM285.976 446.224L286.683 445.517L285.976 444.81L285.269 445.517L285.976 446.224ZM291.184 451.432L291.891 452.139L292.598 451.432L291.891 450.725L291.184 451.432ZM301.712 455.968L300.736 456.185C302.444 463.87 303.288 470.401 303.288 475.792H304.288H305.288C305.288 470.207 304.415 463.522 302.688 455.751L301.712 455.968ZM304.288 475.792H303.288C303.288 478.805 302.888 481.394 302.114 483.578L303.056 483.912L303.998 484.246C304.866 481.8 305.288 478.976 305.288 475.792H304.288ZM303.056 483.912L302.114 483.578C301.325 485.8 300.363 487.267 299.298 488.113L299.92 488.896L300.542 489.679C302.015 488.509 303.144 486.653 303.998 484.246L303.056 483.912ZM299.92 488.896L299.31 488.103C298.002 489.11 296.054 489.981 293.396 490.672L293.648 491.64L293.9 492.608C296.693 491.881 298.926 490.922 300.53 489.689L299.92 488.896ZM293.648 491.64L293.384 490.676C290.743 491.399 288.087 491.76 285.416 491.76V492.76V493.76C288.27 493.76 291.103 493.374 293.912 492.604L293.648 491.64ZM285.416 492.76V491.76C280.786 491.76 277.451 490.639 275.237 488.559L274.552 489.288L273.867 490.017C276.581 492.566 280.488 493.76 285.416 493.76V492.76ZM274.552 489.288L275.237 488.559C273.03 486.486 271.856 483.425 271.856 479.208H270.856H269.856C269.856 483.801 271.146 487.46 273.867 490.017L274.552 489.288ZM270.856 479.208H271.856C271.856 477.03 272.196 474.498 272.892 471.602L271.92 471.368L270.948 471.134C270.226 474.136 269.856 476.831 269.856 479.208H270.856ZM271.92 471.368L272.893 471.599C273.589 468.669 274.768 464.979 276.44 460.519L275.504 460.168L274.568 459.817C272.88 464.317 271.67 468.094 270.947 471.137L271.92 471.368ZM275.504 460.168L275.206 461.123L282.206 463.307L282.504 462.352L282.802 461.397L275.802 459.213L275.504 460.168ZM282.504 462.352L281.565 462.007C279.393 467.925 278.256 472.545 278.256 475.792H279.256H280.256C280.256 472.917 281.284 468.576 283.443 462.697L282.504 462.352ZM279.256 475.792H278.256C278.256 477.891 278.939 479.643 280.389 480.913L281.048 480.16L281.707 479.407C280.768 478.586 280.256 477.426 280.256 475.792H279.256ZM281.048 480.16L280.415 480.934C281.902 482.151 284.04 482.672 286.648 482.672V481.672V480.672C284.253 480.672 282.658 480.185 281.681 479.386L281.048 480.16ZM286.648 481.672V482.672C288.438 482.672 290.227 482.477 292.012 482.089L291.8 481.112L291.588 480.135C289.938 480.493 288.292 480.672 286.648 480.672V481.672ZM291.8 481.112L292.008 482.09C293.813 481.706 295.365 481.219 296.648 480.617L296.224 479.712L295.8 478.807C294.694 479.325 293.297 479.771 291.592 480.134L291.8 481.112ZM296.224 479.712L297.217 479.829C297.302 479.11 297.299 478.328 297.219 477.489L296.224 477.584L295.229 477.679C295.298 478.408 295.296 479.045 295.231 479.595L296.224 479.712ZM296.224 477.584L297.224 477.564C297.185 475.654 296.818 472.735 296.145 468.845L295.16 469.016L294.175 469.187C294.846 473.063 295.189 475.856 295.224 477.604L296.224 477.584ZM295.16 469.016L296.145 468.845C295.471 464.95 294.759 461.295 294.009 457.881L293.032 458.096L292.055 458.311C292.798 461.692 293.505 465.317 294.175 469.187L295.16 469.016ZM293.032 458.096L293.27 459.067L301.95 456.939L301.712 455.968L301.474 454.997L292.794 457.125L293.032 458.096ZM285.976 456.64L286.683 455.933L281.475 450.725L280.768 451.432L280.061 452.139L285.269 457.347L285.976 456.64ZM280.768 451.432L281.475 452.139L286.683 446.931L285.976 446.224L285.269 445.517L280.061 450.725L280.768 451.432ZM285.976 446.224L285.269 446.931L290.477 452.139L291.184 451.432L291.891 450.725L286.683 445.517L285.976 446.224ZM291.184 451.432L290.477 450.725L285.269 455.933L285.976 456.64L286.683 457.347L291.891 452.139L291.184 451.432ZM310.574 450.032L311.571 449.964L311.571 449.964L310.574 450.032ZM309.678 442.136L309.507 441.151L308.547 441.317L308.688 442.281L309.678 442.136ZM318.078 440.68L319.063 440.511L318.894 439.524L317.907 439.695L318.078 440.68ZM318.974 448.184L319.972 448.122L319.972 448.122L318.974 448.184ZM319.198 481V482H320.198V481H319.198ZM310.798 481H309.798V482H310.798V481ZM310.798 459.328H311.798C311.798 455.326 311.723 452.201 311.571 449.964L310.574 450.032L309.576 450.1C309.723 452.269 309.798 455.341 309.798 459.328H310.798ZM310.574 450.032L311.571 449.964C311.42 447.728 311.117 445.069 310.667 441.991L309.678 442.136L308.688 442.281C309.134 445.326 309.429 447.931 309.576 450.1L310.574 450.032ZM309.678 442.136L309.848 443.121L318.248 441.665L318.078 440.68L317.907 439.695L309.507 441.151L309.678 442.136ZM318.078 440.68L317.092 440.849C317.535 443.431 317.829 445.896 317.976 448.246L318.974 448.184L319.972 448.122C319.82 445.693 319.517 443.156 319.063 440.511L318.078 440.68ZM318.974 448.184L317.976 448.246C318.123 450.604 318.198 454.088 318.198 458.712H319.198H320.198C320.198 454.077 320.123 450.543 319.972 448.122L318.974 448.184ZM319.198 458.712H318.198V481H319.198H320.198V458.712H319.198ZM319.198 481V480H310.798V481V482H319.198V481ZM310.798 481H311.798V459.328H310.798H309.798V481H310.798ZM347.946 481V480H347.163L346.975 480.76L347.946 481ZM344.362 488.28L345.124 488.927L345.124 488.927L344.362 488.28ZM338.986 492.704L338.532 491.813L338.525 491.817L338.986 492.704ZM329.41 493.208L329.726 492.259L329.718 492.257L329.709 492.254L329.41 493.208ZM323.194 490.8L322.239 490.502L321.976 491.348L322.784 491.712L323.194 490.8ZM325.098 484.696L325.301 483.717L324.413 483.533L324.143 484.398L325.098 484.696ZM337.026 484.136L336.586 483.238L336.579 483.242L337.026 484.136ZM341.058 480.888L341.886 481.448L342.028 481.239L342.053 480.988L341.058 480.888ZM341.114 480.328L342.109 480.428L342.24 479.12L340.945 479.342L341.114 480.328ZM327.618 478.704L326.885 479.384L326.894 479.393L326.902 479.402L327.618 478.704ZM326.946 464.256L326.03 463.855L326.025 463.867L326.946 464.256ZM331.09 458.6L330.463 457.821L331.09 458.6ZM348.226 469.912L347.237 470.061L347.365 470.912H348.226V469.912ZM351.138 469.912H352.138V468.912H351.138V469.912ZM351.138 481V482H352.138V481H351.138ZM332.77 469.24L331.772 469.171L331.768 469.231L331.771 469.29L332.77 469.24ZM333.498 470.808L332.943 471.64L332.983 471.666L333.024 471.688L333.498 470.808ZM340.834 471.032L340.901 472.03L342.038 471.954L341.815 470.836L340.834 471.032ZM333.778 466.552L333.016 465.904L333.013 465.908L333.778 466.552ZM347.946 481L346.975 480.76C346.298 483.506 345.166 485.788 343.6 487.633L344.362 488.28L345.124 488.927C346.918 486.815 348.176 484.243 348.917 481.24L347.946 481ZM344.362 488.28L343.6 487.633C341.988 489.532 340.296 490.914 338.532 491.813L338.986 492.704L339.44 493.595C341.484 492.553 343.377 490.986 345.124 488.927L344.362 488.28ZM338.986 492.704L338.525 491.817C336.737 492.746 335.257 493.16 334.058 493.16V494.16V495.16C335.696 495.16 337.502 494.603 339.447 493.591L338.986 492.704ZM334.058 494.16V493.16C333.019 493.16 331.588 492.88 329.726 492.259L329.41 493.208L329.094 494.157C331.04 494.806 332.707 495.16 334.058 495.16V494.16ZM329.41 493.208L329.709 492.254C327.851 491.671 325.816 490.883 323.604 489.888L323.194 490.8L322.784 491.712C325.052 492.733 327.162 493.551 329.111 494.162L329.41 493.208ZM323.194 490.8L324.149 491.098L326.053 484.994L325.098 484.696L324.143 484.398L322.239 490.502L323.194 490.8ZM325.098 484.696L324.896 485.675C326.011 485.906 327.215 486.097 328.509 486.249L328.626 485.256L328.743 484.263C327.498 484.116 326.351 483.934 325.301 483.717L325.098 484.696ZM328.626 485.256L328.509 486.249C329.792 486.4 330.827 486.48 331.594 486.48V485.48V484.48C330.943 484.48 329.999 484.411 328.743 484.263L328.626 485.256ZM331.594 485.48V486.48C333.593 486.48 335.556 485.989 337.473 485.03L337.026 484.136L336.579 483.242C334.912 484.075 333.254 484.48 331.594 484.48V485.48ZM337.026 484.136L337.466 485.034C339.402 484.086 340.903 482.902 341.886 481.448L341.058 480.888L340.23 480.328C339.496 481.413 338.309 482.394 336.586 483.238L337.026 484.136ZM341.058 480.888L342.053 480.988L342.109 480.428L341.114 480.328L340.119 480.228L340.063 480.788L341.058 480.888ZM341.114 480.328L340.945 479.342C338.37 479.784 336.133 480 334.226 480V481V482C336.277 482 338.631 481.768 341.283 481.314L341.114 480.328ZM334.226 481V480C331.483 480 329.579 479.282 328.334 478.006L327.618 478.704L326.902 479.402C328.644 481.188 331.145 482 334.226 482V481ZM327.618 478.704L328.351 478.024C327.11 476.687 326.434 474.809 326.434 472.264H325.434H324.434C324.434 475.17 325.214 477.585 326.885 479.384L327.618 478.704ZM325.434 472.264H326.434C326.434 469.43 326.918 466.895 327.867 464.645L326.946 464.256L326.025 463.867C324.958 466.395 324.434 469.199 324.434 472.264H325.434ZM326.946 464.256L327.862 464.657C328.855 462.388 330.146 460.643 331.717 459.379L331.09 458.6L330.463 457.821C328.599 459.32 327.128 461.345 326.03 463.855L326.946 464.256ZM331.09 458.6L331.717 459.379C333.286 458.117 334.881 457.528 336.522 457.528V456.528V455.528C334.355 455.528 332.329 456.32 330.463 457.821L331.09 458.6ZM336.522 456.528V457.528C339.206 457.528 341.478 458.569 343.391 460.72L344.138 460.056L344.886 459.392C342.617 456.839 339.811 455.528 336.522 455.528V456.528ZM344.138 460.056L343.391 460.72C345.314 462.884 346.621 465.967 347.237 470.061L348.226 469.912L349.215 469.763C348.561 465.419 347.143 461.932 344.886 459.392L344.138 460.056ZM348.226 469.912V470.912H351.138V469.912V468.912H348.226V469.912ZM351.138 469.912H350.138V481H351.138H352.138V469.912H351.138ZM351.138 481V480H347.946V481V482H351.138V481ZM332.77 469.24L331.771 469.29C331.818 470.221 332.139 471.104 332.943 471.64L333.498 470.808L334.053 469.976C333.961 469.915 333.797 469.752 333.769 469.19L332.77 469.24ZM333.498 470.808L333.024 471.688C333.735 472.071 334.707 472.2 335.794 472.2V471.2V470.2C334.791 470.2 334.232 470.068 333.972 469.928L333.498 470.808ZM335.794 471.2V472.2C337.496 472.2 339.199 472.143 340.901 472.03L340.834 471.032L340.768 470.034C339.11 470.145 337.452 470.2 335.794 470.2V471.2ZM340.834 471.032L341.815 470.836C341.424 468.885 340.788 467.296 339.828 466.18C338.835 465.026 337.541 464.432 336.018 464.432V465.432V466.432C336.959 466.432 337.699 466.772 338.312 467.484C338.957 468.235 339.497 469.446 339.854 471.228L340.834 471.032ZM336.018 465.432V464.432C334.823 464.432 333.811 464.969 333.016 465.904L333.778 466.552L334.54 467.2C335.015 466.641 335.496 466.432 336.018 466.432V465.432ZM333.778 466.552L333.013 465.908C332.257 466.806 331.859 467.914 331.772 469.171L332.77 469.24L333.768 469.309C333.83 468.401 334.105 467.717 334.543 467.196L333.778 466.552ZM371.565 455.464L372.555 455.324L372.408 454.287L371.38 454.481L371.565 455.464ZM371.117 475.064L370.24 474.583L370.237 474.589L371.117 475.064ZM366.973 479.32L367.444 480.202L367.45 480.199L367.457 480.195L366.973 479.32ZM361.653 480.608L361.546 479.614L361.546 479.614L361.653 480.608ZM349.893 471.48L350.852 471.764L350.855 471.755L349.893 471.48ZM359.581 469.744L359.639 470.742L359.648 470.742L359.658 470.741L359.581 469.744ZM363.837 468.96L364.222 469.883L364.863 469.616L364.836 468.921L363.837 468.96ZM362.661 457.144L362.476 456.161L361.489 456.347L361.679 457.333L362.661 457.144ZM363.949 494.272L363.242 494.979L363.949 495.686L364.656 494.979L363.949 494.272ZM359.637 489.96L360.344 489.253L359.637 488.546L358.93 489.253L359.637 489.96ZM355.325 494.272L354.618 494.979L355.325 495.686L356.032 494.979L355.325 494.272ZM350.341 489.288L349.634 488.581L348.927 489.288L349.634 489.995L350.341 489.288ZM355.325 484.304L356.032 483.597L355.325 482.89L354.618 483.597L355.325 484.304ZM359.637 488.616L358.93 489.323L359.637 490.03L360.344 489.323L359.637 488.616ZM363.949 484.304L364.656 483.597L363.949 482.89L363.242 483.597L363.949 484.304ZM368.933 489.288L369.64 489.995L370.347 489.288L369.64 488.581L368.933 489.288ZM371.565 455.464L370.575 455.604C371.317 460.836 371.685 465.435 371.685 469.408H372.685H373.685C373.685 465.317 373.306 460.62 372.555 455.324L371.565 455.464ZM372.685 469.408H371.685C371.685 471.081 371.218 472.802 370.24 474.583L371.117 475.064L371.994 475.545C373.107 473.518 373.685 471.469 373.685 469.408H372.685ZM371.117 475.064L370.237 474.589C369.315 476.297 368.066 477.572 366.489 478.445L366.973 479.32L367.457 480.195C369.389 479.126 370.903 477.564 371.997 475.539L371.117 475.064ZM366.973 479.32L366.502 478.438C365.557 478.942 363.941 479.356 361.546 479.614L361.653 480.608L361.76 481.602C364.219 481.337 366.149 480.893 367.444 480.202L366.973 479.32ZM361.653 480.608L361.546 479.614C359.173 479.869 355.707 480 351.125 480V481V482C355.727 482 359.279 481.869 361.76 481.602L361.653 480.608ZM351.125 481V480C351.12 480 351.128 480 351.14 480.005C351.15 480.009 351.14 480.008 351.112 479.979C351.048 479.912 350.933 479.742 350.818 479.38C350.586 478.654 350.445 477.463 350.445 475.736H349.445H348.445C348.445 477.518 348.584 478.96 348.912 479.988C349.226 480.971 349.875 482 351.125 482V481ZM349.445 475.736H350.445C350.445 473.943 350.593 472.636 350.852 471.764L349.893 471.48L348.934 471.196C348.595 472.34 348.445 473.87 348.445 475.736H349.445ZM349.893 471.48L350.855 471.755C350.988 471.287 351.121 471.037 351.211 470.922C351.252 470.87 351.265 470.87 351.243 470.883C351.214 470.899 351.17 470.912 351.125 470.912V469.912V468.912C350.476 468.912 349.977 469.255 349.639 469.686C349.318 470.094 349.097 470.627 348.931 471.205L349.893 471.48ZM351.125 469.912V470.912C354.826 470.912 357.668 470.856 359.639 470.742L359.581 469.744L359.523 468.746C357.611 468.856 354.816 468.912 351.125 468.912V469.912ZM359.581 469.744L359.658 470.741C361.621 470.59 363.172 470.32 364.222 469.883L363.837 468.96L363.452 468.037C362.71 468.346 361.424 468.599 359.504 468.747L359.581 469.744ZM363.837 468.96L364.836 468.921C364.648 464.115 364.253 460.121 363.643 456.955L362.661 457.144L361.679 457.333C362.263 460.364 362.652 464.248 362.838 468.999L363.837 468.96ZM362.661 457.144L362.846 458.127L371.75 456.447L371.565 455.464L371.38 454.481L362.476 456.161L362.661 457.144ZM363.949 494.272L364.656 493.565L360.344 489.253L359.637 489.96L358.93 490.667L363.242 494.979L363.949 494.272ZM359.637 489.96L358.93 489.253L354.618 493.565L355.325 494.272L356.032 494.979L360.344 490.667L359.637 489.96ZM355.325 494.272L356.032 493.565L351.048 488.581L350.341 489.288L349.634 489.995L354.618 494.979L355.325 494.272ZM350.341 489.288L351.048 489.995L356.032 485.011L355.325 484.304L354.618 483.597L349.634 488.581L350.341 489.288ZM355.325 484.304L354.618 485.011L358.93 489.323L359.637 488.616L360.344 487.909L356.032 483.597L355.325 484.304ZM359.637 488.616L360.344 489.323L364.656 485.011L363.949 484.304L363.242 483.597L358.93 487.909L359.637 488.616ZM363.949 484.304L363.242 485.011L368.226 489.995L368.933 489.288L369.64 488.581L364.656 483.597L363.949 484.304ZM368.933 489.288L368.226 488.581L363.242 493.565L363.949 494.272L364.656 494.979L369.64 489.995L368.933 489.288ZM389.796 450.592L390.236 449.694L389.352 449.26L388.905 450.138L389.796 450.592ZM401.724 473.272L402.66 473.623L402.663 473.616L401.724 473.272ZM399.596 477.248L400.389 477.856L400.394 477.85L400.399 477.844L399.596 477.248ZM397.02 479.6L397.462 480.497L397.472 480.492L397.482 480.487L397.02 479.6ZM381.116 480.44L380.619 481.308L380.63 481.314L381.116 480.44ZM378.372 477.024L377.418 477.326L377.422 477.337L377.425 477.347L378.372 477.024ZM377.644 465.936V464.936H376.644V465.936H377.644ZM384.028 465.936H385.028V464.936H384.028V465.936ZM384.756 469.968L384.146 470.761L384.166 470.776L384.186 470.79L384.756 469.968ZM394.892 469.52L395.182 470.477L396.04 470.217L395.874 469.336L394.892 469.52ZM391.7 463.92L390.958 464.591L390.965 464.598L391.7 463.92ZM385.372 459.272L384.481 458.818L384.009 459.744L384.953 460.18L385.372 459.272ZM389.796 450.592L389.355 451.49C393.176 453.364 396.155 455.87 398.326 459.002L399.148 458.432L399.969 457.862C397.585 454.423 394.33 451.703 390.236 449.694L389.796 450.592ZM399.148 458.432L398.326 459.002C400.497 462.134 401.564 465.428 401.564 468.904H402.564H403.564C403.564 464.988 402.353 461.301 399.969 457.862L399.148 458.432ZM402.564 468.904H401.564C401.564 470.149 401.311 471.488 400.785 472.928L401.724 473.272L402.663 473.616C403.256 471.994 403.564 470.422 403.564 468.904H402.564ZM401.724 473.272L400.787 472.921C400.257 474.336 399.59 475.577 398.793 476.652L399.596 477.248L400.399 477.844C401.319 476.604 402.071 475.195 402.66 473.623L401.724 473.272ZM399.596 477.248L398.802 476.64C397.995 477.693 397.241 478.356 396.557 478.713L397.02 479.6L397.482 480.487C398.515 479.948 399.479 479.043 400.389 477.856L399.596 477.248ZM397.02 479.6L396.577 478.703C394.108 479.92 390.876 480.56 386.828 480.56V481.56V482.56C391.067 482.56 394.63 481.893 397.462 480.497L397.02 479.6ZM386.828 481.56V480.56C384.442 480.56 382.733 480.195 381.601 479.566L381.116 480.44L380.63 481.314C382.186 482.179 384.286 482.56 386.828 482.56V481.56ZM381.116 480.44L381.612 479.572C380.533 478.955 379.768 478.02 379.318 476.701L378.372 477.024L377.425 477.347C378.02 479.09 379.085 480.431 380.619 481.308L381.116 480.44ZM378.372 477.024L379.325 476.722C378.883 475.33 378.644 473.391 378.644 470.864H377.644H376.644C376.644 473.489 376.889 475.657 377.418 477.326L378.372 477.024ZM377.644 470.864H378.644V465.936H377.644H376.644V470.864H377.644ZM377.644 465.936V466.936H384.028V465.936V464.936H377.644V465.936ZM384.028 465.936H383.028V468.12H384.028H385.028V465.936H384.028ZM384.028 468.12H383.028C383.028 469.157 383.326 470.13 384.146 470.761L384.756 469.968L385.365 469.175C385.215 469.06 385.028 468.801 385.028 468.12H384.028ZM384.756 469.968L384.186 470.79C384.597 471.074 385.111 471.234 385.642 471.33C386.187 471.428 386.83 471.472 387.556 471.472V470.472V469.472C386.9 469.472 386.385 469.432 385.997 469.362C385.595 469.29 385.4 469.198 385.325 469.146L384.756 469.968ZM387.556 470.472V471.472C390.428 471.472 392.975 471.147 395.182 470.477L394.892 469.52L394.601 468.563C392.627 469.162 390.283 469.472 387.556 469.472V470.472ZM394.892 469.52L395.874 469.336C395.492 467.294 394.3 465.263 392.434 463.242L391.7 463.92L390.965 464.598C392.683 466.46 393.62 468.162 393.909 469.704L394.892 469.52ZM391.7 463.92L392.441 463.249C390.558 461.17 388.339 459.54 385.791 458.364L385.372 459.272L384.953 460.18C387.257 461.244 389.257 462.713 390.958 464.591L391.7 463.92ZM385.372 459.272L386.263 459.726L390.687 451.046L389.796 450.592L388.905 450.138L384.481 458.818L385.372 459.272Z" fill="black" mask="url(#path-55-outside-1_15_2113)"/>
</svg>
