<svg width="1000" height="1000" viewBox="0 0 1000 1000" fill="none" xmlns="http://www.w3.org/2000/svg">
<path d="M581.555 227.362C591.865 219.543 606.191 217.352 618.366 221.732C627.813 225.131 636.606 232.272 646.576 231.098C653.256 230.312 658.835 225.894 664.698 222.598C670.561 219.302 678.141 217.133 683.781 220.797C688.135 223.625 689.98 229.468 688.814 234.527C687.648 239.586 683.871 243.789 679.33 246.304C684.89 245.947 689.711 251.697 689.137 257.24C688.563 262.783 683.466 267.241 677.938 267.94C680.699 270.03 681.647 273.947 680.854 277.318C680.06 280.689 677.791 283.55 675.156 285.797C666.291 293.356 653.126 294.587 642.144 290.698C631.162 286.809 622.223 278.429 615.627 268.826C614.901 267.77 614.189 266.673 613.849 265.438" fill="black"/>
<path d="M582.387 228.786C589.543 223.421 598.422 220.764 607.35 221.205C611.784 221.424 616.116 222.479 620.199 224.212C624.529 226.05 628.623 228.392 632.963 230.211C636.999 231.902 641.349 233.156 645.77 232.825C650.481 232.472 654.743 230.451 658.758 228.086C662.696 225.765 666.479 223.078 670.856 221.629C674.874 220.298 679.607 219.814 683.242 222.419C686.796 224.967 688.17 229.937 687.224 234.089C686.145 238.823 682.629 242.544 678.497 244.88C677.102 245.668 677.68 248.023 679.33 247.954C684.126 247.754 688.033 252.585 687.487 257.24C686.903 262.223 682.19 265.688 677.499 266.349C676.319 266.516 675.857 268.378 676.771 269.106C678.901 270.805 679.777 273.5 679.402 276.175C678.999 279.052 677.206 281.569 675.175 283.55C671.104 287.522 665.694 289.856 660.131 290.781C648.584 292.702 637.124 288.175 628.407 280.738C625.879 278.582 623.543 276.205 621.39 273.676C620.274 272.364 619.21 271.012 618.198 269.618C617.157 268.184 615.972 266.708 615.44 264.999C614.81 262.978 611.624 263.841 612.258 265.876C613.255 269.076 615.715 271.893 617.785 274.47C619.908 277.113 622.221 279.609 624.732 281.889C629.634 286.342 635.269 289.976 641.519 292.221C653.401 296.491 668.197 294.965 677.508 285.883C680.21 283.248 682.318 279.891 682.713 276.078C683.068 272.653 681.84 268.955 679.104 266.773L678.376 269.531C684.664 268.644 690.417 263.42 690.815 256.893C691.199 250.61 685.751 244.387 679.329 244.654L680.162 247.728C688.088 243.248 693.414 233.917 689.402 225.009C687.534 220.86 683.708 218.04 679.212 217.41C674.398 216.734 669.533 218.265 665.275 220.421C660.855 222.659 656.891 225.716 652.356 227.742C647.833 229.764 643.135 230.027 638.386 228.666C633.64 227.307 629.31 224.851 624.878 222.735C620.478 220.635 615.985 218.947 611.134 218.273C600.494 216.793 589.343 219.473 580.722 225.937C579.043 227.196 580.686 230.062 582.387 228.786Z" fill="black"/>
<path d="M670.362 767.217C651.681 767.131 632.999 767.068 614.318 767.007C570.372 766.864 526.427 766.745 482.482 766.611C462.716 766.55 442.951 766.487 423.185 766.412C414.954 766.381 406.025 767.278 397.931 766C388.914 764.576 379.225 761.473 371.511 756.479C365.751 752.749 357.937 749.828 353.547 744.449C347.871 737.494 348.217 726.594 353.721 719.502C359.225 712.41 369.093 709.32 377.873 711.188C392.329 714.264 403.649 726.219 418.979 726.575C461.625 727.564 504.379 726.87 547.036 727C588.144 727.125 629.254 727.237 670.362 727.425C684.33 727.49 699.422 728.957 713.223 726.754C726.096 724.699 735.924 720.75 747.163 714.017C754.939 709.36 763.686 704.724 772.972 704.577C781.109 704.448 787.956 711.934 790.447 719.308C796.886 738.362 777.522 752.093 762.313 758.544C733.891 770.599 700.525 767.356 670.362 767.217Z" fill="white"/>
<path d="M670.362 765.568C636.547 765.413 602.732 765.317 568.917 765.216C535.019 765.115 501.12 765.02 467.221 764.914C450.397 764.86 433.517 764.4 416.699 764.871C408.806 765.092 401.087 765.179 393.335 763.45C386.062 761.828 378.971 759.233 372.65 755.25C367.231 751.835 360.87 749.422 356.221 744.913C351.601 740.433 350.142 733.664 351.682 727.507C353.301 721.034 358.188 716.063 364.402 713.787C370.642 711.501 376.98 712.185 383.108 714.449C395.107 718.884 405.361 727.697 418.637 728.213C435.564 728.871 452.558 728.743 469.496 728.763C503.304 728.804 537.111 728.62 570.919 728.722C604.592 728.823 638.277 728.702 671.948 729.088C687.531 729.266 703.148 730.69 718.537 727.445C725.322 726.014 731.883 723.755 738.141 720.774C744.775 717.613 750.829 713.394 757.483 710.281C763.692 707.376 772.207 704.294 778.807 707.617C784.616 710.541 788.529 716.769 789.725 723.036C791.974 734.81 782.981 744.44 773.933 750.464C750.05 766.365 719.535 766.455 691.921 765.938C684.735 765.804 677.55 765.606 670.362 765.568C668.239 765.556 668.236 768.855 670.362 768.867C700.725 769.031 732.882 772.367 761.7 760.572C772.068 756.328 782.71 750.057 789.009 740.51C795.722 730.335 794.281 716.941 785.467 708.409C780.399 703.503 774.371 702.266 767.559 703.481C760.039 704.823 753.151 708.537 746.656 712.399C740.207 716.233 733.541 719.637 726.385 721.951C718.904 724.371 711.118 725.702 703.274 726.117C694.978 726.556 686.668 726.166 678.372 725.928C669.916 725.685 661.452 725.735 652.992 725.7C635.333 725.628 617.673 725.567 600.014 725.511C564.931 725.4 529.851 725.33 494.768 725.433C477.051 725.484 459.333 725.502 441.616 725.306C437.262 725.258 432.908 725.197 428.554 725.12C424.486 725.048 420.321 725.205 416.275 724.742C409.427 723.958 403.178 720.726 397.172 717.553C391.344 714.473 385.433 711.236 378.957 709.741C372.751 708.308 366.192 709.048 360.492 711.911C349.275 717.544 344.052 732.156 350.694 743.244C354.11 748.946 360.283 752.045 365.912 755.126C368.921 756.774 371.76 758.709 374.798 760.3C378.134 762.048 381.645 763.483 385.224 764.652C392.48 767.023 399.985 768.279 407.617 768.336C416.146 768.399 424.68 768.068 433.213 768.099C468.553 768.226 503.893 768.325 539.232 768.428C574.464 768.531 609.695 768.631 644.927 768.762C653.405 768.794 661.884 768.828 670.362 768.867C672.486 768.877 672.488 765.577 670.362 765.568Z" fill="black"/>
<path d="M530.481 466.131C561.817 532.783 578.058 677.016 583.052 733.647C584.335 748.19 591.865 751.764 605.387 753.461C625.381 755.969 645.593 755.077 665.633 753.643C672.907 753.122 680.177 752.814 684.769 746.139C689.207 739.687 685.588 730.883 680.669 725.839C675.445 720.482 668.477 717.15 662.956 712.101C644.662 695.372 644.074 668.434 642.823 645.534C640.3 599.332 632.675 552.798 623.231 507.634C617.262 479.091 610.188 450.201 595.043 425.282" fill="white"/>
<path d="M529.056 466.964C537.103 484.121 542.709 502.412 547.587 520.685C553.336 542.223 557.903 564.07 561.898 585.996C565.954 608.262 569.39 630.642 572.402 653.073C574.97 672.209 577.229 691.387 579.198 710.594C579.95 717.935 580.659 725.28 581.312 732.631C581.721 737.227 582.453 741.979 585.103 745.883C587.454 749.345 590.926 751.563 594.831 752.925C600.222 754.806 606.131 755.287 611.775 755.799C619.658 756.514 627.579 756.75 635.493 756.68C643.52 756.61 651.542 756.225 659.552 755.708C665.608 755.317 672.382 755.503 678.127 753.286C683.627 751.165 687.978 746.418 688.395 740.375C688.795 734.585 685.768 728.738 681.835 724.672C677.112 719.791 670.983 716.654 665.776 712.367C661.092 708.51 657.287 703.719 654.404 698.391C648.692 687.834 646.677 675.671 645.626 663.849C644.405 650.095 644.037 636.279 642.811 622.52C639.997 590.964 635.117 559.616 629.114 528.52C623.536 499.623 617.97 470.105 606.073 443.018C603.268 436.631 600.079 430.419 596.467 424.45C595.369 422.635 592.515 424.292 593.618 426.115C608.475 450.673 615.486 478.824 621.34 506.646C627.805 537.37 633.355 568.317 637.097 599.498C638.95 614.95 640.356 630.456 641.198 645.996C641.831 657.658 642.306 669.407 644.753 680.864C647.171 692.183 651.787 703.2 660.006 711.549C664.662 716.28 670.446 719.491 675.629 723.562C680.316 727.243 684.661 732.276 685.092 738.504C685.532 744.848 680.699 749.375 674.899 750.846C672.179 751.536 669.371 751.727 666.581 751.926C662.851 752.192 659.12 752.448 655.386 752.665C639.802 753.57 624.124 753.857 608.579 752.183C599.888 751.247 589.349 749.944 586.074 740.445C584.738 736.569 584.6 732.435 584.228 728.387C583.9 724.817 583.56 721.249 583.209 717.682C581.421 699.518 579.362 681.38 577.039 663.277C574.258 641.592 571.106 619.952 567.423 598.401C563.667 576.426 559.383 554.523 554.097 532.86C549.441 513.778 544.093 494.744 536.758 476.499C535.24 472.723 533.633 468.983 531.905 465.299C531.004 463.378 528.159 465.051 529.056 466.964Z" fill="black"/>
<path d="M583.052 733.647C584.335 748.19 591.865 751.764 605.387 753.461C625.381 755.969 645.593 755.077 665.632 753.643C672.907 753.122 680.177 752.814 684.769 746.139C689.207 739.687 685.588 730.883 680.669 725.839C675.445 720.482 668.477 717.15 662.955 712.101C659.678 709.104 656.879 705.786 655.055 701.72C653.245 697.687 652.608 692.928 649.405 689.65C644.869 685.009 636.598 685.817 631.818 690.206C628.865 692.917 627.073 696.64 626.203 700.511C625.768 702.445 625.561 704.423 625.528 706.403C625.507 707.719 625.763 710.646 624.7 711.606C624.396 711.881 623.992 712.012 623.597 712.124C620.352 713.042 616.938 713.137 613.565 713.185C604.496 713.314 595.478 713.856 586.515 714.274C580.377 714.56 582.681 729.441 583.052 733.647Z" fill="white"/>
<path d="M581.403 733.647C581.771 737.635 582.56 741.701 584.653 745.177C586.366 748.022 588.907 750.252 591.883 751.705C595.258 753.351 598.952 754.173 602.643 754.734C608.564 755.633 614.561 756.114 620.54 756.405C633.368 757.03 646.221 756.559 659.029 755.742C668.543 755.134 680.569 755.765 686.405 746.653C689.079 742.478 688.835 737.19 687.05 732.728C685.099 727.85 681.659 724.101 677.556 720.912C673.153 717.489 668.254 714.703 664.122 710.934C660.146 707.309 657.166 703.172 655.419 698.064C653.858 693.5 652.178 688.574 647.544 686.276C643.412 684.227 638.506 684.566 634.401 686.503C629.771 688.689 626.716 693.201 625.186 697.964C624.317 700.669 623.907 703.565 623.879 706.403C623.87 707.313 623.936 708.229 623.854 709.138C623.825 709.459 623.845 710.08 623.62 710.333C623.32 710.671 622.239 710.775 621.822 710.865C618.87 711.503 615.828 711.497 612.823 711.547C609.614 711.6 606.406 711.704 603.2 711.834C599.922 711.966 596.646 712.127 593.37 712.29C591.901 712.363 590.431 712.436 588.961 712.507C587.788 712.564 586.503 712.473 585.36 712.791C582.28 713.648 581.28 717.023 580.911 719.835C580.463 723.249 580.705 726.723 581.04 730.137C581.155 731.307 581.297 732.475 581.403 733.647C581.592 735.744 584.894 735.764 584.702 733.647C584.459 730.956 584.114 728.28 584.01 725.577C583.906 722.903 583.735 719.445 585.035 717.088C585.227 716.741 585.572 716.33 585.708 716.224C586.13 715.894 586.489 715.925 587.249 715.889C590.271 715.746 593.293 715.591 596.315 715.444C602.37 715.15 608.424 714.937 614.486 714.82C617.235 714.767 620.004 714.629 622.7 714.046C623.862 713.795 625.186 713.52 626.024 712.605C626.716 711.85 626.957 710.82 627.081 709.834C627.357 707.639 627.113 705.417 627.391 703.213C627.708 700.705 628.402 698.184 629.563 695.933C631.635 691.913 635.162 688.903 639.732 688.28C644.031 687.693 647.903 689.435 650.006 693.268C651.173 695.395 651.799 697.761 652.618 700.032C653.441 702.309 654.478 704.489 655.837 706.498C658.73 710.772 662.591 714.22 666.742 717.236C674.186 722.645 684.4 728.139 685.094 738.528C685.403 743.141 682.857 747.152 678.853 749.35C675.129 751.394 670.689 751.635 666.542 751.929C654.656 752.772 642.753 753.471 630.833 753.386C624.785 753.342 618.737 753.1 612.711 752.583C608.032 752.18 603.286 751.746 598.713 750.623C595.778 749.903 592.789 748.858 590.428 746.907C588.053 744.944 586.567 742.26 585.721 739.327C585.186 737.472 584.879 735.567 584.702 733.647C584.508 731.55 581.207 731.53 581.403 733.647Z" fill="black"/>
<path d="M588.101 739.322C587.049 739.256 585.524 739.009 583.883 738.824C586.419 749.091 593.641 751.987 605.387 753.461C625.381 755.969 645.594 755.077 665.633 753.643C672.907 753.122 680.177 752.814 684.769 746.139C689.207 739.687 685.588 730.883 680.669 725.839C676.92 721.996 672.276 719.192 667.911 716.051C665.932 718.2 664.58 720.988 663.58 723.772C662.631 726.41 661.914 729.131 661.437 731.893C661.068 734.03 660.827 736.242 659.827 738.166C658.258 741.18 655.027 741.914 651.905 742.115C630.856 743.464 609.105 740.635 588.101 739.322Z" fill="black"/>
<path d="M588.101 737.672C586.689 737.566 585.289 737.339 583.883 737.175C582.779 737.045 582.055 738.328 582.292 739.263C583.21 742.878 584.876 746.35 587.683 748.877C590.431 751.352 593.9 752.797 597.447 753.706C602.414 754.981 607.616 755.444 612.711 755.881C618.9 756.413 625.112 756.654 631.323 756.688C643.5 756.754 655.675 756.051 667.812 755.136C672.259 754.801 676.884 754.307 680.818 752.03C684.947 749.64 687.929 745.477 688.37 740.687C688.861 735.354 686.347 730.002 683.015 725.985C679.123 721.294 673.641 718.135 668.744 714.627C668.183 714.225 667.198 714.379 666.745 714.885C662.73 719.371 660.862 725.634 659.846 731.455C659.399 734.021 659.256 737.395 656.937 739.06C654.975 740.47 652.295 740.456 649.99 740.576C636.743 741.268 623.475 740.394 610.271 739.356C602.883 738.776 595.498 738.139 588.101 737.672C585.981 737.539 585.989 740.839 588.101 740.972C601.653 741.826 615.166 743.258 628.734 743.853C635.494 744.149 642.269 744.237 649.031 743.923C651.792 743.794 654.664 743.758 657.239 742.637C659.781 741.53 661.34 739.419 662.136 736.804C662.625 735.197 662.809 733.519 663.11 731.872C663.445 730.033 663.888 728.214 664.434 726.427C665.44 723.135 666.753 719.815 669.078 717.218L667.079 717.476C674.394 722.716 683.933 728.027 685.047 737.985C685.532 742.328 683.527 746.324 679.887 748.726C676.483 750.972 672.33 751.481 668.355 751.795C657.183 752.678 645.966 753.315 634.757 753.386C623.844 753.456 612.661 753.187 601.888 751.285C598.132 750.621 594.287 749.655 591.122 747.432C588.059 745.279 586.375 741.936 585.474 738.386L583.883 740.474C585.289 740.638 586.69 740.865 588.101 740.972C590.219 741.132 590.208 737.832 588.101 737.672Z" fill="black"/>
<path d="M484.164 567.476C482.353 589.203 480.332 611.652 469.89 630.791C460.515 647.973 445.943 663.579 434.173 679.25C424.179 692.557 414.021 705.744 403.653 718.762C394.558 730.181 397.549 737.962 406.176 748.512C418.932 764.111 434.19 777.397 449.697 790.171C455.325 794.808 460.805 799.597 468.733 797.926C476.395 796.311 479.842 787.438 479.755 780.393C479.663 772.911 476.912 765.694 476.392 758.23C474.67 733.5 492.813 713.58 507.692 696.127C523.442 677.652 543.059 658.948 550.721 635.164C554.994 621.902 555.353 607.665 554.121 593.787" fill="white"/>
<path d="M482.515 567.476C481.029 585.282 479.467 603.447 472.961 620.255C466.421 637.153 454.312 651.333 443.074 665.274C430.911 680.363 419.498 696.042 407.501 711.265C402.514 717.594 395.72 724.409 396.524 733.162C397.27 741.29 403.445 747.998 408.549 753.877C420.725 767.901 434.836 780.044 449.133 791.835C452.154 794.327 455.221 796.9 458.852 798.46C462.43 799.997 466.52 800.417 470.273 799.225C476.806 797.15 480.283 790.384 481.159 783.984C482.389 774.992 478.461 766.328 477.993 757.43C477.581 749.606 479.258 741.845 482.355 734.676C488.633 720.141 499.551 708.116 509.756 696.245C520.596 683.636 532.315 671.662 541.458 657.7C545.963 650.821 549.785 643.445 552.312 635.602C555.203 626.629 556.329 617.138 556.386 607.736C556.415 603.079 556.176 598.426 555.77 593.788C555.587 591.689 552.286 591.669 552.471 593.788C553.28 603.039 553.45 612.433 552.119 621.647C550.878 630.24 548.279 638.511 544.33 646.242C536.869 660.85 525.778 673.156 514.964 685.328C509.772 691.171 504.653 697.078 499.625 703.063C494.597 709.047 489.699 715.184 485.516 721.798C481.384 728.331 477.93 735.416 476.099 742.956C475.187 746.714 474.673 750.59 474.632 754.458C474.584 758.93 475.306 763.311 476.212 767.677C477.747 775.077 479.59 783.009 475.875 790.082C474.477 792.745 472.33 795.106 469.396 796.043C465.782 797.198 461.973 796.511 458.695 794.73C455.248 792.857 452.285 790.184 449.278 787.696C445.755 784.782 442.254 781.842 438.796 778.852C431.881 772.871 425.135 766.686 418.768 760.121C415.586 756.84 412.5 753.466 409.541 749.982C406.795 746.75 404.045 743.444 402.018 739.698C400.449 736.796 399.45 733.574 399.847 730.248C400.317 726.313 402.565 722.777 404.972 719.737C411.034 712.078 417.066 704.397 423.016 696.65C428.795 689.128 434.4 681.466 440.278 674.021C451.238 660.14 463.238 646.725 471.627 631.044C479.957 615.472 482.887 597.809 484.65 580.435C485.087 576.12 485.453 571.798 485.814 567.476C485.991 565.361 482.69 565.372 482.515 567.476Z" fill="black"/>
<path d="M403.653 718.762C394.557 730.181 397.549 737.962 406.176 748.512C418.932 764.111 434.19 777.397 449.696 790.171C455.325 794.808 460.805 799.597 468.733 797.926C476.395 796.311 479.842 787.438 479.755 780.393C479.663 772.911 476.912 765.694 476.392 758.23C476.084 753.799 476.343 749.467 477.824 745.263C479.293 741.095 482.111 737.207 482.05 732.625C481.964 726.136 475.415 721.02 468.927 720.904C464.919 720.833 461.054 722.295 457.755 724.5C456.107 725.601 454.593 726.891 453.205 728.303C452.282 729.242 450.45 731.539 449.018 731.502C448.609 731.492 448.225 731.308 447.863 731.117C444.879 729.545 442.339 727.261 439.863 724.971C433.204 718.812 426.297 712.989 419.516 707.114C414.872 703.09 406.283 715.459 403.653 718.762Z" fill="white"/>
<path d="M402.486 717.595C399.398 721.518 396.749 725.956 396.481 731.063C396.253 735.399 397.964 739.55 400.22 743.163C403.171 747.889 406.956 752.14 410.666 756.276C414.481 760.528 418.474 764.617 422.588 768.579C430.823 776.51 439.536 783.923 448.354 791.193C452.018 794.214 455.713 797.438 460.271 799.02C464.565 800.51 469.793 800.23 473.612 797.618C476.95 795.335 479.104 791.752 480.294 787.944C481.731 783.35 481.529 778.625 480.783 773.923C479.866 768.145 478.172 762.507 477.957 756.63C477.855 753.844 478.005 751.047 478.647 748.327C479.268 745.693 480.42 743.32 481.524 740.868C483.538 736.393 484.683 731.645 482.22 727.091C480.133 723.234 476.05 720.455 471.788 719.584C466.614 718.527 461.233 720.195 456.922 723.076C454.898 724.428 453.065 726.036 451.405 727.813C450.87 728.385 450.098 729.486 449.314 729.722C448.472 729.976 447.151 728.811 446.444 728.329C444.094 726.728 442.047 724.732 439.957 722.817C437.693 720.743 435.399 718.701 433.089 716.678C430.848 714.714 428.592 712.767 426.334 710.822C425.239 709.878 424.143 708.936 423.048 707.991C422.07 707.147 421.12 706.158 420.037 705.447C417.274 703.636 414.072 705.351 411.804 707.131C409.092 709.259 406.861 711.968 404.746 714.67C403.984 715.645 403.097 716.824 402.486 717.595C401.181 719.242 403.501 721.592 404.819 719.928C406.544 717.752 408.183 715.514 410.03 713.435C411.805 711.438 414.032 708.807 416.716 708.07C417.15 707.951 417.477 707.933 417.768 708.006C418.356 708.154 418.83 708.697 419.44 709.224C421.628 711.115 423.823 712.999 426.012 714.888C430.29 718.582 434.541 722.306 438.696 726.137C440.632 727.922 442.598 729.692 444.779 731.178C446.596 732.417 448.666 733.819 450.85 732.646C452.618 731.697 453.845 729.932 455.281 728.58C457.092 726.876 459.117 725.424 461.352 724.329C465.47 722.312 470.328 721.819 474.464 724.032C477.963 725.904 480.635 729.339 480.381 733.451C480.236 735.8 479.222 738.028 478.248 740.134C477.212 742.374 476.182 744.609 475.573 747.011C474.242 752.261 474.466 757.771 475.335 763.075C476.793 771.977 480.411 781.639 475.801 790.223C474.035 793.514 471.23 795.951 467.454 796.49C462.945 797.134 458.934 795.187 455.378 792.604C451.307 789.648 447.507 786.253 443.665 783.01C439.529 779.519 435.439 775.973 431.434 772.333C423.543 765.162 415.973 757.615 409.097 749.458C406.027 745.816 402.783 741.975 400.966 737.515C399.471 733.847 399.401 730.031 400.899 726.349C401.843 724.029 403.277 721.888 404.819 719.928C406.119 718.278 403.799 715.927 402.486 717.595Z" fill="black"/>
<path d="M403.398 726.353C402.681 725.58 401.747 724.35 400.686 723.085C395.446 732.271 398.682 739.347 406.176 748.512C418.932 764.111 434.19 777.397 449.697 790.171C455.325 794.808 460.805 799.597 468.733 797.926C476.395 796.311 479.842 787.438 479.755 780.393C479.689 775.025 478.257 769.792 477.259 764.508C474.345 764.7 471.443 765.788 468.799 767.116C466.294 768.373 463.899 769.85 461.649 771.522C459.909 772.816 458.21 774.253 456.159 774.957C452.945 776.06 450.098 774.364 447.698 772.357C431.519 758.825 417.71 741.783 403.398 726.353Z" fill="black"/>
<path d="M404.565 725.187C403.616 724.136 402.757 723.006 401.852 721.919C401.171 721.1 399.744 721.39 399.261 722.253C396.96 726.366 395.852 730.9 396.898 735.568C397.992 740.449 401.045 744.693 404.095 748.543C411.156 757.456 419.224 765.587 427.582 773.277C431.733 777.097 435.982 780.808 440.284 784.456C444.351 787.905 448.407 791.406 452.64 794.649C456.336 797.482 460.511 799.821 465.283 799.912C469.628 799.994 473.746 798.314 476.555 794.964C479.472 791.485 480.949 787.002 481.327 782.521C481.849 776.316 480.003 770.105 478.85 764.069C478.724 763.412 477.933 762.804 477.259 762.858C471.104 763.358 465.34 766.706 460.491 770.342C458.352 771.946 455.884 774.182 452.998 773.524C450.186 772.883 447.883 770.392 445.794 768.557C436.176 760.107 427.508 750.651 418.967 741.134C414.184 735.803 409.433 730.441 404.565 725.187C403.118 723.626 400.79 725.963 402.232 727.52C411.18 737.176 419.726 747.201 428.824 756.719C433.31 761.413 437.93 765.984 442.787 770.295C445.029 772.285 447.33 774.622 450.063 775.932C452.875 777.28 455.72 777.191 458.47 775.729C461.457 774.142 463.979 771.733 466.909 770.018C470.078 768.164 473.548 766.459 477.259 766.158L475.668 764.946C477.3 773.483 480.218 782.846 475.41 790.914C473.523 794.08 470.589 796.212 466.868 796.556C462.485 796.961 458.664 795.013 455.224 792.491C451.277 789.598 447.579 786.31 443.84 783.157C439.877 779.815 435.956 776.423 432.111 772.947C424.428 766.002 417.039 758.709 410.284 750.852C406.778 746.775 402.936 742.464 400.922 737.402C399.073 732.755 399.698 728.23 402.11 723.918L399.519 724.252C400.424 725.34 401.283 726.469 402.232 727.52C403.658 729.098 405.986 726.759 404.565 725.187Z" fill="black"/>
<path d="M593.676 417.875C603.508 440.797 616.04 462.56 630.928 482.571C644.204 500.415 660.611 517.659 682.121 523.313C702.205 528.593 724.378 522.525 740.583 509.539C757.299 496.144 766.893 477.091 771.643 456.658C777.123 433.087 782.838 409.834 787.382 385.981C788.013 382.67 788.682 379.261 790.537 376.447C792.113 374.056 794.43 372.273 796.473 370.268C804.701 362.192 811.432 346.065 803.64 335.665C799.527 330.176 792.619 327.622 785.967 325.945C780.916 324.672 775.732 323.737 770.525 323.899C767.807 323.983 765.056 324.38 762.581 325.507C759.363 326.974 758.461 329.43 756.316 331.788C754.195 329.997 751.322 329.153 748.57 329.561C745.812 329.97 743.264 331.63 741.775 333.987C740.582 335.876 740.075 338.113 739.744 340.322C738.911 345.876 739.064 351.505 739.037 357.103C739.014 361.969 739.483 367.908 737.063 372.249C734.898 376.135 733.477 380.591 731.833 384.721C728.393 393.362 725.107 402.063 721.823 410.764C718.537 419.468 715.255 428.174 711.825 436.823C710.108 441.152 708.354 445.467 706.545 449.758C705.604 451.993 704.647 454.222 703.674 456.442C703.322 457.243 700.84 461.406 701.16 462.07C696.504 452.418 691.838 442.748 686.262 433.597C676.263 417.187 663.121 401.919 659.167 383.114" fill="white"/>
<path d="M592.251 418.707C598.678 433.66 606.229 448.122 614.848 461.928C622.949 474.903 631.839 487.661 642.226 498.925C651.726 509.226 662.946 518.316 676.226 523.188C689.731 528.142 704.667 527.873 718.272 523.428C731.937 518.963 744.026 510.498 753.175 499.439C762.118 488.628 768.184 475.741 771.918 462.269C774.133 454.276 775.807 446.11 777.701 438.036C779.671 429.637 781.625 421.234 783.494 412.811C785.386 404.279 787.19 395.727 788.834 387.144C789.546 383.43 790.157 379.448 792.595 376.411C794.76 373.713 797.641 371.685 799.857 369.019C807.607 359.696 812.932 344.374 804.33 333.89C799.864 328.447 792.789 325.949 786.176 324.297C782.133 323.287 778.003 322.503 773.835 322.287C769.777 322.077 765.48 322.335 761.749 324.083C758.732 325.496 757.268 328.236 755.15 330.622H757.483C753.735 327.586 748.616 326.88 744.351 329.323C739.851 331.902 738.536 336.694 737.931 341.513C737.237 347.046 737.357 352.678 737.389 358.244C737.416 362.863 737.669 367.615 735.425 371.807C732.919 376.489 731.286 381.629 729.341 386.557C727.244 391.87 725.201 397.203 723.175 402.542C719.065 413.376 715.028 424.239 710.774 435.018C708.463 440.876 706.09 446.711 703.602 452.496C702.793 454.376 701.941 456.178 700.994 457.987C700.346 459.224 699.137 461.036 699.569 462.508L702.584 461.237C697.135 449.941 691.599 438.705 684.787 428.153C678.797 418.872 672.21 409.93 667.152 400.081C664.314 394.555 662.061 388.759 660.758 382.676C660.314 380.601 657.133 381.479 657.577 383.553C659.925 394.523 665.36 404.457 671.367 413.82C677.708 423.703 684.494 433.233 690.068 443.593C693.479 449.933 696.608 456.419 699.735 462.902C700.554 464.598 703.271 463.404 702.751 461.631C702.866 462.024 702.677 462.163 702.856 461.745C702.947 461.531 703.023 461.313 703.12 461.1C703.452 460.365 703.838 459.653 704.219 458.943C705.016 457.455 705.686 455.936 706.354 454.384C708.447 449.525 710.467 444.634 712.434 439.723C716.465 429.66 720.275 419.512 724.105 409.371C727.877 399.381 731.745 389.428 735.596 379.468C736.492 377.15 737.547 374.958 738.668 372.745C739.698 370.713 740.199 368.534 740.466 366.284C741.01 361.678 740.676 356.929 740.693 352.299C740.704 349.338 740.756 346.374 741.025 343.423C741.263 340.805 741.543 337.91 742.783 335.544C745.158 331.011 751.145 329.712 755.149 332.955C755.809 333.489 756.842 333.676 757.482 332.955C759.651 330.511 761.017 327.745 764.279 326.593C767.979 325.286 772.1 325.368 775.955 325.747C779.892 326.135 783.801 327.017 787.604 328.089C790.794 328.988 793.935 330.115 796.792 331.819C802.335 335.125 805.536 340.517 805.435 346.999C805.34 353.118 802.842 359.109 799.445 364.116C797.727 366.648 795.664 368.8 793.421 370.868C790.621 373.45 788.389 376.124 787.162 379.785C785.942 383.426 785.457 387.335 784.711 391.092C783.884 395.259 783.022 399.419 782.134 403.573C778.626 419.982 774.704 436.299 770.887 452.638C769.274 459.543 767.488 466.351 764.876 472.957C762.418 479.173 759.325 485.156 755.6 490.709C747.973 502.079 737.496 511.433 725.057 517.23C712.663 523.006 698.341 525.209 684.901 522.284C671.486 519.366 659.811 511.587 650.029 502.186C639.639 492.201 630.999 480.453 623.019 468.503C614.319 455.476 606.578 441.809 599.881 427.648C598.223 424.142 596.631 420.605 595.1 417.042C594.264 415.097 591.421 416.776 592.251 418.707Z" fill="black"/>
<path d="M662.154 428.98C665.633 424.055 670.258 419.332 673.531 414.132C667.212 404.392 661.538 394.389 659.168 383.114L593.676 417.875C603.508 440.797 616.04 462.56 630.928 482.571C634.507 487.381 638.315 492.144 642.387 496.652C642.518 496.485 642.637 496.307 642.736 496.113C643.665 494.285 642.65 492.131 641.916 490.217C638.836 482.19 640.877 473.154 643.677 465.025C648.09 452.217 654.339 440.045 662.154 428.98Z" fill="black"/>
<path d="M543.144 473.063C574.863 467.316 612.425 456.956 637.915 436.592C662 417.351 679.621 389.652 685.074 359.161C686.437 351.541 687.003 343.783 686.807 336.045C684.311 237.472 572.867 202.187 490.088 211.188C455.581 214.94 421.209 225.335 386.768 221.014C365.637 218.362 345.623 210.272 324.997 204.969C304.371 199.666 281.819 197.307 262.305 205.836C247.039 212.508 229.113 232.671 243.955 248.627C236.705 246.837 229.325 245.194 221.86 245.377C214.395 245.561 206.741 247.743 201.217 252.767C193.533 259.757 191.206 271.499 194.133 281.465C197.06 291.43 204.604 299.607 213.53 304.918C207.3 302.34 199.783 306.033 196.276 311.792C192.77 317.55 192.515 324.734 193.419 331.415C194.898 342.349 199.503 352.732 206.21 361.455C211.258 368.02 220.327 381.78 228.516 383.921C219.434 382.982 212.035 392.805 212.466 401.926C212.898 411.046 218.846 418.96 225.38 425.337C242.391 441.94 264.615 452.193 287.194 459.622C327.971 473.038 371.695 476.749 414.397 477.106C457.741 477.467 499.77 480.921 543.144 473.063Z" fill="white"/>
<path d="M543.582 474.654C570.74 469.71 598.284 462.528 622.489 448.886C646.022 435.622 665.241 414.703 676.762 390.284C688.233 365.971 691.455 338.385 685.551 312.125C681.19 292.731 671.522 274.93 657.938 260.453C644.348 245.969 627.325 234.973 609.225 226.979C590.265 218.605 570.041 213.298 549.526 210.51C529.056 207.727 508.26 207.4 487.735 209.804C454.841 213.657 422.016 223.262 388.647 219.585C356.791 216.075 327.664 199.883 295.396 198.628C281.655 198.093 266.769 200.226 255.068 207.916C246.108 213.805 237.157 223.463 236.762 234.77C236.562 240.488 239.02 245.619 242.788 249.794L244.393 247.036C229.724 243.431 211.576 240.417 199.523 252.096C189.468 261.84 189.211 277.909 195.813 289.583C199.78 296.596 205.849 302.198 212.698 306.342L213.969 303.327C207.488 300.885 200.244 303.936 196.106 309.187C191.21 315.4 190.783 323.878 191.77 331.415C192.835 339.546 195.588 347.412 199.636 354.535C203.086 360.606 207.578 366.224 211.892 371.708C216.111 377.072 221.23 383.536 228.078 385.511L228.517 382.271C218.752 381.538 211.531 390.879 210.846 399.917C209.992 411.175 218.323 421.06 226.013 428.218C243.771 444.746 266.509 454.79 289.381 462.062C314.852 470.16 341.383 474.53 367.975 476.762C395.176 479.045 422.523 478.832 449.794 479.453C481.148 480.167 512.606 480.207 543.582 474.654C545.669 474.279 544.785 471.099 542.705 471.472C516.434 476.182 489.725 476.813 463.101 476.413C450.069 476.218 437.041 475.805 424.009 475.581C411 475.358 398.001 475.282 385.003 474.61C359.689 473.301 334.394 470.329 309.737 464.326C286.745 458.728 263.538 450.824 243.626 437.781C233.442 431.11 222.317 422.557 216.742 411.437C214.051 406.071 213.09 399.833 215.647 394.236C217.979 389.131 222.683 385.133 228.517 385.57C230.412 385.713 230.699 382.833 228.956 382.33C223.787 380.839 219.769 376.078 216.438 372.106C212.724 367.677 209.202 362.967 205.882 358.234C201.667 352.224 198.436 345.538 196.521 338.445C194.675 331.603 193.634 323.88 195.759 316.978C197.968 309.801 205.328 303.584 213.092 306.509C214.884 307.184 215.916 304.433 214.363 303.493C200.652 295.198 190.242 279.279 196.325 262.983C199.363 254.848 206.411 249.74 214.727 247.88C224.319 245.735 234.168 247.921 243.517 250.218C245.154 250.621 246.221 248.678 245.122 247.461C241.046 242.946 239.124 237.267 240.551 231.253C241.883 225.635 245.394 220.719 249.432 216.7C258.917 207.261 271.932 203.037 285.065 202.081C316.301 199.807 345.043 214.417 374.946 220.677C406.437 227.269 437.704 220.872 468.897 215.808C491.174 212.192 513.337 210.478 535.869 212.317C555.866 213.95 575.744 217.967 594.657 224.706C613.027 231.252 630.686 240.525 645.567 253.226C660.007 265.551 671.604 281.113 678.224 298.978C686.733 321.944 687.435 347.773 680.528 371.23C672.984 396.854 656.793 419.876 635.729 436.228C614.377 452.803 587.544 461.575 561.526 467.606C555.286 469.053 549.007 470.325 542.705 471.472C540.619 471.852 541.503 475.032 543.582 474.654Z" fill="black"/>
<path d="M647.009 255.548C647.733 255.12 648.415 254.634 649.076 254.124C608.758 218.003 543.467 205.384 490.088 211.188C455.581 214.939 421.209 225.335 386.768 221.014C365.637 218.362 345.623 210.272 324.997 204.969C304.371 199.666 281.819 197.307 262.305 205.836C247.039 212.508 229.113 232.671 243.955 248.627C236.705 246.837 229.325 245.194 221.86 245.377C214.395 245.561 206.741 247.743 201.217 252.767C200.291 253.609 199.448 254.523 198.678 255.491C197.795 258.78 197.002 262.087 196.308 265.391C195.3 270.198 194.454 275.031 193.725 279.882C193.849 280.413 193.98 280.942 194.133 281.465C197.06 291.43 204.604 299.607 213.53 304.918C207.3 302.34 199.784 306.033 196.277 311.792C192.77 317.55 192.516 324.734 193.42 331.415C194.898 342.349 199.503 352.732 206.211 361.455C211.258 368.02 220.328 381.78 228.517 383.921C219.434 382.982 212.035 392.805 212.467 401.926C212.898 411.046 218.846 418.959 225.381 425.337C242.391 441.94 264.615 452.193 287.194 459.622C298.535 463.353 310.109 466.311 321.821 468.677C333.029 459.767 343.915 450.468 353.541 439.894C371.882 419.746 385.192 395.53 402.687 374.644C427.194 345.387 459.91 323.082 496.097 310.957L492.668 313.12C507.203 306.321 528.667 299.813 544.601 297.913C538.666 294.518 537.853 285.318 542.237 280.072C546.621 274.826 554.614 273.575 561.032 275.931C567.45 278.287 572.392 283.643 575.749 289.599C586.428 284.964 593.337 272.871 591.909 261.317C597.679 266.716 605.332 271.433 613.055 269.76C620.778 268.088 625.648 256.775 619.398 251.94C626.409 259.072 638.401 260.639 647.009 255.548Z" fill="black"/>
<path d="M647.842 256.972C648.558 256.523 649.232 256.055 649.909 255.548C650.702 254.955 651.114 253.733 650.243 252.957C629.722 234.667 604.08 222.934 577.648 216.037C550.622 208.986 522.162 206.629 494.343 209.117C459.771 212.208 425.657 223.083 390.675 219.791C356.834 216.608 325.989 198.584 291.637 198.551C277.316 198.537 262.485 201.738 251.094 210.813C242.199 217.898 233.587 229.965 237.847 241.86C238.918 244.851 240.667 247.449 242.788 249.794L244.393 247.036C230.473 243.614 214.011 240.711 201.712 250.221C200.35 251.274 199.094 252.435 197.982 253.75C196.783 255.169 196.57 256.983 196.132 258.759C195.141 262.778 194.296 266.831 193.551 270.903C192.881 274.561 191.545 278.605 192.643 282.234C193.579 285.328 194.969 288.308 196.683 291.047C200.653 297.388 206.325 302.492 212.697 306.342L213.969 303.327C207.545 300.885 200.348 303.903 196.198 309.063C191.208 315.266 190.777 323.844 191.77 331.415C192.84 339.581 195.611 347.472 199.684 354.621C203.129 360.668 207.61 366.269 211.91 371.733C216.117 377.078 221.242 383.553 228.078 385.511L228.516 382.271C217.797 381.439 210.078 392.787 210.864 402.662C211.891 415.583 222.426 425.684 231.937 433.343C253.185 450.452 279.863 460.189 306.045 466.794C309.715 467.72 313.403 468.579 317.104 469.376C318.479 469.672 320.42 470.47 321.821 470.327C323.256 470.181 324.537 468.61 325.618 467.74C331.296 463.169 336.879 458.475 342.241 453.536C352.661 443.939 361.816 433.277 370.219 421.89C378.635 410.485 386.398 398.614 394.863 387.244C402.875 376.481 411.674 366.372 421.507 357.231C440.614 339.468 463.125 325.285 487.448 315.834C490.451 314.667 493.483 313.577 496.536 312.548L495.264 309.532L491.835 311.696C490.012 312.845 491.596 315.429 493.5 314.544C509.44 307.14 527.133 301.703 544.601 299.562C546.148 299.373 546.943 297.412 545.434 296.488C541.891 294.319 540.562 289.95 541.294 285.982C542.134 281.425 545.717 278.26 550.068 277.039C560.533 274.101 569.457 281.965 574.324 290.431C574.802 291.263 575.772 291.387 576.581 291.023C587.801 285.976 594.907 273.547 593.558 261.317L590.742 262.484C597.386 268.611 608.761 275.665 617.615 269.522C623.373 265.527 626.794 255.929 620.565 250.773C618.958 249.443 616.69 251.588 618.232 253.106C625.99 260.748 638.381 262.364 647.842 256.972C649.686 255.921 648.026 253.069 646.176 254.123C637.999 258.783 627.269 257.377 620.565 250.773L618.232 253.106C623.053 257.096 619.706 264.591 615.08 267.225C607.617 271.475 598.394 265.056 593.075 260.151C592.129 259.278 590.092 259.8 590.259 261.317C591.495 272.524 585.2 283.548 574.916 288.174L577.173 288.766C571.2 278.376 559.401 269.379 546.994 274.638C541.955 276.774 538.442 281.154 537.888 286.643C537.384 291.63 539.425 296.677 543.768 299.337L544.601 296.263C526.507 298.48 508.35 304.024 491.835 311.696L493.5 314.544L496.93 312.381C498.449 311.423 497.501 308.745 495.659 309.366C467.65 318.807 441.75 334.13 419.993 354.141C408.719 364.509 398.871 376.153 389.853 388.511C380.234 401.692 371.403 415.453 361.252 428.243C349.449 443.117 335.472 455.714 320.654 467.511L322.259 467.086C300.729 462.708 279.247 456.481 259.476 446.763C250.237 442.223 241.343 436.837 233.382 430.288C225.781 424.035 217.505 416.367 214.861 406.532C213.534 401.591 214.035 396.599 216.739 392.21C219.295 388.06 223.53 385.183 228.517 385.57C230.41 385.717 230.7 382.829 228.955 382.33C223.721 380.83 219.649 375.954 216.293 371.933C212.536 367.432 208.933 362.656 205.601 357.83C201.459 351.834 198.301 345.182 196.438 338.13C194.6 331.173 193.557 323.205 195.988 316.259C198.389 309.4 205.656 303.682 213.092 306.508C214.881 307.188 215.916 304.431 214.363 303.493C209.261 300.411 204.616 296.491 201.079 291.663C199.338 289.287 197.838 286.696 196.739 283.96C196.231 282.696 195.568 281.219 195.477 279.851C195.36 278.092 195.979 276.076 196.279 274.338C196.888 270.799 197.567 267.27 198.346 263.764C198.745 261.97 199.171 260.181 199.623 258.399C200.098 256.53 200.704 255.516 202.111 254.191C206.724 249.845 213.103 247.706 219.328 247.168C227.515 246.461 235.617 248.276 243.516 250.218C245.152 250.62 246.222 248.677 245.122 247.461C240.821 242.707 239.024 236.74 240.745 230.484C242.396 224.484 246.461 219.335 250.999 215.211C261.682 205.506 276.314 202.022 290.441 201.857C323.424 201.471 353.255 218.16 385.485 222.495C419.367 227.053 452.777 217.379 486.174 213.291C513.114 209.993 540.638 211.212 567.174 216.934C593.332 222.576 619.094 232.661 640.43 249.074C643.001 251.051 645.489 253.132 647.91 255.29L648.244 252.699C647.567 253.206 646.892 253.674 646.176 254.123C644.382 255.25 646.036 258.106 647.842 256.972Z" fill="black"/>
<path d="M555.054 398.076C573.528 399.623 593.917 402.335 611.405 408.628C616.276 410.381 621.625 412.554 623.807 417.249C625.524 420.945 624.798 425.263 623.99 429.258C618.089 458.401 611.335 486.974 605.335 516.096C599.119 546.267 591.559 575.901 580.505 604.689C579.182 608.134 577.731 611.679 575.034 614.198C572.066 616.972 567.975 618.145 564.015 619.051C539.139 624.744 513.253 623.44 487.79 621.753C449.173 619.196 410.582 615.825 372.256 610.376C352.815 607.612 333.391 604.414 314.181 600.318C303.611 598.065 282.196 595.067 277.653 583.932C275.256 578.055 277.186 571.406 279.071 565.345C294.833 514.676 306.487 462.73 313.881 410.184C314.781 403.788 315.645 397.282 318.263 391.377C326.578 372.616 346.208 378.098 362.9 379.1C384.551 380.399 406.177 382.128 427.759 384.284C459.109 387.416 490.71 394.211 522.045 396.035C533.073 396.676 544.102 397.158 555.054 398.076Z" fill="#B78437"/>
<path d="M327.77 401.557C333.867 407.749 336.906 413.587 341.432 420.66C347.328 429.875 355.866 438.062 362.995 446.351C377.948 463.739 393.125 480.944 408.894 497.599C416.145 505.257 423.953 513.073 434.011 516.245C447.753 520.578 462.535 515.355 475.768 509.652C524.423 488.687 572.491 460.275 612.551 425.735" fill="#B78437"/>
<path d="M492.668 313.12C445.565 331.915 403.702 365.289 378.396 409.238C353.09 453.188 345.387 507.803 361.396 555.924C363.379 561.884 365.721 567.792 366.507 574.023C367.293 580.255 366.324 587.019 362.315 591.855C360.089 594.539 356.978 595.379 354.959 598.058C353.654 599.791 352.306 601.619 351.97 603.763C351.635 605.907 352.691 608.437 354.791 608.985C357.491 609.69 360.05 606.93 362.828 607.197C361.689 609.46 360.752 611.953 361.038 614.47C361.323 616.987 363.165 619.477 365.683 619.749C368.573 620.062 370.921 617.579 372.754 615.323C371.398 618.109 370.163 621.796 372.346 623.995C373.756 625.415 376.129 625.477 377.94 624.627C379.751 623.778 381.106 622.199 382.297 620.594C382.24 623.154 381.068 626.249 384.045 627.835C386.101 628.931 388.741 628.33 390.597 626.922C392.454 625.514 393.673 623.438 394.737 621.366C396.089 618.734 397.269 616.013 398.269 613.228C398.68 615.923 400.337 618.401 402.67 619.81C404.308 620.799 406.469 621.238 408.113 620.26C410.218 619.007 410.558 616.153 410.667 613.706C411.06 604.918 410.541 595.647 411.65 587.012C412.909 577.208 413.918 567.379 414.568 557.514C415.697 540.376 415.904 523.14 415.018 505.984C414.459 495.153 413.305 477.754 419.504 468.498C421.143 466.052 423.349 464.048 425.554 462.098C460.408 431.279 490.42 413.689 530.481 390.03" fill="white"/>
<path d="M492.229 311.529C469.971 320.436 449.018 332.417 430.221 347.313C411.571 362.092 395.161 379.765 382.241 399.772C368.426 421.166 358.849 445.28 354.355 470.355C349.857 495.451 350.374 521.494 356.802 546.214C358.487 552.691 360.831 558.927 362.81 565.311C364.748 571.564 366.071 578.264 364.199 584.703C363.336 587.669 361.78 590.544 359.294 592.448C356.944 594.247 354.708 595.59 352.934 598.033C351.279 600.31 349.88 602.945 350.384 605.845C350.812 608.312 352.636 610.474 355.216 610.718C357.982 610.981 360.142 608.737 362.828 608.847L361.403 606.365C359.268 610.7 357.92 616.527 362.309 620.024C366.593 623.439 371.115 619.907 373.921 616.489L371.33 614.49C369.612 618.092 367.995 623.566 372.355 626.048C376.858 628.612 381.161 624.829 383.721 621.427L380.647 620.594C380.55 622.972 379.864 625.49 381.335 627.612C383 630.013 386.351 630.51 388.969 629.619C391.843 628.642 393.848 626.299 395.326 623.743C397.166 620.562 398.606 617.114 399.86 613.667H396.678C397.445 617.918 400.903 622.002 405.389 622.423C410.346 622.887 412.052 618.22 412.295 614.142C412.624 608.641 412.456 603.115 412.588 597.608C412.723 591.982 413.399 586.464 414.054 580.881C416.759 557.79 417.804 534.494 416.906 511.257C416.571 502.601 415.794 493.927 416.473 485.267C416.792 481.206 417.432 477.098 418.897 473.279C420.593 468.856 423.887 465.761 427.371 462.691C442.297 449.541 458.081 437.435 474.592 426.344C490.812 415.449 507.616 405.46 524.431 395.52C526.725 394.164 529.019 392.81 531.314 391.455C533.141 390.376 531.483 387.522 529.648 388.606C512.923 398.483 496.154 408.309 479.87 418.906C464.034 429.211 448.748 440.334 434.248 452.453C430.291 455.76 426.314 459.082 422.54 462.599C419.415 465.512 417.041 468.763 415.573 472.783C412.769 480.467 412.737 489.119 412.971 497.192C413.255 506.96 413.892 516.696 413.918 526.474C413.947 537.857 413.537 549.244 412.704 560.596C412.297 566.14 411.78 571.675 411.172 577.2C410.567 582.709 409.704 588.199 409.427 593.739C409.154 599.211 409.253 604.692 409.132 610.168C409.083 612.39 409.229 614.847 408.545 616.991C407.741 619.514 405.291 619.545 403.301 618.256C401.378 617.012 400.26 615.005 399.86 612.79C399.545 611.044 397.179 611.413 396.678 612.79C395.715 615.439 394.605 618.027 393.313 620.534C392.328 622.443 391.213 624.534 389.384 625.769C387.964 626.727 385.1 627.483 383.978 625.641C383.16 624.299 383.887 622.06 383.947 620.595C384.02 618.797 381.769 618.571 380.873 619.762C379.44 621.665 376.716 624.69 374.021 623.2C371.565 621.842 373.313 617.971 374.179 616.156C374.924 614.593 372.861 612.606 371.588 614.157C369.986 616.107 367.051 619.649 364.318 617.419C361.405 615.041 362.883 610.81 364.252 608.031C364.812 606.895 364.131 605.602 362.828 605.548C361.458 605.492 360.221 605.876 358.97 606.395C357.89 606.843 356.441 607.729 355.23 607.395C352.206 606.561 354.012 602.323 355.058 600.735C355.844 599.542 356.698 598.407 357.814 597.503C358.933 596.597 360.201 595.883 361.343 595.005C363.615 593.261 365.259 590.904 366.392 588.289C371.707 576.025 365.265 563.202 361.704 551.448C354.478 527.598 352.963 502.145 356.52 477.515C360.084 452.84 368.558 428.931 381.318 407.515C393.2 387.573 408.597 369.851 426.256 354.819C443.915 339.787 463.87 327.464 485.072 318.089C487.729 316.914 490.409 315.791 493.106 314.711C495.053 313.932 494.204 310.739 492.229 311.529Z" fill="black"/>
<path d="M501.385 500.457C518.78 524.358 534.649 549.363 548.848 575.291C552.808 582.523 556.636 589.826 560.338 597.195C561.291 599.092 564.138 597.424 563.186 595.529C549.918 569.114 534.969 543.549 518.435 519.044C513.823 512.209 509.086 505.459 504.234 498.792C502.997 497.092 500.133 498.737 501.385 500.457Z" fill="black"/>
<path d="M296.575 573.276C310.914 558.71 326.268 545.065 342.118 532.168C346.265 528.793 350.462 525.48 354.738 522.269C356.416 521.01 354.773 518.144 353.073 519.421C336.614 531.777 320.986 545.325 306.02 559.443C302.028 563.208 298.092 567.033 294.242 570.943C292.751 572.458 295.083 574.793 296.575 573.276Z" fill="black"/>
<path d="M437.672 470.633C445.353 467.421 455.334 472.174 458.51 479.621C460.398 484.049 460.681 489.526 457.822 493.399C456.944 494.589 455.81 495.575 454.575 496.388C450.771 498.894 445.917 499.747 441.486 498.686C428.885 495.67 424.291 476.229 437.672 470.633Z" fill="black"/>
<path d="M438.11 472.224C443.686 469.978 450.145 471.989 454.241 476.2C458.508 480.588 460.252 488.942 455.459 493.591C450.822 498.089 442.932 498.794 437.607 495.168C434.029 492.732 431.644 488.412 431.289 484.117C430.843 478.719 433.521 474.198 438.504 472.057C439.329 471.703 439.498 470.506 439.096 469.8C438.611 468.949 437.653 468.859 436.839 469.208C431.396 471.546 428.02 476.698 427.937 482.607C427.86 488.107 430.459 493.712 434.767 497.142C440.766 501.92 449.691 501.917 455.906 497.469C459.388 494.977 461.374 491.381 461.583 487.097C461.765 483.357 460.654 479.313 458.513 476.233C453.983 469.719 444.838 465.979 437.233 469.042C436.401 469.377 435.835 470.139 436.081 471.071C436.288 471.858 437.285 472.556 438.11 472.224Z" fill="black"/>
<path d="M703.386 788.784C705.861 783.469 704.911 777.784 701.264 776.086C697.617 774.387 692.654 777.318 690.179 782.632C687.704 787.946 688.653 793.631 692.3 795.33C695.947 797.029 700.911 794.098 703.386 788.784Z" fill="black"/>
<path d="M701.962 787.952C700.668 790.659 698.338 793.668 695.165 794.127C692.421 794.524 690.744 792.121 690.494 789.54C690.143 785.912 691.731 782.073 694.315 779.549C696.072 777.832 699.015 776.292 701.211 777.962C704.124 780.176 703.24 785.131 701.962 787.952C701.594 788.763 701.729 789.727 702.553 790.209C703.261 790.623 704.441 790.433 704.811 789.617C706.679 785.493 707.408 779.977 704.202 776.278C701.465 773.119 696.881 773.534 693.718 775.781C689.768 778.587 687.262 783.454 687.154 788.29C687.063 792.435 689.204 796.849 693.697 797.401C698.641 798.009 702.857 793.707 704.811 789.617C705.194 788.814 705.032 787.836 704.219 787.36C703.499 786.939 702.347 787.144 701.962 787.952Z" fill="black"/>
<path d="M661.759 788.784C664.235 783.469 663.285 777.784 659.638 776.086C655.991 774.387 651.028 777.318 648.552 782.632C646.077 787.946 647.027 793.631 650.674 795.33C654.321 797.029 659.284 794.098 661.759 788.784Z" fill="black"/>
<path d="M660.335 787.952C659.042 790.659 656.712 793.668 653.538 794.127C650.795 794.524 649.117 792.121 648.867 789.54C648.516 785.912 650.104 782.073 652.688 779.549C654.446 777.832 657.388 776.292 659.584 777.962C662.497 780.176 661.613 785.131 660.335 787.952C659.968 788.763 660.102 789.727 660.927 790.209C661.634 790.623 662.814 790.433 663.184 789.617C665.053 785.493 665.782 779.977 662.576 776.278C659.838 773.119 655.254 773.534 652.092 775.781C648.142 778.587 645.635 783.454 645.528 788.29C645.436 792.435 647.578 796.849 652.07 797.401C657.014 798.009 661.23 793.707 663.184 789.617C663.568 788.814 663.406 787.836 662.592 787.36C661.872 786.939 660.721 787.144 660.335 787.952Z" fill="black"/>
<path d="M423.352 788.784C425.827 783.469 424.877 777.784 421.23 776.086C417.583 774.387 412.62 777.318 410.145 782.632C407.67 787.946 408.62 793.631 412.267 795.33C415.914 797.029 420.877 794.098 423.352 788.784Z" fill="black"/>
<path d="M421.927 787.952C420.634 790.659 418.304 793.668 415.131 794.127C412.387 794.524 410.709 792.121 410.459 789.54C410.108 785.912 411.697 782.073 414.281 779.549C416.038 777.832 418.98 776.292 421.177 777.962C424.089 780.176 423.206 785.131 421.927 787.952C421.56 788.763 421.695 789.727 422.519 790.209C423.227 790.623 424.407 790.433 424.776 789.617C426.645 785.493 427.374 779.977 424.168 776.278C421.43 773.119 416.846 773.534 413.684 775.781C409.734 778.587 407.227 783.454 407.12 788.29C407.028 792.435 409.17 796.849 413.663 797.401C418.607 798.009 422.822 793.707 424.776 789.617C425.16 788.814 424.998 787.836 424.184 787.36C423.464 786.939 422.313 787.144 421.927 787.952Z" fill="black"/>
<path d="M634.86 717.853C644.093 726.043 655.29 731.847 667.331 734.584C669.399 735.054 670.281 731.874 668.208 731.402C656.724 728.792 646.008 723.339 637.193 715.52C635.609 714.116 633.268 716.441 634.86 717.853Z" fill="black"/>
<path d="M649.447 705.177C649.849 704.933 650.265 704.72 650.698 704.536L650.304 704.702C651.057 704.39 651.842 704.176 652.65 704.061L652.211 704.12C652.802 704.041 653.395 704.017 653.989 704.048C654.853 704.093 655.678 703.257 655.639 702.398C655.597 701.466 654.914 700.797 653.989 700.748C651.832 700.636 649.626 701.208 647.781 702.328C647.044 702.776 646.701 703.828 647.19 704.585C647.667 705.326 648.658 705.657 649.447 705.177Z" fill="black"/>
<path d="M654.394 712.304C654.468 712.197 654.543 712.093 654.622 711.99L654.364 712.324C654.716 711.876 655.118 711.476 655.567 711.125L655.233 711.382C655.707 711.02 656.219 710.719 656.766 710.482L656.372 710.649C656.921 710.418 657.493 710.257 658.083 710.171L657.644 710.23C657.772 710.213 657.9 710.199 658.029 710.188C658.473 710.15 658.871 710.029 659.195 709.705C659.482 709.419 659.697 708.949 659.679 708.538C659.642 707.707 658.95 706.811 658.029 706.889C656.723 706.999 655.478 707.356 654.339 708.015C653.212 708.668 652.282 709.572 651.545 710.639C651.312 710.975 651.273 711.528 651.378 711.91C651.484 712.292 651.78 712.707 652.137 712.896C652.977 713.34 653.869 713.064 654.394 712.304Z" fill="black"/>
<path d="M436.503 677.154C439.026 680.353 442.293 682.915 445.381 685.543C448.623 688.301 451.899 691.02 455.21 693.696C461.816 699.039 468.556 704.219 475.418 709.23C479.365 712.112 483.355 714.935 487.383 717.704C489.137 718.91 490.789 716.052 489.048 714.855C475.196 705.332 461.814 695.133 448.976 684.28C445.474 681.32 441.69 678.44 438.836 674.82C437.522 673.154 435.201 675.504 436.503 677.154Z" fill="black"/>
<path d="M578.231 684.148C595.774 683.703 613.358 682.677 630.513 678.742C635.508 677.597 640.445 676.218 645.321 674.639C647.332 673.987 646.472 670.801 644.443 671.458C627.877 676.823 610.77 679.344 593.419 680.28C588.36 680.553 583.295 680.72 578.231 680.849C576.111 680.903 576.103 684.202 578.231 684.148Z" fill="black"/>
<path d="M469.29 693.288C482.04 679.448 492.883 663.854 501.347 647.044C503.756 642.26 505.961 637.379 507.993 632.425C508.334 631.594 507.623 630.62 506.841 630.395C505.899 630.125 505.148 630.727 504.812 631.547C497.838 648.547 488.473 664.627 477.102 679.063C473.876 683.157 470.489 687.121 466.957 690.955C465.52 692.515 467.847 694.854 469.29 693.288Z" fill="black"/>
<path d="M594.085 552.23C603.155 582.759 609.208 614.174 612.053 645.896C612.853 654.818 613.398 663.761 613.701 672.714C613.772 674.832 617.072 674.841 617 672.714C616.46 656.726 615.128 640.77 613.005 624.914C610.873 608.991 607.965 593.176 604.261 577.544C602.177 568.75 599.84 560.017 597.266 551.353C596.663 549.323 593.478 550.187 594.085 552.23Z" fill="black"/>
<path d="M453.685 736.423C454.941 750.803 459.868 764.73 468.058 776.629C469.254 778.367 472.115 776.719 470.907 774.964C463.056 763.558 458.19 750.227 456.985 736.423C456.802 734.324 453.501 734.305 453.685 736.423Z" fill="black"/>
<path d="M468.598 743.828C468.767 743.789 468.969 743.779 469.132 743.723C469.056 743.749 468.789 743.758 469.018 743.74C469.108 743.733 469.198 743.723 469.289 743.717C469.614 743.696 469.941 743.699 470.267 743.724C470.292 743.726 470.524 743.769 470.538 743.75C470.515 743.783 470.121 743.684 470.477 743.744C470.638 743.771 470.798 743.804 470.957 743.842C471.296 743.922 471.617 744.04 471.946 744.15C472.154 744.219 471.655 744.016 471.854 744.109C471.937 744.147 472.02 744.183 472.102 744.223C472.249 744.294 472.394 744.37 472.537 744.451C472.679 744.532 472.819 744.617 472.955 744.706C473.031 744.756 473.106 744.808 473.18 744.86C473.378 745.002 473.255 744.952 473.151 744.832C473.359 745.072 473.65 745.258 473.872 745.492C473.986 745.612 474.099 745.805 474.23 745.901C474.165 745.853 474.044 745.647 474.171 745.827C474.234 745.916 474.296 746.005 474.357 746.097C474.833 746.814 475.835 747.19 476.614 746.688C477.329 746.227 477.716 745.2 477.206 744.431C475.158 741.349 471.332 739.807 467.72 740.647C466.879 740.842 466.302 741.852 466.568 742.676C466.853 743.555 467.696 744.038 468.598 743.828Z" fill="black"/>
<path d="M470.981 755.717C471.194 755.66 471.408 755.617 471.627 755.586L471.188 755.645C471.65 755.587 472.113 755.59 472.575 755.651L472.137 755.592C472.598 755.659 473.045 755.781 473.476 755.959L473.082 755.793C473.487 755.968 473.866 756.187 474.217 756.455L473.883 756.197C473.96 756.258 474.035 756.32 474.109 756.384C474.444 756.674 474.82 756.867 475.275 756.867C475.68 756.867 476.163 756.687 476.442 756.384C477.01 755.765 477.139 754.654 476.442 754.051C474.703 752.547 472.343 751.94 470.104 752.535C469.27 752.757 468.679 753.722 468.951 754.565C469.229 755.421 470.087 755.954 470.981 755.717Z" fill="black"/>
<path d="M653.783 506.793C655.804 498.821 661.732 492.741 667.142 486.866C672.776 480.748 678.512 474.66 685.043 469.481C688.693 466.586 692.626 464.046 696.804 461.983C698.708 461.043 697.038 458.196 695.138 459.134C687.377 462.966 680.606 468.481 674.435 474.496C671.37 477.484 668.436 480.604 665.532 483.748C662.638 486.882 659.709 489.998 657.102 493.38C654.2 497.144 651.778 501.276 650.601 505.916C650.079 507.975 653.26 508.853 653.783 506.793Z" fill="black"/>
<path d="M394.112 394.179C411.508 401.282 426.764 413.622 437.492 429.034C440.569 433.455 443.274 438.123 445.589 442.985C446.502 444.901 449.347 443.229 448.438 441.32C440.043 423.692 426.393 408.676 409.771 398.456C405.058 395.558 400.109 393.089 394.989 390.998C394.157 390.658 393.184 391.367 392.96 392.15C392.689 393.091 393.291 393.844 394.112 394.179Z" fill="black"/>
<path d="M761.414 334.916C760.059 338.199 758.704 341.483 757.349 344.766C756.214 347.517 754.377 350.706 755.627 353.721C758.491 360.626 767.095 353.159 769.861 349.958L767.103 348.353C766.573 351.568 765.95 358.193 770.157 359.344C774.17 360.443 777.519 355.736 779.001 352.703L775.986 351.431C774.793 354.417 774.183 358.748 777.851 360.274C781.675 361.864 784.753 358.623 786.61 355.701L783.536 354.869C783.209 357.456 785.253 359.854 787.69 360.481C790.48 361.198 793.257 359.888 795.376 358.15C799.449 354.811 801.25 349.535 802.831 344.698C803.492 342.675 800.307 341.808 799.649 343.821C798.498 347.345 797.299 351.094 794.887 353.989C793.695 355.42 792.111 356.841 790.248 357.264C788.583 357.643 786.586 356.846 786.835 354.869C787.055 353.132 784.555 352.787 783.761 354.036C782.894 355.401 781.155 358.128 779.129 357.242C777.39 356.481 778.696 353.489 779.168 352.309C779.858 350.581 776.97 349.364 776.153 351.037C775.575 352.22 774.894 353.344 774.022 354.334C773.4 355.04 772.315 356.274 771.252 356.185C770.291 356.104 770.239 354.457 770.161 353.736C769.998 352.24 770.04 350.714 770.285 349.23C770.525 347.774 768.719 346.246 767.528 347.625C766.035 349.351 764.341 350.855 762.392 352.048C761.647 352.503 760.128 353.661 759.212 353.174C758.37 352.728 758.446 351.408 758.608 350.66C759.147 348.182 760.491 345.739 761.455 343.404C762.502 340.867 763.549 338.33 764.596 335.793C764.938 334.963 764.225 333.988 763.444 333.764C762.5 333.493 761.753 334.097 761.414 334.916Z" fill="black"/>
<path d="M754.475 332.945C754.655 333.061 754.827 333.19 755.005 333.308C755.162 333.412 754.831 333.158 755.066 333.354C755.139 333.415 755.213 333.475 755.285 333.537C755.627 333.831 755.949 334.148 756.25 334.484C756.393 334.643 756.53 334.807 756.664 334.974C756.518 334.792 756.629 334.93 756.707 335.038C756.762 335.115 756.817 335.193 756.87 335.272C757.125 335.645 757.357 336.034 757.563 336.436C757.662 336.626 757.748 336.821 757.84 337.015C757.757 336.78 757.947 337.241 757.84 337.015C757.88 337.127 757.926 337.237 757.966 337.349C758.11 337.752 758.232 338.163 758.328 338.579C758.381 338.811 758.424 339.044 758.464 339.278C758.494 339.452 758.478 339.415 758.464 339.263C758.475 339.381 758.489 339.499 758.499 339.617C758.537 340.068 758.541 340.519 758.52 340.97C758.48 341.834 759.307 342.659 760.169 342.62C761.097 342.579 761.776 341.895 761.819 340.97C762.02 336.646 759.755 332.434 756.141 330.096C755.415 329.626 754.287 329.925 753.884 330.688C753.45 331.509 753.7 332.444 754.475 332.945Z" fill="black"/>
<path d="M747.619 345.282C750.661 347.42 754.597 349.384 758.341 347.835C759.135 347.506 759.791 346.726 759.493 345.805C759.246 345.041 758.318 344.3 757.464 344.653C756.579 345.02 756.146 345.084 755.345 345.07C755.125 345.066 754.906 345.051 754.687 345.029C754.973 345.058 754.525 345.003 754.47 344.993C754.064 344.917 753.664 344.81 753.272 344.679C753.09 344.618 752.911 344.551 752.732 344.481C752.988 344.582 752.427 344.344 752.375 344.319C752.029 344.153 751.69 343.972 751.358 343.781C750.643 343.37 749.959 342.908 749.284 342.433C748.576 341.936 747.419 342.283 747.027 343.025C746.58 343.871 746.863 344.751 747.619 345.282Z" fill="black"/>
<path d="M777.56 359.859C777.653 359.92 777.745 359.98 777.836 360.043C777.865 360.064 778.102 360.229 777.935 360.11C777.751 359.978 778.044 360.199 778.079 360.228C778.146 360.284 778.213 360.342 778.278 360.401C778.59 360.679 778.881 360.982 779.149 361.303C779.198 361.362 779.384 361.618 779.178 361.331C779.23 361.403 779.283 361.473 779.334 361.545C779.448 361.707 779.557 361.874 779.66 362.043C779.88 362.402 780.065 362.776 780.242 363.157C780.184 363.033 780.165 362.96 780.227 363.131C780.265 363.234 780.305 363.337 780.341 363.441C780.406 363.629 780.466 363.819 780.519 364.01C780.571 364.201 780.618 364.395 780.658 364.589C780.687 364.728 780.761 365.253 780.718 364.867C780.764 365.284 780.792 365.7 780.783 366.119C780.778 366.318 780.762 366.515 780.749 366.713C780.737 366.909 780.742 366.8 780.762 366.668C780.742 366.799 780.72 366.929 780.696 367.06C780.539 367.906 780.928 368.88 781.848 369.089C782.657 369.274 783.709 368.845 783.877 367.937C784.658 363.717 782.838 359.358 779.226 357.01C778.501 356.539 777.371 356.84 776.969 357.602C776.534 358.424 776.787 359.356 777.56 359.859Z" fill="black"/>
<path d="M239.066 551.016C244.653 551.995 250.24 552.974 255.826 553.954C256.703 554.108 257.604 553.718 257.856 552.802C258.074 552.006 257.586 550.927 256.703 550.772C251.117 549.793 245.53 548.814 239.943 547.834C239.066 547.68 238.165 548.07 237.914 548.986C237.695 549.782 238.183 550.861 239.066 551.016Z" fill="black"/>
<path d="M242.869 603.007C246.27 599.606 249.672 596.204 253.073 592.803C253.684 592.192 253.73 591.072 253.073 590.47C252.415 589.865 251.392 589.818 250.74 590.47C247.339 593.871 243.937 597.273 240.536 600.674C239.925 601.285 239.879 602.405 240.536 603.007C241.194 603.612 242.217 603.659 242.869 603.007Z" fill="black"/>
<path d="M278.364 622.248C278.304 621.503 278.283 620.756 278.309 620.009C278.323 619.636 278.347 619.263 278.382 618.891C278.398 618.732 278.416 618.573 278.434 618.414C278.459 618.214 278.46 618.202 278.439 618.376C278.45 618.297 278.462 618.218 278.475 618.139C278.707 616.688 279.111 615.272 279.667 613.912C279.995 613.112 279.313 612.065 278.515 611.883C277.556 611.665 276.837 612.178 276.486 613.035C275.301 615.93 274.814 619.131 275.064 622.248C275.133 623.106 275.774 623.939 276.714 623.897C277.549 623.86 278.438 623.169 278.364 622.248Z" fill="black"/>
<path d="M262.222 523.901C263.651 526.028 265.367 527.956 267.36 529.569C267.712 529.853 268.057 530.052 268.527 530.052C268.931 530.052 269.415 529.872 269.693 529.569C270.245 528.967 270.41 527.815 269.693 527.236C268.245 526.064 266.937 524.73 265.792 523.26L266.05 523.594C265.709 523.152 265.383 522.699 265.071 522.236C264.591 521.521 263.595 521.14 262.814 521.644C262.102 522.103 261.708 523.135 262.222 523.901Z" fill="black"/>
<path d="M234.363 801.124C304.375 801.124 374.388 801.124 444.4 801.124C514.055 801.124 583.71 801.124 653.366 801.124C692.658 801.124 731.951 801.124 771.244 801.124C773.367 801.124 773.37 797.824 771.244 797.824C701.231 797.824 631.219 797.824 561.206 797.824C491.551 797.824 421.896 797.824 352.241 797.824H234.363C232.24 797.824 232.236 801.124 234.363 801.124Z" fill="black"/>
<path d="M282.555 798.15C280.081 798.06 277.87 795.465 278.519 792.986C279.123 790.68 281.806 789.391 284.008 790.065C285.545 790.536 286.855 788.409 285.613 787.308C281.074 783.284 283.052 776.323 287.943 773.5C293.134 770.504 300.171 771.572 305.109 774.534C308.106 776.331 310.482 778.908 311.971 782.07L314.82 780.405C311.897 774.695 314.687 767.595 319.477 763.831C325.114 759.402 332.901 760.674 338.134 765.122C341.286 767.8 343.517 771.361 344.397 775.411L347.154 773.805C345.731 772.172 346.18 769.7 347.309 768.036C348.73 765.942 351.226 765.346 353.597 765.99C360.29 767.807 361.372 775.624 360.265 781.44C359.867 783.528 362.729 784.325 363.446 782.317C364.384 779.693 367.532 778.931 370.03 779.141C373.352 779.42 375.996 781.695 378.231 783.98C380.865 786.672 383.179 789.639 386.266 791.85C389.46 794.138 393.406 795.472 397.3 794.396C399.344 793.832 398.476 790.648 396.423 791.215C392.265 792.363 388.265 789.65 385.436 786.852C382.624 784.071 380.237 780.887 377.02 778.531C374.216 776.478 370.908 775.456 367.436 775.95C364.176 776.414 361.395 778.277 360.265 781.44L363.446 782.317C364.287 777.9 364.264 773.219 362.174 769.133C360.396 765.658 356.913 763.042 353.021 762.533C349.412 762.06 345.939 763.667 344.152 766.877C342.493 769.856 342.533 773.514 344.821 776.138C345.974 777.461 347.903 776.028 347.578 774.533C345.767 766.197 338.535 759.103 330.013 757.916C321.768 756.766 314.351 761.881 311.428 769.498C309.858 773.589 309.967 778.156 311.971 782.07C312.947 783.977 315.714 782.304 314.82 780.405C311.621 773.611 304.579 769.293 297.224 768.563C289.963 767.843 282.212 771.144 280.126 778.637C279.006 782.66 280.141 786.858 283.28 789.641L284.885 786.884C280.894 785.662 276.13 788.255 275.263 792.424C274.324 796.942 278.047 801.286 282.555 801.449C284.678 801.526 284.675 798.227 282.555 798.15Z" fill="black"/>
<path d="M637.588 787.688C631.834 783.148 624.92 779.758 617.633 778.615C614.396 778.108 610.531 778.217 608.36 781.064C606.683 783.262 606.379 786.819 608.726 788.685L610.725 786.094C607.722 784.136 604.312 782.973 600.745 782.636C597.73 782.352 594.3 782.681 591.74 784.446C589.335 786.103 587.962 788.883 588.978 791.756C589.878 794.301 592.355 796.271 595.128 795.441C597.157 794.833 596.293 791.648 594.251 792.259C592.852 792.678 591.91 790.901 591.922 789.704C591.942 787.87 593.972 786.759 595.507 786.304C600.034 784.962 605.22 786.439 609.06 788.943C610.601 789.949 612.539 787.529 611.059 786.352C609.623 785.21 610.496 783.036 611.912 782.267C614.317 780.961 617.554 781.857 620.026 782.495C625.549 783.918 630.775 786.486 635.254 790.021C636.904 791.323 639.254 789.003 637.588 787.688Z" fill="black"/>
<path d="M612.606 302.765C617.209 313.26 629.595 318.395 640.296 314.298C642.259 313.547 641.407 310.356 639.419 311.117C634.644 312.945 629.196 312.941 624.555 310.677C620.446 308.673 617.285 305.273 615.455 301.1C614.604 299.16 611.76 300.837 612.606 302.765Z" fill="black"/>
<path d="M664.46 314.87C666.789 318.805 671.546 320.891 676.002 319.715C678.183 319.139 680.171 317.839 681.558 316.063C683.131 314.049 683.784 311.58 684.24 309.109C684.402 308.233 683.999 307.33 683.088 307.079C682.286 306.859 681.221 307.351 681.059 308.232C680.701 310.167 680.295 312.184 679.139 313.823C678.243 315.094 676.851 316.028 675.369 316.465C672.266 317.381 668.944 315.966 667.309 313.205C666.228 311.379 663.375 313.037 664.46 314.87Z" fill="black"/>
<path d="M659.382 291.938C660.258 306.432 659.947 320.976 658.453 335.419C658.235 337.529 661.536 337.514 661.753 335.419C663.247 320.976 663.558 306.432 662.682 291.938C662.554 289.829 659.254 289.814 659.382 291.938Z" fill="black"/>
<path d="M643.542 342.617C640.802 338.799 637.968 334.582 634.026 331.895C632.27 330.698 630.034 330.04 627.957 330.761C625.988 331.444 624.551 333.072 623.565 334.854C621.286 338.974 620.339 344.081 620.041 348.73C619.744 353.359 619.99 358.674 623.235 362.313C626.398 365.86 632.393 366.356 635.113 362.005C636.241 360.199 633.388 358.541 632.264 360.339C630.523 363.126 626.802 361.696 625.227 359.556C623.022 356.562 623.115 352.269 623.34 348.73C623.579 344.98 624.372 341.091 625.868 337.63C626.411 336.372 627.154 334.99 628.33 334.219C629.745 333.291 631.285 333.963 632.525 334.857C635.868 337.266 638.323 340.98 640.693 344.283C641.92 345.993 644.783 344.347 643.542 342.617Z" fill="black"/>
<path d="M623.144 339.473C625.957 345.332 630.311 350.444 635.648 354.155C636.054 354.437 636.503 354.767 636.581 355.256C636.618 355.49 636.562 355.728 636.498 355.957C636.016 357.7 635.067 359.355 633.624 360.446C632.181 361.536 630.212 361.995 628.502 361.406C625.888 360.507 624.591 357.607 623.867 354.94C622.939 351.524 622.462 347.985 622.451 344.446C622.449 343.869 622.859 343.051 623.343 343.364" fill="black"/>
<path d="M621.719 340.305C624.462 345.949 628.532 350.848 633.525 354.64C633.808 354.855 634.093 355.066 634.381 355.272C634.646 355.462 634.929 355.844 634.908 355.519C634.945 356.094 634.367 356.992 634.084 357.468C633.346 358.706 632.184 359.723 630.725 359.965C627.92 360.43 626.443 357.649 625.721 355.396C625.131 353.553 624.732 351.62 624.463 349.705C624.331 348.773 624.243 347.834 624.183 346.895C624.148 346.351 624.124 345.807 624.112 345.263C624.108 345.115 624.162 344.783 624.102 344.65C623.919 344.244 624.538 344.653 623.579 344.886H622.702L622.904 344.955C624.917 345.645 625.782 342.459 623.781 341.774C622.814 341.443 621.819 341.891 621.294 342.746C620.742 343.644 620.789 344.655 620.824 345.671C620.902 347.993 621.175 350.316 621.625 352.595C622.324 356.136 623.435 360.547 626.845 362.46C630.591 364.561 635.027 362.484 637.02 358.987C638.023 357.227 638.966 354.834 637.178 353.261C635.689 351.951 634.006 350.899 632.549 349.531C629.23 346.416 626.557 342.732 624.568 338.64C623.64 336.731 620.794 338.401 621.719 340.305Z" fill="black"/>
<path d="M618.213 286.06C627.417 281.699 637.653 279.891 647.796 280.691C649.913 280.858 649.902 277.558 647.796 277.392C637.059 276.545 626.272 278.603 616.548 283.211C614.63 284.119 616.303 286.965 618.213 286.06Z" fill="black"/>
<path d="M661.3 292.705C664.118 292.563 666.937 292.421 669.755 292.279C670.616 292.236 671.446 291.551 671.405 290.63C671.366 289.773 670.678 288.933 669.755 288.98C666.937 289.122 664.118 289.263 661.3 289.405C660.439 289.448 659.609 290.133 659.65 291.055C659.688 291.912 660.377 292.751 661.3 292.705Z" fill="black"/>
</svg>
