<svg width="1000" height="1000" viewBox="0 0 1000 1000" fill="none" xmlns="http://www.w3.org/2000/svg">
<path d="M630.281 788.334C632.906 782.638 630.494 774.573 628.645 768.84C627.228 764.444 624.848 760.183 621.063 756.964C619.429 755.574 617.5 754.373 615.279 753.839C608.168 752.13 601.689 758.912 599.844 763.999C598.361 768.092 598.449 772.469 598.782 776.744C599.029 779.9 599.444 783.166 601.332 785.889C603.536 789.068 607.434 791.074 611.232 792.847C614.116 794.194 617.231 795.521 620.51 795.321C624.983 795.048 628.641 791.893 630.281 788.334Z" fill="black"/>
<path d="M775.776 757.184C774.95 759.832 773.172 762.472 773.918 765.137C774.535 767.34 776.823 769.155 776.742 771.418C776.628 774.63 771.959 776.416 771.007 779.525C769.983 782.865 773.615 786.132 773.186 789.564C772.684 793.578 767.248 795.511 762.639 796.432C721.813 804.585 679.17 797.982 637.246 798.575C628.079 798.705 618.655 799.15 609.996 796.578C616.696 790.244 621.313 781.98 621.076 773.452C620.839 764.923 615.114 756.314 605.901 752.99C622.467 746.548 641.4 747.034 659.604 746.737C678.933 746.421 698.214 745.088 717.537 744.624C727.312 744.388 737.102 744.369 746.869 744.824C750.929 745.013 754.837 745.272 758.848 745.074C762.611 744.888 767.353 744.183 770.682 746.111C773.968 748.014 776.792 753.928 775.776 757.184Z" fill="white"/>
<path d="M774.118 756.727C773.136 759.711 771.271 762.684 772.364 765.922C772.797 767.204 773.607 768.279 774.295 769.427C774.794 770.259 775.266 771.135 774.839 772.09C774.43 773.003 773.57 773.726 772.861 774.4C771.947 775.269 771.029 776.125 770.297 777.161C768.732 779.377 768.953 781.895 769.931 784.302C770.75 786.318 772.381 788.809 770.846 790.872C769.44 792.762 766.753 793.612 764.586 794.208C761.498 795.057 758.283 795.534 755.125 796.037C751.506 796.613 747.87 797.078 744.224 797.451C715.555 800.386 686.723 797.855 658.015 797.049C650 796.824 641.99 796.772 633.974 796.909C626.091 797.043 618.094 797.141 610.453 794.919L611.212 797.794C616.873 792.393 621.466 785.411 622.548 777.533C623.52 770.459 621.27 763.429 616.514 758.115C613.749 755.026 610.232 752.765 606.358 751.331V754.648C616.915 750.585 628.21 749.314 639.438 748.848C651.271 748.356 663.123 748.469 674.96 748.026C699.822 747.097 724.645 745.47 749.529 746.673C752.818 746.832 756.111 746.956 759.402 746.763C762.095 746.605 764.927 746.209 767.594 746.789C769.958 747.303 771.519 748.738 772.719 750.791C773.703 752.475 774.667 754.751 774.118 756.727C773.524 758.863 776.842 759.775 777.435 757.641C778.552 753.624 776.181 748.704 773.301 745.967C769.449 742.306 763.879 743.088 759.032 743.344C752.754 743.675 746.438 743.024 740.162 742.863C733.616 742.695 727.066 742.712 720.52 742.839C707.635 743.087 694.765 743.762 681.891 744.308C669.422 744.837 656.958 744.938 644.485 745.244C631.31 745.568 617.853 746.554 605.444 751.331C603.835 751.95 603.799 754.039 605.444 754.648C611.216 756.785 616.011 761.448 618.127 767.257C620.388 773.464 619.276 780.131 616.191 785.856C614.267 789.427 611.708 792.567 608.78 795.362C607.827 796.271 608.323 797.883 609.539 798.237C616.4 800.231 623.592 800.466 630.691 800.396C638.029 800.324 645.356 800.214 652.694 800.361C667.543 800.658 682.372 801.513 697.215 801.968C711.933 802.42 726.695 802.484 741.373 801.165C748.653 800.511 755.932 799.55 763.096 798.09C767.666 797.159 774.382 795.122 774.906 789.564C775.055 787.987 774.569 786.486 773.968 785.052C773.419 783.74 772.573 782.316 772.545 780.857C772.499 778.45 775.59 776.784 776.938 775.102C779.042 772.479 778.605 769.789 776.883 767.083C776.005 765.702 775.225 764.514 775.572 762.804C775.935 761.014 776.867 759.368 777.435 757.641C778.129 755.533 774.808 754.63 774.118 756.727Z" fill="black"/>
<path d="M750.097 802.044C755.982 801.585 761.894 800.938 767.794 800.661C771.515 800.486 775.84 799.574 775.138 795.275C774.381 790.639 768.43 790.95 764.359 791.017C758.445 791.113 752.532 791.232 746.619 791.334C734.792 791.537 722.964 791.72 711.135 791.851C687.213 792.117 663.285 792.176 639.364 791.778C630.541 791.632 621.353 791.345 613.566 787.805C605.778 784.266 599.921 776.443 602.5 769.246C603.952 765.196 607.81 762.011 612.216 760.057C616.623 758.103 621.571 757.237 626.476 756.573C645.838 753.953 665.549 754.151 685.153 754.048C714.316 753.895 743.468 753.063 772.616 752.232C773.737 752.2 774.891 752.161 775.915 751.767C781.118 749.764 780.876 740.103 778.216 736.754C775.915 733.855 772.339 731.908 768.865 730.042C761.176 725.914 753.484 721.789 745.797 717.658C740.634 714.884 734.423 711.24 728.424 710.197C724.433 709.502 720.313 709.704 716.247 709.908C689.777 711.237 663.249 710.976 636.748 710.786C622.058 710.681 607.488 709.984 592.818 711.01C579.746 711.924 567.628 703.979 554.327 709.692C543.113 714.508 538.937 726.521 539.087 737.227C539.371 757.485 552.209 770.226 570.753 780.92C581.032 786.849 591.509 792.529 602.167 797.951C611.364 802.629 620.618 802.94 631.071 803.165C642.586 803.414 654.105 803.478 665.624 803.454C688.597 803.406 711.724 803.698 734.68 803.001C739.83 802.844 744.965 802.444 750.097 802.044Z" fill="#B78437"/>
<path d="M774.657 791.199C772.526 789.562 769.709 789.739 767.174 789.512C764.237 789.249 761.305 789.169 758.356 789.224C752.276 789.338 746.203 789.623 740.122 789.723C727.719 789.927 715.316 790.102 702.912 790.214C690.534 790.325 678.156 790.374 665.778 790.324C659.548 790.299 653.318 790.25 647.088 790.171C641.262 790.098 635.411 790.126 629.598 789.687C620.373 788.99 608.604 786.456 604.504 776.957C602.741 772.872 603.807 768.704 606.915 765.607C610.655 761.88 615.92 760.218 620.973 759.2C626.775 758.032 632.726 757.472 638.619 756.994C644.799 756.492 650.996 756.21 657.193 756.045C669.326 755.722 681.467 755.821 693.603 755.705C718.373 755.47 743.135 754.791 767.896 754.086C770.632 754.008 773.746 754.313 776.372 753.426C778.459 752.721 777.563 749.397 775.458 750.109C774.134 750.556 772.756 750.508 771.373 750.547C769.8 750.592 768.227 750.637 766.653 750.682C763.424 750.773 760.194 750.865 756.965 750.954C750.588 751.132 744.211 751.303 737.834 751.461C725.246 751.774 712.656 752.037 700.065 752.194C675.098 752.506 649.894 751.537 625.099 755.041C619.514 755.831 613.778 756.958 608.853 759.849C604.821 762.215 601.128 765.952 600.347 770.734C598.707 780.777 608.437 788.235 616.906 790.912C622.282 792.612 627.987 793.128 633.595 793.352C639.665 793.594 645.749 793.603 651.823 793.666C664.532 793.797 677.243 793.811 689.953 793.746C702.678 793.681 715.403 793.537 728.128 793.35C734.448 793.258 740.77 793.178 747.09 793.045C753.154 792.917 759.227 792.382 765.291 792.792C766.645 792.883 767.996 793.005 769.351 793.095C770.656 793.182 771.86 793.354 772.921 794.169C773.663 794.74 774.84 794.277 775.274 793.552C775.802 792.671 775.39 791.762 774.657 791.199Z" fill="black"/>
<path d="M634.807 778.978C642.211 778.698 649.621 778.728 657.022 779.068C659.235 779.169 659.23 775.729 657.022 775.628C649.621 775.288 642.211 775.258 634.807 775.537C632.6 775.621 632.59 779.061 634.807 778.978Z" fill="black"/>
<path d="M636.201 768.508C650.251 769.8 664.361 769.154 678.434 768.694C692.738 768.228 707.05 767.998 721.361 768.009C729.517 768.015 737.673 768.1 745.828 768.26C748.042 768.304 748.042 764.863 745.828 764.82C731.516 764.54 717.199 764.493 702.886 764.688C688.665 764.882 674.458 765.554 660.24 765.788C652.22 765.92 644.193 765.803 636.201 765.068C633.998 764.865 634.011 768.307 636.201 768.508Z" fill="black"/>
<path d="M758.732 767.307C759.278 767.202 759.84 767.074 760.395 767.03C759.928 767.067 760.373 767.033 760.453 767.023C760.582 767.008 760.712 766.993 760.841 766.978C761.121 766.947 761.402 766.92 761.683 766.897C762.787 766.805 763.895 766.773 765.003 766.795C765.903 766.813 766.764 765.991 766.723 765.075C766.681 764.128 765.967 763.374 765.003 763.355C762.594 763.308 760.183 763.534 757.818 763.99C756.932 764.161 756.346 765.27 756.616 766.106C756.922 767.05 757.784 767.49 758.732 767.307Z" fill="black"/>
<path d="M676.189 779.179C699.955 780.533 723.778 780.853 747.572 780.12C754.286 779.913 760.997 779.62 767.703 779.248C769.905 779.126 769.919 775.685 767.703 775.808C743.935 777.126 720.111 777.41 696.318 776.641C689.605 776.423 682.895 776.121 676.189 775.739C673.977 775.613 673.984 779.053 676.189 779.179Z" fill="black"/>
<path d="M599.559 788.256C595.288 783.963 592.483 778.246 592.321 772.135C592.166 766.267 594.539 760.489 598.441 756.144C602.488 751.636 607.878 749.309 613.584 747.618C619.797 745.778 626.223 744.626 632.632 743.73C647.407 741.664 662.431 741.187 677.334 741.159C684.967 741.144 692.598 741.322 700.224 741.665C707.873 742.009 715.506 742.343 723.165 742.209C740.378 741.909 757.591 741.204 774.798 740.682C777.007 740.615 777.016 737.175 774.798 737.242C758.918 737.723 743.039 738.262 727.158 738.68C711.197 739.1 695.283 737.756 679.325 737.719C663.762 737.683 648.101 738.187 632.665 740.282C626.07 741.177 619.457 742.328 613.057 744.187C607.083 745.924 601.248 748.332 596.821 752.845C591.972 757.788 588.862 764.588 588.872 771.562C588.883 778.771 592.085 785.621 597.126 790.688C598.69 792.26 601.122 789.828 599.559 788.256Z" fill="black"/>
<path d="M489.005 441.775C471.127 464.301 449.386 483.754 425.019 499.028C426.387 466.864 429.392 434.547 433.88 402.646C434.066 401.33 434.248 399.952 433.8 398.7C432.902 396.192 429.826 395.167 427.166 395.32C424.507 395.474 421.936 396.451 419.272 396.499C413.393 396.606 408.363 392.212 405.026 387.37C402.641 383.908 400.499 381.378 397.226 378.789C394.642 376.744 393.07 372.505 390.251 371.034C382.866 367.18 378.668 379.871 377.371 384.71C375.704 390.928 376.257 397.583 377.984 403.785C380.462 412.686 385.375 420.412 388.993 428.782C393.274 438.685 388.708 449.941 384.623 459.927C374.864 483.78 366.879 506.479 367.751 532.793C368.03 541.218 369.181 549.939 373.695 557.058C379.926 566.882 391.478 571.977 402.784 574.719C442.202 584.28 486.438 570.014 512.844 539.226" fill="white"/>
<path d="M487.789 440.559C473.922 458 457.779 473.645 439.839 486.867C434.745 490.621 429.509 494.178 424.151 497.543L426.739 499.028C427.623 478.378 429.164 457.758 431.34 437.205C432.425 426.96 433.663 416.73 435.064 406.523C435.634 402.364 436.962 397.398 432.599 394.83C428.66 392.511 424.52 394.259 420.377 394.708C416.26 395.154 412.606 393.137 409.735 390.336C406.8 387.47 404.845 383.801 402.022 380.826C400.607 379.336 398.886 378.171 397.488 376.682C396.247 375.36 395.322 373.767 394.205 372.345C392.254 369.861 389.38 368.056 386.118 368.759C380.744 369.917 378.109 376.779 376.579 381.367C373.885 389.445 374.275 397.876 376.834 405.951C378.234 410.369 380.204 414.586 382.255 418.734C384.244 422.757 386.652 426.799 388.026 431.085C390.89 440.014 386.979 449.59 383.638 457.817C376.658 475.005 369.955 492.433 367.299 510.899C365.974 520.11 365.493 529.539 366.41 538.815C367.278 547.598 369.8 556.197 375.969 562.757C381.491 568.629 388.972 572.319 396.555 574.759C404.059 577.174 411.947 578.518 419.799 579.091C435.393 580.229 451.255 577.981 465.996 572.803C480.834 567.591 494.642 559.438 506.147 548.691C508.934 546.088 511.572 543.331 514.06 540.442C515.497 538.772 513.075 536.328 511.627 538.009C501.752 549.48 489.444 558.639 475.772 565.102C462.099 571.564 447.073 575.274 431.961 575.856C424.445 576.145 416.889 575.685 409.482 574.369C401.915 573.025 394.309 570.963 387.54 567.244C380.543 563.4 374.921 557.716 372.229 550.093C369.294 541.781 369.144 532.537 369.512 523.821C370.271 505.827 375.383 488.476 381.768 471.747C383.381 467.523 385.081 463.334 386.787 459.146C388.523 454.881 390.223 450.573 391.307 446.087C392.335 441.832 392.781 437.435 392.052 433.095C391.316 428.72 389.047 424.673 387.091 420.742C383.088 412.696 378.89 404.523 378.195 395.401C377.709 389.017 379.142 382.369 382.257 376.746C383.268 374.919 384.755 372.56 386.928 372.1C389.663 371.522 391.556 374.464 392.96 376.438C394.064 377.989 395.205 379.325 396.671 380.54C398.193 381.8 399.6 383.189 400.876 384.697C403.453 387.739 405.384 391.201 408.454 393.821C411.434 396.365 415.086 398.226 419.081 398.219C422.809 398.213 427.349 395.718 430.863 397.8C432.685 398.88 432.407 400.838 432.153 402.677C431.817 405.11 431.48 407.543 431.156 409.977C430.503 414.873 429.886 419.773 429.305 424.677C426.949 444.558 425.18 464.509 424.027 484.496C423.748 489.338 423.506 494.182 423.299 499.027C423.244 500.316 424.807 501.191 425.887 500.513C445.007 488.505 462.55 473.983 477.874 457.4C482.169 452.753 486.284 447.943 490.222 442.991C490.804 442.258 490.923 441.276 490.222 440.558C489.628 439.952 488.366 439.833 487.789 440.559Z" fill="black"/>
<path d="M649.61 720.378C652.235 713.698 649.823 704.241 647.975 697.517C646.558 692.363 644.178 687.366 640.393 683.591C638.759 681.961 636.829 680.552 634.608 679.926C627.497 677.922 621.018 685.876 619.174 691.84C617.69 696.64 617.778 701.774 618.112 706.786C618.358 710.488 618.774 714.317 620.662 717.511C622.865 721.239 626.763 723.59 630.562 725.67C633.445 727.249 636.561 728.806 639.84 728.571C644.313 728.251 647.97 724.552 649.61 720.378Z" fill="black"/>
<path d="M795.106 683.849C794.28 686.954 792.501 690.05 793.248 693.175C793.865 695.758 796.152 697.887 796.072 700.541C795.958 704.308 791.289 706.401 790.336 710.047C789.313 713.964 792.945 717.795 792.516 721.82C792.014 726.527 786.577 728.794 781.968 729.874C741.143 739.435 698.5 731.691 656.576 732.387C647.408 732.539 637.984 733.061 629.326 730.045C636.026 722.617 640.643 712.926 640.406 702.925C640.169 692.924 634.443 682.829 625.231 678.93C641.797 671.376 660.729 671.945 678.933 671.597C698.263 671.227 717.544 669.664 736.867 669.119C746.642 668.843 756.431 668.821 766.199 669.354C770.258 669.575 774.166 669.879 778.178 669.647C781.941 669.429 786.683 668.602 790.012 670.863C793.298 673.094 796.122 680.031 795.106 683.849Z" fill="white"/>
<path d="M793.448 683.391C792.524 686.699 790.826 689.888 791.546 693.42C791.835 694.837 792.577 696.119 793.26 697.376C793.861 698.482 794.554 699.689 794.295 700.992C793.852 703.218 791.418 704.935 790.133 706.685C788.426 709.011 788.106 711.653 788.883 714.403C789.589 716.903 791.365 719.614 790.687 722.292C790.114 724.555 787.87 725.933 785.874 726.821C783.178 728.02 780.186 728.547 777.313 729.137C773.741 729.87 770.144 730.483 766.533 730.983C737.227 735.043 707.547 731.926 678.146 730.922C669.883 730.64 661.625 730.564 653.358 730.729C645.429 730.888 637.382 730.979 629.783 728.387L630.542 731.262C636.361 724.755 640.68 716.781 641.831 708.052C642.872 700.152 640.974 691.941 636.144 685.54C633.514 682.054 630.123 679.188 626.099 677.445V680.415C636.496 675.72 647.966 674.276 659.259 673.752C671.258 673.196 683.277 673.308 695.279 672.769C707.988 672.198 720.684 671.381 733.399 670.947C739.69 670.733 745.986 670.611 752.282 670.658C758.618 670.706 764.925 671.063 771.252 671.351C774.44 671.495 777.583 671.412 780.763 671.175C783.344 670.983 786.326 670.711 788.666 672.053C790.48 673.093 791.662 675.187 792.45 677.059C793.25 678.964 793.945 681.323 793.448 683.391C792.93 685.543 796.246 686.461 796.765 684.306C797.778 680.096 795.909 675.141 793.365 671.809C790.068 667.491 785.001 667.403 780.004 667.794C773.739 668.284 767.494 667.635 761.23 667.409C754.604 667.169 747.97 667.161 741.341 667.291C728.12 667.551 714.92 668.361 701.715 669.021C688.98 669.659 676.252 669.775 663.512 670.153C650.16 670.549 636.667 671.889 624.362 677.445C623.249 677.947 623.223 679.921 624.362 680.415C630.784 683.197 635.366 688.913 637.439 695.527C639.716 702.794 638.695 710.66 635.566 717.523C633.682 721.656 631.133 725.447 628.109 728.829C627.219 729.824 627.611 731.275 628.868 731.704C635.848 734.085 643.285 734.319 650.591 734.218C658.021 734.116 665.436 734.018 672.866 734.205C688.083 734.586 703.273 735.633 718.486 736.136C733.559 736.635 748.701 736.602 763.695 734.789C767.306 734.353 770.907 733.824 774.486 733.176C777.885 732.561 781.364 731.963 784.665 730.922C789.632 729.355 794.938 725.945 794.181 720.003C793.954 718.217 793.269 716.585 792.666 714.904C792.167 713.512 791.624 711.991 791.995 710.504C792.643 707.902 795.416 706.208 796.747 703.971C798.617 700.823 797.464 697.937 795.874 694.991C795.029 693.425 794.59 692.02 794.926 690.232C795.309 688.2 796.21 686.292 796.765 684.306C797.361 682.17 794.043 681.259 793.448 683.391Z" fill="black"/>
<path d="M630.506 621.648C612.848 618.493 594.73 617.928 576.911 619.974C570.349 620.728 563.244 622.151 558.996 627.208C556.047 630.72 554.993 635.432 554.485 639.99C551.243 669.071 566.517 695.746 590.083 711.684C600.362 718.636 610.839 725.297 621.496 731.655C630.693 737.142 639.947 737.505 650.4 737.77C661.915 738.062 673.435 738.137 684.953 738.109C707.926 738.052 731.054 738.395 754.01 737.577C759.16 737.394 764.295 736.924 769.427 736.455C775.312 735.917 781.223 735.158 787.124 734.833C790.844 734.628 795.17 733.558 794.468 728.517C793.71 723.081 787.76 723.446 783.688 723.524C777.775 723.637 771.862 723.776 765.948 723.895C754.121 724.134 742.293 724.348 730.465 724.502C706.542 724.814 682.614 724.883 658.693 724.417C649.87 724.245 640.683 723.908 632.895 719.758C625.108 715.607 619.251 706.433 621.83 697.994C623.281 693.244 627.139 689.509 631.546 687.218C635.952 684.926 640.901 683.911 645.806 683.132C665.168 680.059 684.878 680.291 704.482 680.171C733.646 679.992 762.798 679.016 791.945 678.041C793.066 678.003 794.221 677.958 795.245 677.497C800.447 675.148 800.205 663.818 797.546 659.89C795.245 656.491 791.669 654.207 788.195 652.02C780.505 647.179 772.814 642.342 765.127 637.497C759.964 634.243 753.752 629.971 747.753 628.747C743.763 627.933 739.642 628.169 735.577 628.408C709.107 629.967 682.579 629.661 656.078 629.438C641.388 629.315 626.817 628.498 612.147 629.701C599.076 630.773 586.958 621.456 573.657 628.155C562.443 633.803 558.266 647.89 558.416 660.445C558.488 666.402 559.348 671.804 560.89 676.754" fill="#B78437"/>
<path d="M794.335 724.263C792.218 722.355 789.625 722.352 786.938 722.102C783.927 721.823 780.954 721.654 777.926 721.713C771.766 721.834 765.613 722.185 759.451 722.304C746.8 722.548 734.147 722.757 721.494 722.887C708.867 723.017 696.24 723.07 683.613 723.001C677.383 722.967 671.152 722.904 664.923 722.806C659.142 722.716 653.321 722.747 647.566 722.128C637.957 721.095 627.428 717.119 623.877 707.247C622.301 702.865 622.776 698.289 625.5 694.466C628.518 690.231 633.409 687.822 638.293 686.445C644.033 684.826 650.083 684.139 656 683.523C662.17 682.88 668.365 682.505 674.563 682.282C687.015 681.833 699.481 681.96 711.938 681.828C736.959 681.563 761.97 680.762 786.977 679.927C789.76 679.834 793.069 680.198 795.702 679.155C797.736 678.349 796.85 675.021 794.788 675.838C793.473 676.359 792.096 676.316 790.703 676.362C788.964 676.421 787.225 676.479 785.486 676.537C782.34 676.642 779.193 676.746 776.046 676.848C769.587 677.058 763.127 677.262 756.667 677.449C743.914 677.819 731.158 678.128 718.4 678.308C705.749 678.487 693.094 678.385 680.445 678.671C667.828 678.956 655.106 679.644 642.672 681.928C637.244 682.925 631.734 684.513 627.274 687.89C623.316 690.887 620.297 695.08 619.641 700.086C618.347 709.96 625.972 718.79 634.569 722.447C639.718 724.637 645.281 725.479 650.833 725.848C656.925 726.253 663.056 726.227 669.159 726.308C681.951 726.477 694.745 726.505 707.538 726.437C720.429 726.369 733.319 726.203 746.208 725.985C752.622 725.876 759.035 725.758 765.448 725.625C771.675 725.497 777.92 724.837 784.147 725.273C785.516 725.369 786.876 725.54 788.245 725.635C789.515 725.723 790.91 725.801 791.902 726.695C793.543 728.174 795.984 725.749 794.335 724.263Z" fill="black"/>
<path d="M654.137 709.109C661.54 708.781 668.952 708.816 676.352 709.214C678.564 709.334 678.557 705.893 676.352 705.774C668.952 705.376 661.54 705.341 654.137 705.669C651.932 705.766 651.92 709.207 654.137 709.109Z" fill="black"/>
<path d="M655.531 696.831C669.57 698.345 683.692 697.588 697.764 697.05C712.066 696.502 726.378 696.233 740.691 696.246C748.847 696.253 757.003 696.353 765.157 696.54C767.372 696.591 767.371 693.151 765.157 693.1C750.846 692.771 736.529 692.716 722.215 692.945C707.992 693.173 693.789 693.961 679.569 694.235C671.547 694.39 663.514 694.252 655.531 693.391C653.333 693.154 653.349 696.596 655.531 696.831Z" fill="black"/>
<path d="M778.062 695.433C778.613 695.309 779.167 695.199 779.725 695.108C779.853 695.087 779.982 695.067 780.111 695.047C780.19 695.036 780.631 694.951 780.17 695.037C780.446 694.986 780.734 694.969 781.012 694.942C782.116 694.834 783.224 694.797 784.333 694.822C785.233 694.843 786.094 694.016 786.053 693.102C786.01 692.152 785.297 691.404 784.333 691.382C781.922 691.327 779.499 691.585 777.147 692.116C776.269 692.315 775.669 693.377 775.946 694.232C776.244 695.153 777.121 695.646 778.062 695.433Z" fill="black"/>
<path d="M695.519 709.344C719.275 710.932 743.108 711.308 766.902 710.448C773.617 710.205 780.328 709.862 787.033 709.426C789.231 709.283 789.247 705.842 787.033 705.986C763.274 707.531 739.44 707.865 715.648 706.962C708.933 706.707 702.223 706.352 695.519 705.904C693.309 705.757 693.318 709.197 695.519 709.344Z" fill="black"/>
<path d="M618.888 720.496C610.445 710.559 609.388 696.035 616.108 684.911C619.306 679.616 623.894 676.012 629.549 673.623C635.482 671.117 641.878 669.64 648.188 668.449C663.305 665.596 678.821 664.9 694.175 664.772C701.968 664.707 709.762 664.868 717.546 665.25C725.365 665.634 733.164 666.135 740.998 666.018C758.708 665.752 776.427 664.829 794.128 664.2C796.335 664.122 796.345 660.681 794.128 660.76C777.75 661.342 761.372 662.037 744.99 662.49C728.703 662.94 712.457 661.264 696.166 661.32C680.315 661.375 664.313 662.071 648.685 664.872C642.016 666.068 635.288 667.588 628.998 670.156C622.989 672.61 617.957 676.107 614.222 681.498C605.487 694.106 606.577 711.302 616.456 722.928C617.891 724.618 620.314 722.174 618.888 720.496Z" fill="black"/>
<path d="M307.245 479.689C312.872 473.738 318.503 467.784 323.83 461.561C328.441 456.019 333.164 451.671 336.849 445.433C337.105 445.001 337.368 444.542 337.373 444.04C337.383 442.95 336.204 442.161 336.102 441.077C335.981 439.791 337.41 438.573 336.905 437.384C336.345 436.066 334.432 436.541 333.71 435.479C332.978 434.401 333.599 433.472 333.182 432.437C332.202 430.004 331.098 428.814 328.989 426.867C323.921 422.188 318.655 417.725 313.209 413.493C302.753 405.368 291.635 398.093 279.997 391.774C277.896 390.634 275.654 389.493 273.265 389.577C267.457 389.78 264.73 396.323 261.225 399.948C256.056 405.292 250.49 410.592 244.546 415.066C242.78 413.922 241.128 411.912 239.369 410.566C237.221 408.922 235.072 407.279 232.924 405.635C228.501 402.252 224.079 398.868 219.656 395.485C219.32 395.228 218.976 394.966 218.578 394.824C217.71 394.513 216.755 394.812 215.883 395.11C212.816 396.159 209.749 397.208 206.682 398.257C204.866 398.878 200.597 399.62 200.605 402.13C200.614 405.02 201.129 407.931 201.426 410.796C202.041 416.735 202.874 422.651 203.923 428.529C205.308 436.29 207.068 443.985 209.196 451.577C210.751 457.126 211.781 467.672 216.859 470.744C237.181 483.035 257.68 495.411 280.069 503.336C286.178 505.499 288.749 499.249 292.537 495.243C297.44 490.058 302.342 484.874 307.245 479.689Z" fill="#B78437"/>
<path d="M315.412 450.341C321.76 444.447 329.141 439.689 334.404 432.693C334.786 432.186 334.648 431.475 334.404 430.957C332.857 427.658 329.907 425.341 327.246 422.964C324.207 420.248 321.099 417.61 317.927 415.05C311.561 409.914 304.949 405.082 298.107 400.598C294.759 398.403 291.356 396.291 287.904 394.264C284.467 392.247 280.947 389.943 277.196 388.558C274.146 387.431 270.808 387.706 268.118 389.578C265.737 391.235 264.044 393.598 262.33 395.894C260.011 399.004 257.164 401.682 254.368 404.358C250.968 407.613 247.433 410.739 243.678 413.58H245.414C244.538 412.983 243.777 412.252 243.011 411.522C242.239 410.787 240.843 410.867 240.309 411.87C239.316 413.739 238.333 415.612 237.371 417.497C236.989 418.244 237.095 419.468 237.988 419.85C247.761 424.03 253.815 433.48 263.007 438.561C265.176 439.76 267.524 440.709 269.958 441.201C272.99 441.813 276.57 441.436 279.353 442.944C283.024 444.932 283.153 449.853 283.329 453.515C283.674 460.709 284.859 467.818 285.973 474.926C286.271 476.829 289.499 476.398 289.351 474.469C289.345 474.385 289.332 474.814 289.221 474.873C289.298 474.832 289.4 474.541 289.457 474.463C289.617 474.24 289.76 474.054 290.131 473.646C290.917 472.779 291.772 471.974 292.633 471.183C294.599 469.378 296.646 467.663 298.693 465.95C304.534 461.064 309.851 455.541 315.412 450.341C317.032 448.826 314.596 446.397 312.98 447.909C307.238 453.278 301.732 458.933 295.705 463.983C293.519 465.814 291.33 467.651 289.269 469.622C288.089 470.751 285.769 472.611 285.911 474.469L289.29 474.012C288.255 467.409 287.099 460.788 286.796 454.103C286.601 449.808 286.405 444.802 283.185 441.547C281.229 439.569 278.582 438.867 275.902 438.517C272.853 438.119 269.896 437.914 267.025 436.712C262.147 434.67 258.16 430.978 254.294 427.475C249.847 423.445 245.309 419.269 239.724 416.88L240.341 419.233C241.303 417.348 242.286 415.474 243.28 413.606L240.578 413.954C241.558 414.888 242.557 415.787 243.678 416.551C244.132 416.861 244.963 416.892 245.414 416.551C251.601 411.87 257.494 406.574 262.737 400.848C265.772 397.533 268.584 390.945 273.932 391.308C275.798 391.434 277.518 392.388 279.129 393.259C280.822 394.175 282.501 395.116 284.17 396.075C287.575 398.03 290.932 400.068 294.239 402.186C300.734 406.347 307.041 410.81 313.104 415.578C316.616 418.34 320.051 421.198 323.406 424.148C326.269 426.667 329.778 429.163 331.434 432.693V430.956C326.38 437.674 319.077 442.247 312.98 447.909C311.354 449.418 313.791 451.847 315.412 450.341Z" fill="black"/>
<path d="M283.409 440.975C279.533 437.635 275.595 434.305 271.074 431.917C264.819 428.615 259.245 424.5 253.524 420.334C247.704 416.097 242.148 411.517 236.595 406.94C231.534 402.769 225.554 398.995 220.885 394.486C220.085 393.714 218.813 393.049 217.931 393.726C217.578 393.997 217.382 394.433 217.036 394.713C215.726 395.77 213.761 393.909 212.171 394.46C210.486 395.044 210.547 397.768 208.944 398.551C208.088 398.969 207.065 398.667 206.189 398.293C205.312 397.919 204.397 397.467 203.455 397.608C202.259 397.787 201.679 399.524 201.579 400.473C203.264 401.793 204.962 403.098 206.664 404.395C211.36 407.973 216.102 411.491 220.861 414.986C235.138 425.473 249.452 436.035 264.252 445.781C266.805 446.38 269.057 449.904 270.863 451.582C271.389 452.071 272.029 452.596 272.736 452.471C273.464 452.342 273.91 451.575 274.599 451.304C275.69 450.875 277.022 451.805 278.053 451.247C279.3 450.572 278.654 449.08 279.25 448.108C280.12 446.692 280.732 446.973 282.078 446.126C283.959 444.943 286.133 443.322 283.864 441.366C283.713 441.236 283.561 441.105 283.409 440.975Z" fill="#B78437"/>
<path d="M632.824 642.042C635.449 635.362 633.037 625.905 631.189 619.181C629.772 614.027 627.391 609.03 623.607 605.255C621.973 603.625 620.043 602.216 617.822 601.59C610.711 599.586 604.232 607.54 602.388 613.505C600.904 618.304 600.992 623.438 601.326 628.45C601.572 632.152 601.988 635.981 603.875 639.175C606.079 642.903 609.977 645.255 613.776 647.335C616.659 648.914 619.775 650.47 623.053 650.235C627.527 649.915 631.184 646.216 632.824 642.042Z" fill="black"/>
<path d="M778.32 605.513C777.494 608.618 775.715 611.714 776.462 614.84C777.079 617.422 779.366 619.551 779.286 622.205C779.172 625.972 774.503 628.066 773.55 631.712C772.527 635.628 776.158 639.459 775.729 643.484C775.227 648.191 769.791 650.459 765.182 651.538C724.357 661.099 681.714 653.355 639.789 654.051C630.622 654.204 621.198 654.726 612.539 651.71C619.24 644.281 623.856 634.591 623.619 624.59C623.382 614.588 617.657 604.493 608.444 600.594C625.01 593.04 643.943 593.61 662.147 593.261C681.476 592.891 700.758 591.328 720.08 590.783C729.856 590.508 739.645 590.485 749.413 591.018C753.472 591.239 757.38 591.543 761.391 591.311C765.155 591.093 769.896 590.266 773.226 592.528C776.511 594.759 779.336 601.695 778.32 605.513Z" fill="white"/>
<path d="M776.661 605.056C775.737 608.364 774.04 611.552 774.76 615.084C775.049 616.501 775.791 617.783 776.474 619.04C777.074 620.146 777.768 621.353 777.508 622.657C777.066 624.882 774.631 626.599 773.347 628.35C771.64 630.676 771.32 633.317 772.097 636.067C772.803 638.567 774.578 641.278 773.901 643.956C773.328 646.22 771.084 647.597 769.088 648.485C766.391 649.685 763.4 650.211 760.527 650.801C756.955 651.535 753.358 652.147 749.746 652.647C720.44 656.707 690.76 653.591 661.36 652.586C653.097 652.304 644.838 652.229 636.572 652.394C628.642 652.552 620.596 652.643 612.996 650.051L613.755 652.926C619.575 646.419 623.894 638.446 625.044 629.716C626.086 621.816 624.188 613.605 619.358 607.204C616.727 603.718 613.336 600.852 609.312 599.109V602.079C619.71 597.385 631.18 595.94 642.473 595.417C654.471 594.861 666.491 594.972 678.493 594.433C691.201 593.862 703.898 593.045 716.612 592.612C722.904 592.397 729.2 592.275 735.495 592.322C741.831 592.37 748.139 592.727 754.466 593.015C757.654 593.16 760.797 593.077 763.976 592.839C766.558 592.647 769.54 592.375 771.879 593.717C773.694 594.758 774.876 596.851 775.663 598.724C776.464 600.628 777.159 602.987 776.661 605.056C776.143 607.207 779.46 608.125 779.978 605.97C780.992 601.76 779.122 596.805 776.578 593.473C773.281 589.155 768.215 589.068 763.218 589.458C756.952 589.948 750.707 589.3 744.444 589.073C737.817 588.834 731.184 588.826 724.554 588.956C711.334 589.215 698.133 590.025 684.929 590.686C672.194 591.323 659.466 591.439 646.725 591.817C633.374 592.213 619.88 593.553 607.576 599.109C606.463 599.612 606.437 601.586 607.576 602.079C613.997 604.861 618.58 610.577 620.653 617.191C622.929 624.458 621.908 632.324 618.78 639.187C616.896 643.32 614.347 647.112 611.323 650.493C610.433 651.488 610.825 652.939 612.082 653.368C619.062 655.749 626.498 655.984 633.805 655.883C641.234 655.78 648.649 655.682 656.079 655.869C671.297 656.251 686.487 657.298 701.699 657.8C716.773 658.299 731.915 658.267 746.908 656.454C750.52 656.017 754.12 655.489 757.7 654.841C761.099 654.225 764.578 653.627 767.878 652.586C772.846 651.019 778.152 647.61 777.395 641.667C777.167 639.881 776.482 638.25 775.88 636.568C775.381 635.177 774.838 633.655 775.208 632.169C775.857 629.566 778.63 627.873 779.96 625.635C781.831 622.488 780.678 619.602 779.088 616.656C778.243 615.089 777.803 613.685 778.14 611.897C778.523 609.865 779.423 607.956 779.978 605.97C780.575 603.834 777.257 602.923 776.661 605.056Z" fill="black"/>
<path d="M752.64 658.119C758.526 657.581 764.437 656.822 770.337 656.497C774.058 656.292 778.384 655.223 777.681 650.182C776.924 644.745 770.973 645.11 766.902 645.188C760.988 645.301 755.075 645.441 749.162 645.56C737.335 645.798 725.507 646.012 713.679 646.167C689.756 646.479 665.828 646.547 641.907 646.081C633.084 645.909 623.896 645.573 616.109 641.422C608.322 637.271 602.464 628.097 605.044 619.658C606.495 614.908 610.353 611.174 614.76 608.882C619.166 606.59 624.114 605.575 629.02 604.796C648.382 601.724 668.092 601.956 687.696 601.835C716.859 601.656 746.011 600.681 775.159 599.705C776.28 599.668 777.434 599.623 778.459 599.161C783.661 596.812 783.419 585.483 780.76 581.555C778.458 578.155 774.883 575.872 771.408 573.684C763.719 568.843 756.028 564.006 748.341 559.162C743.178 555.908 736.966 551.635 730.967 550.411C726.977 549.597 722.856 549.833 718.79 550.073C692.32 551.631 665.792 551.325 639.291 551.103C610.023 550.856 573.587 545.97 552.912 571.65C546.663 579.412 544.907 587.817 546.109 597.569C547.026 605.001 549.569 612.335 553.967 618.437C558.489 624.709 566.937 629.047 573.296 633.348C583.576 640.3 594.053 646.961 604.71 653.319C613.907 658.806 623.161 659.17 633.614 659.434C645.129 659.726 656.649 659.801 668.167 659.773C691.14 659.717 714.268 660.059 737.224 659.241C742.374 659.058 747.509 658.589 752.64 658.119Z" fill="#B78437"/>
<path d="M777.549 645.927C775.431 644.019 772.838 644.016 770.152 643.767C767.14 643.487 764.168 643.318 761.14 643.377C754.98 643.498 748.827 643.849 742.665 643.968C730.014 644.212 717.361 644.421 704.708 644.551C692.081 644.681 679.454 644.734 666.827 644.665C660.596 644.632 654.366 644.568 648.136 644.471C642.356 644.38 636.535 644.411 630.78 643.792C621.171 642.759 610.642 638.783 607.091 628.911C605.514 624.529 605.989 619.953 608.713 616.131C611.732 611.895 616.623 609.486 621.506 608.109C627.247 606.49 633.297 605.804 639.214 605.187C645.384 604.544 651.579 604.169 657.777 603.946C670.229 603.497 682.694 603.625 695.152 603.493C720.173 603.227 745.183 602.426 770.19 601.591C772.974 601.498 776.283 601.863 778.916 600.819C780.95 600.014 780.063 596.685 778.001 597.502C776.687 598.023 775.31 597.98 773.917 598.027C772.178 598.085 770.439 598.143 768.7 598.201C765.553 598.306 762.407 598.41 759.26 598.512C752.801 598.723 746.341 598.926 739.881 599.113C727.127 599.483 714.372 599.792 701.614 599.972C688.963 600.151 676.308 600.05 663.659 600.335C651.041 600.62 638.32 601.308 625.886 603.592C620.458 604.589 614.948 606.177 610.488 609.554C606.53 612.551 603.511 616.744 602.855 621.751C601.561 631.624 609.186 640.455 617.783 644.111C622.932 646.302 628.495 647.144 634.047 647.512C640.139 647.917 646.27 647.891 652.373 647.972C665.165 648.141 677.959 648.169 690.752 648.101C703.643 648.033 716.533 647.867 729.422 647.649C735.835 647.54 742.249 647.422 748.662 647.29C754.889 647.161 761.133 646.501 767.361 646.938C768.729 647.034 770.09 647.205 771.459 647.299C772.729 647.387 774.124 647.465 775.116 648.36C776.757 649.838 779.197 647.413 777.549 645.927Z" fill="black"/>
<path d="M637.351 630.773C644.754 630.445 652.166 630.48 659.565 630.879C661.778 630.998 661.771 627.558 659.565 627.439C652.166 627.04 644.754 627.005 637.351 627.333C635.146 627.43 635.134 630.871 637.351 630.773Z" fill="black"/>
<path d="M638.745 618.495C652.784 620.009 666.906 619.252 680.977 618.714C695.279 618.167 709.592 617.898 723.905 617.91C732.061 617.917 740.217 618.017 748.371 618.205C750.586 618.255 750.585 614.815 748.371 614.764C734.06 614.436 719.742 614.381 705.429 614.61C691.206 614.837 677.003 615.625 662.783 615.9C654.761 616.055 646.728 615.916 638.745 615.055C636.546 614.818 636.563 618.26 638.745 618.495Z" fill="black"/>
<path d="M761.276 617.098C761.827 616.973 762.381 616.863 762.938 616.772C763.067 616.751 763.196 616.731 763.325 616.712C763.404 616.7 763.845 616.615 763.384 616.701C763.659 616.65 763.948 616.633 764.226 616.606C765.329 616.498 766.438 616.461 767.546 616.487C768.446 616.507 769.307 615.68 769.266 614.766C769.224 613.817 768.511 613.069 767.546 613.047C765.135 612.991 762.713 613.249 760.361 613.781C759.483 613.979 758.883 615.041 759.16 615.897C759.458 616.817 760.334 617.311 761.276 617.098Z" fill="black"/>
<path d="M678.732 631.009C702.488 632.596 726.322 632.972 750.115 632.112C756.83 631.869 763.542 631.526 770.247 631.09C772.445 630.947 772.461 627.506 770.247 627.65C746.488 629.195 722.654 629.529 698.862 628.626C692.147 628.372 685.437 628.017 678.732 627.569C676.522 627.421 676.531 630.862 678.732 631.009Z" fill="black"/>
<path d="M602.102 642.16C593.659 632.223 592.602 617.699 599.322 606.576C602.52 601.281 607.107 597.677 612.763 595.288C618.696 592.781 625.092 591.305 631.402 590.114C646.519 587.26 662.035 586.564 677.389 586.436C685.182 586.371 692.976 586.532 700.76 586.914C708.579 587.299 716.378 587.799 724.211 587.682C741.921 587.416 759.641 586.494 777.341 585.864C779.549 585.786 779.559 582.346 777.341 582.424C760.964 583.007 744.585 583.702 728.204 584.154C711.916 584.605 695.671 582.929 679.38 582.985C663.529 583.039 647.527 583.736 631.899 586.537C625.23 587.732 618.502 589.253 612.212 591.82C606.202 594.274 601.171 597.771 597.436 603.162C588.701 615.77 589.791 632.966 599.67 644.593C601.105 646.282 603.528 643.839 602.102 642.16Z" fill="black"/>
<path d="M520.492 696.914C521.87 701.275 524.282 704.584 524.787 709.408C525.322 714.513 524.608 719.732 523.047 724.605C520.427 732.786 515.587 740.063 510.466 746.96C505.345 753.857 499.857 760.534 495.671 768.036C492.062 774.503 489.427 782.141 491.481 789.257C493.756 797.142 501.607 802.592 509.743 803.669C517.879 804.746 526.133 802.058 533.226 797.93C538.236 795.013 542.178 791.29 546.436 787.451C550.731 783.578 555.208 780.413 558.587 775.532C556.835 773.669 555.048 771.753 554.046 769.399C552.105 764.841 554.389 758.977 559.774 758.606C564.052 758.312 567.238 762.338 569.277 765.577C568.793 764.808 596.019 740.631 598.533 738.232C602.906 734.059 610.382 730.228 610.215 723.176C610.145 720.241 608.862 717.475 607.402 714.929C605.706 711.97 603.741 709.176 601.78 706.387C592.174 692.73 582.569 679.073 572.963 665.416" fill="black"/>
<path d="M518.833 697.371C519.734 700.142 521.129 702.708 522.097 705.451C523.159 708.464 523.365 711.594 523.188 714.767C522.822 721.304 520.519 727.562 517.412 733.271C511.131 744.813 501.77 754.279 495.102 765.572C491.923 770.956 489.255 776.969 489.053 783.313C488.872 788.971 491.013 794.354 495.024 798.341C503.645 806.911 516.64 807.073 527.349 802.72C534.036 800.001 539.653 795.863 544.992 791.07C550.184 786.41 556.022 782.154 560.072 776.4C560.517 775.768 560.296 774.839 559.803 774.315C557.898 772.287 555.665 770.045 555.172 767.185C554.838 765.244 555.353 763.073 556.783 761.672C560.928 757.608 565.661 763.092 567.792 766.445C568.781 768.001 571.707 767.007 570.936 765.12C571.081 765.475 570.856 766.186 570.818 766.27C570.94 766.004 570.865 766.205 570.727 766.371C570.923 766.136 571.124 765.907 571.333 765.682C571.989 764.976 572.68 764.302 573.37 763.629C575.462 761.593 577.604 759.607 579.749 757.627C584.777 752.988 589.859 748.408 594.937 743.823C596.43 742.476 597.932 741.138 599.405 739.77C602.179 737.196 605.385 735.078 607.97 732.304C611.492 728.526 612.844 723.857 611.137 718.864C609.056 712.778 604.639 707.473 600.982 702.274C592.138 689.699 583.293 677.123 574.448 664.548C573.184 662.751 570.2 664.468 571.478 666.284C579.372 677.507 587.265 688.731 595.159 699.954C598.9 705.272 602.956 710.496 606.134 716.18C607.528 718.672 608.852 721.568 608.434 724.502C608.156 726.457 607.056 728.195 605.756 729.635C603.158 732.511 599.858 734.655 597.028 737.286C595.586 738.627 594.115 739.937 592.654 741.256C587.649 745.775 582.64 750.289 577.681 754.859C575.292 757.061 572.903 759.266 570.584 761.543C569.674 762.436 566.979 764.472 567.619 766.035L570.762 764.709C568.977 761.899 566.777 759.006 563.645 757.631C560.613 756.299 557.026 756.799 554.559 759.043C552.377 761.027 551.396 764.15 551.702 767.043C552.118 770.978 554.768 773.978 557.371 776.748L557.102 774.664C553.641 779.58 548.631 783.147 544.216 787.142C539.686 791.24 535.13 795.141 529.646 797.921C519.838 802.891 507.043 804.566 498.24 796.65C494.267 793.078 492.231 788.234 492.511 782.886C492.827 776.846 495.68 771.189 498.784 766.127C505.357 755.411 514.22 746.256 520.277 735.202C523.626 729.088 526.051 722.457 526.583 715.466C526.84 712.078 526.696 708.549 525.667 705.29C524.71 702.262 523.133 699.477 522.15 696.457C521.468 694.361 518.145 695.258 518.833 697.371Z" fill="black"/>
<path d="M465.724 367.302C481.104 367.251 496.67 369.901 510.505 376.617C524.341 383.334 536.356 394.322 542.822 408.277C553.283 430.852 548.189 457.409 540.721 481.144C533.627 503.692 524.103 524.629 512.423 545.121C512.084 545.716 511.734 546.347 511.737 547.032C511.739 547.717 512.092 548.345 512.436 548.938C522.907 566.957 534.57 584.091 544.604 602.106C556.356 623.207 571.369 643.08 584.583 663.308C585.133 664.15 585.7 665.04 585.779 666.043C585.897 667.533 584.924 668.867 583.988 670.033C574.28 682.128 563.054 692.999 550.679 702.346C544.286 707.175 537.585 711.555 530.648 715.56C526.208 718.123 520.651 724.682 515.158 722.505C511.88 721.206 509.609 718.241 507.508 715.409C502.742 708.988 497.975 702.566 493.209 696.144C478.527 676.362 463.842 656.572 449.922 636.242C437.88 618.654 420.957 598.778 417.396 577.302C415.401 565.271 415.948 552.604 420.586 541.324C423.86 533.363 429.046 526.338 434.571 519.737C451.159 499.916 472.368 482.571 497.63 477.11" fill="white"/>
<path d="M465.724 369.022C490.223 369 515.647 376.171 532.233 395.167C540.092 404.167 544.879 415.299 546.41 427.127C548.024 439.594 546.399 452.285 543.56 464.452C537.666 489.72 527.382 514.065 515.062 536.831C513.568 539.59 511.716 542.3 510.467 545.175C509.246 547.982 511.308 550.434 512.687 552.768C516.23 558.764 519.898 564.685 523.582 570.595C530.84 582.237 537.916 593.943 544.741 605.845C551.418 617.49 558.929 628.629 566.513 639.696C570.278 645.191 574.065 650.67 577.79 656.192C579.632 658.922 581.514 661.64 583.262 664.432C584.361 666.187 583.973 667.239 582.772 668.817C581.759 670.148 580.653 671.421 579.571 672.696C571.436 682.286 562.331 691.049 552.45 698.827C547.123 703.02 541.542 706.89 535.788 710.473C533.25 712.054 530.551 713.436 528.112 715.166C525.993 716.669 524.027 718.392 521.787 719.723C519.645 720.996 517.369 721.771 515.024 720.556C512.474 719.236 510.671 716.793 508.993 714.541C504.777 708.883 500.582 703.209 496.377 697.543C487.989 686.243 479.594 674.948 471.331 663.557C463.363 652.574 455.724 641.368 447.865 630.31C440.919 620.535 433.659 610.924 427.849 600.405C421.875 589.588 418.273 578.197 418.035 565.778C417.909 559.194 418.676 552.604 420.624 546.302C422.517 540.179 425.622 534.561 429.29 529.33C436.108 519.606 444.425 510.664 453.319 502.811C461.947 495.193 471.565 488.608 482.12 483.957C487.252 481.696 492.612 479.973 498.087 478.769C500.249 478.294 499.334 474.976 497.173 475.452C473.74 480.604 453.873 495.615 438.045 513.125C429.548 522.527 421.269 532.827 417.401 545.082C413.519 557.384 413.624 571.433 417.095 583.825C420.434 595.743 427.021 606.516 433.962 616.643C441.245 627.268 448.78 637.743 456.192 648.279C464.551 660.16 473.126 671.887 481.76 683.568C486.124 689.473 490.502 695.366 494.878 701.262C499.122 706.98 503.235 712.828 507.649 718.415C510.923 722.558 515.477 726.06 520.94 723.959C523.443 722.997 525.582 721.36 527.695 719.748C529.933 718.04 532.267 716.631 534.679 715.183C546.191 708.27 556.989 700.19 566.816 691.035C571.646 686.535 576.24 681.782 580.57 676.798C582.576 674.489 584.887 672.14 586.483 669.519C588.328 666.49 587.116 664.031 585.346 661.337C577.671 649.65 569.558 638.259 561.803 626.627C557.991 620.908 554.263 615.131 550.724 609.239C547.094 603.195 543.745 596.989 540.14 590.93C532.862 578.699 525.097 566.767 517.766 554.568C516.882 553.098 516.004 551.624 515.135 550.145C514.69 549.389 514.181 548.632 513.794 547.844C513.31 546.857 513.726 546.316 514.232 545.42C515.891 542.485 517.524 539.536 519.11 536.561C522.308 530.563 525.34 524.476 528.18 518.3C533.793 506.095 538.665 493.546 542.656 480.717C550.09 456.824 555.295 429.351 543.585 405.907C532.464 383.643 508.911 370.788 485.047 367.035C478.653 366.03 472.195 365.577 465.724 365.582C463.511 365.584 463.507 369.024 465.724 369.022Z" fill="black"/>
<path d="M438.082 709.197C435.582 713.026 434.55 716.989 431.138 720.437C427.528 724.085 423.037 726.839 418.278 728.719C410.289 731.875 401.593 732.742 393.012 733.15C384.431 733.558 375.789 733.543 367.333 735.058C360.043 736.363 352.464 739.165 348.26 745.262C343.602 752.019 344.359 761.545 348.681 768.522C353.003 775.499 360.312 780.182 368.001 783.053C373.432 785.082 378.81 785.772 384.477 786.633C390.195 787.503 395.48 788.961 401.398 788.482C401.729 785.946 402.079 783.35 403.264 781.083C405.561 776.694 411.546 774.745 415.244 778.676C418.182 781.799 417.086 786.815 415.872 790.445C416.16 789.583 452.116 795.328 455.565 795.753C461.564 796.492 469.264 799.848 474.615 795.25C476.841 793.337 478.168 790.592 479.213 787.849C480.427 784.663 481.344 781.372 482.259 778.087C486.738 762.003 491.218 745.918 495.697 729.834" fill="black"/>
<path d="M436.597 708.329C434.977 710.857 433.856 713.658 432.272 716.205C430.619 718.863 428.242 721.013 425.695 722.803C420.451 726.487 414.38 728.612 408.127 729.831C394.527 732.482 380.508 730.946 366.876 733.399C361.57 734.354 356.157 736.043 351.779 739.284C347.14 742.717 344.216 747.631 343.53 753.373C342.132 765.071 349.686 775.153 359.328 780.847C365.411 784.44 372.096 786.406 379.033 787.529C382.669 788.118 386.304 788.682 389.933 789.317C393.726 789.981 397.541 790.481 401.397 790.203C402.419 790.129 402.988 789.466 403.117 788.482C403.463 785.849 403.812 782.798 405.582 780.682C406.9 779.107 408.993 778.037 411.079 778.307C416.845 779.054 415.451 786.233 414.214 789.988C413.604 791.839 416.431 793.024 417.357 791.314C417.203 791.598 416.467 792.252 416.084 792.092C416.144 792.117 416.277 792.073 416.347 792.078C416.65 792.101 416.959 792.092 417.264 792.111C418.17 792.168 419.074 792.267 419.976 792.368C422.791 792.682 425.573 793.065 428.371 793.457C435.079 794.397 441.776 795.416 448.473 796.431C450.474 796.734 452.475 797.046 454.48 797.327C458.478 797.887 462.403 799.085 466.444 799.315C469.017 799.462 471.665 799.088 473.939 797.817C476.264 796.517 477.998 794.349 479.232 792.028C482.145 786.547 483.461 780.181 485.115 774.245C489.195 759.594 493.275 744.942 497.356 730.291C497.951 728.155 494.633 727.243 494.039 729.377C490.402 742.435 486.765 755.494 483.128 768.553C481.418 774.694 479.943 780.976 477.718 786.957C476.776 789.489 475.605 792.075 473.547 793.901C471.683 795.556 469.231 795.989 466.812 795.893C464.338 795.796 461.919 795.207 459.504 794.707C458.308 794.46 457.11 794.238 455.899 794.077C455.714 794.052 455.529 794.029 455.343 794.005C456.036 794.095 455.469 794.021 455.308 793.998C453.266 793.702 451.225 793.392 449.185 793.083C442.514 792.073 435.844 791.058 429.163 790.123C425.945 789.672 422.724 789.221 419.493 788.875C418.125 788.728 415.232 788.017 414.387 789.578L417.531 790.903C418.563 787.77 419.383 784.207 418.435 780.948C417.517 777.79 414.81 775.36 411.537 774.922C408.519 774.518 405.422 775.797 403.365 778.009C400.713 780.86 400.164 784.778 399.677 788.482L401.397 786.763C394.943 787.229 388.54 785.525 382.198 784.563C376.103 783.639 370.127 782.414 364.534 779.727C354.821 775.059 346.244 766.401 346.837 754.893C347.102 749.731 349.618 745.063 353.814 742.036C358.179 738.886 363.504 737.422 368.748 736.552C381.929 734.364 395.433 735.713 408.59 733.235C415.394 731.954 422.127 729.603 427.779 725.525C430.454 723.595 432.944 721.384 434.796 718.633C436.625 715.915 437.801 712.823 439.567 710.065C440.765 708.195 437.789 706.468 436.597 708.329Z" fill="black"/>
<path d="M658.385 457.979C668.17 469.845 675.982 483.567 679.552 498.526C683.123 513.486 682.234 529.744 675.536 543.588C664.698 565.986 640.924 578.871 617.831 588.132C595.891 596.93 573.66 602.828 550.405 606.776C549.729 606.891 549.02 607.02 548.491 607.456C547.963 607.892 547.7 608.563 547.46 609.204C540.154 628.723 534.288 648.602 526.708 667.779C517.83 690.241 511.968 714.448 504.691 737.488C504.388 738.447 504.059 739.449 503.333 740.146C502.255 741.181 500.607 741.274 499.112 741.289C483.603 741.441 468.079 739.645 453.007 735.993C445.221 734.106 437.586 731.698 430.092 728.869C425.296 727.058 416.701 726.914 414.905 721.285C413.833 717.926 414.688 714.29 415.547 710.871C417.495 703.114 419.443 695.358 421.391 687.602C431.337 648.007 441.321 608.309 455.35 569.92C467.201 537.489 480.017 498.718 510.194 478.476C521.413 470.95 534.687 466.742 545.414 458.53" fill="white"/>
<path d="M657.169 459.195C672.877 478.317 683.583 503.212 678.752 528.3C676.534 539.814 670.972 550.178 662.895 558.639C655.329 566.566 646.096 572.688 636.44 577.772C625.698 583.428 614.337 587.934 602.863 591.863C590.096 596.234 577.044 599.743 563.835 602.496C560.533 603.185 557.221 603.827 553.902 604.426C550.988 604.951 547.5 604.856 546.124 607.95C544.742 611.055 543.726 614.375 542.591 617.577C541.425 620.87 540.285 624.172 539.156 627.477C534.631 640.724 530.279 654.038 525.15 667.068C520.16 679.742 516.135 692.755 512.302 705.818C510.393 712.324 508.527 718.842 506.599 725.342C505.616 728.655 504.617 731.963 503.588 735.262C503.233 736.398 502.984 738.271 501.971 739.034C500.905 739.836 498.983 739.574 497.743 739.577C483.75 739.611 469.773 738.057 456.129 734.96C449.384 733.429 442.733 731.509 436.196 729.252C433.5 728.321 430.857 727.177 428.092 726.464C426.005 725.926 423.882 725.519 421.831 724.85C420.057 724.271 418.095 723.452 417.04 721.822C415.474 719.399 416.139 715.925 416.728 713.302C418.26 706.478 420.123 699.713 421.827 692.929C425.246 679.315 428.652 665.696 432.203 652.115C439.315 624.918 447.028 597.844 456.632 571.41C463.906 551.391 470.881 531.008 481.761 512.589C487.089 503.569 493.385 495.09 501.063 487.927C505.08 484.18 509.448 480.841 514.15 477.997C519.525 474.746 525.224 472.087 530.825 469.259C536.194 466.55 541.481 463.659 546.282 460.016C548.023 458.695 546.311 455.706 544.546 457.045C534.243 464.864 521.83 469.041 510.961 475.925C501.762 481.752 493.949 489.444 487.354 498.068C473.981 515.555 465.796 536.413 458.266 556.908C453.887 568.828 449.566 580.766 445.66 592.851C441.238 606.532 437.217 620.34 433.424 634.208C429.631 648.076 426.064 662.013 422.547 675.957C420.788 682.932 419.038 689.909 417.286 696.885C416.38 700.493 415.474 704.1 414.568 707.708C413.774 710.866 412.796 714.076 412.692 717.353C412.607 720.049 413.195 722.832 415.07 724.856C416.537 726.439 418.586 727.373 420.594 728.06C422.692 728.777 424.875 729.196 427.022 729.741C429.842 730.458 432.534 731.62 435.282 732.569C448.704 737.204 462.598 740.316 476.711 741.88C483.784 742.664 490.901 743.044 498.017 743.017C500.905 743.005 504.046 742.868 505.562 739.978C506.222 738.719 506.564 737.272 506.984 735.924C507.536 734.15 508.08 732.373 508.618 730.594C512.669 717.187 516.356 703.671 520.599 690.323C524.849 676.95 530.192 663.999 534.829 650.765C539.595 637.166 543.895 623.391 549.022 609.921C549.263 609.287 549.405 608.852 550.049 608.598C550.765 608.316 551.684 608.295 552.446 608.163C554.201 607.858 555.953 607.54 557.704 607.211C561.187 606.555 564.66 605.851 568.123 605.094C574.837 603.626 581.509 601.961 588.121 600.08C600.851 596.46 613.372 592.05 625.513 586.777C645.852 577.944 666.674 565.433 676.832 544.844C688.441 521.312 683.299 493.561 670.271 471.784C667.113 466.505 663.504 461.514 659.601 456.763C658.195 455.051 655.774 457.497 657.169 459.195Z" fill="black"/>
<path d="M267.711 449.942C268.442 459.402 269.607 468.828 271.213 478.179C272.01 482.819 272.916 487.44 273.932 492.036C274.826 496.083 275.874 500.213 278.373 503.602C279.674 505.365 282.66 503.651 281.344 501.866C278.957 498.629 278.047 494.745 277.197 490.884C276.202 486.366 275.313 481.824 274.53 477.264C272.976 468.214 271.859 459.097 271.151 449.942C270.982 447.749 267.54 447.731 267.711 449.942Z" fill="black"/>
<path d="M699.131 450.914C699.252 451.266 691.67 454.972 691.099 455.27C620.14 492.298 545.464 522.466 473.274 556.762C472.216 557.265 470.942 557.763 469.932 557.17C469.295 556.795 468.954 556.08 468.649 555.406C454.88 524.932 443.536 497.345 443.352 462.956C443.181 431.01 451.59 397.624 473.349 373.392C503.211 340.136 554.034 330.643 596.818 343.573C646.088 358.464 683.069 402.983 699.131 450.914Z" fill="white"/>
<path d="M697.411 450.914C697.43 450.649 697.686 449.768 697.999 449.689C697.909 449.712 697.811 449.82 697.727 449.867C697.47 450.01 697.221 450.17 696.964 450.315C696.156 450.772 695.331 451.201 694.506 451.627C693.175 452.315 691.831 452.976 690.495 453.652C684.782 456.539 679.121 459.529 673.404 462.409C660.896 468.709 648.295 474.823 635.633 480.81C610.435 492.725 585.002 504.135 559.56 515.52C534.145 526.894 508.716 538.243 483.496 550.048C480.239 551.573 476.985 553.105 473.735 554.646C472.844 555.068 471.147 556.363 470.461 555.211C469.643 553.839 469.096 552.236 468.442 550.778C465.848 544.987 463.301 539.174 460.904 533.299C456.232 521.847 452.116 510.143 449.29 498.089C443.745 474.439 443.569 449.393 449.078 425.71C454.288 403.309 465.117 382.08 482.52 366.727C498.474 352.652 518.83 344.269 539.748 341.124C560.844 337.952 582.82 340.119 602.873 347.397C623.101 354.738 641.145 367.328 656.065 382.731C671.234 398.391 683.316 416.985 691.968 436.974C694.01 441.69 695.835 446.5 697.472 451.371C698.174 453.459 701.498 452.563 700.79 450.457C693.681 429.313 682.884 409.433 668.884 392.059C654.976 374.799 637.683 359.996 617.783 350.087C597.985 340.228 575.847 335.545 553.75 336.39C532.01 337.221 510.223 343.321 491.935 355.277C472.286 368.123 458.249 387.389 450.31 409.351C441.945 432.492 439.764 458.252 442.977 482.586C446.338 508.043 456.121 531.775 466.597 555.018C467.198 556.35 467.728 557.872 469.064 558.655C470.421 559.449 471.998 559.158 473.371 558.587C476.639 557.226 479.807 555.564 483.012 554.059C489.528 551 496.059 547.973 502.6 544.969C515.551 539.021 528.543 533.164 541.546 527.333C567.728 515.593 593.959 503.958 619.999 491.904C632.936 485.915 645.826 479.823 658.636 473.564C670.295 467.868 681.783 461.849 693.386 456.046C694.908 455.285 696.429 454.52 697.925 453.712C699.097 453.079 700.738 452.434 700.851 450.914C701.016 448.706 697.574 448.716 697.411 450.914Z" fill="black"/>
<path d="M631.477 308.994C631.598 309.346 624.016 313.052 623.445 313.35C552.486 350.378 477.81 380.546 405.62 414.842C404.563 415.345 403.288 415.843 402.279 415.25C401.641 414.875 401.3 414.16 400.996 413.486C387.226 383.013 375.882 355.425 375.698 321.036C375.528 289.09 383.937 255.704 405.695 231.472C435.557 198.216 486.38 188.723 529.165 201.653C578.435 216.544 615.416 261.063 631.477 308.994Z" fill="white"/>
<path d="M629.757 308.994C629.777 308.729 630.033 307.848 630.345 307.769C630.255 307.792 630.157 307.9 630.074 307.947C629.816 308.09 629.567 308.25 629.311 308.395C628.502 308.852 627.678 309.281 626.853 309.707C625.522 310.395 624.178 311.056 622.841 311.732C617.129 314.619 611.468 317.609 605.751 320.489C593.242 326.789 580.641 332.903 567.98 338.89C542.781 350.805 517.348 362.215 491.907 373.6C466.491 384.974 441.062 396.323 415.843 408.128C412.585 409.653 409.331 411.185 406.081 412.726C405.19 413.149 403.494 414.443 402.807 413.291C401.989 411.919 401.442 410.316 400.789 408.858C398.194 403.067 395.647 397.255 393.25 391.379C388.578 379.927 384.463 368.223 381.637 356.169C376.092 332.519 375.915 307.473 381.424 283.79C386.635 261.389 397.464 240.16 414.866 224.807C430.821 210.732 451.176 202.349 472.094 199.204C493.191 196.032 515.167 198.199 535.219 205.477C555.448 212.818 573.491 225.408 588.411 240.811C603.58 256.471 615.662 275.065 624.315 295.054C626.356 299.77 628.181 304.58 629.819 309.451C630.521 311.539 633.844 310.644 633.136 308.537C626.027 287.393 615.23 267.513 601.23 250.139C587.322 232.879 570.029 218.076 550.13 208.167C530.331 198.308 508.194 193.625 486.097 194.47C464.356 195.301 442.57 201.401 424.282 213.357C404.633 226.203 390.596 245.469 382.657 267.431C374.292 290.572 372.11 316.333 375.323 340.666C378.684 366.123 388.467 389.855 398.944 413.098C399.544 414.43 400.074 415.952 401.411 416.735C402.767 417.529 404.344 417.238 405.718 416.667C408.986 415.306 412.154 413.644 415.358 412.139C421.875 409.08 428.405 406.053 434.947 403.049C447.897 397.101 460.889 391.244 473.892 385.413C500.075 373.673 526.305 362.038 552.345 349.984C565.283 343.995 578.173 337.903 590.982 331.644C602.641 325.948 614.13 319.929 625.733 314.126C627.254 313.365 628.775 312.6 630.272 311.792C631.444 311.159 633.084 310.514 633.198 308.994C633.362 306.786 629.921 306.796 629.757 308.994Z" fill="black"/>
<path d="M579.768 473.346C568.185 489.641 541.564 523.415 527.631 537.753C513.698 552.09 497.266 564.43 478.421 571.103C463.233 576.48 446.92 578.031 430.811 577.783C372.981 576.894 324.41 551.877 279.065 518.05C272.658 513.27 267.207 515.023 259.322 514.743C256.295 514.636 253.157 514.143 250.674 512.409C248.191 510.676 246.567 507.424 247.51 504.546C244.065 504.044 239.353 502.995 238.377 498.989C237.911 497.076 238.889 494.784 240.763 494.181C237.814 494.013 234.97 492.478 233.211 490.106C232.256 488.818 231.601 487.183 231.944 485.617C232.287 484.05 233.906 482.724 235.458 483.128C230.899 482.053 227.56 477.23 228.158 472.585C228.262 471.776 228.521 470.906 229.202 470.456C229.785 470.071 230.536 470.087 231.233 470.121C236.607 470.389 241.819 471.372 247.101 472.001C252.608 472.656 258.755 471.743 264.304 471.61C261.73 468.195 260.84 463.569 261.965 459.442C262.176 458.667 262.501 457.851 263.19 457.437C263.944 456.984 264.904 457.146 265.759 457.356C271.582 458.79 276.896 461.75 282.129 464.678C297.907 473.504 312.16 480.423 329.133 486.356C338.712 489.704 347.892 494.08 357.264 497.969C368.979 502.831 380.998 506.934 393.132 510.628C402.592 513.509 412.126 516.143 421.722 518.528C423.272 518.913 424.888 519.293 426.449 518.961C428.06 518.618 429.41 517.56 430.696 516.531C455.608 496.589 486.667 459.423 510.08 437.739" fill="white"/>
<path d="M578.283 472.478C565.816 489.996 552.327 506.906 538.358 523.245C522.483 541.814 504.352 559.09 481.264 568.209C467.304 573.723 452.288 575.807 437.349 576.06C423.505 576.295 409.639 575.116 396.038 572.521C369.955 567.543 345.179 557.469 322.129 544.416C310.371 537.757 299.042 530.359 288.054 522.5C283.107 518.961 278.298 514.212 272.076 513.243C266.035 512.302 259.455 514.272 253.628 512.039C250.808 510.958 248.283 508.201 249.169 505.003C249.395 504.188 248.89 503.026 247.968 502.887C245.936 502.582 243.72 502.227 241.96 501.09C240.433 500.104 238.678 496.867 241.22 495.839C243.009 495.116 242.773 492.63 240.763 492.461C238.68 492.285 236.732 491.378 235.273 489.878C234.567 489.151 233.915 488.253 233.675 487.252C233.477 486.428 233.705 484.59 235.001 484.787C237.13 485.11 238.111 482.054 235.915 481.469C232.794 480.638 230.374 477.968 229.887 474.753C229.789 474.099 229.673 473.194 229.9 472.553C230.282 471.474 231.589 471.853 232.574 471.923C234.859 472.084 237.134 472.361 239.403 472.674C243.416 473.228 247.429 473.953 251.492 473.955C255.77 473.958 260.03 473.453 264.305 473.33C265.499 473.296 266.592 471.853 265.79 470.742C264.431 468.858 263.515 466.739 263.27 464.413C263.151 463.28 263.179 462.109 263.376 460.986C263.45 460.56 263.518 459.799 263.766 459.433C264.336 458.592 265.027 458.939 265.924 459.174C271.185 460.552 275.984 463.217 280.7 465.849C289.706 470.875 298.834 475.674 308.252 479.887C317.845 484.177 327.805 487.419 337.518 491.392C347.978 495.67 358.218 500.416 368.829 504.328C379.281 508.182 389.911 511.551 400.612 514.641C406.135 516.235 411.683 517.746 417.252 519.173C419.664 519.791 422.174 520.66 424.676 520.791C426.957 520.911 428.896 520.037 430.695 518.698C437.45 513.672 443.626 507.722 449.671 501.882C456.321 495.458 462.77 488.829 469.163 482.15C483.061 467.631 496.553 452.635 511.296 438.955C512.922 437.446 510.485 435.018 508.863 436.523C495.608 448.823 483.388 462.215 470.934 475.311C458.312 488.583 445.623 502.008 431.478 513.689C429.886 515.004 428.088 516.899 425.992 517.302C423.461 517.789 420.259 516.394 417.832 515.77C412.264 514.34 406.717 512.825 401.195 511.227C390.171 508.037 379.223 504.551 368.469 500.538C357.774 496.548 347.456 491.685 336.866 487.44C326.862 483.429 316.692 480.041 306.892 475.507C297.176 471.011 287.93 465.719 278.482 460.711C276.173 459.487 273.819 458.351 271.39 457.382C269.229 456.52 266.55 455.322 264.174 455.432C259.315 455.657 259.442 462.874 260.091 466.249C260.524 468.497 261.483 470.626 262.819 472.478L264.305 469.89C258.987 470.043 253.657 470.815 248.335 470.401C242.834 469.973 237.422 468.756 231.904 468.438C229.786 468.316 227.836 468.61 226.889 470.747C226.075 472.585 226.269 474.964 226.846 476.844C228.027 480.689 231.109 483.75 235.001 484.787L235.915 481.469C231.301 480.769 229.096 485.552 230.81 489.38C232.556 493.282 236.634 495.553 240.763 495.9L240.306 492.522C236.553 494.039 235.511 498.523 237.787 501.793C239.856 504.766 243.679 505.698 247.053 506.204L245.852 504.088C243.956 510.931 250.539 515.432 256.475 516.223C262.42 517.015 268.951 515.182 274.646 517.478C277.798 518.749 280.48 521.242 283.204 523.224C285.986 525.246 288.788 527.241 291.613 529.202C297.373 533.199 303.228 537.061 309.191 540.748C332.284 555.029 357.175 566.702 383.588 573.297C397.071 576.664 410.894 578.699 424.779 579.322C439.945 580.002 455.395 579.213 470.146 575.416C496.1 568.735 517.606 551.846 535.16 532.14C550.16 515.302 564.201 497.466 577.564 479.306C578.806 477.618 580.038 475.922 581.253 474.214C582.539 472.407 579.557 470.687 578.283 472.478Z" fill="black"/>
<path d="M388.613 405.275C388.728 405.142 388.848 405.013 388.975 404.892C389.026 404.844 389.078 404.796 389.131 404.75C389.158 404.727 389.431 404.507 389.201 404.686C388.978 404.859 389.229 404.67 389.281 404.635C389.353 404.586 389.426 404.539 389.501 404.493C389.635 404.411 389.773 404.335 389.914 404.265C389.95 404.246 390.268 404.113 389.994 404.219C389.725 404.324 390.022 404.21 390.081 404.188C390.246 404.127 390.414 404.074 390.583 404.027C390.736 403.986 390.891 403.95 391.046 403.921C391.127 403.905 391.23 403.907 391.307 403.877C391.183 403.926 390.927 403.921 391.217 403.896C391.55 403.867 391.886 403.865 392.22 403.891C392.289 403.897 392.361 403.911 392.43 403.911C391.984 403.908 392.2 403.875 392.338 403.902C392.51 403.937 392.681 403.971 392.851 404.017C393.003 404.058 393.153 404.105 393.301 404.159C393.335 404.171 393.666 404.298 393.388 404.189C393.12 404.084 393.41 404.205 393.468 404.234C393.624 404.312 393.776 404.399 393.924 404.493C393.983 404.531 394.039 404.572 394.099 404.61C394.413 404.81 393.796 404.361 394.086 404.598C394.782 405.166 395.847 405.329 396.519 404.598C397.097 403.968 397.263 402.773 396.519 402.165C395.03 400.949 393.153 400.29 391.217 400.456C389.318 400.619 387.451 401.379 386.18 402.843C385.591 403.522 385.463 404.617 386.18 405.275C386.827 405.869 387.983 406.001 388.613 405.275Z" fill="black"/>
<path d="M332.186 431.52C331.119 432.714 330.764 434.391 331.339 435.906C331.627 436.665 332.07 437.314 332.717 437.81C333.089 438.096 333.476 438.28 333.918 438.445C334.044 438.492 334.226 438.54 334.326 438.578C334.662 438.703 334.509 438.628 334.396 438.59C334.324 438.566 334.456 438.807 334.403 438.602C334.409 438.625 334.491 439.119 334.468 438.848C334.494 439.152 334.479 439.47 334.438 439.772C334.478 439.474 334.368 440.114 334.371 440.101C334.34 440.282 334.311 440.463 334.285 440.645C334.217 441.118 334.147 441.593 334.17 442.073C334.22 443.123 334.601 444.018 335.303 444.795C335.496 445.007 335.759 445.17 335.846 445.405C335.813 445.315 335.82 445.384 335.827 445.279C335.815 445.476 335.778 445.45 335.67 445.61C335.151 446.381 335.522 447.516 336.287 447.964C337.134 448.459 338.12 448.119 338.641 447.346C339.204 446.51 339.368 445.44 339.129 444.464C338.902 443.539 338.264 443.084 337.736 442.362C337.641 442.232 337.616 442.113 337.608 441.967C337.586 441.591 337.627 441.371 337.688 441.015C337.815 440.272 337.967 439.515 337.9 438.757C337.82 437.861 337.575 437.014 336.97 436.326C336.425 435.706 335.531 435.334 334.864 435.138C334.929 435.157 334.655 434.977 334.852 435.142C334.797 435.097 334.551 434.763 334.707 435.008C334.65 434.918 334.594 434.824 334.549 434.728C334.687 435.021 334.52 434.565 334.51 434.529C334.425 434.224 334.499 434.607 334.504 434.423C334.508 434.286 334.538 434.072 334.489 434.32C334.5 434.265 334.659 433.84 334.519 434.128C334.555 434.054 334.82 433.728 334.619 433.953C335.238 433.261 335.302 432.203 334.619 431.52C333.989 430.891 332.808 430.825 332.186 431.52Z" fill="black"/>
<path d="M303.784 470.567C309.683 464.865 315.831 459.427 322.21 454.267C322.932 453.682 322.818 452.443 322.21 451.834C321.495 451.12 320.502 451.248 319.777 451.834C313.398 456.994 307.251 462.433 301.351 468.135C299.756 469.676 302.191 472.107 303.784 470.567Z" fill="black"/>
<path d="M209.669 399.215C215.526 403.991 221.384 408.767 227.242 413.543C227.961 414.129 228.97 414.247 229.674 413.543C230.28 412.937 230.398 411.7 229.674 411.11C223.816 406.335 217.959 401.559 212.101 396.783C211.382 396.196 210.372 396.079 209.669 396.783C209.063 397.388 208.945 398.625 209.669 399.215Z" fill="black"/>
<path d="M237.179 419.717C237.55 420.087 237.92 420.457 238.29 420.827C238.446 420.995 238.63 421.113 238.843 421.183C239.048 421.29 239.269 421.34 239.506 421.331C239.743 421.34 239.964 421.29 240.169 421.183C240.382 421.113 240.567 420.995 240.722 420.827L240.991 420.479C241.147 420.211 241.225 419.921 241.226 419.611L241.165 419.153C241.083 418.862 240.936 418.609 240.722 418.394C240.352 418.024 239.982 417.654 239.612 417.284C239.456 417.116 239.272 416.998 239.059 416.929C238.854 416.821 238.633 416.771 238.396 416.78C238.159 416.772 237.938 416.821 237.733 416.929C237.52 416.998 237.335 417.116 237.18 417.284L236.911 417.632C236.755 417.901 236.677 418.19 236.676 418.5L236.737 418.958C236.819 419.249 236.966 419.502 237.179 419.717Z" fill="black"/>
<path d="M258.295 434.401C262.071 437.363 265.75 440.446 269.326 443.645C270.018 444.264 271.076 444.327 271.759 443.645C272.389 443.015 272.454 441.834 271.759 441.212C268.182 438.013 264.504 434.93 260.728 431.969C259.998 431.396 259.008 431.256 258.295 431.969C257.7 432.565 257.56 433.825 258.295 434.401Z" fill="black"/>
<path d="M262.637 418.109C264.787 417.23 266.742 416.014 268.354 414.323C269.15 413.487 269.823 412.552 270.461 411.593C270.978 410.815 271.504 409.88 272.327 409.384C273.204 408.856 274.442 408.995 275.427 408.859C276.71 408.681 277.955 408.359 279.167 407.902C281.617 406.979 283.882 405.683 286.126 404.352C288.029 403.224 286.301 400.249 284.39 401.382C282.297 402.623 280.177 403.91 277.872 404.724C276.748 405.121 275.581 405.432 274.391 405.539C273.168 405.648 271.988 405.687 270.87 406.259C268.97 407.233 268.039 409.199 266.821 410.837C265.533 412.57 263.722 413.974 261.722 414.792C260.856 415.146 260.264 415.932 260.521 416.908C260.736 417.724 261.778 418.46 262.637 418.109Z" fill="white"/>
<path d="M278.154 425.425C282.852 421.783 287.325 417.859 291.547 413.674C293.122 412.113 290.689 409.681 289.115 411.241C284.892 415.426 280.419 419.35 275.721 422.993C274.986 423.563 275.123 424.827 275.721 425.425C276.447 426.151 277.417 425.997 278.154 425.425Z" fill="white"/>
<path d="M289.686 434.014C292.277 431.672 294.867 429.329 297.458 426.986C298.127 426.38 298.119 425.16 297.458 424.553C296.743 423.897 295.74 423.908 295.026 424.553C292.435 426.896 289.844 429.239 287.254 431.582C286.584 432.187 286.592 433.408 287.254 434.014C287.969 434.671 288.972 434.66 289.686 434.014Z" fill="white"/>
<path d="M293.018 450.297C296.814 446.814 300.611 443.331 304.407 439.847C305.092 439.219 305.044 438.052 304.407 437.415C303.725 436.733 302.661 436.785 301.974 437.415C298.178 440.898 294.382 444.382 290.586 447.865C289.901 448.493 289.949 449.66 290.586 450.297C291.267 450.979 292.332 450.927 293.018 450.297Z" fill="white"/>
<path d="M311.134 431.782C311.778 431.066 312.422 430.35 313.065 429.634C313.37 429.295 313.569 428.883 313.569 428.418C313.578 428.181 313.529 427.96 313.421 427.755C313.351 427.542 313.233 427.357 313.065 427.201C312.737 426.9 312.307 426.677 311.849 426.697C311.407 426.717 310.938 426.862 310.633 427.201C309.989 427.917 309.346 428.633 308.702 429.349C308.397 429.688 308.198 430.1 308.198 430.565C308.189 430.802 308.239 431.023 308.346 431.228C308.416 431.441 308.534 431.626 308.702 431.782C309.03 432.082 309.46 432.306 309.918 432.285C310.36 432.266 310.829 432.121 311.134 431.782Z" fill="white"/>
<path d="M423.92 485.046C423.287 493.88 422.713 502.779 421.438 511.548C421.303 512.474 421.668 513.385 422.639 513.664C423.446 513.896 424.622 513.38 424.755 512.463C426.075 503.385 426.705 494.19 427.36 485.046C427.518 482.837 424.077 482.846 423.92 485.046Z" fill="black"/>
<path d="M424.621 698.162C445.689 708.56 468.57 715.025 491.961 717.215C498.592 717.836 505.253 718.098 511.913 718.018C514.125 717.991 514.131 714.551 511.913 714.578C488.885 714.854 465.897 710.877 444.289 702.91C438.178 700.657 432.198 698.074 426.357 695.191C424.379 694.215 422.634 697.181 424.621 698.162Z" fill="black"/>
<path d="M569.075 642.526C557.17 657.309 543.784 670.883 529.146 682.967C524.988 686.4 520.728 689.705 516.375 692.887C514.606 694.181 516.32 697.167 518.111 695.858C533.613 684.524 547.975 671.66 560.866 657.424C564.534 653.374 568.08 649.214 571.507 644.958C572.883 643.25 570.464 640.801 569.075 642.526Z" fill="black"/>
<path d="M570.844 639.464C578.511 643.94 586.582 647.715 594.934 650.727C599.125 652.238 603.401 653.631 607.743 654.642C612.147 655.668 616.646 656.131 621.106 655.18C623.27 654.719 622.354 651.402 620.192 651.863C615.884 652.781 611.495 652.069 607.287 650.988C603.272 649.956 599.311 648.672 595.417 647.253C587.494 644.367 579.86 640.744 572.58 636.494C570.664 635.375 568.931 638.347 570.844 639.464Z" fill="black"/>
<path d="M716.958 560.287C721.517 564.634 726.076 568.98 730.635 573.327C732.238 574.855 734.674 572.426 733.068 570.894C728.509 566.548 723.949 562.201 719.39 557.854C717.788 556.327 715.352 558.756 716.958 560.287Z" fill="black"/>
<path d="M472.573 695.335C478.144 678.865 483.776 662.408 490.048 646.188C496.195 630.29 502.78 614.33 511.014 599.381C514.825 592.463 519.295 585.966 525.107 580.57C530.454 575.607 536.639 571.645 543.108 568.31C556.158 561.585 570.297 557.488 583.945 552.211C597.37 547.02 610.798 540.618 621.022 530.226C622.266 528.961 623.449 527.64 624.579 526.272C625.979 524.578 623.559 522.131 622.147 523.84C612.834 535.111 599.746 542.157 586.391 547.565C572.67 553.12 558.377 557.193 544.981 563.555C538.354 566.702 532.005 570.425 526.278 575.027C520.206 579.906 515.205 585.842 511.088 592.438C506.645 599.555 503.049 607.209 499.542 614.817C495.893 622.731 492.487 630.756 489.255 638.848C482.747 655.145 476.965 671.719 471.319 688.331C470.63 690.36 469.942 692.39 469.256 694.421C468.545 696.523 471.866 697.424 472.573 695.335Z" fill="black"/>
<path d="M611.57 508.253C614.009 513.712 616.525 519.233 620.521 523.758C624.172 527.894 628.984 530.874 634.503 531.574C635.426 531.691 636.223 530.7 636.223 529.854C636.223 528.827 635.429 528.251 634.503 528.134C623.69 526.762 618.443 515.251 614.541 506.517C614.159 505.662 612.931 505.476 612.187 505.899C611.308 506.4 611.193 507.41 611.57 508.253Z" fill="black"/>
<path d="M573.155 338.039C549.768 351.056 523.766 359.962 499.376 370.909C491.855 374.285 484.355 377.722 476.987 381.423C471.581 384.138 466.091 386.583 460.822 389.528C473.46 389.478 485.57 384.825 497.346 380.238C504.972 377.269 512.598 374.299 520.224 371.329C533.786 366.047 547.434 360.74 561.71 357.908C569.079 356.446 577.575 356.589 584.278 353.034C591.125 349.403 598.935 348.16 606.519 346.662C600.554 344.942 594.509 343.497 588.41 342.338C583.136 341.336 578.583 339.174 573.324 338.091" fill="black"/>
<path d="M572.287 336.554C558.407 344.261 543.78 350.481 529.119 356.524C514.241 362.655 499.393 368.812 484.841 375.693C480.696 377.653 476.607 379.726 472.482 381.728C468.273 383.769 464.044 385.769 459.954 388.042C458.458 388.874 459.133 391.262 460.822 391.248C471.017 391.162 480.855 388.256 490.343 384.75C500.131 381.134 509.815 377.219 519.538 373.433C529.061 369.724 538.588 365.98 548.383 363.04C553.237 361.583 558.169 360.27 563.161 359.38C567.617 358.585 572.151 358.301 576.592 357.411C579.029 356.923 581.409 356.235 583.684 355.226C586.091 354.159 588.365 352.932 590.873 352.083C596.105 350.312 601.57 349.385 606.976 348.321C608.703 347.981 608.523 345.448 606.976 345.004C601.315 343.378 595.587 341.987 589.805 340.86C584.341 339.795 579.217 337.587 573.781 336.432C571.622 335.974 570.699 339.289 572.867 339.75C578.302 340.904 583.427 343.112 588.891 344.177C594.673 345.305 600.4 346.695 606.062 348.321V345.004C601.38 345.925 596.664 346.743 592.081 348.095C589.733 348.787 587.431 349.631 585.209 350.659C583.171 351.601 581.262 352.623 579.097 353.261C574.813 354.525 570.34 354.909 565.932 355.502C561.073 356.156 556.296 357.254 551.569 358.546C541.794 361.216 532.302 364.802 522.865 368.465C513.11 372.252 503.375 376.092 493.609 379.852C483.093 383.9 472.219 387.711 460.822 387.808L461.69 391.013C468.85 387.033 476.352 383.572 483.732 380.021C491.124 376.463 498.598 373.062 506.127 369.803C520.706 363.49 535.545 357.794 550.062 351.336C558.201 347.715 566.233 343.849 574.023 339.524C575.959 338.449 574.226 335.477 572.287 336.554Z" fill="black"/>
<path d="M449.205 327.377C448.094 328.979 446.411 330.086 444.759 331.062C442.928 332.144 441.044 333.197 439.116 334.095C437.068 335.05 434.846 335.799 432.599 336.101C431.904 336.194 430.772 336.413 430.152 335.975C429.515 335.525 429.613 334.471 429.713 333.795C430.165 330.742 432.642 328.344 435.065 326.67C437.752 324.814 440.77 323.43 443.889 322.48C445.482 321.994 447.941 321.264 449.302 322.648C450.538 323.907 450.034 326.057 449.205 327.377C448.023 329.257 450.999 330.986 452.175 329.114C453.401 327.163 453.866 324.608 453.078 322.403C452.182 319.898 449.882 318.531 447.283 318.448C445.06 318.376 442.818 319.142 440.763 319.919C438.72 320.692 436.72 321.608 434.843 322.729C431.241 324.88 427.61 327.997 426.534 332.229C425.922 334.637 426.111 337.628 428.501 338.997C430.849 340.342 434.267 339.428 436.668 338.701C439.769 337.762 442.621 336.216 445.435 334.641C448.006 333.201 450.473 331.569 452.175 329.114C453.439 327.29 450.458 325.568 449.205 327.377Z" fill="black"/>
<path d="M438.411 328.121C444.201 332.407 435.955 337.45 430.792 336.16C429.996 335.961 429.193 335.618 428.767 335.001C428.378 334.438 428.364 333.744 428.361 333.088C428.358 332.363 428.357 331.624 428.613 330.935C429.012 329.859 429.987 329.029 430.975 328.298C431.661 327.791 432.384 327.302 433.224 327.022C434.768 326.508 437.183 327.212 438.411 328.121Z" fill="black"/>
<path d="M437.543 329.606C437.235 329.374 437.601 329.658 437.642 329.694C437.743 329.78 437.842 329.87 437.937 329.963C438.027 330.05 438.114 330.14 438.198 330.233C438.22 330.257 438.494 330.533 438.29 330.329C438.1 330.14 438.324 330.383 438.353 330.426C438.411 330.514 438.467 330.604 438.518 330.697C438.553 330.761 438.649 330.894 438.652 330.967C438.544 330.705 438.522 330.658 438.583 330.826C438.599 330.871 438.612 330.915 438.625 330.961C438.646 331.034 438.658 331.111 438.679 331.184C438.773 331.503 438.684 330.754 438.665 331.081C438.66 331.165 438.666 331.261 438.67 331.345C438.684 331.682 438.548 331.347 438.699 331.235C438.647 331.274 438.622 331.589 438.599 331.661C438.594 331.678 438.516 331.914 438.509 331.912C438.486 331.904 438.712 331.493 438.507 331.869C438.424 332.021 438.322 332.159 438.232 332.306C438.052 332.6 438.511 332.018 438.262 332.263C438.191 332.333 438.13 332.414 438.062 332.486C437.944 332.611 437.821 332.73 437.693 332.844C437.614 332.914 437.532 332.98 437.451 333.049C437.228 333.239 437.762 332.829 437.367 333.106C437.027 333.344 436.669 333.556 436.299 333.744C436.154 333.818 435.929 333.982 435.771 333.994C436.126 333.966 435.916 333.935 435.744 334.001C435.596 334.058 435.446 334.113 435.295 334.163C434.877 334.304 434.451 334.418 434.019 334.506C433.868 334.537 433.581 334.637 433.429 334.609C433.796 334.676 433.604 334.586 433.413 334.604C433.256 334.619 433.099 334.63 432.942 334.637C432.747 334.645 432.553 334.648 432.358 334.643C432.28 334.641 431.701 334.557 431.672 334.597C431.719 334.533 432.078 334.671 431.738 334.603C431.647 334.585 431.555 334.57 431.464 334.551C431.143 334.482 430.817 334.396 430.513 334.269C430.929 334.443 429.998 333.897 430.367 334.198L430.26 334.104C430.128 333.961 430.126 333.971 430.252 334.133L430.162 333.989C430.215 334.152 430.21 334.136 430.148 333.944C430.137 333.898 430.076 333.392 430.101 333.751C430.093 333.64 430.088 333.529 430.085 333.418C430.072 333.005 430.093 332.592 430.096 332.179C430.101 331.68 430.011 332.403 430.124 331.917C430.151 331.799 430.183 331.683 430.213 331.565C430.332 331.095 430.063 331.733 430.292 331.376C430.378 331.243 430.452 331.105 430.542 330.975C430.346 331.26 430.655 330.847 430.678 330.823C430.751 330.742 430.827 330.663 430.905 330.586C431.182 330.311 431.48 330.057 431.789 329.819C431.53 330.019 431.977 329.685 431.981 329.682C432.12 329.581 432.259 329.481 432.401 329.385C432.736 329.157 433.082 328.953 433.444 328.772C433.924 328.531 433.298 328.81 433.598 328.71C433.748 328.66 433.899 328.624 434.052 328.583C434.458 328.476 433.694 328.573 434.127 328.577C434.316 328.579 434.503 328.566 434.692 328.575C434.789 328.58 434.885 328.59 434.982 328.597C435.183 328.619 435.177 328.618 434.965 328.593C435.063 328.609 435.161 328.628 435.259 328.648C435.601 328.719 435.938 328.812 436.268 328.927C436.36 328.959 436.451 328.996 436.543 329.029C436.161 328.892 436.707 329.106 436.779 329.143C437.046 329.278 437.3 329.432 437.543 329.606C438.276 330.133 439.491 329.758 439.897 328.99C440.366 328.101 440.062 327.198 439.28 326.636C438.042 325.748 436.483 325.301 434.982 325.157C433.317 324.996 431.794 325.614 430.454 326.562C428.973 327.608 427.528 328.789 426.925 330.564C426.628 331.439 426.625 332.421 426.643 333.336C426.662 334.264 426.812 335.212 427.366 335.982C429.093 338.382 432.819 338.367 435.403 337.717C437.674 337.146 439.957 335.906 441.284 333.925C442.014 332.835 442.263 331.504 441.987 330.225C441.654 328.687 440.486 327.545 439.28 326.636C438.558 326.093 437.325 326.497 436.926 327.253C436.448 328.158 436.773 329.026 437.543 329.606Z" fill="black"/>
<path d="M402.422 347.46C401.279 349.031 399.546 350.095 397.881 351.03C396.027 352.07 394.121 353.089 392.171 353.935C390.118 354.826 387.892 355.529 385.66 355.77C384.952 355.846 383.78 356.057 383.17 355.57C382.567 355.087 382.701 354.035 382.822 353.367C383.372 350.319 385.881 348.01 388.355 346.383C391.085 344.586 394.133 343.282 397.275 342.401C398.875 341.952 401.368 341.283 402.672 342.728C403.856 344.042 403.283 346.155 402.422 347.46C401.199 349.313 404.177 351.038 405.392 349.196C406.658 347.278 407.165 344.714 406.416 342.503C405.559 339.976 403.276 338.597 400.683 338.455C398.468 338.334 396.199 339.061 394.133 339.79C392.075 340.516 390.054 341.398 388.155 342.475C384.497 344.55 380.829 347.594 379.657 351.804C378.991 354.196 379.145 357.201 381.515 358.597C383.847 359.97 387.27 359.129 389.691 358.455C392.811 357.587 395.697 356.095 398.544 354.584C401.154 353.198 403.632 351.618 405.392 349.196C405.943 348.439 405.515 347.286 404.775 346.843C403.911 346.325 402.965 346.712 402.422 347.46Z" fill="black"/>
<path d="M391.634 347.928C397.327 352.342 388.969 357.199 383.836 355.793C383.046 355.577 382.25 355.216 381.837 354.589C381.461 354.017 381.463 353.324 381.475 352.667C381.488 351.942 381.504 351.203 381.775 350.52C382.199 349.454 383.191 348.646 384.196 347.937C384.893 347.445 385.627 346.973 386.473 346.712C388.028 346.233 390.427 346.991 391.634 347.928Z" fill="black"/>
<path d="M390.418 349.144C390.641 349.32 390.858 349.502 391.062 349.701C391.172 349.809 391.449 350.014 391.49 350.167L391.366 350.006C391.411 350.066 391.455 350.129 391.497 350.192C391.557 350.282 391.613 350.375 391.665 350.47C391.709 350.55 391.745 350.681 391.803 350.748C391.684 350.609 391.697 350.416 391.765 350.705C391.786 350.793 391.805 350.892 391.833 350.979C391.938 351.297 391.829 350.552 391.819 350.883C391.815 350.987 391.782 351.231 391.81 351.327C391.723 351.036 391.891 350.958 391.814 351.219C391.789 351.303 391.766 351.39 391.743 351.476C391.728 351.531 391.611 351.812 391.734 351.523C391.863 351.22 391.692 351.592 391.662 351.647C391.596 351.768 391.475 352.057 391.353 352.125C391.357 352.123 391.646 351.794 391.439 352.007C391.369 352.078 391.307 352.158 391.238 352.23C391.095 352.381 390.943 352.523 390.785 352.657C390.76 352.679 390.622 352.778 390.621 352.793C390.827 352.636 390.857 352.612 390.71 352.722C390.65 352.765 390.59 352.808 390.53 352.849C390.184 353.086 389.82 353.296 389.444 353.481C389.339 353.533 389.231 353.581 389.125 353.632C388.843 353.765 389.179 353.62 389.207 353.599C389.007 353.746 388.65 353.811 388.414 353.886C387.989 354.022 387.555 354.131 387.116 354.213C387.031 354.228 386.838 354.296 386.756 354.273C386.781 354.28 387.18 354.227 386.852 354.259C386.572 354.286 386.294 354.311 386.013 354.317C385.815 354.322 385.617 354.321 385.42 354.312C385.303 354.307 385.187 354.3 385.07 354.289C384.651 354.253 385.064 354.257 385.068 354.297C385.067 354.285 384.537 354.196 384.511 354.19C384.384 354.16 384.259 354.126 384.135 354.089C384.067 354.069 383.493 353.829 383.778 353.971C383.682 353.923 383.59 353.867 383.494 353.82C383.042 353.596 383.786 353.914 383.344 353.718L383.238 353.609C383.352 353.768 383.352 353.757 383.236 353.575C383.285 353.907 383.202 353.392 383.196 353.365C383.213 353.443 383.21 353.674 383.2 353.33C383.195 353.164 383.191 352.998 383.192 352.832C383.195 352.473 383.207 352.116 383.231 351.759C383.265 351.261 383.134 351.976 383.274 351.499C383.276 351.493 383.448 350.927 383.322 351.244C383.416 351.006 383.567 350.773 383.723 350.57C383.508 350.85 383.852 350.446 383.87 350.427C383.983 350.308 384.102 350.194 384.224 350.084C384.347 349.971 384.475 349.864 384.604 349.758C385.022 349.416 384.351 349.932 384.791 349.618C385.392 349.189 386.005 348.741 386.687 348.447C386.395 348.573 386.928 348.371 386.93 348.37C386.978 348.356 387.471 348.246 387.206 348.294C386.923 348.344 387.356 348.288 387.38 348.287C387.568 348.28 387.757 348.285 387.944 348.298C388.017 348.303 388.476 348.387 388.069 348.306C388.215 348.336 388.362 348.36 388.508 348.394C388.85 348.472 389.179 348.581 389.51 348.695C389.819 348.802 389.569 348.714 389.506 348.687C389.678 348.762 389.847 348.843 390.013 348.932C390.276 349.073 390.527 349.233 390.766 349.413C391.488 349.956 392.72 349.552 393.119 348.796C393.597 347.891 393.273 347.022 392.502 346.442C391.301 345.538 389.781 345.078 388.307 344.895C386.648 344.69 385.12 345.249 383.751 346.16C382.4 347.059 380.961 348.122 380.29 349.652C379.868 350.614 379.771 351.625 379.755 352.667C379.74 353.599 379.821 354.564 380.309 355.384C381.224 356.921 383.055 357.481 384.725 357.691C385.923 357.842 387.152 357.724 388.329 357.47C390.63 356.973 392.915 355.786 394.324 353.861C395.108 352.789 395.407 351.457 395.167 350.155C394.909 348.761 393.936 347.568 392.851 346.711C392.146 346.155 391.097 345.972 390.418 346.711C389.848 347.332 389.664 348.548 390.418 349.144Z" fill="black"/>
<path d="M320.382 318.048C322.843 318.871 325.304 319.693 327.765 320.516C328.619 320.801 329.682 320.187 329.881 319.314C330.097 318.364 329.594 317.504 328.68 317.198C326.218 316.376 323.757 315.553 321.296 314.731C320.442 314.445 319.379 315.06 319.18 315.932C318.964 316.882 319.467 317.742 320.382 318.048Z" fill="black"/>
<path d="M324.269 362.299C328 360.705 331.547 358.717 334.854 356.366C335.585 355.846 336.005 354.841 335.471 354.013C335.003 353.287 333.902 352.838 333.118 353.396C329.811 355.746 326.264 357.735 322.533 359.329C321.702 359.684 321.456 360.969 321.916 361.682C322.472 362.545 323.38 362.679 324.269 362.299Z" fill="black"/>
<path d="M327.63 281.869C329.271 284.057 330.912 286.245 332.554 288.433C332.833 288.805 333.115 289.095 333.582 289.224C333.993 289.337 334.542 289.286 334.907 289.05C335.617 288.593 336.102 287.467 335.524 286.697C333.883 284.509 332.241 282.321 330.6 280.133C330.321 279.761 330.039 279.471 329.572 279.343C329.16 279.229 328.612 279.28 328.247 279.516C327.537 279.973 327.052 281.099 327.63 281.869Z" fill="black"/>
<path d="M233.794 769.953C230.141 766.217 224.845 760.605 228.067 755C231.629 748.802 238.537 755.817 241.182 759.108C241.718 759.774 242.826 759.716 243.441 759.242C244.16 758.688 244.247 757.815 243.884 757.023C240.533 749.723 243.103 740.73 248.575 735.184C251.345 732.377 255.023 730.306 258.995 729.917C261.59 729.663 263.956 730.236 265.6 732.37C267.102 734.32 268.062 736.793 269.039 739.032C271.367 744.368 273.563 750.962 270.586 756.477C269.535 758.424 272.473 760.151 273.556 758.213C276.716 752.564 283.963 747.099 290.738 749.801C295.641 751.757 299.049 758.401 295.74 763.065C294.569 764.716 297.064 766.421 298.442 765.149C301.468 762.356 306.682 762.084 309.838 764.845C312.961 767.578 313.583 772.461 311.439 775.957C310.279 777.849 313.253 779.579 314.409 777.693C317.383 772.844 316.456 765.876 312.014 762.194C307.405 758.374 300.377 758.686 296.009 762.717L298.711 764.801C302.124 759.989 300.294 753.385 296.343 749.49C291.556 744.77 284.389 744.869 278.78 748.078C275.343 750.045 272.513 753.032 270.586 756.477L273.556 758.213C276.658 752.468 275.428 745.915 273.174 740.102C272.055 737.215 270.831 734.209 269.198 731.569C267.655 729.075 265.454 727.159 262.503 726.622C257.354 725.685 251.949 727.893 247.99 731.082C244.264 734.083 241.534 738.3 240.083 742.841C238.406 748.086 238.611 753.745 240.913 758.76L243.615 756.675C241.228 753.705 238.269 750.592 234.491 749.5C231.039 748.503 227.458 749.771 225.433 752.729C223.571 755.45 223.24 759.183 224.235 762.282C225.524 766.3 228.475 769.433 231.361 772.385C232.912 773.971 235.344 771.538 233.794 769.953Z" fill="black"/>
<path d="M401.742 331.563C405.343 340.342 409.026 349.087 412.791 357.797C413.163 358.657 414.408 358.834 415.145 358.414C416.031 357.91 416.128 356.909 415.762 356.061C412.115 347.624 408.547 339.153 405.059 330.649C404.704 329.783 403.92 329.19 402.943 329.447C402.127 329.662 401.39 330.705 401.742 331.563Z" fill="black"/>
<path d="M424.074 363.068C423.615 364.417 424.621 365.585 425.81 366.043C426.549 366.328 427.444 366.339 428.227 366.262C430.063 366.082 431.734 365.413 433.193 364.286C436.016 362.105 437.35 358.33 436.907 354.833C436.794 353.944 436.197 353.068 435.187 353.113C434.352 353.151 433.346 353.877 433.467 354.833C433.548 355.475 433.574 356.119 433.53 356.764C433.518 356.944 433.502 357.125 433.479 357.304C433.52 356.992 433.466 357.344 433.444 357.458C433.386 357.762 433.313 358.062 433.225 358.359C433.181 358.507 433.133 358.653 433.082 358.799C433.071 358.829 432.887 359.3 433.03 358.962C432.91 359.245 432.769 359.52 432.618 359.787C432.465 360.056 432.296 360.312 432.117 360.563C432.315 360.285 432.055 360.637 432.006 360.694C431.893 360.825 431.776 360.953 431.654 361.076C431.55 361.182 431.442 361.284 431.332 361.384C431.295 361.417 430.954 361.711 431.108 361.584C431.26 361.457 430.906 361.729 430.863 361.758C430.72 361.856 430.574 361.95 430.425 362.038C430.169 362.189 429.904 362.324 429.634 362.447C429.909 362.322 429.607 362.454 429.494 362.494C429.355 362.543 429.214 362.589 429.072 362.631C428.788 362.713 428.499 362.77 428.209 362.826C428.602 362.751 428.174 362.827 428.08 362.835C427.933 362.846 427.786 362.852 427.638 362.854C427.491 362.856 427.343 362.853 427.196 362.844C427.097 362.839 426.999 362.831 426.901 362.821L427.09 362.846C427.007 362.828 426.925 362.804 426.845 362.775C427.035 362.859 427.076 362.871 426.967 362.809C426.857 362.74 426.894 362.768 427.078 362.892C427.356 363.204 427.46 363.567 427.392 363.982C427.682 363.129 427.059 362.064 426.19 361.866C425.236 361.649 424.385 362.155 424.074 363.068Z" fill="black"/>
<path d="M433.106 355.395H436.593C437.034 355.395 437.497 355.203 437.809 354.891C438.108 354.592 438.332 354.103 438.313 353.674C438.271 352.743 437.557 351.954 436.593 351.954H433.106C432.665 351.954 432.202 352.146 431.89 352.458C431.592 352.756 431.367 353.246 431.386 353.674C431.428 354.606 432.142 355.395 433.106 355.395Z" fill="black"/>
<path d="M384.92 330.859C384.996 330.593 385.079 330.33 385.177 330.072C385.194 330.027 385.347 329.673 385.245 329.895C385.143 330.117 385.308 329.767 385.329 329.724C385.548 329.27 385.803 328.833 386.089 328.419C386.167 328.305 386.25 328.195 386.331 328.084C386.093 328.412 386.367 328.045 386.404 328.001C386.552 327.825 386.706 327.654 386.865 327.488C387.056 327.289 387.255 327.097 387.461 326.913C387.547 326.837 387.634 326.762 387.722 326.688C387.775 326.643 387.828 326.6 387.882 326.557C387.733 326.669 387.708 326.688 387.807 326.614C388.218 326.316 388.636 326.036 389.082 325.792C389.304 325.67 389.531 325.561 389.759 325.451C390.089 325.293 389.482 325.547 389.856 325.409C389.963 325.369 390.07 325.327 390.178 325.289C390.653 325.12 391.141 324.987 391.636 324.893C391.749 324.872 391.863 324.857 391.975 324.835C391.543 324.917 391.988 324.838 392.064 324.831C392.339 324.805 392.615 324.795 392.891 324.793C393.79 324.786 394.653 324.006 394.611 323.073C394.569 322.147 393.855 321.346 392.891 321.353C387.762 321.391 383.006 325.011 381.603 329.944C381.357 330.809 381.904 331.855 382.804 332.06C383.72 332.269 384.657 331.785 384.92 330.859Z" fill="black"/>
<path d="M433.317 300.688C427.239 298.892 420.514 301.352 416.842 306.452C416.298 307.206 416.711 308.368 417.459 308.806C418.325 309.312 419.268 308.944 419.812 308.188C422.6 304.317 427.931 302.684 432.403 304.005C434.53 304.634 435.439 301.315 433.317 300.688Z" fill="black"/>
<path d="M529.165 201.654C486.38 188.723 435.557 198.216 405.695 231.472C387.66 251.557 378.803 277.932 376.395 304.562C383.763 300.226 391.13 295.889 398.497 291.552C401.429 289.826 404.386 288.082 406.892 285.78C415.753 277.644 417.45 264.21 424.851 254.726C423.557 264.568 423.52 274.575 424.742 284.427C433.568 282.82 442.311 280.752 450.922 278.235C456.582 269.302 462.242 260.369 467.902 251.436C466.437 275.93 470.829 300.756 480.609 323.261C485.9 321.867 491.191 320.473 496.483 319.079C496.284 312.702 496.112 306.149 498.254 300.139C500.396 294.129 505.414 288.701 511.757 288.014C518.717 287.262 525.456 292.809 527.079 299.619C528.702 306.428 525.774 313.827 520.652 318.599C530.725 328.655 540.797 338.712 550.87 348.769C575.323 337.457 599.596 325.795 623.445 313.351C624.016 313.053 631.598 309.346 631.477 308.994C615.416 261.063 578.435 216.544 529.165 201.654Z" fill="black"/>
<path d="M529.622 199.995C516.56 196.068 502.87 194.188 489.233 194.387C475.721 194.584 462.174 196.799 449.383 201.19C436.662 205.558 424.704 212.062 414.377 220.704C403.185 230.072 394.258 241.964 387.877 255.063C381.173 268.825 377.192 283.735 375.287 298.892C375.05 300.779 374.849 302.669 374.675 304.562C374.553 305.894 376.217 306.664 377.263 306.048C382.103 303.199 386.942 300.35 391.781 297.501C396.324 294.827 401.107 292.354 405.36 289.227C412.495 283.981 415.914 276.152 419.369 268.279C421.312 263.851 423.369 259.443 426.336 255.594L423.131 254.726C421.856 264.585 421.819 274.559 423.022 284.427C423.165 285.599 424.001 286.305 425.199 286.086C430.102 285.188 434.98 284.158 439.824 282.982C442.246 282.395 444.659 281.772 447.063 281.115C448.265 280.786 449.465 280.448 450.662 280.102C452.058 279.699 452.461 279.02 453.216 277.827C458.606 269.319 463.997 260.812 469.387 252.304L466.182 251.436C465.055 270.778 467.498 290.329 473.359 308.797C475.012 314.006 476.954 319.114 479.124 324.129C479.423 324.821 480.395 325.096 481.066 324.919C486.357 323.525 491.649 322.131 496.94 320.737C497.651 320.55 498.226 319.824 498.203 319.079C497.902 309.365 497.755 296.677 507.504 291.177C515.838 286.477 525.403 293.894 525.791 302.732C526.036 308.297 523.416 313.606 519.435 317.382C518.762 318.021 518.79 319.171 519.435 319.815C529.508 329.872 539.581 339.928 549.654 349.985C550.237 350.567 551.035 350.579 551.738 350.254C570.142 341.739 588.455 333.024 606.574 323.917C613.661 320.355 620.703 316.703 627.769 313.098C628.87 312.537 629.971 311.973 631.047 311.365C631.835 310.92 632.873 310.425 633.134 309.477C633.352 308.685 632.906 307.85 632.654 307.118C632.328 306.171 631.995 305.227 631.653 304.286C630.99 302.456 630.298 300.637 629.577 298.829C623.831 284.404 616.372 270.665 607.283 258.07C598.164 245.436 587.468 233.908 575.235 224.233C563.128 214.657 549.622 206.91 535.046 201.77C533.251 201.137 531.442 200.548 529.622 199.995C527.499 199.35 526.592 202.669 528.708 203.312C543.073 207.678 556.523 214.643 568.631 223.496C580.797 232.391 591.574 243.199 600.798 255.1C610.021 267 617.726 280.103 623.799 293.874C625.289 297.252 626.669 300.678 627.949 304.141C628.274 305.022 628.593 305.906 628.905 306.792C629.05 307.205 629.194 307.618 629.337 308.032C629.412 308.251 629.472 308.545 629.579 308.742L629.699 309.097L630.203 307.876C630.196 307.901 630.486 307.704 630.136 307.908C629.998 307.988 629.864 308.075 629.727 308.156C629.233 308.45 628.725 308.722 628.218 308.992C622.185 312.213 616.049 315.267 609.952 318.363C592.392 327.28 574.64 335.813 556.79 344.132C554.529 345.186 552.266 346.236 550.002 347.284L552.087 347.553C542.014 337.496 531.941 327.439 521.868 317.383V319.815C529.971 312.127 532.465 298.309 523.333 290.34C519.36 286.873 513.945 285.264 508.815 286.881C503.697 288.493 499.657 292.756 497.465 297.557C494.393 304.289 494.539 311.841 494.763 319.079L496.026 317.42C490.734 318.814 485.443 320.208 480.152 321.602L482.094 322.393C474.582 305.032 470.299 286.264 469.49 267.369C469.262 262.059 469.313 256.741 469.622 251.436C469.726 249.651 467.279 249.207 466.417 250.568C460.757 259.501 455.098 268.434 449.438 277.367L450.466 276.577C441.849 279.086 433.113 281.152 424.285 282.769L426.463 284.427C425.26 274.559 425.297 264.585 426.571 254.726C426.666 253.991 425.969 253.249 425.308 253.067C424.51 252.847 423.838 253.245 423.366 253.858C418.265 260.476 415.95 268.615 412.064 275.91C410.115 279.568 407.739 282.946 404.502 285.577C400.587 288.76 395.896 291.087 391.562 293.638C386.217 296.785 380.872 299.931 375.527 303.077L378.116 304.563C379.465 289.844 382.766 275.158 388.656 261.568C394.397 248.321 402.565 236.141 413.191 226.32C422.712 217.521 434.028 210.704 446.106 206.036C458.428 201.274 471.527 198.613 484.712 197.97C497.923 197.327 511.216 198.653 524.017 201.992C525.589 202.403 527.152 202.844 528.708 203.312C530.832 203.951 531.74 200.632 529.622 199.995Z" fill="black"/>
</svg>
