<svg width="1000" height="1000" viewBox="0 0 1000 1000" fill="none" xmlns="http://www.w3.org/2000/svg">
<path d="M527.972 400.853C553.825 391.167 578.135 377.377 599.715 360.158C609.686 352.202 619.284 343.251 625.017 331.856C635.626 310.771 630.99 284.59 619.084 264.208C611.447 251.135 601.135 239.897 590.152 229.571C579.251 219.323 567.627 212.147 560.638 198.725C557.146 192.02 552.777 184.912 545.597 182.545C542.889 181.652 539.979 181.525 537.136 181.749C528.479 182.428 520.12 186.396 514.122 192.675C510.118 188.42 504.602 185.793 499.306 183.408C497.254 182.484 495.105 181.623 492.855 181.59C490.605 181.557 488.212 182.518 487.115 184.483C486.152 186.21 486.357 188.401 487.184 190.197C488.01 191.993 489.384 193.472 490.763 194.888C495.397 199.644 500.401 203.102 505.815 206.79C501.968 213.991 503.161 223.644 506.632 230.88C518.049 254.676 544.735 267.877 557.628 290.906C558.24 292 558.837 293.214 558.634 294.45C558.441 295.63 557.563 296.563 556.722 297.413C527.701 326.763 494.349 351.413 461.146 375.935" fill="white"/>
<path d="M528.398 402.397C550.511 394.09 571.506 382.886 590.65 369.043C599.87 362.375 609.067 355.26 616.645 346.721C623.998 338.437 629.367 328.712 631.43 317.765C635.576 295.766 627.845 273.175 615.226 255.265C608.472 245.679 600.428 237.086 591.923 229.041C584.172 221.71 575.303 215.48 568.367 207.315C566.635 205.275 565.058 203.111 563.663 200.826C562.297 198.587 561.171 196.213 559.843 193.952C557.341 189.691 554.271 185.538 550.026 182.875C545.189 179.84 539.419 179.655 533.926 180.537C528.665 181.382 523.547 183.43 519.127 186.403C516.907 187.896 514.848 189.619 512.989 191.542H515.254C512.197 188.352 508.412 186.019 504.478 184.067C500.673 182.18 496.181 179.561 491.784 180.047C487.585 180.512 484.401 183.757 484.952 188.12C485.514 192.565 489.365 195.962 492.521 198.789C496.407 202.269 500.704 205.24 505.007 208.173L504.432 205.982C497.5 219.303 505.232 234.188 513.609 244.754C522.022 255.365 532.66 263.891 542.082 273.547C546.732 278.312 551.114 283.37 554.653 289.028C555.485 290.358 557.015 292.23 557.064 293.844C557.113 295.503 554.681 297.2 553.627 298.251C550.619 301.251 547.565 304.205 544.47 307.114C532.145 318.703 519.184 329.598 505.922 340.096C492.622 350.623 479.013 360.749 465.375 370.831C463.696 372.071 462.017 373.312 460.338 374.552C458.698 375.763 460.294 378.544 461.955 377.317C475.692 367.171 489.426 357.018 502.895 346.517C516.298 336.067 529.436 325.261 541.98 313.788C545.113 310.922 548.209 308.015 551.262 305.063C552.817 303.559 554.36 302.044 555.892 300.516C557.21 299.201 558.855 297.874 559.708 296.186C561.428 292.782 558.53 289.094 556.728 286.33C554.853 283.455 552.765 280.716 550.556 278.09C541.79 267.67 531.059 259.162 521.755 249.257C512.827 239.754 502.666 226.653 505.431 212.71C505.785 210.926 506.358 209.212 507.198 207.598C507.618 206.79 507.368 205.915 506.623 205.407C503.443 203.24 500.255 201.068 497.267 198.639C494.404 196.311 491.127 193.674 489.168 190.502C488.296 189.09 487.682 187.249 488.335 185.622C488.92 184.166 490.524 183.407 491.998 183.229C495.622 182.793 499.538 185.194 502.673 186.739C506.441 188.596 510.064 190.753 512.989 193.807C513.58 194.424 514.661 194.419 515.254 193.807C518.871 190.065 523.299 187.124 528.198 185.341C533.115 183.55 538.932 182.467 544.092 183.776C554.32 186.372 557.476 197.869 562.915 205.495C568.884 213.863 577.044 220.119 584.715 226.817C593.101 234.14 601.011 242.182 607.961 250.885C621.379 267.689 630.798 288.646 629.167 310.55C628.38 321.126 624.642 331.052 618.355 339.58C611.847 348.41 603.207 355.564 594.543 362.182C576.419 376.025 556.468 387.544 535.377 396.229C532.784 397.298 530.172 398.322 527.546 399.308C525.634 400.026 526.463 403.124 528.398 402.397Z" fill="black"/>
<path d="M518.307 197.836C516.431 202.285 519.23 208.022 523.912 209.257C528.926 210.579 533.917 206.66 534.503 201.703L531.769 202.835C534.173 204.978 537.537 207.363 540.873 205.843C543.784 204.516 543.949 201.229 545.994 199.161H543.729C545.748 201.297 548.535 202.115 551.404 201.685C552.266 201.556 552.724 200.479 552.522 199.716C552.28 198.797 551.404 198.47 550.553 198.597C548.826 198.856 547.167 198.138 545.994 196.897C545.402 196.27 544.325 196.294 543.729 196.897C542.159 198.484 541.776 200.831 540.271 202.403C538.396 204.362 535.5 201.878 534.033 200.571C532.925 199.582 531.462 200.331 531.3 201.703C530.943 204.729 527.351 207.07 524.455 206.079C521.492 205.065 520.233 201.443 521.395 198.687C521.734 197.884 521.03 196.934 520.277 196.717C519.355 196.453 518.641 197.043 518.307 197.836Z" fill="black"/>
<path d="M506.759 208.051C507.418 206.714 509.019 204.894 510.735 205.174C512.379 205.442 513.537 208.137 514.075 209.467C515.539 213.088 515.693 217.08 515.76 220.934L518.905 220.508L518.84 220.297L518.678 221.531C519.073 220.596 521.148 219.809 522.026 219.435C523.358 218.868 524.763 218.47 526.161 218.107C529.172 217.325 532.296 216.682 535.296 217.832C537.222 218.57 538.055 215.475 536.147 214.743C532.263 213.254 527.965 214.24 524.111 215.344C522.271 215.871 520.424 216.529 518.763 217.492C517.421 218.27 515.241 219.496 515.817 221.359C516.338 223.046 518.994 222.79 518.962 220.934C518.873 215.764 518.54 210.235 515.749 205.717C514.391 203.518 512.448 201.601 509.66 202.057C507.202 202.459 505.08 204.231 503.994 206.435C503.086 208.277 505.847 209.902 506.759 208.051Z" fill="black"/>
<path d="M357.488 764.925C357.248 781.563 357.079 798.637 362.8 814.262C363.251 815.495 363.799 816.791 364.894 817.516C365.935 818.204 367.261 818.236 368.509 818.245C375.877 818.3 383.245 818.356 390.613 818.411C390.778 817.002 391.175 815.621 391.785 814.34C407.348 817.433 423.391 818.102 439.157 816.315C443.836 815.784 448.706 814.952 452.458 812.107C458.935 807.196 459.757 796.428 454.101 790.591C449.534 785.877 442.496 784.852 436.393 782.437C425.644 778.184 417.074 768.772 413.845 757.672" fill="white"/>
<path d="M355.886 764.925C355.733 775.624 355.618 786.366 357.05 796.994C357.759 802.26 358.84 807.478 360.506 812.529C361.216 814.685 361.885 817.267 363.8 818.687C365.812 820.178 368.605 819.847 370.965 819.865C377.514 819.914 384.064 819.963 390.613 820.012C391.563 820.019 392.101 819.265 392.215 818.411C392.365 817.291 392.7 816.175 393.167 815.149L391.359 815.884C402.431 818.066 413.725 819.092 425.009 818.86C430.568 818.746 436.148 818.373 441.655 817.6C446.274 816.951 451.069 815.685 454.566 812.417C460.104 807.239 461.099 797.788 456.882 791.512C451.636 783.704 441.159 783.42 433.484 779.334C424.822 774.723 418.181 766.658 415.389 757.246C414.805 755.275 411.713 756.114 412.301 758.098C414.706 766.205 419.702 773.387 426.393 778.545C429.74 781.125 433.442 783.103 437.419 784.526C441.532 785.998 445.907 786.957 449.703 789.192C452.962 791.112 455.223 793.954 456.003 797.682C456.717 801.095 456.079 804.825 454.243 807.789C451.982 811.44 447.951 813.119 443.904 813.977C438.917 815.036 433.697 815.318 428.614 815.541C416.419 816.076 404.186 815.156 392.21 812.796C391.57 812.67 390.706 812.866 390.402 813.532C389.68 815.118 389.243 816.685 389.012 818.411L390.613 816.81C385.21 816.769 379.807 816.729 374.404 816.688C373.094 816.678 371.784 816.669 370.474 816.659C369.289 816.65 368.014 816.77 366.845 816.556C364.615 816.148 364.119 813.289 363.523 811.46C360.417 801.936 359.384 791.916 359.097 781.945C358.934 776.273 359.008 770.598 359.089 764.925C359.119 762.864 355.916 762.863 355.886 764.925Z" fill="black"/>
<path d="M467.507 750.645C473.347 766.226 479.412 782.188 490.433 794.654C491.303 795.637 492.285 796.645 493.569 796.92C494.789 797.182 496.036 796.728 497.201 796.282C504.083 793.649 510.964 791.015 517.846 788.381C517.486 787.009 517.353 785.578 517.453 784.164C533.073 781.372 548.256 776.148 562.288 768.738C566.452 766.54 570.683 763.99 573.14 759.973C577.382 753.04 574.224 742.712 566.829 739.338C560.858 736.613 553.931 738.222 547.368 738.198C535.808 738.155 524.397 732.512 517.345 723.353" fill="white"/>
<path d="M465.962 751.071C469.587 760.741 473.247 770.456 478.163 779.56C480.615 784.101 483.395 788.452 486.581 792.515C488.04 794.376 489.596 796.671 491.681 797.878C494.26 799.37 496.955 798.083 499.462 797.124C505.732 794.724 512.002 792.325 518.271 789.925C519.099 789.609 519.611 788.866 519.39 787.956C519.083 786.692 518.986 785.462 519.054 784.164L517.879 785.708C528.393 783.812 538.704 780.851 548.607 776.84C553.544 774.841 558.387 772.611 563.096 770.121C567.136 767.984 571.155 765.525 573.872 761.755C578.397 755.478 577.111 746.289 571.777 740.893C564.523 733.555 553.691 737.203 544.645 736.483C534.394 735.668 524.772 730.305 518.478 722.221C517.213 720.596 514.961 722.877 516.213 724.485C521.567 731.362 529.278 736.334 537.705 738.526C542.111 739.673 546.586 739.935 551.117 739.678C555.901 739.407 561.025 738.721 565.602 740.544C572.028 743.103 575.207 751.49 572.491 757.774C570.815 761.651 567.105 764.209 563.558 766.222C559.23 768.679 554.695 770.817 550.12 772.77C539.513 777.299 528.374 780.574 517.027 782.62C516.316 782.748 515.886 783.504 515.852 784.164C515.769 785.734 515.93 787.279 516.301 788.807L517.42 786.837C512.22 788.827 507.021 790.817 501.822 792.807C500.598 793.275 499.375 793.743 498.151 794.211C496.942 794.674 495.329 795.602 493.994 795.376C492.979 795.204 492.211 794.245 491.565 793.521C490.716 792.569 489.9 791.584 489.108 790.584C483.154 783.07 478.783 774.385 475.06 765.592C472.915 760.525 470.982 755.371 469.05 750.219C468.333 748.307 465.237 749.136 465.962 751.071Z" fill="black"/>
<path d="M389.796 597.069C407.536 653.462 429.446 708.542 455.288 761.713C467.739 758.625 479.914 754.431 491.629 749.207C497.487 746.595 503.23 743.726 508.835 740.608C513.877 737.803 518.647 735.003 522.115 730.247C522.407 729.846 522.699 729.408 522.72 728.913C522.739 728.453 522.521 728.02 522.309 727.612C517.857 719.036 512.535 710.538 508.858 701.673C499.53 679.182 490.409 656.6 482.218 633.665C473.069 608.049 465.065 582.044 457.538 555.91" fill="white"/>
<path d="M388.252 597.495C395.2 619.567 402.779 641.44 410.986 663.076C419.186 684.692 428.01 706.073 437.435 727.184C442.733 739.051 448.227 750.831 453.905 762.521C454.217 763.163 455.064 763.419 455.714 763.257C472.264 759.134 488.33 753.093 503.495 745.283C510.167 741.847 517.65 738.313 522.485 732.37C523.624 730.968 524.774 729.508 524.065 727.626C523.371 725.785 522.235 724.04 521.294 722.316C519.244 718.564 517.129 714.847 515.129 711.067C511.055 703.367 507.905 695.25 504.614 687.195C501.276 679.027 497.984 670.839 494.775 662.619C488.304 646.047 482.216 629.334 476.603 612.452C471.028 595.685 465.86 578.784 460.917 561.82C460.302 559.709 459.691 557.597 459.082 555.485C458.512 553.508 455.421 554.348 455.994 556.336C460.796 573.002 465.788 589.615 471.15 606.11C476.495 622.554 482.245 638.859 488.418 655.011C494.609 671.213 501.007 687.377 507.831 703.325C511.063 710.878 515.292 717.942 519.194 725.156C519.67 726.037 520.142 726.92 520.607 727.807C520.735 728.051 521.147 728.58 521.113 728.848C521.071 729.189 520.555 729.681 520.351 729.94C519.225 731.368 517.912 732.653 516.509 733.807C513.733 736.093 510.533 737.843 507.396 739.575C492.657 747.71 476.982 754.107 460.762 758.617C458.803 759.162 456.836 759.677 454.862 760.169L456.671 760.905C446.62 740.215 437.151 719.243 428.309 698.009C419.474 676.794 411.247 655.325 403.642 633.639C399.342 621.374 395.243 609.04 391.34 596.643C390.723 594.684 387.63 595.521 388.252 597.495Z" fill="black"/>
<path d="M341.088 593.59C337.057 652.57 337.388 711.847 342.076 770.779C354.795 772.441 367.662 772.972 380.476 772.377C386.882 772.079 393.276 771.5 399.632 770.639C405.349 769.865 410.811 768.995 415.774 765.83C416.192 765.564 416.624 765.262 416.824 764.808C417.009 764.387 416.964 763.905 416.915 763.447C415.895 753.839 414.036 743.986 413.842 734.39C413.352 710.046 413.087 685.693 413.818 661.351C414.633 634.162 416.656 607.029 419.17 579.948" fill="white"/>
<path d="M339.486 593.59C337.916 616.637 337.003 639.729 336.759 662.828C336.517 685.845 336.935 708.868 338.014 731.86C338.624 744.846 339.446 757.82 340.474 770.779C340.55 771.729 341.155 772.261 342.076 772.38C359.369 774.62 376.911 774.81 394.245 772.902C401.717 772.079 410.13 771.481 416.582 767.213C418.207 766.138 418.668 764.863 418.466 762.974C418.237 760.832 417.962 758.696 417.68 756.56C417.124 752.341 416.525 748.127 416.083 743.894C415.184 735.302 415.28 726.623 415.156 717.994C415.03 709.216 414.955 700.437 414.969 691.659C414.996 674.089 415.428 656.528 416.348 638.982C417.269 621.427 418.611 603.897 420.183 586.389C420.376 584.242 420.573 582.095 420.772 579.948C420.962 577.897 417.758 577.91 417.569 579.948C415.984 597.039 414.591 614.149 413.576 631.283C412.561 648.411 411.963 665.557 411.812 682.715C411.66 699.939 411.854 717.17 412.241 734.39C412.426 742.631 413.755 750.779 414.786 758.942C414.915 759.97 415.041 760.998 415.158 762.027C415.238 762.728 415.604 763.835 415.107 764.352C414.528 764.954 413.437 765.359 412.7 765.724C411.875 766.132 411.029 766.483 410.162 766.79C406.689 768.02 403.026 768.578 399.389 769.07C382.525 771.35 365.377 771.619 348.447 769.914C346.32 769.7 344.196 769.452 342.076 769.177L343.677 770.779C341.85 747.75 340.679 724.671 340.178 701.575C339.679 678.563 339.84 655.536 340.663 632.533C341.127 619.542 341.805 606.559 342.689 593.59C342.829 591.533 339.626 591.541 339.486 593.59Z" fill="black"/>
<path d="M261.709 357.367C250.827 308.165 243.743 268.509 237.004 218.571L355.652 318.935L456.534 192.966L461.872 346.158L590.51 361.637L506.709 431.027L596.916 574.611L463.473 544.186L461.338 674.426L361.523 576.212L287.863 689.371L271.317 546.855L132.003 539.382L229.149 448.108L122.395 354.164L261.709 357.367Z" fill="white"/>
<path d="M263.253 356.941C255.404 321.418 248.541 285.701 243.069 249.733C241.469 239.217 239.973 228.686 238.548 218.145L235.872 219.703C249.31 231.071 262.749 242.438 276.187 253.806C297.432 271.777 318.677 289.749 339.922 307.72C344.788 311.836 349.654 315.952 354.52 320.068C355.123 320.578 356.208 320.787 356.784 320.068C368.206 305.806 379.627 291.544 391.049 277.282C409.114 254.725 427.179 232.168 445.243 209.611C449.384 204.44 453.525 199.269 457.666 194.098L454.933 192.966C455.534 210.214 456.135 227.463 456.736 244.712C457.694 272.209 458.652 299.706 459.61 327.204C459.83 333.522 460.05 339.84 460.271 346.158C460.303 347.101 460.984 347.652 461.872 347.759C476.369 349.503 490.867 351.248 505.364 352.992C528.46 355.772 551.556 358.551 574.652 361.33C579.938 361.966 585.224 362.602 590.51 363.238L589.378 360.505C579.923 368.334 570.467 376.163 561.012 383.992C546.005 396.418 530.998 408.844 515.991 421.271C512.52 424.145 509.048 427.02 505.576 429.895C505.05 430.33 504.975 431.277 505.326 431.835C508.308 436.582 511.29 441.329 514.273 446.076C521.438 457.481 528.603 468.885 535.768 480.29C544.485 494.166 553.203 508.042 561.921 521.919C569.421 533.856 576.921 545.794 584.421 557.732C586.894 561.669 589.368 565.607 591.842 569.544C592.892 571.216 593.924 573.801 595.374 575.167C595.439 575.228 595.484 575.342 595.533 575.419L597.341 573.067C582.239 569.623 567.136 566.18 552.034 562.737C528.158 557.293 504.282 551.849 480.406 546.406C474.904 545.151 469.401 543.897 463.899 542.642C462.878 542.409 461.889 543.112 461.872 544.186C461.631 558.898 461.389 573.611 461.148 588.323C460.765 611.665 460.383 635.007 460 658.349C459.912 663.708 459.824 669.067 459.737 674.426L462.47 673.293C451.164 662.168 439.858 651.044 428.551 639.919C410.686 622.34 392.82 604.761 374.955 587.182C370.855 583.148 366.755 579.114 362.655 575.08C361.893 574.329 360.702 574.541 360.14 575.404C351.86 588.125 343.579 600.845 335.299 613.566C322.052 633.916 308.806 654.266 295.559 674.616C292.533 679.265 289.506 683.914 286.48 688.563L289.464 689.371C287.597 673.293 285.731 657.215 283.864 641.136C280.892 615.541 277.921 589.946 274.949 564.351C274.272 558.519 273.595 552.687 272.917 546.855C272.813 545.957 272.266 545.305 271.316 545.254C255.57 544.409 239.824 543.564 224.077 542.72C199.158 541.383 174.238 540.046 149.318 538.71C143.546 538.4 137.774 538.09 132.002 537.781L133.135 540.514C144.107 530.206 155.079 519.897 166.051 509.588C183.462 493.229 200.873 476.871 218.283 460.512C222.282 456.755 226.282 452.997 230.281 449.24C230.882 448.675 230.916 447.535 230.281 446.975C218.23 436.37 206.179 425.766 194.128 415.161C174.952 398.286 155.777 381.412 136.601 364.537C132.243 360.702 127.885 356.867 123.527 353.032L122.394 355.766C138.141 356.128 153.887 356.49 169.633 356.852L244.392 358.57C250.164 358.703 255.936 358.835 261.708 358.968C263.77 359.016 263.769 355.813 261.708 355.766C245.962 355.404 230.216 355.042 214.469 354.68L139.71 352.961C133.938 352.828 128.166 352.696 122.394 352.563C121.06 352.532 120.211 354.372 121.262 355.297C133.313 365.901 145.364 376.506 157.415 387.111C176.591 403.986 195.766 420.86 214.942 437.735C219.3 441.57 223.658 445.405 228.016 449.24V446.975C217.044 457.284 206.072 467.593 195.1 477.902C177.689 494.261 160.278 510.619 142.867 526.978C138.868 530.735 134.869 534.492 130.87 538.25C129.806 539.249 130.678 540.912 132.002 540.983C147.749 541.828 163.495 542.673 179.241 543.517C204.161 544.854 229.081 546.191 254 547.527C259.772 547.837 265.544 548.147 271.316 548.456L269.715 546.855C271.582 562.933 273.448 579.012 275.315 595.09C278.287 620.685 281.259 646.28 284.23 671.875C284.907 677.707 285.585 683.539 286.262 689.371C286.441 690.913 288.323 691.596 289.246 690.18C297.526 677.459 305.807 664.738 314.087 652.018C327.334 631.668 340.58 611.318 353.827 590.967C356.853 586.318 359.88 581.669 362.906 577.02L360.391 577.344C371.697 588.469 383.003 599.594 394.31 610.719C412.175 628.298 430.041 645.877 447.906 663.456C452.006 667.49 456.106 671.524 460.206 675.558C461.204 676.54 462.917 675.812 462.939 674.426C463.18 659.713 463.422 645.001 463.663 630.288C464.046 606.946 464.428 583.604 464.811 560.262C464.899 554.904 464.987 549.545 465.074 544.186L463.047 545.73C478.15 549.173 493.252 552.617 508.354 556.06C532.23 561.504 556.106 566.947 579.982 572.391C585.485 573.646 590.987 574.9 596.49 576.155C597.793 576.452 599.074 575.038 598.298 573.803C595.316 569.056 592.334 564.309 589.351 559.562C582.186 548.157 575.021 536.752 567.856 525.348C559.138 511.472 550.421 497.595 541.703 483.719C534.203 471.781 526.703 459.844 519.203 447.906C516.729 443.968 514.256 440.031 511.782 436.093L509.467 432.409C509.117 431.851 508.749 430.908 508.249 430.471C508.184 430.413 508.139 430.294 508.091 430.219L507.841 432.159C517.296 424.33 526.751 416.501 536.207 408.672C551.214 396.245 566.22 383.819 581.227 371.393C584.699 368.518 588.171 365.644 591.643 362.769C592.842 361.776 591.723 360.182 590.51 360.036C576.013 358.291 561.515 356.547 547.018 354.802C523.922 352.023 500.826 349.244 477.73 346.465C472.444 345.828 467.158 345.192 461.872 344.556L463.473 346.158C462.872 328.909 462.271 311.66 461.67 294.412C460.712 266.914 459.754 239.417 458.796 211.92C458.576 205.602 458.356 199.284 458.135 192.966C458.092 191.713 456.325 190.681 455.402 191.833C443.98 206.095 432.559 220.357 421.137 234.619C403.072 257.176 385.007 279.733 366.943 302.29C362.802 307.461 358.661 312.632 354.52 317.803H356.784C343.346 306.435 329.907 295.068 316.469 283.7C295.224 265.729 273.979 247.758 252.733 229.786C247.868 225.671 243.002 221.555 238.136 217.439C236.842 216.344 235.247 217.418 235.46 218.997C240.333 255.049 246.24 290.936 253.515 326.583C255.642 337.005 257.87 347.406 260.164 357.792C260.609 359.804 263.697 358.953 263.253 356.941Z" fill="black"/>
<path d="M566.222 431.231C566.325 436.579 566.427 441.927 566.53 447.275C566.559 448.758 566.624 450.352 567.522 451.533C568.287 452.538 569.554 453.089 570.247 454.145C571.216 455.619 570.766 457.643 569.806 459.124C568.847 460.604 567.456 461.751 566.378 463.148C555.742 476.933 587.325 503.799 596.717 511.543C598.32 512.864 599.987 514.189 601.06 515.968C601.951 517.446 602.38 519.166 602.543 520.884C603.126 527.05 600.146 533.427 595.043 536.937C589.94 540.446 582.92 540.946 577.37 538.196C574.93 536.987 572.807 535.225 570.809 533.374C562.093 525.3 554.354 515 546.805 505.814C538.099 495.219 520.947 468.054 515.249 455.58" fill="black"/>
<path d="M564.62 431.231C564.676 434.148 564.732 437.065 564.789 439.982C564.843 442.81 564.757 445.682 564.976 448.502C565.071 449.72 565.285 450.942 565.914 452.009C566.53 453.053 567.502 453.637 568.365 454.437C570.345 456.273 568.236 458.707 566.865 460.184C564.712 462.502 563.121 464.858 562.724 468.053C562.399 470.666 562.885 473.338 563.747 475.807C565.922 482.034 570.068 487.488 574.329 492.435C578.751 497.568 583.637 502.296 588.698 506.793C590.599 508.482 592.529 510.136 594.482 511.762C595.807 512.865 597.198 513.913 598.397 515.155C600.209 517.032 600.941 519.422 601.008 521.996C601.123 526.412 599.326 530.805 596.191 533.912C592.899 537.175 588.254 538.66 583.669 538.304C578.519 537.905 574.578 534.767 570.976 531.336C567.051 527.597 563.434 523.547 559.943 519.404C554.276 512.68 548.57 505.882 543.421 498.747C538.711 492.221 534.307 485.469 530.057 478.636C525.991 472.1 522.022 465.473 518.508 458.62C517.857 457.35 517.227 456.069 516.631 454.772C515.773 452.901 513.012 454.526 513.866 456.388C516.887 462.974 520.61 469.258 524.35 475.454C528.749 482.74 533.346 489.917 538.207 496.905C542.994 503.787 548.314 510.234 553.602 516.734C557.147 521.092 560.754 525.408 564.62 529.487C568.208 533.274 572.11 537.508 576.911 539.746C585.801 543.891 596.744 540.591 601.625 532.033C603.951 527.955 604.882 522.92 603.731 518.327C602.675 514.117 599.361 511.686 596.206 509.046C591.507 505.114 586.941 501.015 582.625 496.664C577.671 491.67 572.867 486.319 569.327 480.206C566.867 475.96 564.352 470.134 566.77 465.501C568.675 461.85 573.717 459.221 572.122 454.381C571.353 452.047 568.573 451.405 568.215 448.912C568.025 447.584 568.11 446.182 568.084 444.844C568.053 443.223 568.022 441.603 567.991 439.982C567.935 437.065 567.879 434.148 567.823 431.231C567.783 429.173 564.581 429.166 564.62 431.231Z" fill="black"/>
<path d="M642.229 268.053C647.996 260.402 653.623 251.638 662.694 248.555C670.906 245.763 680.068 248.455 687.533 252.872C700.656 260.637 710.127 273.284 718.096 286.284C738.641 319.797 751.679 359.22 747.449 398.3C746.176 410.061 742.081 423.273 731.217 427.954C727.13 429.716 722.578 430.001 718.13 430.154C695.197 430.944 672.18 428.869 649.32 430.86C614.128 433.926 580.554 446.491 547.518 459.001C537.407 462.83 527.202 466.691 516.508 468.282C500.377 470.681 484.045 468.204 472.882 455.692C463.139 444.773 458.277 429.193 461.532 414.766C464.429 401.927 472.792 390.847 482.841 382.346C495.339 371.773 510.53 363.802 524.071 354.818C537.987 345.584 552.479 337.267 566.805 328.697C594.537 312.108 622.51 294.215 642.229 268.053Z" fill="#B78437"/>
<path d="M381.69 514.294C409.675 533.934 439.044 551.599 469.508 567.118C470.68 567.715 472.053 568.319 473.259 567.794C474.075 567.439 474.598 566.647 475.077 565.898C483.368 552.927 492.262 540.342 501.72 528.196C509.245 518.533 519.098 506.62 521.238 494.301C522.084 489.437 521.983 484.223 524.44 479.94C526.896 475.658 533.404 473.184 536.772 476.795C539.257 479.46 539.162 484.419 542.545 485.773C544.661 486.62 547.059 485.469 548.788 483.985C551.97 481.255 561.095 461.41 566.392 468.184C567.551 469.667 567.763 471.658 567.932 473.533C570.192 471.339 573.941 470.874 576.669 472.447C579.398 474.021 580.873 477.498 580.107 480.554C582.586 479.065 585.993 479.321 588.222 481.163C590.452 483.005 591.345 486.302 590.35 489.018C593.768 488.578 596.323 492.348 596.679 495.775C597.987 508.367 586.92 521.479 577.412 528.531C574.082 531 570.434 533.117 567.633 536.173C564.911 539.143 563.14 542.838 561.364 546.455C550.08 569.424 536.251 595.693 515.216 611.123C494.813 626.09 468.49 631.62 443.254 629.771C418.018 627.923 393.715 619.162 371.107 607.797C354.07 599.232 337.619 589.007 324.344 575.317" fill="white"/>
<path d="M380.881 515.677C398.587 528.093 416.835 539.731 435.571 550.53C444.901 555.908 454.351 561.079 463.91 566.039C466.089 567.169 468.359 568.687 470.731 569.362C473.125 570.043 474.929 568.978 476.251 567.028C479.282 562.556 482.14 557.968 485.194 553.509C491.322 544.563 497.757 535.837 504.439 527.298C510.363 519.726 516.45 512.027 520.219 503.103C522.094 498.665 522.91 494.201 523.49 489.445C524.004 485.229 524.749 480.273 528.687 477.863C530.117 476.988 531.893 476.396 533.577 476.753C535.268 477.112 536.186 478.458 536.863 479.94C538.308 483.104 539.262 487.092 543.35 487.602C549.623 488.384 552.854 481.155 555.684 476.895C557.238 474.556 558.844 472.184 560.865 470.216C561.523 469.576 562.395 468.835 563.16 468.537C563.781 468.296 564.188 468.304 564.605 468.63C565.958 469.683 566.175 471.857 566.33 473.533C566.457 474.912 567.988 475.648 569.063 474.665C570.915 472.973 573.859 472.573 576.021 473.929C578.065 475.211 579.077 477.793 578.562 480.128C578.263 481.483 579.658 482.639 580.914 481.936C585.442 479.404 590.403 483.777 588.806 488.592C588.498 489.521 589.337 490.708 590.35 490.619C592.713 490.412 594.209 492.539 594.813 494.597C595.51 496.969 595.234 499.737 594.728 502.121C593.606 507.394 590.839 512.233 587.545 516.448C584.218 520.706 580.242 524.533 575.858 527.691C573.503 529.388 571.054 530.959 568.829 532.83C566.589 534.714 564.752 536.966 563.233 539.463C560.288 544.306 558.048 549.623 555.476 554.672C552.981 559.567 550.404 564.422 547.676 569.192C542.108 578.925 535.913 588.38 528.438 596.768C520.928 605.196 512.146 612.183 502.076 617.319C491.684 622.62 480.288 625.911 468.743 627.463C444.074 630.779 419.143 625.872 396.07 617.124C384.3 612.661 372.864 607.227 361.866 601.108C351.253 595.202 341.041 588.472 331.954 580.384C329.72 578.396 327.562 576.327 325.476 574.185C324.035 572.706 321.772 574.971 323.211 576.45C340.952 594.67 364.125 607.284 387.369 617.068C411.111 627.062 436.944 633.437 462.844 631.298C486.716 629.326 509.881 620.295 526.89 603.098C543.244 586.563 553.552 565.493 563.882 544.965C565.277 542.192 566.787 539.417 568.922 537.137C571.043 534.873 573.626 533.154 576.155 531.389C580.744 528.186 584.956 524.513 588.572 520.23C592.197 515.938 595.318 511.109 597.069 505.737C598.602 501.034 599.438 494.845 596.377 490.561C594.975 488.598 592.836 487.199 590.35 487.416L591.894 489.444C593.007 486.088 591.973 482.153 589.198 479.91C586.387 477.636 582.423 477.423 579.298 479.171L581.65 480.979C582.475 477.236 580.952 473.202 577.638 471.163C574.21 469.055 569.704 469.746 566.799 472.4L569.532 473.533C569.246 470.423 568.464 466.118 564.84 465.29C562.52 464.76 560.361 466.281 558.768 467.79C554.715 471.631 552.149 476.784 548.957 481.297C548.458 482.002 548.088 482.545 547.302 483.14C545.741 484.323 543.427 485.184 541.977 483.398C540.919 482.095 540.487 480.299 539.831 478.783C539.109 477.113 538.126 475.56 536.564 474.559C533.352 472.5 529.07 473.565 526.191 475.698C522.451 478.469 521.177 482.981 520.553 487.397C519.869 492.247 519.33 496.875 517.464 501.453C515.625 505.963 513.045 510.17 510.296 514.174C504.484 522.637 497.804 530.494 491.732 538.771C488.458 543.234 485.259 547.751 482.135 552.321C480.574 554.606 479.031 556.903 477.508 559.214C476.794 560.297 476.084 561.383 475.379 562.472C474.669 563.567 474.034 564.904 473.15 565.867C472.306 566.786 471.28 566.21 470.316 565.735C469.013 565.094 467.727 564.412 466.437 563.745C464.008 562.489 461.585 561.219 459.17 559.936C454.339 557.369 449.538 554.748 444.766 552.073C425.755 541.416 407.221 529.906 389.241 517.587C386.984 516.041 384.737 514.482 382.498 512.912C380.807 511.726 379.205 514.501 380.881 515.677Z" fill="black"/>
<path d="M665.627 272.954C662.26 293.779 663.699 315.29 669.92 335.457C675.601 353.876 685.278 370.949 698.016 385.402C705.085 393.423 713.1 400.574 721.834 406.737C723.521 407.928 725.123 405.152 723.45 403.972C708.42 393.365 695.664 379.604 686.148 363.867C675.951 347.003 669.616 327.893 667.686 308.279C666.557 296.807 666.875 285.187 668.715 273.806C669.041 271.79 665.956 270.922 665.627 272.954Z" fill="black"/>
<path d="M703.112 388.577C703.219 388.688 728.672 368.212 730.415 366.89C737.058 361.853 743.774 356.845 750.821 352.381C753.126 350.921 758.131 349.375 759.836 347.488C763.232 343.731 760.915 335.96 759.779 331.542C757.292 321.873 753.731 312.48 749.182 303.593C746.873 299.082 743.846 293.111 738.404 293.181C734.952 293.226 730.046 296.015 726.654 296.976C717.757 299.497 708.71 301.496 699.649 303.329C688.551 305.574 677.386 307.581 666.181 309.222C667.561 322.313 670.835 335.205 675.936 347.341C682.351 362.604 691.643 376.639 703.112 388.577Z" fill="white"/>
<path d="M703.112 390.178C704.025 390.203 704.958 389.19 705.603 388.687C706.957 387.631 708.3 386.563 709.644 385.495C713.534 382.404 717.413 379.3 721.293 376.197C724.362 373.742 727.425 371.281 730.505 368.841C730.693 368.692 730.882 368.543 731.07 368.394C731.225 368.272 731.686 367.923 731.179 368.307C732.921 366.988 734.664 365.67 736.417 364.365C740.281 361.487 744.189 358.666 748.199 355.994C749.889 354.868 751.565 353.695 753.403 352.821C754.95 352.085 756.542 351.447 758.061 350.654C761.087 349.074 762.754 346.739 763.127 343.319C763.499 339.904 762.68 336.396 761.84 333.106C760.776 328.942 759.609 324.813 758.208 320.748C756.712 316.407 754.994 312.14 753.078 307.966C751.464 304.451 749.807 300.816 747.645 297.594C745.852 294.923 743.42 292.338 740.115 291.737C736.449 291.07 732.842 292.882 729.539 294.226C725.377 295.919 720.933 296.904 716.577 297.966C711.846 299.12 707.09 300.164 702.322 301.151C692.608 303.163 682.852 304.986 673.057 306.557C670.625 306.947 668.191 307.32 665.755 307.678C665.128 307.771 664.512 308.592 664.58 309.222C667.11 332.839 675.629 355.546 689.56 374.81C693.353 380.056 697.503 385.035 701.98 389.709C703.408 391.201 705.671 388.934 704.245 387.445C688.605 371.115 677.19 350.997 671.44 329.114C669.725 322.585 668.501 315.934 667.782 309.222L666.607 310.766C685.317 308.016 704.084 304.606 722.384 299.801C724.372 299.279 726.398 298.804 728.335 298.112C730.136 297.469 731.878 296.671 733.667 295.994C736.611 294.88 739.58 294.049 742.255 296.209C744.706 298.19 746.176 301.237 747.584 303.982C749.592 307.895 751.429 311.89 753.044 315.981C754.68 320.124 756.111 324.348 757.331 328.632C758.278 331.96 759.275 335.362 759.784 338.791C760.163 341.34 760.469 345.071 758.162 346.862C755.758 348.727 752.592 349.418 750.013 350.998C740.1 357.07 730.951 364.398 721.882 371.65C718.085 374.686 714.289 377.724 710.488 380.755C708.887 382.032 707.286 383.307 705.681 384.578C705.07 385.061 704.459 385.545 703.846 386.026C703.616 386.206 703.386 386.385 703.156 386.565C703.096 386.612 702.787 386.851 702.99 386.694C703.2 386.532 702.895 386.768 702.841 386.808C702.733 386.889 702.585 386.971 702.493 387.069C702.214 387.369 701.848 386.942 703.112 386.976C701.051 386.921 701.052 390.123 703.112 390.178Z" fill="black"/>
<path d="M747.999 346.145C750.549 347.904 754.708 350.359 757.84 348.933C759.36 348.24 760.55 347.01 761.504 345.679C764.153 341.984 765.203 337.428 765.497 332.951C766.247 321.52 762.237 309.863 754.542 301.11C751.92 298.129 748.791 295.416 744.98 294.061C743.208 293.431 741.273 293.11 739.419 293.456C737.073 293.894 735.017 295.4 733.742 297.341C731.884 300.17 731.315 304.454 731.267 307.749C731.21 311.689 731.668 315.63 732.566 319.473C734.328 327.015 737.769 334.188 742.464 340.46C744.048 342.576 745.795 344.624 747.999 346.145Z" fill="black"/>
<path d="M707.301 254.574C703.502 260.825 700.977 267.507 697.436 273.936C695.487 277.474 693.614 281.054 691.819 284.673C690.423 287.487 687.236 291.87 686.959 294.991C688.955 272.45 693.656 250.15 700.929 228.722C701.191 227.949 701.475 227.148 702.059 226.577C706.078 222.648 712.708 232.551 714.809 234.794C716.178 236.256 728.896 248.205 728.398 249.304C736.824 230.692 746.031 211.703 761.376 198.214C760.492 204.716 758.677 211.049 756.868 217.356C753.32 229.724 749.773 242.091 746.225 254.458C744.521 260.397 742.813 266.351 740.464 272.065C740.1 272.951 739.537 273.968 738.581 274.023C738.043 274.054 737.547 273.754 737.092 273.465C727.162 267.168 717.231 260.871 707.301 254.574Z" fill="white"/>
<path d="M705.918 253.766C703.771 257.33 701.98 261.08 700.198 264.836C698.42 268.585 696.51 272.24 694.549 275.896C692.726 279.294 691.112 282.816 689.173 286.148C687.564 288.91 685.731 291.75 685.358 294.991H688.561C690.281 275.743 693.978 256.686 699.573 238.188C700.283 235.84 701.024 233.502 701.794 231.173C702.196 229.959 702.535 227.536 704.006 227.275C705.799 226.956 708.195 229.6 709.401 230.893C710.925 232.528 712.209 234.376 713.743 235.996C714.914 237.234 716.178 238.391 717.396 239.581C719.522 241.661 721.643 243.749 723.694 245.903C724.524 246.775 725.349 247.655 726.12 248.58C726.489 249.023 726.403 248.906 726.705 249.343C727.157 249.996 726.674 249.457 726.854 248.879C726.327 250.575 729.022 251.788 729.781 250.113C736.27 235.786 743.099 221.252 753.173 209.037C756.032 205.57 759.142 202.322 762.509 199.347L759.832 197.789C758.809 205.117 756.677 212.214 754.642 219.309C752.549 226.602 750.457 233.896 748.365 241.19C746.308 248.362 744.36 255.578 742.114 262.694C741.59 264.355 741.041 266.009 740.452 267.648C740.184 268.393 739.909 269.135 739.623 269.874C739.38 270.506 739.156 271.664 738.644 272.146C738.241 272.526 738.744 272.32 738.25 272.296C737.944 272.281 737.317 271.713 737.062 271.551C736.362 271.107 735.663 270.664 734.964 270.22C733.285 269.156 731.607 268.091 729.928 267.027C722.655 262.415 715.382 257.803 708.109 253.191C706.363 252.084 704.755 254.855 706.493 255.957C713.346 260.303 720.2 264.648 727.053 268.994C728.732 270.059 730.41 271.123 732.088 272.187C733.686 273.2 735.281 274.45 736.997 275.246C740.703 276.967 742.08 272.425 743.049 269.837C745.809 262.475 747.787 254.824 749.953 247.273C752.136 239.662 754.319 232.052 756.502 224.441C758.942 215.936 761.694 207.427 762.921 198.64C763.137 197.089 761.526 195.949 760.244 197.082C748.213 207.715 739.86 221.685 732.869 235.971C730.843 240.11 728.917 244.298 727.015 248.496L729.942 249.73C730.446 248.109 728.374 246.268 727.437 245.228C725.583 243.171 723.615 241.215 721.647 239.269C719.979 237.62 718.288 235.996 716.62 234.346C715.219 232.96 714.061 231.358 712.775 229.868C710.884 227.678 708.628 225.194 705.776 224.312C704.515 223.922 703.099 223.989 701.944 224.664C700.042 225.775 699.506 227.916 698.856 229.871C695.557 239.78 692.807 249.872 690.619 260.084C688.152 271.597 686.406 283.264 685.358 294.991C685.173 297.06 688.33 297.003 688.561 294.991C688.895 292.085 691.06 289.333 692.461 286.858C694.347 283.527 695.952 280.028 697.774 276.658C701.563 269.653 704.572 262.206 708.684 255.382C709.75 253.612 706.982 252.001 705.918 253.766Z" fill="black"/>
<path d="M776.902 387.937C769.768 386.322 762.63 386.052 755.409 384.737C751.435 384.014 747.445 383.376 743.444 382.824C740.331 382.395 735.163 380.766 732.116 381.496C754.122 376.224 776.76 373.593 799.389 373.679C800.205 373.682 801.055 373.696 801.781 374.068C806.784 376.63 799.502 386.064 798.043 388.769C797.092 390.532 789.805 406.388 788.604 406.265C808.93 408.339 829.86 411.033 847.526 421.295C841.081 422.523 834.499 422.815 827.944 423.104C815.091 423.672 802.237 424.239 789.383 424.806C783.211 425.078 777.023 425.35 770.858 424.94C769.902 424.876 768.76 424.665 768.404 423.776C768.203 423.276 768.33 422.711 768.459 422.188C771.273 410.771 774.088 399.354 776.902 387.937Z" fill="white"/>
<path d="M777.328 386.392C773.261 385.489 769.128 384.975 764.995 384.479C760.72 383.966 756.498 383.281 752.254 382.565C748.551 381.941 744.803 381.535 741.126 380.771C738.072 380.136 734.808 379.291 731.691 379.952L732.542 383.04C751.593 378.493 771.082 375.911 790.662 375.381C793.085 375.316 795.51 375.281 797.934 375.278C799.15 375.276 801.286 374.918 801.821 376.305C802.51 378.094 800.774 381.052 799.871 382.674C798.842 384.524 797.568 386.239 796.581 388.111C795.761 389.668 795.039 391.282 794.272 392.865C793.01 395.47 791.738 398.071 790.385 400.629C789.822 401.693 789.25 402.755 788.618 403.78C788.4 404.134 788.179 404.495 787.924 404.824C788.19 404.481 787.891 404.908 787.847 404.896C787.813 404.886 787.772 405.003 787.735 405.003C787.958 405.004 788.295 404.67 788.604 404.663C786.505 404.71 786.589 407.66 788.604 407.866C804.19 409.459 819.989 411.374 834.724 416.983C838.868 418.56 842.878 420.461 846.718 422.678L847.101 419.751C839.809 421.114 832.37 421.308 824.978 421.634C817.563 421.961 810.147 422.288 802.732 422.615C795.36 422.941 787.983 423.377 780.606 423.519C778.818 423.553 777.03 423.56 775.242 423.524C774.267 423.504 773.293 423.472 772.319 423.423C771.735 423.394 770.456 423.559 769.984 423.177C769.766 423 769.841 423.051 770.003 422.613C770.144 422.234 770.204 421.801 770.301 421.407C770.519 420.523 770.737 419.638 770.955 418.754C771.43 416.824 771.906 414.895 772.382 412.965C774.403 404.764 776.425 396.563 778.446 388.362C778.94 386.361 775.852 385.507 775.358 387.511C773.416 395.39 771.474 403.269 769.531 411.149C769.056 413.078 768.58 415.008 768.104 416.938C767.649 418.784 767.005 420.678 766.764 422.565C766.237 426.69 770.95 426.589 773.78 426.687C781.777 426.963 789.801 426.388 797.788 426.036C805.698 425.687 813.608 425.338 821.518 424.989C830.341 424.6 839.246 424.466 847.952 422.839C849.342 422.58 849.462 420.563 848.335 419.912C834.286 411.805 818.295 408.348 802.372 406.237C797.792 405.629 793.199 405.133 788.604 404.663V407.866C790.353 407.827 791.385 405.441 792.113 404.152C793.452 401.779 794.663 399.331 795.865 396.886C796.908 394.763 797.921 392.624 798.962 390.499C799.801 388.789 800.899 387.233 801.878 385.601C803.369 383.112 805.001 380.256 805.11 377.282C805.157 375.996 804.795 374.679 803.919 373.712C802.538 372.187 800.593 372.078 798.662 372.075C788.075 372.063 777.487 372.643 766.965 373.812C755.093 375.131 743.309 377.179 731.691 379.952C729.678 380.432 730.535 383.466 732.542 383.04C735.316 382.451 738.435 383.496 741.142 384.037C744.849 384.777 748.632 385.174 752.359 385.816C756.325 386.5 760.282 387.116 764.279 387.596C768.368 388.087 772.452 388.586 776.477 389.48C778.485 389.927 779.342 386.84 777.328 386.392Z" fill="black"/>
<path d="M805.952 266.597C806.855 265.618 807.856 264.584 809.167 264.353C810.627 264.094 812.048 264.902 813.275 265.735C818.506 269.287 823.011 273.903 826.434 279.219C833.588 273.103 842.048 268.478 849.904 263.162C858.834 257.119 868.014 251.421 877.605 246.482C875.242 247.699 872.795 252.09 871.154 254.178C863.467 263.961 856.832 274.503 849.743 284.714C846.21 289.801 842.563 294.816 838.623 299.597C835.057 303.924 831.098 309.422 826.355 312.459C821.349 306.064 816.437 299.595 811.622 293.054C795.844 297.912 780.214 303.25 764.761 309.056C771.654 301.867 778.688 294.812 785.857 287.898C792.896 281.11 799.311 273.793 805.952 266.597Z" fill="white"/>
<path d="M807.084 267.729C807.686 267.083 808.358 266.237 809.242 265.979C810.137 265.718 811.038 266.226 811.779 266.672C813.57 267.753 815.236 269.101 816.803 270.481C819.978 273.277 822.745 276.482 825.051 280.027C825.647 280.943 826.758 281.037 827.566 280.351C833.439 275.364 840.087 271.428 846.552 267.277C853.213 263 859.714 258.506 866.526 254.463C870.425 252.15 874.386 249.944 878.414 247.864L876.797 245.099C874.941 246.133 873.62 247.944 872.406 249.636C871.055 251.517 869.733 253.396 868.324 255.236C864.784 259.86 861.452 264.639 858.177 269.453C851.459 279.328 844.949 289.363 837.369 298.613C833.772 303.001 830.363 307.924 825.547 311.076L827.488 311.326C822.567 305.037 817.741 298.675 813.005 292.246C812.589 291.681 811.922 291.286 811.196 291.51C795.419 296.373 779.791 301.71 764.335 307.512L765.893 310.189C772.789 303 779.831 295.957 786.99 289.03C794.009 282.238 800.467 274.906 807.084 267.729C808.48 266.216 806.221 263.945 804.82 265.464C798.202 272.641 791.745 279.973 784.725 286.765C777.567 293.692 770.525 300.736 763.629 307.924C762.596 309 763.614 311.191 765.187 310.6C780.643 304.798 796.271 299.461 812.048 294.598L810.239 293.862C815.137 300.511 820.134 307.087 825.223 313.591C825.636 314.119 826.624 314.194 827.163 313.841C831.521 310.99 834.795 306.884 838.022 302.869C841.572 298.451 845.085 294.03 848.383 289.418C855.303 279.739 861.624 269.645 868.681 260.063C870.388 257.743 872.225 255.516 873.857 253.143C875.115 251.314 876.416 248.977 878.414 247.864C880.222 246.857 878.622 244.156 876.797 245.099C869.574 248.83 862.574 252.974 855.744 257.381C849.136 261.645 842.534 265.934 835.96 270.249C832.27 272.671 828.668 275.228 825.302 278.086L827.817 278.411C824.982 274.053 821.509 270.12 817.455 266.859C815.604 265.37 813.508 263.52 811.162 262.9C808.546 262.207 806.521 263.635 804.82 265.464C803.417 266.972 805.677 269.242 807.084 267.729Z" fill="black"/>
<path d="M509.119 366.391C502.807 381.745 504.812 399.065 509.78 414.494C510.813 417.701 511.909 420.919 513.406 423.943C514.717 426.593 516.273 429.121 517.936 431.563C521.75 437.167 526.132 442.408 530.856 447.265C535.532 452.073 540.64 456.778 546.467 460.165C548.252 461.203 549.866 458.437 548.083 457.4C543.204 454.564 538.911 450.744 534.906 446.799C530.247 442.208 525.912 437.245 522.092 431.934C518.644 427.138 515.812 422.16 513.856 416.581C511.22 409.061 509.247 401.234 508.592 393.277C507.862 384.416 508.811 375.504 512.207 367.242C512.539 366.436 511.848 365.49 511.089 365.272C510.174 365.009 509.446 365.595 509.119 366.391Z" fill="black"/>
<path d="M359.623 601.638C359.457 623.854 359.66 646.073 360.293 668.281C360.918 690.201 361.96 712.109 363.419 733.989C364.256 746.526 365.229 759.054 366.327 771.572C366.506 773.609 369.71 773.628 369.53 771.572C367.588 749.44 366.044 727.275 364.937 705.086C363.844 683.184 363.176 661.261 362.908 639.334C362.754 626.769 362.732 614.203 362.826 601.638C362.841 599.577 359.639 599.575 359.623 601.638Z" fill="black"/>
<path d="M384.732 614.052C384.575 634.456 385.025 654.862 385.798 675.25C386.589 696.092 387.727 716.92 389.068 737.734C389.794 749.017 390.583 760.296 391.414 771.571C391.565 773.615 394.769 773.631 394.617 771.571C393.116 751.216 391.755 730.849 390.643 710.468C389.508 689.646 388.625 668.807 388.187 647.958C387.95 636.658 387.848 625.354 387.934 614.051C387.95 611.99 384.747 611.988 384.732 614.052Z" fill="black"/>
<path d="M427.032 643.269C433.186 657.801 439.587 672.228 446.052 686.624C452.759 701.559 459.548 716.457 466.294 731.374C469.896 739.339 473.486 747.31 477.036 755.299C477.871 757.179 480.632 755.551 479.801 753.683C473.392 739.26 466.858 724.892 460.341 710.518C453.582 695.607 446.83 680.693 440.222 665.715C436.693 657.718 433.206 649.702 429.797 641.652C429.457 640.85 428.288 640.69 427.606 641.078C426.776 641.55 426.696 642.477 427.032 643.269Z" fill="black"/>
<path d="M461.328 633.417C468.775 663.118 479.16 692.066 492.278 719.734C495.971 727.523 499.885 735.206 504.004 742.778C504.99 744.589 507.756 742.974 506.77 741.162C492.267 714.504 480.396 686.445 471.393 657.463C468.835 649.231 466.512 640.927 464.416 632.566C463.915 630.568 460.825 631.415 461.328 633.417Z" fill="black"/>
<path d="M447.105 743.923C465.743 737.948 483.799 730.146 500.904 720.631C505.767 717.926 510.549 715.08 515.252 712.107C516.99 711.008 515.385 708.236 513.636 709.341C497.26 719.695 479.881 728.457 461.785 735.384C456.66 737.346 451.479 739.16 446.254 740.835C444.299 741.462 445.134 744.555 447.105 743.923Z" fill="black"/>
<path d="M433.865 716.624C452.457 711.475 470.402 703.968 487.107 694.315C491.818 691.592 496.427 688.695 500.931 685.642C502.627 684.492 501.027 681.716 499.315 682.876C483.507 693.592 466.367 702.315 448.366 708.701C443.308 710.495 438.186 712.103 433.013 713.536C431.03 714.085 431.872 717.176 433.865 716.624Z" fill="black"/>
<path d="M423.317 690.877C431.546 686.32 440.595 683.693 449.472 680.732C453.911 679.25 458.32 677.668 462.592 675.748C467.175 673.689 471.568 671.24 475.972 668.83C481.141 666 486.31 663.17 491.479 660.341C493.287 659.351 491.673 656.584 489.863 657.576C480.936 662.462 472.112 667.7 462.922 672.081C454.384 676.151 445.223 678.594 436.332 681.738C431.312 683.514 426.364 685.528 421.701 688.111C419.898 689.11 421.511 691.877 423.317 690.877Z" fill="black"/>
<path d="M463.743 645.377C470.771 642.402 477.799 639.428 484.828 636.453C485.631 636.113 485.79 634.944 485.402 634.262C484.93 633.432 484.003 633.352 483.211 633.687C476.183 636.662 469.155 639.637 462.126 642.612C461.324 642.952 461.164 644.121 461.552 644.803C462.024 645.633 462.951 645.712 463.743 645.377Z" fill="black"/>
<path d="M416.069 657.159C417.188 656.017 418.672 655.482 420.152 654.967C421.862 654.372 423.552 653.735 425.219 653.029C428.656 651.572 431.964 649.848 435.128 647.867C436.871 646.776 435.265 644.004 433.511 645.102C430.28 647.125 426.889 648.916 423.359 650.362C420.172 651.668 416.295 652.354 413.804 654.894C412.36 656.366 414.623 658.633 416.069 657.159Z" fill="black"/>
<path d="M340.153 746.773C359.077 747.389 378.086 747.291 396.862 744.575C402.156 743.809 407.416 742.823 412.623 741.598C414.629 741.126 413.78 738.038 411.772 738.51C393.511 742.804 374.714 743.961 356.003 743.884C350.719 743.863 345.435 743.742 340.153 743.57C338.091 743.503 338.093 746.706 340.153 746.773Z" fill="black"/>
<path d="M340.802 717.475C359.818 717.655 378.836 716.49 397.685 713.974C403.026 713.261 408.353 712.445 413.662 711.523C415.689 711.171 414.829 708.084 412.81 708.435C394.296 711.649 375.564 713.548 356.781 714.112C351.456 714.272 346.129 714.323 340.802 714.272C338.741 714.252 338.739 717.455 340.802 717.475Z" fill="black"/>
<path d="M339.183 684.766C358.624 681.622 378.432 683.373 397.952 681.094C403.425 680.456 408.857 679.514 414.184 678.094C416.174 677.564 415.33 674.474 413.333 675.006C394.251 680.092 374.357 678.775 354.834 679.928C349.308 680.254 343.797 680.794 338.331 681.678C336.302 682.006 337.163 685.093 339.183 684.766Z" fill="black"/>
<path d="M339.347 647.07C358.808 647.892 378.307 648.715 397.78 647.757C403.276 647.486 408.764 647.069 414.236 646.48C416.264 646.262 416.286 643.057 414.236 643.278C394.852 645.362 375.326 645.203 355.867 644.525C350.36 644.333 344.853 644.1 339.347 643.868C337.286 643.781 337.291 646.983 339.347 647.07Z" fill="black"/>
<path d="M339.943 620.795C357.967 622.903 376.016 625.013 394.16 625.733C399.268 625.935 404.38 626.023 409.491 625.977C411.551 625.959 411.556 622.756 409.491 622.775C391.333 622.935 373.225 621.341 355.194 619.345C350.108 618.782 345.026 618.187 339.943 617.593C337.9 617.354 337.917 620.559 339.943 620.795Z" fill="black"/>
<path d="M414.223 666.709C418.092 676.149 421.961 685.589 425.83 695.03C425.755 679.827 427.589 664.617 431.275 649.868C431.61 648.525 431.958 647.088 431.486 645.787C431.117 644.768 430.296 643.989 429.502 643.25C425.066 639.119 420.63 634.989 416.194 630.858C415.774 642.997 416.476 654.991 414.366 666.953" fill="black"/>
<path d="M412.679 667.134C416.548 676.575 420.417 686.015 424.286 695.456C424.928 697.022 427.439 696.979 427.432 695.03C427.397 685.47 428.078 675.905 429.549 666.457C430.295 661.663 431.232 656.898 432.358 652.179C432.837 650.175 433.612 648.036 433.185 645.956C432.741 643.794 430.906 642.371 429.376 640.945C425.359 637.206 421.343 633.466 417.326 629.726C416.299 628.77 414.639 629.454 414.593 630.859C414.196 642.75 414.862 654.75 412.822 666.527C412.473 668.543 415.559 669.409 415.91 667.379C418.002 655.302 417.389 643.051 417.795 630.859L415.062 631.991C418.479 635.172 421.896 638.354 425.313 641.535C426.152 642.317 426.991 643.098 427.831 643.88C428.529 644.53 429.407 645.183 429.847 646.048C430.293 646.926 430.09 647.915 429.879 648.832C429.614 649.981 429.315 651.123 429.047 652.272C426.98 661.152 425.576 670.191 424.833 679.278C424.405 684.518 424.21 689.773 424.229 695.03L427.374 694.604C423.505 685.164 419.636 675.723 415.767 666.283C415.436 665.477 414.706 664.925 413.797 665.165C413.037 665.365 412.351 666.335 412.679 667.134Z" fill="black"/>
<path d="M624.583 752.953C620.778 750.221 622.817 743.634 626.6 741.953C632.494 739.333 638.767 744.437 640.631 749.797C641.942 753.569 641.956 757.678 641.351 761.589C641.043 763.579 644.01 764.492 644.439 762.441C645.213 758.74 646.654 755.203 648.76 752.058C650.658 749.223 653.298 746.472 656.628 745.406C664.357 742.931 669.815 750.784 670.005 757.686C670.161 763.327 668.005 768.713 665.975 773.872C665.275 775.652 667.942 776.516 668.902 775.106C673.624 768.166 683.179 765.587 691.024 767.998C699.524 770.61 703.952 779.143 703.232 787.697C702.832 792.445 700.742 796.966 697.178 800.151C695.637 801.527 697.909 803.786 699.442 802.416C706.911 795.743 708.425 784.097 704.119 775.275C699.644 766.108 689.058 762.336 679.431 764.567C674.062 765.811 669.247 768.919 666.136 773.49L669.063 774.724C671.123 769.49 673.192 764.08 673.217 758.373C673.236 753.909 671.767 749.379 668.77 746.023C665.958 742.875 661.748 741.265 657.563 741.906C653.6 742.514 650.193 745.103 647.707 748.14C644.541 752.007 642.373 756.704 641.351 761.589L644.439 762.441C645.716 754.194 644.437 744.376 636.42 739.929C633.109 738.092 629.054 737.479 625.496 738.966C622.502 740.217 620.392 743.024 619.691 746.164C618.882 749.785 619.887 753.507 622.967 755.718C624.644 756.922 626.244 754.145 624.583 752.953Z" fill="black"/>
<path d="M618.789 797.525C619.002 797.255 619.228 796.998 619.478 796.761C619.592 796.653 619.708 796.55 619.829 796.45C619.915 796.38 619.909 796.384 619.812 796.461C619.874 796.415 619.937 796.37 620.002 796.327C620.285 796.144 620.568 795.969 620.87 795.819C620.923 795.793 621.325 795.617 621.055 795.728C621.199 795.669 621.346 795.617 621.493 795.568C621.79 795.469 622.093 795.388 622.399 795.323C622.553 795.291 622.708 795.262 622.863 795.239C622.549 795.287 623.046 795.222 623.064 795.221C623.652 795.171 624.505 795.192 624.91 795.246C625.309 795.299 626.148 795.507 626.697 795.708C626.75 795.727 627.159 795.899 626.9 795.784C627.043 795.848 627.185 795.916 627.325 795.988C627.603 796.131 627.873 796.289 628.134 796.463C629.024 797.055 629.72 797.88 630.225 799.073C630.563 799.869 631.738 800.044 632.416 799.647C633.241 799.165 633.33 798.256 632.991 797.456C630.381 791.301 620.658 790.018 616.524 795.261C615.989 795.939 615.862 796.863 616.524 797.525C617.08 798.081 618.251 798.208 618.789 797.525Z" fill="black"/>
<path d="M276.343 811.434C271.724 810.115 273.551 803.463 276.021 800.983C278.307 798.688 281.985 798.611 284.968 799.266C289 800.15 292.635 802.243 296.141 804.344C297.806 805.343 299.154 803.174 298.081 801.829C295.022 797.996 293.886 790.362 298.751 787.349C301.925 785.384 308.246 786.504 308.697 790.902C308.872 792.607 311.334 793.184 311.843 791.327C313.066 786.862 317.664 783.569 322.325 784.108C326.967 784.645 330.693 788.999 330.806 793.599C330.857 795.656 334.06 795.664 334.009 793.599C333.856 787.375 328.979 781.745 322.752 780.957C316.543 780.17 310.391 784.5 308.754 790.476L311.9 790.902C311.373 785.77 306.291 782.775 301.401 783.236C295.532 783.789 292.065 789.116 292.271 794.758C292.396 798.197 293.681 801.419 295.817 804.094L297.757 801.579C291.665 797.927 283.558 793.503 276.382 796.845C271.997 798.888 269.614 804.456 270.522 809.093C271.04 811.74 272.903 813.783 275.492 814.522C277.477 815.089 278.325 812 276.343 811.434Z" fill="black"/>
<path d="M677.526 188.04C675.938 194.368 674.349 200.695 672.76 207.022C672.258 209.022 675.346 209.875 675.848 207.874C677.437 201.546 679.026 195.219 680.615 188.892C681.117 186.892 678.029 186.039 677.526 188.04Z" fill="black"/>
<path d="M751.11 455.561C755.854 459.519 760.598 463.478 765.342 467.437C766.006 467.991 766.956 468.087 767.607 467.437C768.176 466.868 768.274 465.729 767.607 465.172C762.863 461.214 758.119 457.255 753.375 453.296C752.711 452.742 751.76 452.646 751.11 453.296C750.54 453.865 750.443 455.004 751.11 455.561Z" fill="black"/>
<path d="M799.436 341.906C804.335 343.389 809.65 343.35 814.523 341.78C816.477 341.151 815.642 338.057 813.672 338.692C809.308 340.097 804.676 340.146 800.287 338.818C798.31 338.219 797.465 341.309 799.436 341.906Z" fill="black"/>
<path d="M784.257 223.2C782.674 226.364 781.092 229.529 779.51 232.693C779.136 233.442 779.286 234.462 780.084 234.884C780.81 235.268 781.875 235.11 782.275 234.31C783.857 231.145 785.44 227.981 787.022 224.816C787.396 224.068 787.246 223.047 786.447 222.625C785.722 222.242 784.657 222.4 784.257 223.2Z" fill="black"/>
<path d="M438.644 433.505C429.373 430.577 420.341 421.086 409.887 425.387C401.371 428.891 400.561 439.408 401.463 447.329C402.738 458.514 405.584 469.559 410 479.919C413.871 488.998 420.144 498.096 430.372 500.401C435.561 501.57 440.916 500.605 445.013 497.121C448.823 493.881 450.925 488.855 449.893 483.896C449.473 481.879 446.385 482.733 446.805 484.747C447.595 488.546 445.709 492.274 442.884 494.741C439.799 497.436 435.56 498.199 431.609 497.395C422.437 495.529 416.834 487.488 413.264 479.45C409.182 470.259 406.524 460.325 405.067 450.388C404.48 446.387 404.031 442.252 404.627 438.222C405.124 434.86 406.402 431.294 409.325 429.297C413.5 426.446 419.037 427.591 423.337 429.547C428.23 431.773 432.626 434.961 437.792 436.593C439.762 437.215 440.605 434.124 438.644 433.505Z" fill="black"/>
<path d="M404.941 458.021C415.523 462.079 427.449 462.749 438.442 459.903C439.76 459.562 441.392 459.254 442.298 460.245C442.63 460.609 442.79 461.088 442.941 461.552C443.82 464.253 444.699 466.954 445.578 469.656C447.153 474.495 448.745 479.448 448.583 484.521C448.421 489.593 446.169 494.898 441.656 497.454C437.555 499.777 432.239 499.416 427.993 497.354C423.747 495.291 420.449 491.737 417.828 487.891C412.336 479.832 409.481 470.387 406.848 461.067" fill="black"/>
<path d="M404.515 459.566C412.823 462.711 421.894 463.876 430.727 462.912C432.876 462.678 435.015 462.339 437.124 461.867C438.045 461.662 438.964 461.348 439.899 461.218C441.036 461.059 441.2 461.383 441.543 462.428C442.999 466.864 444.576 471.293 445.782 475.805C446.878 479.909 447.535 484.265 446.384 488.43C445.42 491.919 443.215 495.177 439.78 496.603C431.853 499.894 424.026 493.888 419.667 487.739C413.938 479.659 411.056 470.063 408.392 460.641C407.832 458.661 404.741 459.502 405.303 461.492C407.909 470.707 410.742 480.088 416.075 488.148C420.913 495.459 428.562 501.957 437.926 500.424C447.085 498.925 450.967 489.333 450.031 480.974C449.448 475.765 447.636 470.809 446.023 465.854C445.657 464.728 445.291 463.602 444.925 462.477C444.553 461.336 444.277 460.015 443.43 459.113C442.014 457.606 439.816 457.919 438.016 458.359C427.153 461.019 415.847 460.445 405.367 456.478C403.437 455.747 402.603 458.842 404.515 459.566Z" fill="black"/>
<path d="M377.97 394.354C386.525 396.009 394.928 398.352 403.106 401.363L402.723 398.436C398.063 400.994 393.403 403.552 388.742 406.111C386.935 407.103 388.549 409.869 390.359 408.876C395.019 406.318 399.679 403.76 404.34 401.201C405.635 400.49 405.181 398.725 403.957 398.275C395.78 395.264 387.377 392.92 378.821 391.265C376.807 390.876 375.945 393.962 377.97 394.354Z" fill="black"/>
<path d="M443.551 386.751C436.66 388.792 430.298 392.225 424.773 396.813C424.036 397.424 424.197 398.933 425.097 399.328C430.327 401.622 435.557 403.917 440.788 406.212C441.579 406.559 442.507 406.444 442.978 405.637C443.376 404.958 443.2 403.795 442.404 403.446C437.174 401.151 431.943 398.857 426.713 396.562L427.037 399.077C432.126 394.852 438.065 391.717 444.402 389.84C446.374 389.256 445.534 386.164 443.551 386.751Z" fill="black"/>
<path d="M413.558 393.276C415.056 400.846 416.555 408.415 418.054 415.984C418.454 418.004 421.541 417.149 421.142 415.133C419.643 407.564 418.144 399.994 416.646 392.425C416.246 390.405 413.158 391.26 413.558 393.276Z" fill="black"/>
<path d="M461.872 346.158L456.534 192.966L355.652 318.935L237.004 218.571C243.736 268.457 250.813 308.084 261.675 357.215C274.413 356.495 287.151 355.776 299.889 355.057C300.546 347.996 301.922 341.003 303.99 334.22C313.749 338.766 316.412 353 326.55 356.625C329.335 357.622 332.36 357.656 335.318 357.679C346.56 357.767 357.801 357.855 369.042 357.943C369.14 351.766 369.239 345.589 369.337 339.412C373.062 342.593 374.948 347.442 378.342 350.975C386.633 359.606 400.537 357.937 412.428 356.577C427.793 354.82 443.342 354.677 458.737 356.152C460.024 352.864 461.172 349.543 462.219 346.199L461.872 346.158Z" fill="black"/>
<path d="M463.473 346.158C463.296 341.058 463.118 335.959 462.94 330.86C462.517 318.701 462.093 306.542 461.669 294.383C461.154 279.597 460.639 264.81 460.124 250.024C459.681 237.309 459.238 224.593 458.795 211.878C458.578 205.667 458.51 199.429 458.145 193.224C458.139 193.138 458.139 193.052 458.136 192.966C458.092 191.713 456.325 190.681 455.402 191.833C452.047 196.023 448.692 200.213 445.336 204.402C437.283 214.458 429.229 224.515 421.176 234.571C411.467 246.694 401.759 258.817 392.05 270.939C383.664 281.41 375.279 291.881 366.893 302.352C364.143 305.786 361.393 309.22 358.643 312.654C357.356 314.261 355.782 315.845 354.687 317.593C354.641 317.668 354.574 317.734 354.519 317.803H356.784C352.836 314.464 348.889 311.124 344.941 307.785C335.496 299.796 326.051 291.806 316.607 283.817C305.157 274.131 293.707 264.446 282.257 254.76C272.396 246.419 262.534 238.077 252.673 229.735C247.893 225.692 243.157 221.591 238.331 217.603C238.266 217.549 238.201 217.494 238.136 217.439C236.842 216.344 235.247 217.418 235.46 218.997C237.94 237.362 240.653 255.696 243.718 273.973C246.658 291.506 249.926 308.983 253.479 326.402C255.607 336.833 257.834 347.245 260.131 357.64C260.275 358.29 261.005 358.854 261.675 358.816C274.413 358.097 287.151 357.378 299.889 356.658C300.817 356.606 301.404 355.963 301.49 355.057C302.15 348.132 303.521 341.303 305.534 334.646L303.182 335.603C310.41 339.061 313.453 347.341 318.626 352.979C321.572 356.191 325.206 358.362 329.562 358.964C332.45 359.363 335.385 359.281 338.294 359.304C341.435 359.328 344.576 359.353 347.717 359.377C354.825 359.433 361.934 359.488 369.042 359.544C369.918 359.551 370.63 358.805 370.644 357.943C370.742 351.766 370.84 345.589 370.938 339.412L368.204 340.544C370.52 342.576 372.092 345.172 373.795 347.701C375.454 350.165 377.27 352.449 379.65 354.253C383.942 357.507 389.291 358.798 394.582 359.165C400.176 359.554 405.789 358.935 411.342 358.303C418.737 357.46 426.154 356.915 433.597 356.781C441.988 356.63 450.382 356.963 458.737 357.754C459.483 357.824 460.04 357.196 460.281 356.578C461.557 353.301 462.708 349.979 463.763 346.625C464.107 345.532 463.198 344.716 462.219 344.598L461.872 344.556C461.006 344.452 460.279 345.367 460.271 346.158C460.261 347.108 461.017 347.656 461.872 347.759L462.219 347.801L460.675 345.774C459.619 349.128 458.469 352.45 457.193 355.727L458.737 354.551C444.156 353.17 429.451 353.206 414.881 354.709C409.233 355.292 403.595 356.099 397.904 356.078C392.777 356.06 387.438 355.383 382.983 352.666C377.305 349.203 375.332 342.545 370.469 338.28C369.441 337.378 367.758 337.969 367.735 339.412C367.637 345.589 367.539 351.766 367.441 357.943L369.042 356.342C362.843 356.293 356.644 356.245 350.445 356.196C344.447 356.149 338.415 356.286 332.423 356.018C330.003 355.91 327.583 355.542 325.426 354.382C323.78 353.498 322.371 352.295 321.096 350.937C318.466 348.134 316.48 344.81 314.242 341.703C311.697 338.17 308.8 334.752 304.798 332.837C303.858 332.388 302.764 332.743 302.446 333.794C300.349 340.729 298.975 347.846 298.288 355.057L299.889 353.456C287.151 354.175 274.413 354.894 261.675 355.613L263.219 356.789C259.222 338.699 255.443 320.559 252.011 302.353C248.718 284.881 245.75 267.35 243.075 249.773C241.473 239.244 239.973 228.7 238.548 218.145L235.872 219.704C239.819 223.043 243.767 226.382 247.715 229.721L276.049 253.689L310.399 282.746C320.26 291.088 330.122 299.43 339.983 307.771C344.762 311.814 349.498 315.916 354.324 319.903C354.39 319.957 354.454 320.013 354.519 320.068C355.123 320.578 356.208 320.787 356.784 320.068C360.139 315.878 363.494 311.688 366.85 307.499C374.903 297.443 382.957 287.386 391.01 277.33C400.719 265.207 410.427 253.085 420.136 240.962C428.522 230.491 436.907 220.02 445.293 209.549C448.043 206.115 450.793 202.681 453.543 199.247C454.834 197.635 456.387 196.052 457.499 194.308C457.546 194.234 457.612 194.167 457.667 194.098L454.933 192.966C455.111 198.065 455.288 203.164 455.466 208.264C455.89 220.423 456.313 232.582 456.737 244.741C457.252 259.527 457.767 274.313 458.283 289.1C458.725 301.815 459.169 314.53 459.612 327.245C459.828 333.457 459.896 339.694 460.262 345.899C460.267 345.985 460.268 346.071 460.271 346.158C460.342 348.213 463.545 348.222 463.473 346.158Z" fill="black"/>
<path d="M259.543 357.317L259.612 357.331C259.665 357.328 259.718 357.325 259.771 357.322L259.543 357.317Z" fill="black"/>
<path d="M259.117 358.861C259.139 358.866 259.162 358.87 259.184 358.875C259.33 358.904 259.479 358.94 259.628 358.931C259.644 358.931 259.66 358.93 259.676 358.929C259.707 358.927 259.739 358.925 259.771 358.923C259.991 358.932 260.197 358.886 260.388 358.785C260.586 358.721 260.758 358.611 260.903 358.454C261.059 358.309 261.169 358.138 261.234 357.939C261.334 357.748 261.38 357.543 261.372 357.322L261.315 356.896C261.239 356.625 261.101 356.39 260.903 356.19L260.579 355.939C260.329 355.794 260.06 355.722 259.771 355.721L259.571 355.716L259.543 355.715C259.322 355.707 259.117 355.753 258.926 355.853C258.727 355.918 258.555 356.028 258.41 356.184C258.254 356.329 258.144 356.501 258.079 356.7C257.979 356.891 257.933 357.096 257.941 357.317L257.999 357.742C258.075 358.014 258.212 358.249 258.41 358.449L258.734 358.699C258.984 358.844 259.254 358.917 259.543 358.918L259.742 358.923L259.771 358.923V355.721C259.718 355.724 259.665 355.727 259.612 355.73L260.038 355.787L259.968 355.773C259.756 355.706 259.543 355.696 259.33 355.744C259.117 355.754 258.918 355.817 258.734 355.934C258.548 356.035 258.398 356.172 258.285 356.346C258.144 356.501 258.048 356.683 257.999 356.891L257.941 357.317C257.942 357.606 258.015 357.875 258.16 358.125L258.41 358.449C258.61 358.648 258.846 358.785 259.117 358.861Z" fill="black"/>
<path d="M375.287 378.366C382.197 373.33 390.468 370.504 399.023 370.361C401.082 370.326 401.088 367.123 399.023 367.158C389.943 367.311 381.015 370.247 373.671 375.6C372.021 376.802 373.618 379.582 375.287 378.366Z" fill="black"/>
<path d="M444.013 370.195C436.95 364.514 427.697 365.406 419.503 367.727C417.523 368.288 418.365 371.379 420.355 370.815C427.264 368.858 435.684 367.581 441.749 372.46C442.428 373.006 443.348 373.111 444.013 372.46C444.581 371.905 444.686 370.736 444.013 370.195Z" fill="black"/>
</svg>
