<svg width="1000" height="1000" viewBox="0 0 1000 1000" fill="none" xmlns="http://www.w3.org/2000/svg">
<path d="M508.257 527.149C490.463 568.598 476.15 611.54 465.485 655.368C460.472 675.967 456.266 696.762 452.883 717.691C451.392 726.911 451.171 736.923 447.385 745.555C443.855 753.606 437.878 760.598 430.377 765.202C425.526 768.179 420.104 770.188 415.432 773.439C409.933 777.265 404.896 784.518 406.541 791.557C407.825 797.049 413.287 800.553 418.68 802.205C428.95 805.352 439.903 803.751 449.88 800.316C452.342 799.468 454.761 798.501 457.144 797.454C458.759 796.744 461.81 794.416 463.571 794.392C465.95 794.359 465.335 794.787 465.198 797.386C465.034 800.481 464.587 803.588 464.283 806.672C473.921 808.922 483.841 809.648 493.712 810.367C501.149 810.908 508.901 811.403 515.795 808.561C532.613 726.058 547.895 641.284 589.737 566.917C590.362 565.807 590.992 564.7 591.628 563.596" fill="black"/>
<path d="M506.972 526.398C496.72 550.301 487.591 574.679 479.665 599.451C471.68 624.407 464.903 649.751 459.366 675.362C456.516 688.54 453.995 701.789 451.807 715.093C449.887 726.767 449.85 739.121 443.65 749.573C440.895 754.218 437.254 758.378 432.949 761.648C428.245 765.22 422.736 767.355 417.65 770.284C412.943 772.996 408.743 776.716 406.426 781.725C404.31 786.298 403.975 791.757 406.937 796.056C409.797 800.206 414.546 802.627 419.296 803.935C425.267 805.579 431.525 805.698 437.631 804.85C443.837 803.988 449.853 802.113 455.626 799.71C457.835 798.79 459.781 797.578 461.899 796.491C462.335 796.267 462.8 796.023 463.286 795.93C463.568 795.876 464.08 795.992 464.312 795.884L464.404 795.906C464.81 796.025 464.635 795.767 463.878 795.13C463.838 795.168 463.9 795.447 463.873 795.52C463.718 795.933 463.768 796.556 463.735 796.993C463.489 800.229 463.121 803.444 462.795 806.672C462.732 807.291 463.3 807.972 463.888 808.108C474.492 810.551 485.425 811.33 496.258 812.033C501.214 812.355 506.228 812.478 511.125 811.505C512.277 811.276 513.415 810.982 514.53 810.612C515.68 810.23 516.931 809.995 517.281 808.71C517.939 806.295 518.291 803.748 518.788 801.293C522.78 781.602 526.715 761.898 530.987 742.264C535.282 722.524 539.917 702.852 545.287 683.374C550.619 664.035 556.678 644.885 563.834 626.139C571.022 607.313 579.339 588.909 589.038 571.239C590.306 568.929 591.599 566.632 592.913 564.348C593.87 562.684 591.298 561.183 590.343 562.845C573.549 592.052 560.701 623.353 550.471 655.411C540.297 687.294 532.645 719.914 525.723 752.636C521.812 771.12 518.133 789.653 514.36 808.166L515.4 807.126C507.628 810.236 499.108 809.282 490.969 808.678C482.145 808.022 473.318 807.228 464.679 805.237L465.772 806.673C466.098 803.444 466.461 800.229 466.712 796.994C466.831 795.46 467.155 793.647 465.286 793.058C463.363 792.452 461.364 793.368 459.721 794.285C457.47 795.542 455.318 796.674 452.904 797.62C441.73 801.998 428.286 804.762 416.772 799.948C412.305 798.08 407.99 794.587 407.728 789.4C407.458 784.04 410.875 779.078 414.822 775.766C419.363 771.956 425.194 769.967 430.267 767.003C434.911 764.289 439.055 760.713 442.424 756.52C445.843 752.266 448.546 747.446 450.218 742.241C452.051 736.53 452.705 730.524 453.431 724.596C455.018 711.643 457.576 698.764 460.175 685.981C465.399 660.281 471.87 634.835 479.555 609.761C487.111 585.104 495.84 560.807 505.712 536.983C506.97 533.947 508.248 530.92 509.543 527.9C510.29 526.158 507.726 524.64 506.972 526.398Z" fill="black"/>
<path d="M508.257 527.149C490.463 568.598 476.15 611.54 465.485 655.368C459.337 680.635 455.312 706.284 449.694 731.645C449.452 732.736 449.221 733.929 449.717 734.93C450.303 736.114 451.689 736.625 452.946 737.028C468.664 742.075 484.467 747.123 500.757 749.987C508.984 751.433 517.321 752.319 525.68 752.317C530.196 752.316 531.559 752.997 533.524 749.378C535.261 746.177 535.701 741.328 536.663 737.799C544.762 708.078 553.22 678.405 563.928 649.501C576.022 616.858 608.831 550.244 629.107 521.839" fill="#B78437"/>
<path d="M583.067 601.508C581.991 593.336 579.212 585.407 575.017 578.315C570.736 571.079 562.7 565.356 556.912 559.185C555.295 557.461 553.637 555.679 551.492 554.686C543.066 550.786 543.737 561.213 543.592 566.421C543.39 573.715 543.969 581.016 545.108 588.219C547.378 602.57 551.838 616.495 557.091 630.008C560.008 637.513 563.932 645.803 562.869 654.067C567.471 639.97 573.382 626.302 580.502 613.294C581.576 611.332 582.693 609.342 583.115 607.146C583.471 605.292 583.313 603.38 583.067 601.508Z" fill="black"/>
<path d="M576.732 553.424C573.258 589.147 573.384 630.916 601.043 666.548C614.043 683.295 630.815 711.501 645.087 727.178C651.374 734.085 659.072 740.491 663.47 748.828C667.572 756.603 669.323 765.633 668.256 774.37C667.566 780.02 665.763 785.513 665.398 791.193C664.968 797.879 667.509 806.335 674.042 809.43C679.138 811.845 685.281 809.752 689.931 806.56C698.788 800.483 704.354 790.914 707.877 780.968C708.746 778.514 709.496 776.018 710.16 773.501C710.61 771.796 710.687 767.959 711.765 766.565C713.22 764.684 713.173 765.431 715.121 767.156C717.441 769.211 719.594 771.495 721.818 773.654C729.58 767.512 736.323 760.201 743.031 752.924C748.085 747.441 753.298 741.682 755.366 734.518C701.272 669.993 644.445 605.257 612.298 526.214C611.818 525.034 611.344 523.852 610.876 522.667" fill="black"/>
<path d="M575.243 553.424C573.03 576.294 572.595 599.644 578.123 622.108C581.064 634.06 585.705 645.608 592.084 656.145C595.299 661.454 599.09 666.299 602.768 671.283C606.126 675.834 609.344 680.488 612.538 685.155C619.445 695.248 626.195 705.461 633.518 715.261C636.738 719.57 640.059 723.819 643.661 727.818C647.824 732.439 652.442 736.634 656.481 741.369C660.807 746.441 664.01 752.191 665.698 758.664C667.455 765.402 667.345 772.181 665.978 778.973C664.764 785.009 663.21 791.028 664.277 797.205C665.135 802.18 667.598 807.184 671.951 809.973C677.099 813.271 683.464 811.981 688.518 809.184C693.709 806.311 698.011 801.889 701.419 797.085C704.931 792.136 707.515 786.557 709.497 780.837C710.534 777.846 711.54 774.793 711.972 771.65C712.125 770.539 712.238 769.383 712.582 768.31C712.744 767.807 713.169 767.452 713.328 767.001L713.538 766.791L712.656 766.871C712.641 767.005 713.429 767.615 713.546 767.726C715.976 770.032 718.367 772.368 720.766 774.707C721.39 775.315 722.234 775.214 722.871 774.707C731.242 768.044 738.52 760.114 745.698 752.216C748.926 748.663 752.105 744.953 754.395 740.708C754.942 739.696 755.427 738.655 755.863 737.591C756.239 736.672 756.965 735.33 756.828 734.32C756.692 733.313 755.452 732.313 754.827 731.568C753.978 730.555 753.128 729.543 752.278 728.531C739.318 713.102 726.306 697.715 713.554 682.113C700.707 666.394 688.122 650.455 676.153 634.055C664.292 617.802 653.033 601.095 642.776 583.78C632.437 566.325 623.106 548.245 615.264 529.528C614.255 527.119 613.272 524.7 612.311 522.272C611.614 520.511 608.734 521.278 609.441 523.063C615.682 538.829 622.931 554.179 631.014 569.083C638.984 583.782 647.74 598.047 657.041 611.939C666.406 625.927 676.321 639.539 686.568 652.891C696.761 666.173 707.276 679.204 717.936 692.112C728.651 705.087 739.51 717.941 750.332 730.826C751.66 732.407 752.988 733.989 754.314 735.571L753.931 734.123C751.558 742.053 745.476 748.094 740 754.016C733.942 760.567 727.761 767.034 720.766 772.601H722.871C720.42 770.212 717.965 767.836 715.493 765.47C714.801 764.808 714.126 764.021 713.095 763.984C711.957 763.944 711.058 764.944 710.48 765.814C709.241 767.68 709.267 770.123 708.899 772.258C708.34 775.505 707.128 778.771 705.978 781.849C703.906 787.397 701.151 792.803 697.45 797.45C693.709 802.148 688.747 806.653 682.871 808.374C680.038 809.204 676.945 809.309 674.278 807.884C672.072 806.705 670.416 804.823 669.228 802.647C666.52 797.685 666.511 791.995 667.473 786.57C668.676 779.777 670.442 773.237 669.943 766.267C669.479 759.776 667.65 753.38 664.533 747.662C661.546 742.181 657.226 737.559 652.891 733.127C648.889 729.037 644.938 724.949 641.327 720.504C633.812 711.252 627.14 701.326 620.44 691.479C617.122 686.602 613.816 681.718 610.432 676.886C607.264 672.363 603.911 667.993 600.63 663.554C593.135 653.412 587.354 642.091 583.481 630.093C576.341 607.969 575.751 584.463 577.517 561.465C577.723 558.782 577.961 556.102 578.221 553.424C578.405 551.518 575.426 551.531 575.243 553.424Z" fill="black"/>
<path d="M545.473 551.935C548.703 586.595 571.925 622.077 588.799 652.514C606.48 684.407 631.176 710.155 654.022 738.361C654.725 739.23 655.514 740.153 656.607 740.389C657.898 740.668 659.16 739.9 660.26 739.168C673.994 730.009 687.783 720.785 700.166 709.82C706.419 704.282 712.303 698.309 717.505 691.767C720.316 688.232 721.698 687.589 720.088 683.798C718.665 680.447 715.145 677.084 712.982 674.134C693.127 647.058 672.291 619.954 661.748 587.665C651.643 556.713 651.245 522.515 661.456 491.536" fill="#B78437"/>
<path d="M506.972 526.398C496.151 551.624 486.584 577.381 478.359 603.57C470.037 630.066 463.12 656.946 457.701 684.184C454.961 697.955 452.425 711.768 449.505 725.503C449.148 727.18 448.786 728.857 448.417 730.532C448.069 732.113 447.641 733.761 448.281 735.326C449.375 738.002 452.859 738.564 455.298 739.345C461.87 741.451 468.45 743.531 475.084 745.432C488.565 749.295 502.336 752.424 516.352 753.455C519.709 753.702 523.06 753.765 526.424 753.811C528.293 753.837 530.439 754.135 532.143 753.172C534.025 752.107 535.067 749.874 535.771 747.93C536.743 745.246 537.122 742.394 537.748 739.621C539.243 732.993 541.312 726.446 543.147 719.905C545.053 713.112 546.999 706.33 549.006 699.566C552.997 686.118 557.233 672.74 561.893 659.508C563.024 656.295 564.181 653.092 565.363 649.897C566.029 648.098 563.153 647.321 562.493 649.106C553.035 674.667 545.315 700.824 538.058 727.082C537.151 730.365 536.247 733.648 535.355 736.934C534.625 739.625 534.238 742.39 533.529 745.085C533.076 746.807 532.389 749.685 530.64 750.601C530.108 750.88 529.456 750.873 528.867 750.879C527.641 750.891 526.414 750.834 525.189 750.828C511.569 750.757 498.097 748.377 484.933 745.021C478.401 743.356 471.934 741.45 465.497 739.451C462.356 738.476 459.222 737.478 456.09 736.475C454.711 736.033 453.094 735.719 451.833 734.984C450.358 734.125 451.042 732.441 451.34 731.084C454.286 717.687 456.803 704.202 459.435 690.742C464.625 664.2 470.992 637.987 478.841 612.101C486.537 586.718 495.474 561.711 505.62 537.204C506.907 534.094 508.216 530.993 509.542 527.9C510.29 526.159 507.726 524.64 506.972 526.398Z" fill="black"/>
<path d="M543.985 551.935C545.566 568.503 551.284 584.332 558.247 599.341C565.456 614.881 574.137 629.669 582.603 644.542C586.8 651.917 590.852 659.36 595.444 666.502C600.117 673.771 605.152 680.801 610.4 687.665C620.804 701.272 632.011 714.23 643.009 727.353C645.831 730.72 648.638 734.098 651.415 737.502C652.595 738.949 653.731 740.798 655.503 741.571C657.376 742.389 659.241 741.604 660.844 740.563C668.476 735.604 676.01 730.445 683.366 725.086C690.619 719.801 697.676 714.225 704.257 708.118C707.486 705.122 710.598 701.998 713.548 698.726C715.074 697.034 716.556 695.303 717.988 693.53C719.11 692.142 720.393 690.804 721.361 689.301C723.213 686.427 721.692 683.09 719.966 680.538C717.734 677.236 714.951 674.311 712.589 671.097C707.537 664.222 702.462 657.363 697.525 650.405C687.721 636.588 678.417 622.328 671.118 607.007C663.619 591.265 658.562 574.41 656.537 557.075C654.487 539.525 655.364 521.62 659.389 504.405C660.372 500.198 661.546 496.037 662.892 491.931C663.49 490.107 660.617 489.325 660.022 491.14C654.621 507.612 652.141 525.013 652.534 542.338C652.925 559.599 656.121 576.828 662.038 593.051C667.724 608.641 675.788 623.224 684.834 637.096C689.416 644.123 694.247 650.984 699.165 657.779C701.603 661.147 704.062 664.499 706.525 667.848C708.897 671.075 711.179 674.399 713.753 677.47C715.046 679.013 716.395 680.524 717.509 682.207C718.292 683.392 719.42 685.097 719.281 686.599C719.166 687.847 717.893 688.959 717.146 689.863C715.75 691.55 714.393 693.264 712.954 694.916C707.229 701.491 700.848 707.469 694.137 713.025C687.268 718.711 680.036 723.941 672.693 728.994C668.969 731.557 665.213 734.075 661.452 736.586C660.256 737.384 657.871 739.683 656.359 738.666C655.618 738.167 655.064 737.295 654.51 736.613C653.805 735.744 653.097 734.877 652.387 734.011C641.634 720.895 630.452 708.134 619.834 694.906C609.265 681.739 599.28 668.05 590.964 653.333C582.8 638.886 574.339 624.573 566.716 609.83C559.093 595.087 552.236 579.688 548.748 563.388C547.939 559.605 547.33 555.786 546.962 551.935C546.782 550.045 543.803 550.026 543.985 551.935Z" fill="black"/>
<path d="M638.248 536.961C643.335 537.468 648.596 538.047 653.461 536.475C653.478 525.512 656.738 507.635 662.567 498.35C656.261 499.635 649.646 505.924 643.221 505.561C620.739 504.29 598.274 506.583 575.924 508.777C564.844 509.865 553.759 510.94 542.642 511.554C533.259 512.073 524.483 511.903 515.648 515.66C514.702 516.063 513.748 516.511 513.017 517.234C512.369 517.874 511.933 518.693 511.509 519.506C507.301 527.566 502.215 536.515 499.964 545.327C521.158 538.7 545.734 536.974 567.961 535.62C591.376 534.193 614.905 534.635 638.248 536.961Z" fill="black"/>
<path d="M638.248 538.449C643.458 538.969 648.768 539.483 653.856 537.911C654.487 537.716 654.946 537.144 654.949 536.475C654.976 529.994 655.874 523.5 657.27 517.179C658.644 510.956 660.467 504.559 663.852 499.101C664.572 497.941 663.388 496.649 662.171 496.914C657.218 497.993 653.132 501.226 648.469 503.04C647.35 503.476 646.172 503.858 644.978 504.015C643.581 504.199 642.142 504.009 640.742 503.946C637.521 503.801 634.297 503.726 631.073 503.711C618.093 503.65 605.132 504.558 592.212 505.726C579.442 506.881 566.696 508.294 553.913 509.301C547.737 509.788 541.557 510.091 535.372 510.415C529.614 510.716 523.796 511.258 518.292 513.08C515.449 514.021 512.423 515.035 510.791 517.721C509.106 520.495 507.705 523.502 506.215 526.386C503.145 532.328 500.221 538.435 498.528 544.931C498.251 545.997 499.253 547.106 500.359 546.762C516.847 541.637 534.123 539.585 551.278 538.238C569.606 536.798 587.966 535.96 606.352 536.444C617.004 536.725 627.644 537.399 638.248 538.449C640.153 538.638 640.14 535.66 638.248 535.472C619.259 533.591 600.153 532.935 581.08 533.528C563.371 534.078 545.519 535.251 527.972 537.752C518.374 539.119 508.834 541.011 499.568 543.892L501.399 545.723C502.892 539.991 505.369 534.598 508.044 529.335C509.391 526.685 510.794 524.064 512.178 521.434C512.73 520.384 513.211 519.129 514.07 518.287C515.039 517.335 516.535 516.865 517.781 516.406C523.145 514.427 528.803 513.762 534.477 513.44C540.55 513.095 546.622 512.839 552.689 512.374C577.901 510.44 603.021 506.828 628.347 506.689C631.818 506.67 635.289 506.717 638.758 506.842C641.774 506.952 644.726 507.321 647.668 506.457C653.035 504.879 657.473 500.981 662.963 499.785L661.282 497.598C657.768 503.264 655.826 509.926 654.4 516.387C652.949 522.958 652.001 529.737 651.972 536.475L653.065 535.04C648.24 536.53 643.186 535.965 638.248 535.472C636.343 535.282 636.356 538.26 638.248 538.449Z" fill="black"/>
<path d="M421.18 488.717C409.822 510.575 398.672 532.543 387.733 554.614C387.046 546.771 386.376 539.05 385.088 531.274C382.216 513.931 379.056 497.526 367.485 483.689C365.857 481.743 364.07 479.832 361.774 478.754C350.07 473.257 335.787 474.896 324.176 480.168C315.747 483.996 314.554 495.319 317.056 503.261C319.357 510.564 323.939 516.961 326.47 524.188C331.85 539.551 327.753 557.661 327.629 573.586C327.492 591.345 328.731 609.189 332.621 626.55C334.335 634.199 335.752 640.149 341.61 645.866C347.04 651.167 354.192 654.7 361.654 655.996C387.882 660.554 409.679 641.409 424.08 621.868C441.481 598.257 453.66 573.889 462.939 546.041C464.638 540.942 466.212 535.799 467.576 530.6" fill="white"/>
<path d="M419.895 487.966C411.053 504.984 402.336 522.066 393.747 539.213C391.304 544.092 388.871 548.975 386.448 553.863L389.222 554.615C388.404 545.28 387.427 536.005 385.83 526.768C384.471 518.904 382.89 511.034 380.212 503.498C377.52 495.921 373.707 488.817 368.537 482.637C367.252 481.1 365.881 479.641 364.239 478.479C362.58 477.304 360.579 476.558 358.666 475.907C354.773 474.583 350.638 473.947 346.532 473.864C342.375 473.78 338.194 474.276 334.146 475.212C330.261 476.111 326.235 477.363 322.701 479.24C317.023 482.257 314.6 488.737 314.42 494.859C314.196 502.516 317.706 509.246 321.099 515.884C323.074 519.748 324.929 523.643 326.032 527.857C327.114 531.989 327.576 536.242 327.708 540.503C327.976 549.207 326.927 557.875 326.404 566.549C325.851 575.732 326.094 584.999 326.672 594.176C327.268 603.656 328.397 613.116 330.237 622.438C331.704 629.873 333.144 637.8 337.899 643.933C347.767 656.661 365.669 660.456 380.753 656.792C395.368 653.242 407.724 643.347 417.542 632.312C422.838 626.361 427.51 619.874 431.956 613.273C436.679 606.261 441.062 599.02 445.073 591.578C453.157 576.577 459.703 560.774 464.987 544.581C466.452 540.09 467.808 535.564 469.012 530.996C469.501 529.142 466.63 528.351 466.141 530.205C461.811 546.633 455.835 562.749 448.56 578.099C441.545 592.9 433.115 607 423.452 620.223C414.98 631.814 404.674 642.719 391.807 649.42C378.71 656.241 362.518 657.63 349.435 649.959C346.069 647.985 342.939 645.475 340.48 642.431C338.317 639.754 336.871 636.621 335.865 633.349C333.389 625.294 332.021 616.752 330.975 608.408C329.828 599.269 329.277 590.062 329.142 580.854C329.017 572.303 329.581 563.863 330.2 555.342C330.798 547.115 331.17 538.78 329.687 530.621C328.948 526.56 327.641 522.69 325.915 518.945C324.156 515.129 322.066 511.474 320.337 507.643C317.723 501.855 316.345 495.431 318.329 489.22C319.181 486.551 320.762 484.037 323.12 482.459C326.189 480.405 330.157 479.294 333.699 478.385C341.459 476.395 349.804 476.138 357.478 478.645C359.295 479.239 361.174 479.924 362.737 481.049C364.264 482.148 365.517 483.629 366.706 485.072C369.215 488.116 371.387 491.437 373.239 494.917C376.837 501.677 379.114 509.031 380.798 516.477C382.622 524.543 383.999 532.764 384.934 540.978C385.45 545.516 385.847 550.065 386.245 554.614C386.362 555.951 388.304 556.808 389.019 555.366C397.536 538.183 406.179 521.062 414.949 504.007C417.444 499.156 419.95 494.309 422.466 489.468C423.348 487.77 420.78 486.263 419.895 487.966Z" fill="black"/>
<path d="M331.629 417.972L460.134 542.012L684.894 511.746L735.999 331.144C728.19 322.993 720.381 314.842 712.572 306.691C695.833 289.218 679.093 271.746 662.354 254.274C646.669 237.901 630.983 221.529 615.297 205.156C611.174 200.853 607.205 196.284 602.875 192.189C598.499 188.052 590.113 189.305 584.399 189.726C573.394 190.536 562.661 193.344 551.968 195.91C518.963 203.833 484.188 209.482 451.308 201.056C437.912 197.624 424.722 191.857 410.91 192.554C404.493 192.878 397.66 194.962 393.931 200.194C390.201 205.425 391.44 214.23 397.444 216.517C391.042 212.863 383.315 211.593 376.081 213.006C370.827 214.033 365.331 217.046 363.977 222.225C361.764 230.688 370.239 234.478 376.818 237.018C374.471 236.183 371.718 237.131 370.047 238.979C368.375 240.827 367.693 243.417 367.77 245.907C367.895 249.899 370.117 254.921 373.568 257.185C377.451 259.733 383.218 260.833 387.754 261.39C387.418 261.345 384.213 272.185 383.875 273.215C382.658 276.925 381.052 280.388 379.783 284.102C376.958 292.368 374.137 300.637 371.267 308.888C363.373 331.579 355.289 354.204 347.009 376.757C341.956 390.522 336.829 404.261 331.629 417.972Z" fill="white"/>
<path d="M330.576 419.024C335.993 424.253 341.41 429.482 346.827 434.711C359.305 446.755 371.782 458.799 384.26 470.843C398.095 484.197 411.93 497.551 425.765 510.906C435.408 520.213 445.051 529.521 454.694 538.829C456.091 540.178 457.482 541.947 459.082 543.064C460.434 544.008 463.429 543.057 464.932 542.854C475.828 541.387 486.724 539.92 497.62 538.452C515.156 536.091 532.691 533.73 550.226 531.369C569.68 528.749 589.134 526.129 608.588 523.51L658.054 516.849C666.734 515.68 675.413 514.511 684.093 513.342C684.492 513.289 684.891 513.235 685.29 513.181C685.787 513.114 686.203 512.59 686.33 512.142C687.81 506.913 689.289 501.683 690.769 496.454C694.393 483.646 698.018 470.838 701.642 458.029C706.189 441.961 710.736 425.892 715.283 409.824C719.53 394.813 723.777 379.803 728.025 364.793C730.745 355.181 733.464 345.57 736.184 335.958C736.58 334.56 737.277 332.995 737.434 331.542C737.565 330.328 736.727 329.752 735.936 328.927C734.449 327.374 732.961 325.822 731.474 324.269C728.499 321.164 725.524 318.059 722.549 314.954C716.691 308.839 710.834 302.725 704.976 296.611C681.524 272.131 658.071 247.652 634.619 223.173C628.806 217.105 622.993 211.038 617.18 204.97C614.4 202.068 611.697 199.093 608.932 196.176C606.721 193.843 604.439 190.923 601.525 189.443C596.317 186.798 589.979 187.793 584.399 188.237C576.459 188.869 568.658 190.415 560.913 192.231C529.326 199.635 497.002 207.102 464.397 202.187C456.534 201.001 448.923 198.943 441.325 196.638C433.994 194.413 426.626 192.179 418.984 191.336C408.17 190.144 390.94 192.568 390.343 206.567C390.136 211.425 392.47 216.048 397.048 217.953C398.619 218.606 399.643 216.037 398.195 215.232C392.319 211.967 385.525 210.424 378.814 211.113C373.499 211.658 367.784 213.503 364.451 217.949C361.556 221.811 361.315 227.196 364.314 231.053C367.271 234.855 372.068 236.763 376.423 238.453L377.214 235.582C373.466 234.479 369.544 236.362 367.69 239.74C365.702 243.362 366.009 247.776 367.505 251.509C369 255.242 371.509 258.08 375.181 259.755C379.147 261.565 383.458 262.335 387.755 262.878L387.003 260.104C386.263 260.49 386.022 261.546 385.764 262.261C385.26 263.66 384.824 265.085 384.38 266.504C383.578 269.068 382.866 271.668 381.967 274.2C380.034 279.642 377.907 285.001 376.036 290.47C374.066 296.231 372.091 301.991 370.093 307.742C361.945 331.19 353.586 354.564 345.023 377.863C340.148 391.126 335.204 404.363 330.194 417.576C329.514 419.369 332.39 420.144 333.064 418.367C341.718 395.546 350.171 372.648 358.422 349.678C362.528 338.247 366.585 326.798 370.593 315.333C374.535 304.055 378.04 292.552 382.354 281.412C383.81 277.652 385.213 273.93 386.392 270.077C386.915 268.368 387.44 266.659 387.993 264.96C388.201 264.322 388.406 263.682 388.635 263.052C388.957 262.163 389.197 262.314 388.506 262.675C389.958 261.917 389.075 260.068 387.754 259.901C381.902 259.161 374.524 258.018 371.27 252.482C369.772 249.935 368.876 246.771 369.39 243.81C369.973 240.453 372.772 237.378 376.423 238.453C378.297 239.005 378.962 236.26 377.214 235.582C373.732 234.231 369.945 232.735 367.308 229.988C364.251 226.803 364.565 222.039 367.542 218.88C370.81 215.414 375.942 214.174 380.535 213.965C386.191 213.707 391.751 215.057 396.693 217.802L397.84 215.082C393.43 213.247 392.514 207.449 393.943 203.38C395.833 197.999 401.876 195.403 407.072 194.469C420.55 192.046 434.25 197.799 446.971 201.42C474.059 209.131 502.414 207.355 529.802 202.224C543.673 199.625 557.253 195.741 571.1 193.064C577.454 191.836 583.906 191.076 590.371 190.764C592.965 190.639 595.642 190.624 598.162 191.325C601.189 192.166 603.15 194.475 605.271 196.658C625.607 217.593 645.574 238.909 665.766 259.985C686.223 281.338 706.68 302.692 727.138 324.045C729.741 326.762 732.344 329.479 734.947 332.196L734.564 330.748C732.872 336.729 731.179 342.711 729.486 348.692C725.421 363.059 721.355 377.426 717.29 391.793C712.37 409.179 707.451 426.564 702.531 443.95C698.276 458.988 694.021 474.025 689.766 489.063C688.362 494.024 686.958 498.986 685.554 503.947C685.116 505.495 684.678 507.043 684.24 508.591C684.025 509.35 683.613 510.243 683.549 511.033C683.541 511.136 683.488 511.249 683.459 511.35L684.499 510.31C676.995 511.321 669.492 512.331 661.989 513.341C644.116 515.748 626.243 518.155 608.37 520.562C586.77 523.47 565.17 526.379 543.571 529.287C524.842 531.809 506.113 534.331 487.384 536.853L468.834 539.351C466.024 539.73 462.853 539.766 460.113 540.526C459.995 540.558 459.86 540.56 459.739 540.576L461.187 540.959C456.922 536.843 452.658 532.726 448.394 528.61C438.155 518.727 427.915 508.844 417.676 498.96C405.34 487.052 393.003 475.144 380.666 463.237C369.955 452.897 359.243 442.558 348.532 432.219C345.01 428.819 341.489 425.42 337.967 422.021C336.29 420.402 334.676 418.646 332.902 417.132C332.825 417.066 332.755 416.99 332.681 416.919C331.302 415.588 329.194 417.691 330.576 419.024Z" fill="black"/>
<path d="M385.996 262.915C391.852 263.635 397.966 261.994 402.676 258.44C403.317 257.956 403.65 257.155 403.21 256.403C402.841 255.772 401.819 255.382 401.174 255.869C396.813 259.16 391.417 260.605 385.996 259.938C385.197 259.839 384.507 260.692 384.507 261.426C384.507 262.312 385.194 262.816 385.996 262.915Z" fill="black"/>
<path d="M415.76 357.731C418.017 352.919 423.497 350.51 428.282 348.954C433.684 347.198 439.751 346.894 444.522 350.422C446.063 351.562 447.55 348.979 446.024 347.851C440.665 343.888 433.57 344.108 427.491 346.084C422.007 347.866 415.774 350.718 413.189 356.228C412.381 357.953 414.946 359.466 415.76 357.731Z" fill="black"/>
<path d="M427.616 375.374C432.156 371.157 438.954 370.055 444.655 372.382C445.4 372.685 446.292 372.052 446.487 371.342C446.721 370.49 446.194 369.816 445.447 369.511C438.769 366.786 430.766 368.387 425.511 373.269C424.104 374.576 426.213 376.678 427.616 375.374Z" fill="black"/>
<path d="M385.745 386.729C386.469 387.664 386.059 389.306 385.7 390.291C385.251 391.523 384.522 392.468 383.382 393.107C380.121 394.933 376.265 395.656 372.556 395.636C370.894 395.627 368.741 395.569 367.776 393.969C367.037 392.742 367.11 391.055 367.695 389.781C368.821 387.33 371.687 386.183 374.123 385.529C375.912 385.049 377.744 384.764 379.6 384.819C381.53 384.877 384.348 385.244 385.745 386.729C387.061 388.126 389.164 386.019 387.851 384.624C386.153 382.82 383.247 382.195 380.884 381.934C378.566 381.677 376.215 381.96 373.955 382.5C370.513 383.323 366.671 385.003 365.071 388.389C364.171 390.292 363.993 392.579 364.772 394.554C365.755 397.043 368.016 398.209 370.566 398.505C375.237 399.047 380.449 398.057 384.589 395.839C388.321 393.84 390.677 388.282 387.851 384.624C387.355 383.982 386.268 384.112 385.746 384.624C385.111 385.245 385.257 386.096 385.745 386.729Z" fill="black"/>
<path d="M375.483 389.753C376.073 392.414 375.079 396.498 371.727 396.376C368.358 396.253 365.406 394.085 366.644 390.417C367.059 389.187 367.869 388.094 368.924 387.338C370.609 386.131 373.248 385.921 374.617 387.718C375.068 388.309 375.322 389.028 375.483 389.753Z" fill="black"/>
<path d="M374.047 390.149C374.067 390.241 374.086 390.333 374.102 390.426C374.159 390.747 374.039 390.485 374.105 390.412C374.057 390.466 374.147 390.919 374.15 391.007C374.156 391.177 374.156 391.347 374.151 391.516C374.145 391.707 374.184 392.066 374.096 392.236L374.121 392.046C374.111 392.114 374.1 392.182 374.087 392.25C374.069 392.352 374.048 392.453 374.026 392.554C373.988 392.721 373.945 392.886 373.894 393.05C373.864 393.147 373.832 393.244 373.798 393.339L373.763 393.434C373.703 393.585 373.714 393.559 373.798 393.357C373.825 393.487 373.546 393.854 373.477 393.966C373.466 393.983 373.325 394.211 373.316 394.207C373.308 394.203 373.559 393.923 373.373 394.132C373.246 394.275 373.114 394.405 372.978 394.538C372.747 394.765 373.26 394.366 372.983 394.536C372.903 394.585 372.826 394.639 372.743 394.685C372.726 394.695 372.488 394.815 372.488 394.814C372.48 394.786 372.839 394.691 372.479 394.8C372.383 394.829 372.285 394.847 372.188 394.874C371.854 394.964 372.526 394.869 372.17 394.878C371.94 394.884 371.715 394.89 371.484 394.875C371.375 394.867 370.791 394.769 371.164 394.848C370.895 394.791 370.625 394.749 370.359 394.677C370.138 394.616 369.923 394.539 369.707 394.463C369.369 394.345 369.885 394.579 369.701 394.461C369.626 394.413 369.532 394.381 369.453 394.34C369.26 394.241 369.073 394.13 368.895 394.008C368.825 393.961 368.569 393.733 368.857 393.988C368.752 393.896 368.646 393.808 368.547 393.71C368.477 393.64 368.135 393.209 368.375 393.547C368.257 393.38 368.145 393.212 368.051 393.029C368.005 392.941 367.917 392.642 368.033 393.01C368.002 392.91 367.964 392.814 367.935 392.713C367.911 392.628 367.895 392.541 367.872 392.456C367.773 392.082 367.863 392.672 367.856 392.367C367.852 392.134 367.851 391.908 367.861 391.676C367.877 391.286 367.779 391.975 367.875 391.584C367.906 391.458 367.928 391.33 367.961 391.204C368.021 390.979 368.093 390.757 368.178 390.541C368.07 390.816 368.255 390.385 368.263 390.37C368.349 390.199 368.443 390.031 368.545 389.868C368.78 389.491 368.968 389.252 369.416 388.843C369.424 388.836 369.784 388.531 369.559 388.708C369.657 388.631 369.761 388.56 369.866 388.493C370.095 388.345 370.337 388.216 370.587 388.107C370.535 388.129 370.302 388.207 370.56 388.127C370.71 388.08 370.858 388.028 371.011 387.989C371.125 387.959 371.241 387.939 371.355 387.913C371.526 387.885 371.51 387.886 371.308 387.915C371.385 387.907 371.463 387.9 371.541 387.896C371.773 387.883 372.002 387.894 372.234 387.91C371.845 387.883 372.208 387.912 372.291 387.931C372.44 387.964 372.582 388.012 372.728 388.057C373.072 388.164 372.485 387.897 372.789 388.091C372.919 388.173 373.054 388.244 373.181 388.333C372.919 388.15 373.137 388.298 373.197 388.362C373.294 388.466 373.398 388.561 373.487 388.672C373.29 388.426 373.567 388.816 373.579 388.838C373.607 388.885 373.842 389.374 373.75 389.149C373.882 389.471 373.969 389.811 374.047 390.149C374.223 390.908 375.135 391.428 375.878 391.188C376.672 390.931 377.106 390.17 376.918 389.357C376.569 387.849 375.809 386.414 374.442 385.604C373.238 384.892 371.796 384.785 370.449 385.065C367.69 385.636 365.402 388.223 364.973 390.978C364.768 392.296 364.909 393.644 365.632 394.797C366.251 395.786 367.188 396.575 368.249 397.054C370.495 398.069 373.423 398.364 375.288 396.448C377.054 394.633 377.429 391.746 376.918 389.357C376.755 388.594 375.821 388.08 375.087 388.317C374.283 388.577 373.873 389.332 374.047 390.149Z" fill="black"/>
<path d="M312.829 472.991C289.375 467.691 270.219 444.432 271.405 420.067C272.163 404.507 279.847 390.153 295.076 384.511C305.537 380.636 317.802 382.024 327.132 388.139C338.305 395.462 344.527 408.486 347.458 421.518C349.52 430.685 350.206 440.33 347.923 449.443C345.278 460.003 338.04 472.012 326.356 473.942C324.25 474.29 322.097 474.161 319.966 474.024C317.555 473.87 315.17 473.52 312.829 472.991Z" fill="#B78437"/>
<path d="M324.513 467.345C331.951 478.372 338.398 490.067 343.752 502.244C345.311 505.79 347.953 511.592 352.971 508.983C358.14 506.296 353.231 498.571 351.719 495.052C346.401 482.675 340.716 470.454 334.491 458.506" fill="#B78437"/>
<path d="M329.324 487.713C333.25 488.993 337.376 489.649 341.504 489.666C344.828 489.68 349.04 488.154 352.226 488.639C352.956 488.75 353.589 489.221 354.075 489.778C356.115 492.119 355.534 496.228 352.926 497.912C359.166 495.225 361.521 503.45 358.594 507.616C360.71 507.651 362.745 509.02 363.575 510.966C364.404 512.912 363.983 515.328 362.543 516.878C364.868 517.794 366.312 520.392 366.161 522.887C365.675 530.888 352.838 534.054 346.613 532.236" fill="white"/>
<path d="M328.929 489.148C331.935 490.108 335.03 490.726 338.175 491.002C341.093 491.257 343.816 491.019 346.69 490.519C348.73 490.164 352.212 489.09 353.396 491.415C354.266 493.125 353.775 495.516 352.174 496.627C350.896 497.514 351.651 500.027 353.321 499.347C355.304 498.541 357.077 498.873 357.927 500.99C358.693 502.895 358.447 505.171 357.309 506.865C356.643 507.856 357.541 509.051 358.594 509.105C361.964 509.277 363.717 513.244 361.49 515.826C360.935 516.469 360.846 517.752 361.791 518.164C364.354 519.28 365.296 522.198 364.237 524.723C363.42 526.672 361.655 528.047 359.843 529.019C356.135 531.01 351.122 531.953 347.009 530.801C345.161 530.283 344.373 533.154 346.218 533.671C351.455 535.138 358.026 533.851 362.529 530.887C364.798 529.394 366.761 527.261 367.407 524.557C368.245 521.053 366.709 517.081 363.294 515.593L363.595 517.931C365.437 515.796 366.046 512.832 364.86 510.214C363.742 507.749 361.247 506.263 358.594 506.128L359.879 508.367C361.634 505.756 361.778 502.15 360.432 499.336C358.954 496.244 355.628 495.217 352.53 496.477L353.677 499.197C358.351 495.953 357.672 487.222 351.128 487.058C347.879 486.977 344.745 488.151 341.504 488.178C337.506 488.211 333.52 487.491 329.72 486.278C327.891 485.694 327.108 488.567 328.929 489.148Z" fill="black"/>
<path d="M385.389 544.814C387.024 561.427 387.267 578.156 386.114 594.81C385.982 596.722 388.96 596.714 389.091 594.81C390.244 578.156 390.001 561.427 388.366 544.814C388.18 542.925 385.201 542.906 385.389 544.814Z" fill="black"/>
<path d="M352.632 486.43C352.25 486.205 351.982 485.935 351.735 485.529C351.655 485.397 351.581 485.262 351.513 485.124C351.484 485.066 351.371 484.804 351.443 484.983C351.328 484.698 351.239 484.399 351.164 484.1C351.003 483.453 350.954 482.949 350.991 482.245C351.005 481.978 351.027 481.796 351.104 481.481C351.147 481.304 351.2 481.133 351.256 480.961C351.41 480.482 351.149 481.117 351.344 480.735C351.47 480.49 351.603 480.254 351.759 480.027C351.819 479.944 351.816 479.945 351.75 480.029C351.797 479.971 351.845 479.915 351.895 479.859C351.977 479.766 352.063 479.676 352.152 479.59C352.258 479.488 352.367 479.384 352.486 479.296C352.287 479.444 352.669 479.191 352.67 479.191C352.796 479.115 352.927 479.043 353.061 478.982C352.823 479.091 353.28 478.916 353.292 478.913C353.859 478.749 354.383 478.747 355.04 478.827C355.564 478.891 356.367 479.098 356.984 479.258C357.762 479.46 358.6 479.001 358.815 478.218C359.026 477.449 358.557 476.59 357.776 476.387C355.975 475.92 353.999 475.484 352.188 476.147C350.658 476.706 349.392 477.889 348.711 479.368C347.278 482.48 348.001 487.152 351.129 489.001C352.782 489.978 354.282 487.405 352.632 486.43Z" fill="black"/>
<path d="M668.334 424.672C692 437.073 714.277 452.121 734.618 469.444C735.833 470.479 737.079 471.572 737.72 473.034C738.32 474.401 738.325 475.946 738.315 477.439C738.113 506.561 735.824 535.869 739.656 564.86C740.651 572.39 742.04 579.864 744.225 587.106C746.522 594.72 747.558 602.968 749.578 610.723C750.756 615.248 751.954 619.822 754.174 623.937C754.668 624.854 755.246 625.779 756.139 626.315C762.561 630.166 762.736 618.52 763.34 615.532C766.391 621.392 770.405 627.504 776.741 629.376C777.288 629.538 777.876 629.664 778.424 629.504C779.353 629.232 779.861 628.243 780.158 627.321C781.098 624.403 780.967 621.153 779.795 618.32C781.106 620.036 782.769 621.559 784.803 622.285C786.836 623.01 789.278 622.82 790.931 621.431C792.321 620.263 792.996 618.397 793.016 616.582C793.037 614.767 792.467 612.991 791.713 611.34C793.303 613.289 795.216 615.406 797.731 615.481C799.661 615.538 801.519 614.212 802.211 612.409C802.903 610.607 802.457 608.453 801.203 606.984C802.484 608.492 804.802 608.871 806.639 608.137C808.476 607.402 809.827 605.721 810.494 603.859C811.212 601.851 811.202 599.591 810.464 597.59C809.555 595.125 807.65 593.181 805.797 591.317C804.138 589.649 802.476 587.977 800.677 586.461C798.226 584.395 795.519 582.616 793.306 580.298C788.192 574.942 789.96 568.883 790.721 562.195C791.548 554.929 792.594 547.69 793.634 540.451C795.709 526.015 797.777 511.53 798.059 496.925C798.19 490.118 797.933 483.301 797.152 476.537C794.017 449.389 784.099 422.699 766.659 401.659C747.685 378.767 721.045 363.695 694.312 350.677" fill="white"/>
<path d="M667.583 425.957C683.456 434.289 698.71 443.786 713.174 454.378C720.33 459.618 727.389 465.077 734.062 470.925C735.876 472.514 736.772 473.969 736.825 476.438C736.875 478.772 736.794 481.114 736.758 483.448C736.683 488.279 736.567 493.109 736.446 497.939C735.964 517.248 735.406 536.617 737.168 555.881C738.015 565.143 739.31 574.424 741.65 583.436C742.802 587.871 744.117 592.227 745.053 596.718C745.984 601.19 746.785 605.692 747.889 610.126C748.949 614.383 750.083 618.661 751.894 622.671C753.167 625.491 755.117 628.727 758.669 628.569C763.397 628.359 764.031 621.565 764.475 618.079C764.578 617.275 764.633 616.664 764.775 615.927L762.055 616.283C764.849 621.618 768.416 627.31 774.084 629.943C776.861 631.233 779.918 631.746 781.328 628.408C782.711 625.133 782.508 621.189 781.23 617.924L778.742 619.372C781.513 622.908 786.232 625.636 790.677 623.373C795.563 620.885 794.85 614.77 792.998 610.588L790.66 612.392C793.142 615.41 796.838 618.479 800.86 616.131C804.631 613.93 804.772 609.123 802.255 605.931L800.15 608.036C803.475 611.571 808.852 609.845 811.103 606.047C813.889 601.345 812.163 596.097 808.785 592.287C805.18 588.22 800.991 584.963 796.831 581.516C794.955 579.961 793.099 578.235 792.145 575.94C791.304 573.916 791.205 571.71 791.338 569.55C791.663 564.287 792.562 558.984 793.256 553.758C794.057 547.733 794.952 541.72 795.805 535.702C797.474 523.925 799.015 512.105 799.454 500.209C800.261 478.342 796.697 456.307 788.53 435.974C780.859 416.877 769.119 399.896 753.739 386.199C738.283 372.434 720.225 361.987 701.81 352.728C699.569 351.601 697.319 350.491 695.063 349.392C693.348 348.556 691.837 351.122 693.561 351.962C711.384 360.649 729.068 370.104 744.663 382.454C752.413 388.591 759.622 395.434 765.907 403.075C772.195 410.721 777.483 419.185 781.808 428.084C790.718 446.42 795.684 466.91 796.481 487.266C797.39 510.449 792.895 533.317 789.959 556.206C789.61 558.93 789.322 561.662 788.954 564.384C788.668 566.497 788.345 568.618 788.314 570.755C788.248 575.337 789.919 579.24 793.28 582.36C795.162 584.107 797.276 585.574 799.254 587.205C801.313 588.903 803.199 590.802 805.072 592.699C806.78 594.43 808.583 596.282 809.252 598.689C809.909 601.056 809.439 603.861 807.682 605.656C806.201 607.17 803.801 607.575 802.255 605.931C800.91 604.5 798.996 606.572 800.15 608.036C801.665 609.957 801.201 613.121 798.659 613.867C796.175 614.597 794.134 611.951 792.765 610.287C791.604 608.876 789.801 610.677 790.427 612.091C791.663 614.882 792.511 619.621 788.791 620.955C785.593 622.102 782.677 619.602 780.847 617.267C779.944 616.115 777.831 617.365 778.359 618.715C779.375 621.31 779.669 624.255 778.723 626.925C778.599 627.274 778.413 627.91 778.028 628.069C777.546 628.267 776.611 627.784 776.166 627.613C775.098 627.202 774.087 626.622 773.154 625.962C769.29 623.224 766.778 618.892 764.625 614.78C764.055 613.691 762.147 613.88 761.905 615.136C761.555 616.951 761.452 618.806 761.103 620.623C760.825 622.072 760.446 624.62 759.058 625.437C758.486 625.773 757.649 625.496 757.022 625.105C755.37 624.076 754.513 621.404 753.842 619.681C752.292 615.701 751.237 611.493 750.282 607.335C749.278 602.962 748.502 598.541 747.547 594.157C746.606 589.842 745.258 585.649 744.196 581.366C741.972 572.391 740.747 563.179 739.978 553.974C738.412 535.245 738.962 516.429 739.43 497.666C739.548 492.927 739.661 488.188 739.735 483.448C739.769 481.196 739.828 478.94 739.803 476.689C739.781 474.644 739.465 472.67 738.227 470.991C737.053 469.397 735.431 468.182 733.927 466.917C732.244 465.502 730.549 464.103 728.84 462.72C725.522 460.032 722.156 457.404 718.747 454.833C704.841 444.346 690.174 434.868 674.898 426.501C672.97 425.445 671.032 424.409 669.085 423.387C667.391 422.497 665.884 425.066 667.583 425.957Z" fill="black"/>
<path d="M326.879 403.471C320.634 393.608 307.87 388.046 296.605 392.235C287.926 395.463 282.779 403.715 281.092 412.52C280.217 417.091 280.16 421.759 280.841 426.359C281.551 431.158 283.302 435.635 285.536 439.922C290.819 450.056 299.08 459.661 309.731 464.307C315.714 466.916 322.453 467.842 328.853 466.293C335.91 464.586 339.338 458.068 340.427 451.366C340.732 449.492 337.864 448.686 337.557 450.575C336.706 455.811 334.439 461.555 328.888 463.203C323.728 464.734 318.008 464.197 312.989 462.418C303 458.877 295.143 450.433 289.835 441.517C287.482 437.564 285.427 433.34 284.346 428.85C283.382 424.846 283.129 420.684 283.501 416.586C284.206 408.836 287.547 400.635 294.496 396.51C304.787 390.401 318.179 395.293 324.308 404.973C325.331 406.588 327.908 405.096 326.879 403.471Z" fill="black"/>
<path d="M330.362 415.149C333.253 420.43 335.325 426.091 336.561 431.983C336.953 433.857 339.824 433.064 339.431 431.191C338.146 425.059 335.941 419.142 332.932 413.646C332.012 411.965 329.44 413.466 330.362 415.149Z" fill="black"/>
<path d="M290.425 424.044C289.107 422.964 288.973 418.67 288.938 417.513C288.855 414.785 289.285 412.059 290.039 409.443C290.562 407.629 292.478 405.648 293.848 404.402C295.032 403.325 296.768 402.14 298.414 402.927C298.726 403.076 298.97 403.341 299.149 403.636C299.811 404.729 299.586 406.17 298.974 407.291C298.362 408.413 297.418 409.308 296.579 410.272C295.887 411.067 295.261 411.919 294.708 412.816C293.375 414.975 292.493 417.369 292.056 419.866C291.875 420.9 292.017 421.792 292.075 422.821C292.115 423.532 292.035 424.221 291.166 424.288C290.885 424.31 290.639 424.22 290.425 424.044Z" fill="white"/>
<path d="M291.477 422.991C290.937 422.494 290.775 421.32 290.656 420.538C290.516 419.623 290.465 418.69 290.434 417.765C290.379 416.108 290.479 414.455 290.774 412.823C291.062 411.227 291.365 409.618 292.302 408.267C293.082 407.143 294.102 406.12 295.144 405.238C295.856 404.635 297.877 403.293 298.057 405.021C298.208 406.475 296.871 407.726 295.992 408.698C294.831 409.983 293.781 411.366 292.945 412.885C292.034 414.54 291.336 416.333 290.892 418.17C290.67 419.089 290.481 420.035 290.479 420.984C290.478 421.471 290.53 421.956 290.562 422.441C290.571 422.583 290.541 422.82 290.591 422.953C290.592 423.014 290.594 423.074 290.597 423.135C290.595 423.416 290.788 423.291 291.176 422.758C289.565 421.711 288.072 424.287 289.673 425.329C291.52 426.53 293.543 425.14 293.572 423.085C293.587 422 293.374 420.971 293.561 419.888C293.752 418.773 294.085 417.667 294.482 416.61C295.292 414.451 296.558 412.509 298.097 410.803C299.497 409.252 300.887 407.638 301.028 405.453C301.162 403.369 299.891 401.467 297.753 401.224C295.687 400.988 293.904 402.304 292.478 403.643C291.057 404.977 289.644 406.506 288.876 408.321C287.976 410.448 287.65 412.976 287.495 415.265C287.378 416.98 287.447 418.722 287.66 420.427C287.858 422.017 288.126 423.95 289.372 425.096C290.78 426.392 292.891 424.292 291.477 422.991Z" fill="white"/>
<path d="M181.053 411.61C205.136 407.343 229.292 403.447 253.513 400.045C259.534 399.199 265.561 398.39 271.593 397.629C272.397 397.528 273.072 397.018 273.082 396.141C273.089 395.414 272.391 394.552 271.593 394.652C248.044 397.62 224.574 401.23 201.165 405.142C194.191 406.307 187.223 407.506 180.261 408.74C178.378 409.073 179.176 411.943 181.053 411.61Z" fill="black"/>
<path d="M141.897 419.027C148.184 417.741 154.483 416.511 160.788 415.318C162.668 414.962 161.872 412.093 159.997 412.448C153.691 413.641 147.393 414.871 141.106 416.156C139.23 416.539 140.024 419.409 141.897 419.027Z" fill="black"/>
<path d="M186.728 615.459C182.004 620.274 177.254 625.066 172.481 629.833C171.124 631.188 173.228 633.294 174.586 631.938C179.359 627.171 184.108 622.379 188.833 617.564C190.176 616.195 188.073 614.089 186.728 615.459Z" fill="black"/>
<path d="M309.933 477.398C296.617 493.815 283.039 510.018 269.201 525.997C255.363 541.976 241.266 557.73 226.918 573.253C218.875 581.956 210.752 590.584 202.553 599.14C201.227 600.523 203.329 602.631 204.658 601.245C219.283 585.983 233.664 570.488 247.79 554.763C261.916 539.038 275.787 523.084 289.397 506.911C297.027 497.844 304.573 488.707 312.038 479.503C313.235 478.028 311.141 475.909 309.933 477.398Z" fill="black"/>
<path d="M239.767 463.222C247.249 461.033 254.731 458.844 262.212 456.655C264.047 456.119 263.266 453.245 261.421 453.785C253.939 455.974 246.458 458.163 238.976 460.351C237.141 460.888 237.922 463.762 239.767 463.222Z" fill="black"/>
<path d="M259.419 370.792C262.593 372.471 265.766 374.151 268.94 375.831C269.628 376.195 270.59 376.028 270.976 375.297C271.34 374.608 271.177 373.649 270.442 373.26C267.269 371.581 264.095 369.901 260.922 368.221C260.234 367.857 259.271 368.024 258.885 368.755C258.522 369.444 258.684 370.403 259.419 370.792Z" fill="black"/>
<path d="M309.135 509.732L306.918 518.138C306.72 518.89 307.168 519.789 307.958 519.969C308.738 520.146 309.577 519.735 309.789 518.929L312.006 510.523C312.204 509.771 311.756 508.872 310.966 508.692C310.187 508.514 309.348 508.926 309.135 509.732Z" fill="black"/>
<path d="M394.593 216.438C398.179 219.257 402.764 220.679 407.322 220.089C408.119 219.985 408.811 219.479 408.811 218.6C408.811 217.876 408.125 217.008 407.322 217.112C403.591 217.595 399.699 216.692 396.698 214.332C396.067 213.836 395.209 213.716 394.593 214.332C394.077 214.849 393.958 215.938 394.593 216.438Z" fill="black"/>
<path d="M374.802 237.683C377.892 239.239 381.585 239.523 384.834 238.271C385.558 237.992 386.138 237.258 385.873 236.44C385.645 235.735 384.82 235.101 384.042 235.401C383.338 235.672 382.617 235.866 381.874 235.995C381.4 236.077 382.153 235.975 381.674 236.022C381.475 236.041 381.276 236.059 381.075 236.07C380.725 236.088 380.374 236.09 380.024 236.075C379.849 236.067 379.674 236.055 379.499 236.04C379.443 236.035 378.954 235.971 379.224 236.012C378.878 235.959 378.534 235.89 378.194 235.805C377.854 235.719 377.518 235.618 377.189 235.499C377.14 235.482 376.631 235.277 376.847 235.371C376.663 235.291 376.484 235.203 376.305 235.113C375.61 234.763 374.66 234.906 374.268 235.647C373.911 236.323 374.06 237.31 374.802 237.683Z" fill="black"/>
<path d="M582.883 543.075C592.367 551.947 605.668 556.414 618.593 555.271C622.315 554.943 625.977 554.177 629.502 552.936C631.298 552.304 630.525 549.427 628.711 550.066C613.861 555.292 596.504 551.742 584.988 540.97C583.59 539.662 581.481 541.763 582.883 543.075Z" fill="black"/>
<path d="M603.988 554.863C612.107 579.551 622.298 603.558 634.41 626.552C646.495 649.497 660.491 671.435 676.216 692.056C685.063 703.659 694.442 714.848 704.336 725.573C705.638 726.984 707.739 724.874 706.441 723.468C688.939 704.496 673.045 684.069 658.951 662.445C644.947 640.959 632.712 618.318 622.424 594.825C616.588 581.499 611.403 567.891 606.858 554.072C606.263 552.26 603.387 553.036 603.988 554.863Z" fill="black"/>
<path d="M490.103 739.521C495.512 717.843 501.635 696.345 508.472 675.074C515.308 653.803 522.853 632.761 531.09 611.992C535.716 600.328 540.564 588.753 545.625 577.271C546.391 575.534 543.827 574.018 543.055 575.769C533.991 596.331 525.598 617.187 517.919 638.306C510.284 659.303 503.348 680.554 497.127 702.013C493.598 714.188 490.301 726.43 487.232 738.729C486.768 740.588 489.638 741.381 490.103 739.521Z" fill="black"/>
<path d="M293.756 789.054C287.754 785.886 283.028 780.473 280.737 774.073C279.614 770.936 278.649 767.05 279.364 763.723C280.078 760.396 283.174 758.933 286.366 759.08C290.576 759.274 294.067 762.449 297.037 765.111C298.245 766.194 300.315 764.803 299.375 763.307C294.297 755.226 295.081 744.326 300.655 736.687C302.017 734.82 303.742 733.057 305.707 731.824C307.628 730.619 310.768 729.373 312.644 731.315C313.606 732.311 313.983 733.79 314.403 735.07C314.936 736.691 315.418 738.329 315.85 739.98C316.674 743.131 317.317 746.331 317.769 749.557C318.806 756.953 318.786 764.493 317.833 771.895C317.604 773.673 320.212 773.738 320.757 772.291C322.153 768.582 323.838 764.751 326.873 762.079C329.313 759.932 333.037 758.831 336.163 760.053C339.835 761.488 340.617 765.983 340.129 769.474C339.61 773.184 337.593 776.716 334.591 778.97L336.628 781.007C340.002 775.927 347.847 777.399 352.157 780.251C354.62 781.881 356.816 784.513 356.801 787.606C356.788 790.212 355.322 792.894 352.679 793.558L354.128 796.046C357.059 792.72 364.114 794.4 364.678 799.056C364.906 800.934 367.886 800.956 367.655 799.056C366.806 792.054 356.863 788.449 352.023 793.941C351.055 795.038 351.978 796.803 353.471 796.428C359.564 794.898 361.204 787.258 358.266 782.333C355.114 777.05 348.204 774.113 342.193 774.817C338.889 775.204 335.926 776.691 334.057 779.504C333.267 780.694 334.892 782.443 336.094 781.54C341.943 777.148 345.291 768.602 341.961 761.665C338.636 754.737 329.343 755.706 324.476 760.24C321.236 763.257 319.418 767.433 317.886 771.499L320.81 771.895C321.763 764.497 321.742 757.016 320.757 749.622C320.268 745.952 319.558 742.316 318.601 738.738C318.16 737.09 317.669 735.455 317.127 733.837C316.578 732.195 315.981 730.478 314.749 729.21C310.292 724.625 303.356 729.176 300.007 732.818C296.345 736.799 294.048 741.93 293.296 747.27C292.444 753.325 293.531 759.6 296.804 764.81L299.142 763.006C295.932 760.129 292.343 756.995 287.937 756.278C284.331 755.69 280.271 756.625 277.977 759.653C275.409 763.044 276.052 767.98 276.972 771.854C277.895 775.745 279.638 779.484 282.008 782.704C284.728 786.399 288.188 789.479 292.254 791.625C293.947 792.518 295.453 789.95 293.756 789.054Z" fill="black"/>
<path d="M810.639 788.84C808.24 785.726 806.547 782.179 805.701 778.334C804.945 774.898 804.729 771.027 805.885 767.654C806.861 764.807 809.397 762.229 812.553 763.878C816.18 765.773 816.724 770.368 817.215 773.994L820.085 773.203C818.923 766.551 822.226 759.336 827.973 755.807C829.25 755.023 831.281 753.763 832.013 755.741C832.716 757.643 832.809 759.959 832.825 761.963C832.859 766.192 831.936 770.389 830.109 774.204C829.509 775.457 830.49 776.575 831.79 776.391C834.397 776.022 836.908 774.855 839.553 774.787C841.724 774.731 843.8 775.622 845.319 777.166C848.484 780.384 847.894 785.554 844.568 788.406L846.673 790.511C848.253 788.644 850.81 787.738 853.181 788.562C855.515 789.373 857.003 791.742 857.008 794.159C857.012 796.075 859.989 796.078 859.985 794.159C859.977 790.515 857.734 787.127 854.31 785.815C850.933 784.52 846.883 785.67 844.568 788.406C843.329 789.87 845.211 791.765 846.673 790.511C851.049 786.759 851.624 779.982 847.905 775.589C846.114 773.473 843.459 772.108 840.705 771.85C837.372 771.537 834.242 773.062 830.998 773.52L832.679 775.707C834.457 771.995 835.515 768.026 835.753 763.913C835.87 761.9 835.764 759.892 835.482 757.897C835.237 756.163 834.969 754.103 833.666 752.801C830.943 750.078 826.797 752.796 824.445 754.68C821.819 756.784 819.795 759.596 818.495 762.687C816.984 766.28 816.544 770.157 817.215 773.994C817.549 775.905 820.336 775.055 820.085 773.203C819.589 769.534 818.926 765.595 816.166 762.882C813.802 760.559 810.266 759.572 807.245 761.222C801.376 764.427 801.611 773.376 802.787 778.922C803.665 783.061 805.489 786.994 808.069 790.343C808.563 790.985 809.343 791.311 810.105 790.877C810.736 790.518 811.129 789.476 810.639 788.84Z" fill="black"/>
<path d="M368.764 369.402C370.505 366.794 372.784 364.576 375.455 362.93C378.024 361.345 381.369 359.77 384.458 360.298C390.642 361.355 393.531 369.126 394.718 374.42C396.178 380.929 395.968 387.671 396.325 394.294C396.505 397.641 396.717 401.104 397.534 404.365C398.265 407.282 399.826 410.135 402.62 411.511C405.603 412.979 408.929 412.093 410.997 409.546C413.484 406.484 413.383 402.499 413.096 398.772C412.95 396.874 409.972 396.858 410.119 398.772C410.359 401.886 410.741 405.68 408.311 408.093C406.039 410.349 402.974 408.961 401.537 406.509C399.894 403.706 399.715 400.018 399.468 396.854C399.212 393.577 399.141 390.29 399.014 387.007C398.767 380.625 398.326 374.079 395.858 368.111C393.689 362.867 389.513 357.195 383.236 357.232C379.744 357.253 376.158 358.876 373.295 360.78C370.462 362.663 368.081 365.073 366.193 367.899C365.127 369.497 367.704 370.989 368.764 369.402Z" fill="black"/>
<path d="M409.544 426.19C410.655 429.976 414.485 432.136 418.209 432.587C421.811 433.023 425.565 431.931 428.55 429.912C435.545 425.182 437.517 416.257 437.241 408.299C437.174 406.389 434.197 406.38 434.264 408.299C434.49 414.817 433.27 422.385 427.882 426.728C425.562 428.599 422.565 429.758 419.57 429.71C416.772 429.665 413.276 428.333 412.415 425.398C411.876 423.564 409.003 424.345 409.544 426.19Z" fill="black"/>
<path d="M433.972 409.544C434.382 409.235 434.81 408.952 435.257 408.702C435.453 408.593 435.652 408.489 435.854 408.392C435.97 408.336 436.087 408.284 436.203 408.231C436.351 408.167 436.321 408.18 436.113 408.269C436.173 408.244 436.232 408.221 436.292 408.197C436.74 408.023 437.199 407.878 437.666 407.764C437.915 407.703 438.166 407.65 438.418 407.607C438.481 407.596 438.545 407.585 438.608 407.576C438.771 407.552 438.735 407.556 438.498 407.589C438.611 407.604 438.765 407.558 438.88 407.547C439.283 407.509 439.637 407.407 439.933 407.111C440.191 406.853 440.385 406.43 440.369 406.059C440.335 405.316 439.71 404.491 438.88 404.57C436.571 404.79 434.33 405.569 432.47 406.974C432.148 407.217 431.897 407.459 431.786 407.864C431.688 408.22 431.732 408.694 431.936 409.011C432.331 409.623 433.308 410.046 433.972 409.544Z" fill="black"/>
<path d="M662.354 254.274C646.668 237.901 630.983 221.529 615.297 205.156C611.174 200.853 607.205 196.284 602.874 192.189C598.499 188.052 590.113 189.305 584.399 189.726C573.393 190.536 562.661 193.344 551.968 195.91C518.963 203.833 484.188 209.482 451.308 201.056C437.912 197.624 424.721 191.857 410.91 192.554C404.493 192.878 397.66 194.962 393.931 200.194C390.503 205.002 391.283 212.814 396.091 215.826C389.968 212.729 382.818 211.69 376.081 213.006C370.827 214.033 365.331 217.046 363.977 222.225C361.764 230.688 370.239 234.478 376.818 237.018C374.47 236.183 371.718 237.131 370.047 238.979C368.375 240.827 367.693 243.417 367.77 245.907C367.895 249.9 370.117 254.921 373.568 257.185C377.202 259.571 382.477 260.68 386.859 261.269C389.082 260.95 391.285 260.512 393.446 259.964C405.283 256.962 416.139 251.038 426.851 245.172C438.719 238.672 450.588 232.172 462.457 225.672C458.646 245.12 475.648 263.761 494.783 268.916C506.948 272.193 520.744 271.824 530.652 279.606C538.734 285.955 542.309 296.318 545.485 306.094C542.847 294.108 551.355 281.076 563.171 277.764C574.988 274.451 588.471 280.511 594.714 291.076C600.957 301.641 600.076 315.704 593.425 326.017C632.931 344.658 680.401 341.654 718.832 362.423C721.156 363.679 723.581 365.022 726.055 366.286C729.172 355.271 735.999 331.144 735.999 331.144C728.19 322.993 720.38 314.842 712.572 306.691C695.832 289.219 679.093 271.746 662.354 254.274Z" fill="black"/>
<path d="M663.407 253.221C646.93 236.024 630.23 219.012 613.984 201.597C612.254 199.741 610.54 197.87 608.793 196.03C606.939 194.078 605.086 191.885 602.902 190.294C599.662 187.933 595.342 187.639 591.468 187.745C581.057 188.027 570.763 189.916 560.652 192.292C538.503 197.497 516.373 202.711 493.538 203.607C482.294 204.048 470.978 203.493 459.904 201.43C449.052 199.409 438.759 195.403 428.031 192.913C418.082 190.604 405.457 189.08 396.612 195.473C392.95 198.12 390.555 201.947 390.349 206.519C390.162 210.663 391.84 214.773 395.339 217.111L396.842 214.54C390.998 211.661 384.473 210.404 377.985 211.209C372.721 211.862 367.14 213.937 364.052 218.502C361.38 222.451 361.531 227.706 364.569 231.376C367.546 234.971 372.189 236.811 376.422 238.453L377.214 235.582C373.709 234.536 370.045 236.125 368.059 239.13C366.093 242.106 365.928 245.929 366.775 249.303C367.63 252.707 369.527 256.104 372.408 258.186C375.471 260.4 379.391 261.449 383.049 262.153C384.964 262.522 386.655 262.819 388.586 262.499C390.91 262.112 393.209 261.594 395.479 260.963C399.844 259.75 404.085 258.141 408.233 256.327C416.903 252.533 425.137 247.807 433.428 243.266C443.355 237.83 453.281 232.394 463.208 226.957L461.021 225.276C458.029 241.326 468.003 256.224 481.176 264.522C488.479 269.121 496.503 271.074 504.916 272.513C513.345 273.955 522.427 275.206 529.433 280.532C537.604 286.744 541.001 297.12 544.05 306.489C544.645 308.317 547.308 307.573 546.92 305.698C544.198 292.535 555.1 279.194 568.311 278.392C582.142 277.552 594.363 287.829 596.917 301.215C598.494 309.48 596.613 318.192 592.139 325.265C591.737 325.901 591.962 326.968 592.673 327.302C625.522 342.701 662.567 343.319 696.679 354.614C701.477 356.202 706.208 358.002 710.808 360.097C715.764 362.355 720.465 365.082 725.303 367.571C726.155 368.009 727.217 367.644 727.49 366.681C729.454 359.74 731.418 352.799 733.382 345.857C734.262 342.75 735.141 339.642 736.021 336.534C736.47 334.945 737.141 333.282 737.403 331.648C737.631 330.226 736.43 329.443 735.523 328.496C733.316 326.193 731.11 323.889 728.903 321.586C724.828 317.333 720.754 313.08 716.68 308.828C708.316 300.098 699.953 291.368 691.59 282.639C682.196 272.833 672.801 263.027 663.407 253.221C662.079 251.835 659.976 253.942 661.302 255.326C680.418 275.279 699.533 295.232 718.649 315.185C724.082 320.856 729.514 326.526 734.946 332.196L734.563 330.748C731.249 342.462 727.934 354.176 724.619 365.89L726.806 365C718.675 360.817 710.784 356.53 702.17 353.379C693.761 350.302 685.099 347.974 676.374 345.99C658.749 341.982 640.825 339.368 623.309 334.865C613.336 332.302 603.511 329.107 594.176 324.731L594.71 326.768C603.272 313.23 602.457 293.857 589.865 283.021C578.483 273.227 560.9 272.448 550.505 284.114C545.085 290.196 542.383 298.429 544.05 306.489L546.92 305.698C544.33 297.737 541.564 289.555 536.191 282.984C530.705 276.275 522.817 273.038 514.541 271.258C506.158 269.456 497.395 268.882 489.427 265.501C482.038 262.367 475.317 257.271 470.485 250.846C465.156 243.759 462.241 234.922 463.892 226.068C464.127 224.808 462.903 223.731 461.705 224.387C446.763 232.57 431.933 241.017 416.82 248.881C409.621 252.627 402.209 256.037 394.361 258.183C392.631 258.656 390.883 259.063 389.12 259.394C387.098 259.773 385.56 259.623 383.548 259.224C380.255 258.572 376.494 257.683 373.816 255.538C371.057 253.329 369.366 249.398 369.259 245.907C369.137 241.97 371.804 237.074 376.422 238.453C378.294 239.012 378.962 236.26 377.214 235.582C373.759 234.242 370.01 232.759 367.373 230.055C364.523 227.132 364.436 222.758 366.956 219.553C369.821 215.91 374.83 214.435 379.263 214.049C384.802 213.566 390.359 214.657 395.339 217.111C397.058 217.958 398.442 215.609 396.842 214.54C393.653 212.41 392.754 208.08 393.609 204.519C394.618 200.315 398.194 197.422 402.064 195.866C411.027 192.262 421.535 194.232 430.54 196.604C440.778 199.301 450.701 202.89 461.173 204.667C471.51 206.422 482.017 206.974 492.488 206.622C513.822 205.904 534.819 201.595 555.503 196.587C565.872 194.077 576.131 191.909 586.778 191.019C590.709 190.69 594.971 190.233 598.784 191.509C600.863 192.205 602.273 193.641 603.797 195.162C605.674 197.035 607.487 198.971 609.291 200.913C626.362 219.293 643.948 237.213 661.302 255.326C662.63 256.712 664.733 254.605 663.407 253.221Z" fill="black"/>
<path d="M575.492 298.356C571.404 300.624 568.291 304.603 567.139 309.143C566.789 310.524 566.591 312.03 567.245 313.354C567.811 314.499 569.064 315.321 570.356 315.251C573.124 315.102 573.777 311.066 571.113 310.177C569.291 309.57 568.51 312.444 570.321 313.048C569.958 312.927 570.045 312.847 569.88 312.639L569.866 312.514C569.862 312.673 569.862 312.699 569.868 312.594C569.821 312.49 569.99 312.37 569.85 312.56C569.911 312.433 570 312.347 570.117 312.303C570.135 312.295 570.153 312.289 570.172 312.283C570.172 312.292 569.955 312.134 569.897 312.041C569.779 311.853 569.781 311.512 569.783 311.297C569.802 309.896 570.42 308.373 571.044 307.136C572.369 304.509 574.422 302.354 576.994 300.926C578.67 299.996 577.17 297.425 575.492 298.356Z" fill="black"/>
</svg>
