<svg width="1000" height="1000" viewBox="0 0 1000 1000" fill="none" xmlns="http://www.w3.org/2000/svg">
<path d="M498.572 551.627C497.639 541.467 501.388 531.178 507.772 523.22C514.157 515.262 523.011 509.518 532.501 505.774C543.52 501.427 555.877 499.672 567.297 502.819C581.261 506.667 592.733 517.838 598.02 531.324C605.633 550.744 599.687 569.493 591.12 587.266C586.588 596.668 580.545 605.315 576.49 614.932C573.395 622.269 571.509 630.05 569.75 637.816C558.175 688.922 549.781 740.989 541.029 792.635C539.782 799.992 538.496 807.35 537.396 814.734C536.42 821.288 535.135 829.732 528.807 833.328C525.458 835.231 513.327 837.035 510.499 833.244C509.713 832.191 509.541 830.686 508.494 829.893C506.715 828.546 504.341 830.27 502.415 831.396C498.801 833.507 493.996 833.381 490.497 831.085C488.592 829.835 486.692 827.907 484.457 828.351C482.682 828.703 481.585 830.423 480.222 831.613C477.838 833.695 474.355 834.207 471.274 833.483C468.193 832.759 465.471 830.937 463.123 828.814C462.128 827.914 461.101 826.909 459.78 826.678C456.529 826.111 454.535 830.26 451.481 831.509C446.892 833.386 435.671 827.699 432.695 824.183C430.434 821.512 429.547 817.909 429.435 814.411C429.067 802.819 435.601 795.057 445.678 790.602C451.421 788.064 457.218 785.489 462.243 781.724C473.421 773.348 472.574 764.605 473.509 751.986C474.914 733.036 476.762 714.117 479.049 695.253C483.642 657.377 489.811 619.547 499.222 582.548" fill="white"/>
<path d="M500.072 551.627C497.672 522.846 528.63 503.02 554.469 502.721C567.23 502.574 579.036 507.873 587.587 517.307C596.568 527.215 600.825 540.534 599.881 553.82C598.859 568.211 592.579 582.073 585.609 594.498C582.076 600.795 578.299 606.979 575.43 613.621C572.466 620.48 570.547 627.702 568.864 634.965C561.87 665.154 556.194 695.653 550.835 726.169C545.545 756.293 540.461 786.459 535.594 816.653C534.775 821.732 533.644 827.759 529.371 831.148C526.217 833.65 521.179 834.049 517.315 833.961C515.669 833.923 513.41 833.846 512.071 832.727C511.183 831.986 511.001 830.692 510.374 829.757C509.673 828.714 508.549 827.987 507.278 827.914C504.276 827.74 502.016 830.373 499.242 831.083C496.088 831.891 493.036 831.076 490.437 829.221C488.194 827.62 485.661 825.92 482.864 827.337C481.653 827.949 480.772 828.984 479.824 829.922C478.701 831.033 477.407 831.774 475.855 832.103C472.519 832.81 469.215 831.501 466.505 829.618C464.16 827.989 462.139 825.032 458.991 825.13C456.449 825.209 454.665 827.273 452.879 828.804C451.115 830.316 449.494 830.61 447.246 830.169C442.885 829.315 438.17 827.113 434.813 824.173C430.475 820.374 430.284 813.329 431.513 808.095C432.688 803.087 435.679 798.821 439.768 795.736C444.805 791.937 451.041 790.083 456.549 787.096C461.825 784.236 467.001 780.611 470.281 775.475C472.883 771.401 473.857 766.68 474.322 761.935C474.944 755.588 475.203 749.197 475.722 742.84C476.993 727.275 478.565 711.734 480.432 696.229C484.123 665.578 488.849 635.024 495.481 604.863C497.093 597.531 498.822 590.224 500.669 582.947C501.145 581.075 498.251 580.276 497.775 582.15C489.933 613.044 484.329 644.46 480.023 676.03C477.851 691.954 475.973 707.918 474.415 723.913C473.632 731.957 472.929 740.008 472.305 748.065C471.856 753.862 471.883 759.835 470.828 765.563C469.873 770.751 467.516 775.151 463.582 778.696C458.222 783.526 451.42 786.383 444.92 789.307C440.005 791.518 435.522 794.666 432.343 799.073C429.151 803.498 427.749 808.992 427.934 814.411C428.044 817.623 428.729 820.934 430.472 823.679C431.668 825.563 433.33 826.938 435.169 828.164C439.081 830.773 443.987 833.125 448.757 833.365C451.074 833.482 452.902 832.673 454.67 831.209C455.659 830.389 456.534 829.396 457.619 828.697C459.099 827.744 460.249 828.273 461.496 829.364C466.254 833.528 472.504 837.197 478.896 834.233C480.127 833.662 481.161 832.84 482.108 831.878C483.169 830.801 484.212 829.428 485.899 829.927C487.33 830.351 488.509 831.591 489.74 832.381C491.109 833.26 492.667 833.875 494.268 834.165C497.147 834.687 500.128 834.28 502.733 832.934C503.898 832.332 505.47 830.856 506.847 830.906C508.318 830.959 508.629 833.324 509.437 834.305C512.084 837.516 517.739 837.181 521.42 836.751C525.886 836.228 530.2 835.165 533.209 831.571C536.753 827.339 537.842 821.689 538.655 816.383C539.817 808.797 541.084 801.231 542.368 793.665C545.071 777.744 547.726 761.816 550.45 745.899C555.887 714.136 561.585 682.407 568.391 650.905C570.057 643.193 571.661 635.44 573.731 627.824C575.762 620.353 578.583 613.311 582.278 606.508C585.827 599.973 589.75 593.649 592.942 586.923C596.088 580.292 598.912 573.458 600.771 566.346C604.375 552.556 603.7 537.955 596.848 525.25C591.155 514.694 581.635 506.118 570.254 502.169C556.682 497.459 541.611 499.995 528.77 505.728C516.685 511.122 505.802 520.13 500.43 532.461C497.801 538.494 496.522 545.048 497.071 551.627C497.23 553.538 500.233 553.555 500.072 551.627Z" fill="black"/>
<path d="M537.396 814.734C536.42 821.287 535.135 829.732 528.807 833.328C525.458 835.231 513.327 837.035 510.499 833.244C509.713 832.191 509.541 830.686 508.494 829.893C506.715 828.546 504.341 830.27 502.415 831.396C498.801 833.507 493.996 833.381 490.497 831.085C488.592 829.835 486.692 827.907 484.457 828.351C482.682 828.703 481.585 830.423 480.222 831.613C477.838 833.695 474.355 834.207 471.274 833.483C468.193 832.759 465.471 830.937 463.123 828.814C462.128 827.914 461.101 826.909 459.78 826.678C456.529 826.111 454.535 830.26 451.481 831.509C446.892 833.386 435.671 827.699 432.695 824.183C430.434 821.512 429.547 817.909 429.435 814.411C429.067 802.818 435.601 795.057 445.678 790.602C451.421 788.064 457.218 785.489 462.244 781.723C465.705 779.13 468.863 775.959 470.172 771.829C471.623 767.252 471.486 764.125 475.448 760.989C479.502 757.78 484.556 756.045 489.752 756.614C495.728 757.269 501.293 760.95 504.234 766.193C506.677 770.549 507.302 775.651 508.574 780.481C509.847 785.311 512.114 790.315 516.511 792.685C523.949 796.693 533.223 791.341 541.489 793.095C540.99 800.627 538.48 807.453 537.396 814.734Z" fill="black"/>
<path d="M535.949 814.336C535.289 818.761 534.655 823.453 532.442 827.417C531.371 829.336 529.883 831.07 527.915 832.106C526.703 832.744 525.188 833.08 523.809 833.36C520.488 834.034 516.213 834.605 512.985 833.247C511.12 832.462 511.144 830.395 509.82 829.065C507.706 826.944 504.819 828.22 502.653 829.504C500.338 830.877 497.986 831.697 495.252 831.302C493.959 831.116 492.705 830.67 491.587 829.998C490.359 829.262 489.299 828.265 488.026 827.601C485.617 826.346 483.272 826.696 481.258 828.484C480.337 829.301 479.595 830.312 478.562 831C477.473 831.724 476.176 832.135 474.878 832.252C472.1 832.503 469.465 831.53 467.154 830.051C464.912 828.617 463.03 825.917 460.372 825.277C458.087 824.727 456.158 825.91 454.495 827.352C453.184 828.489 451.877 830.087 450.056 830.343C448.233 830.598 446.265 830.013 444.557 829.448C442.558 828.787 440.64 827.899 438.806 826.869C437.212 825.973 435.602 824.983 434.292 823.694C432.553 821.983 431.664 819.595 431.223 817.241C430.365 812.669 431.086 807.536 433.211 803.398C435.216 799.496 438.417 796.409 442.137 794.137C446.959 791.191 452.424 789.414 457.359 786.651C462.156 783.965 467.114 780.553 470.016 775.759C471.319 773.606 471.933 771.217 472.56 768.806C473.096 766.741 473.72 764.768 475.237 763.197C479.017 759.282 485.123 757.312 490.468 758.219C495.525 759.077 500.143 762.199 502.751 766.625C505.765 771.74 505.992 777.894 507.893 783.417C509.57 788.291 512.494 792.875 517.505 794.769C522.572 796.684 528.101 795.241 533.258 794.566C535.849 794.226 538.509 794.029 541.09 794.542L539.988 793.095C539.469 800.318 537.041 807.204 535.949 814.336C535.659 816.225 538.551 817.04 538.843 815.134C539.977 807.731 542.451 800.597 542.989 793.095C543.033 792.483 542.495 791.769 541.887 791.648C536.181 790.514 530.647 792.281 524.97 792.653C522.346 792.824 519.628 792.663 517.268 791.389C514.838 790.077 513.16 787.856 511.947 785.423C509.311 780.134 509.109 774.041 506.981 768.571C504.944 763.335 501.098 759.06 495.924 756.774C490.644 754.442 484.764 754.503 479.486 756.811C476.941 757.924 474.324 759.553 472.539 761.717C471.092 763.472 470.322 765.518 469.747 767.694C469.059 770.3 468.448 772.8 466.899 775.056C465.292 777.395 463.055 779.315 460.764 780.957C455.671 784.606 449.924 786.981 444.275 789.599C439.984 791.587 435.984 794.397 433.049 798.14C430.095 801.907 428.429 806.393 428.018 811.153C427.582 816.2 428.393 822.101 432.17 825.817C435.142 828.741 439.281 830.759 443.166 832.139C445.062 832.812 447.092 833.35 449.117 833.38C451.295 833.411 453.013 832.581 454.67 831.209C455.99 830.116 457.793 827.645 459.768 828.217C461.039 828.586 462.014 829.87 463 830.689C464.158 831.652 465.383 832.547 466.702 833.277C471.677 836.029 477.903 836.147 482.076 831.912C482.848 831.13 483.687 829.963 484.855 829.798C486.182 829.611 487.474 830.763 488.467 831.481C490.807 833.174 493.292 834.261 496.217 834.386C499.141 834.51 501.695 833.561 504.168 832.096C504.987 831.611 506.432 830.515 507.434 830.993C508.446 831.476 508.743 833.451 509.438 834.306C511.761 837.167 516.584 837.129 519.902 836.894C523.394 836.647 527.464 836.122 530.422 834.087C534.492 831.287 536.501 826.615 537.615 821.957C538.153 819.708 538.502 817.42 538.843 815.134C539.125 813.244 536.233 812.429 535.949 814.336Z" fill="black"/>
<path d="M530.466 576.64C523.565 569.126 520.308 558.671 520.56 548.472C520.812 538.273 524.37 528.337 529.647 519.605C535.774 509.467 544.536 500.579 555.525 496.158C573.044 489.11 590.573 495.821 606.325 504.027C620.644 511.486 628.619 530.993 632.758 545.749C637.23 561.691 637.834 578.338 640.563 594.597C643.262 610.67 649.765 624.28 656.766 638.74C673.735 673.785 692.257 708.086 710.356 742.554C713.825 749.16 717.264 755.791 720.867 762.33C724.064 768.133 728.162 775.627 725.31 782.324C723.8 785.868 715.248 794.658 710.7 793.358C709.437 792.997 708.387 791.905 707.074 791.909C704.842 791.916 704 794.726 703.151 796.789C701.557 800.659 697.66 803.473 693.485 803.768C691.212 803.929 688.532 803.548 687.024 805.256C685.826 806.612 685.997 808.645 685.635 810.418C685.001 813.519 682.541 816.037 679.652 817.33C676.763 818.622 673.494 818.824 670.34 818.559C669.003 818.447 667.577 818.27 666.386 818.888C663.457 820.408 664.387 824.916 662.716 827.761C660.205 832.036 647.833 834.317 643.335 833.326C639.917 832.573 637.027 830.245 634.817 827.531C627.496 818.536 627.986 808.402 633.299 798.75C636.327 793.249 639.375 787.686 641.088 781.645C644.899 768.207 638.924 761.768 632.017 751.166C621.644 735.245 611.643 719.08 602.024 702.692C582.712 669.788 564.681 635.964 549.732 600.835" fill="white"/>
<path d="M531.528 575.579C512.502 554.523 524.736 520.859 544.209 504.699C549.362 500.423 555.422 497.215 561.963 495.702C568.987 494.077 576.293 494.561 583.246 496.296C590.369 498.073 597.128 501.027 603.657 504.341C608.803 506.952 613.056 510.312 616.684 514.821C623.665 523.496 627.883 534.313 630.957 544.908C635.154 559.372 636.134 574.436 638.237 589.281C639.253 596.453 640.695 603.482 642.961 610.371C645.152 617.035 647.92 623.497 650.871 629.856C657.276 643.659 664.155 657.254 671.078 670.803C685.241 698.518 699.874 726 714.42 753.516C716.193 756.87 717.993 760.211 719.819 763.537C721.427 766.467 723.033 769.438 723.991 772.655C724.87 775.609 725.238 778.991 723.874 781.869C723.052 783.602 721.661 785.11 720.34 786.472C718.654 788.21 716.788 789.842 714.657 791.012C713.904 791.425 713.07 791.827 712.21 791.948C711.043 792.113 710.235 791.453 709.223 790.974C706.677 789.77 704.4 790.826 703.083 793.192C701.683 795.708 701.144 798.259 698.756 800.143C696.264 802.109 693.669 802.156 690.664 802.369C687.879 802.566 685.512 803.689 684.722 806.56C684.345 807.929 684.42 809.38 684.001 810.741C683.53 812.267 682.527 813.569 681.3 814.572C678.58 816.796 674.931 817.28 671.527 817.135C668.612 817.01 665.483 816.556 663.704 819.428C662.383 821.56 662.663 824.184 661.701 826.433C660.961 828.165 659.065 829.092 657.416 829.781C655.165 830.722 652.736 831.304 650.333 831.689C648.385 832.002 646.255 832.246 644.285 831.976C641.388 831.578 638.87 829.746 636.918 827.661C632.308 822.738 630.015 816.035 631.078 809.339C632.183 802.377 636.46 796.604 639.371 790.333C642.035 784.595 644.288 778.201 643.685 771.777C643.177 766.37 640.695 761.631 637.785 757.142C633.943 751.215 630.011 745.351 626.218 739.39C617.961 726.414 609.953 713.28 602.189 700.003C587.004 674.035 572.666 647.544 560.002 620.247C556.905 613.572 553.913 606.848 551.028 600.078C550.273 598.307 547.687 599.834 548.437 601.593C560.653 630.261 574.873 658.03 590.19 685.155C597.999 698.986 606.074 712.669 614.409 726.189C618.593 732.976 622.843 739.721 627.159 746.424C630.711 751.942 634.754 757.289 637.847 763.083C640.724 768.472 641.428 774.137 639.953 780.079C638.127 787.429 633.966 793.556 630.819 800.328C628.116 806.143 626.918 812.675 628.632 818.957C630.269 824.956 634.547 831.273 640.354 833.886C644.601 835.797 649.58 835.073 653.968 834.015C658.045 833.032 663.151 831.369 664.681 827.025C665.353 825.115 665.077 820.999 667.309 820.117C668.865 819.502 671.086 820.167 672.719 820.161C674.426 820.156 676.166 819.981 677.821 819.552C680.833 818.771 683.583 817.08 685.41 814.534C686.204 813.428 686.797 812.152 687.082 810.817C687.398 809.336 687.108 806.995 688.443 805.974C689.468 805.191 691.114 805.348 692.322 805.316C693.812 805.277 695.29 805.122 696.705 804.627C699.362 803.696 701.673 801.96 703.286 799.652C704.085 798.509 704.55 797.248 705.084 795.973C705.623 794.688 706.224 792.961 707.883 793.661C709.025 794.143 709.939 794.847 711.212 794.961C712.229 795.052 713.266 794.844 714.22 794.497C718.503 792.938 722.232 789.277 724.943 785.714C728.554 780.97 728.226 775.124 726.162 769.756C723.591 763.073 719.573 756.866 716.242 750.545C712.451 743.35 708.683 736.143 704.887 728.95C697.39 714.743 689.866 700.551 682.449 686.301C675.033 672.054 667.725 657.749 660.662 643.323C654.125 629.97 647.32 616.534 643.662 602.045C639.858 586.979 639.545 571.245 636.666 556.001C634.379 543.897 630.544 531.709 624.414 520.97C621.547 515.947 618.057 511.142 613.686 507.318C608.881 503.115 602.908 500.441 597.093 497.939C583.63 492.145 568.652 489.12 554.636 494.912C542.596 499.888 533.267 509.91 527.021 521.142C520.315 533.202 516.959 547.493 520.518 561.081C522.133 567.247 525.128 572.968 529.405 577.702C530.703 579.138 532.82 577.01 531.528 575.579Z" fill="black"/>
<path d="M720.867 762.33C724.064 768.133 728.163 775.627 725.31 782.324C723.801 785.868 715.248 794.658 710.7 793.358C709.437 792.997 708.388 791.905 707.074 791.909C704.843 791.916 704.001 794.726 703.151 796.789C701.557 800.659 697.66 803.473 693.486 803.768C691.213 803.929 688.532 803.548 687.024 805.256C685.826 806.612 685.997 808.645 685.635 810.418C685.001 813.519 682.541 816.037 679.652 817.33C676.763 818.622 673.494 818.824 670.34 818.559C669.003 818.447 667.577 818.27 666.386 818.888C663.457 820.408 664.387 824.916 662.716 827.761C660.205 832.036 647.833 834.317 643.335 833.326C639.917 832.573 637.027 830.245 634.818 827.531C627.496 818.536 627.986 808.402 633.299 798.75C636.327 793.249 639.376 787.686 641.089 781.644C642.268 777.484 642.858 773.047 641.394 768.969C639.773 764.45 637.768 762.047 639.017 757.15C640.295 752.141 643.262 747.696 647.74 744.998C652.889 741.896 659.547 741.449 665.064 743.835C669.649 745.818 673.238 749.496 677.178 752.566C681.119 755.635 685.956 758.239 690.889 757.458C699.235 756.137 703.365 746.257 711.001 742.64C715.172 748.932 717.314 755.882 720.867 762.33Z" fill="black"/>
<path d="M719.571 763.088C722.121 767.717 725.132 772.907 724.74 778.389C724.46 782.304 721.759 785.23 719.007 787.773C717.545 789.126 715.957 790.369 714.17 791.267C712.634 792.04 711.481 792.198 709.982 791.377C707.911 790.241 705.659 789.965 703.969 791.909C702.495 793.604 702.142 795.914 700.94 797.771C699.662 799.746 697.622 801.24 695.37 801.904C693.098 802.574 690.68 802.037 688.414 802.718C685.889 803.475 684.791 805.553 684.461 808.026C684.119 810.592 683.53 812.619 681.517 814.391C679.411 816.245 676.55 816.995 673.803 817.132C671.188 817.263 668.048 816.288 665.629 817.592C663.751 818.605 663 820.602 662.602 822.581C662.262 824.268 662.178 826.335 660.92 827.639C658.484 830.164 654.1 831.038 650.797 831.611C646.949 832.279 643.247 832.42 639.861 830.197C635.413 827.277 632.255 821.957 631.204 816.807C630.139 811.588 631.331 806.155 633.61 801.418C636.243 795.944 639.474 790.845 641.548 785.098C643.556 779.535 644.733 773.428 642.534 767.746C641.663 765.498 640.362 763.235 640.155 760.793C639.941 758.252 640.887 755.583 642.033 753.351C644.415 748.709 648.588 745.384 653.693 744.235C659.198 742.996 664.455 744.61 668.948 747.834C673.549 751.137 677.41 755.407 682.706 757.67C687.439 759.693 692.508 759.505 696.846 756.654C700.545 754.222 703.304 750.695 706.506 747.695C708.095 746.207 709.794 744.892 711.759 743.936L709.705 743.398C713.75 749.573 716.049 756.634 719.571 763.088C720.496 764.784 723.09 763.27 722.163 761.573C718.641 755.119 716.342 748.058 712.297 741.883C711.828 741.166 711.006 740.973 710.244 741.344C706.017 743.402 702.943 747.052 699.683 750.321C696.376 753.637 692.506 756.712 687.516 755.992C681.469 755.119 676.99 750.334 672.424 746.732C667.919 743.177 662.937 740.667 657.065 740.821C651.624 740.965 646.314 743.226 642.628 747.265C639.191 751.03 636.475 756.711 637.288 761.902C637.7 764.534 639.081 766.878 639.948 769.368C640.993 772.372 640.918 775.548 640.286 778.633C638.988 784.964 635.965 790.758 632.889 796.38C630.141 801.403 627.908 806.603 627.816 812.425C627.726 818.073 629.76 823.442 633.195 827.879C636.195 831.756 640.325 834.891 645.386 835.048C649.436 835.174 653.731 834.353 657.519 832.945C659.318 832.277 661.089 831.456 662.562 830.204C664.073 828.919 664.759 827.148 665.146 825.245C665.488 823.565 665.503 820.632 667.526 820.053C668.788 819.691 670.346 820.09 671.636 820.14C673.214 820.202 674.79 820.114 676.349 819.858C681.487 819.013 686.388 815.509 687.203 810.096C687.375 808.955 687.307 807.439 687.997 806.454C688.669 805.494 689.944 805.403 691.017 805.351C693.622 805.226 695.968 805.107 698.358 803.931C700.608 802.824 702.553 800.995 703.813 798.83C704.389 797.84 704.742 796.754 705.193 795.707C705.51 794.971 705.998 793.615 706.898 793.424C707.871 793.219 709.071 794.369 709.962 794.689C710.851 795.009 711.775 795.037 712.701 794.892C714.528 794.605 716.237 793.664 717.742 792.626C720.963 790.404 724.088 787.42 726.106 784.038C728.842 779.452 727.794 773.709 725.877 769.042C724.817 766.463 723.506 764.012 722.163 761.573C721.231 759.88 718.638 761.393 719.571 763.088Z" fill="black"/>
<path d="M327.962 550.586C338.446 570.572 347.452 591.333 354.88 612.644C356.133 616.237 357.352 619.903 357.537 623.703C358.946 652.622 309.561 665.643 289.463 675.644C282.782 678.968 276.113 682.33 269.363 685.522C265.349 687.42 261.832 689.556 258.112 692.034C257.234 692.619 256.322 693.24 255.821 694.169C255.275 695.18 255.303 696.393 255.346 697.542C255.527 702.466 255.745 707.417 256.634 712.274C257.426 716.601 258.846 722.087 261.298 725.759C263.333 724.882 275.078 720.095 275.51 724.804C275.609 725.872 274.741 726.758 273.936 727.467C271.455 729.649 268.893 731.739 266.255 733.73C265.692 734.155 265.101 734.608 264.834 735.261C264.587 735.865 264.659 736.547 264.745 737.194C265.896 745.822 268.899 754.101 272.428 762.059C273.426 764.309 274.471 766.546 275.774 768.634C281.772 778.241 293.506 786.955 305.477 784.273C310.529 783.141 315.068 779.632 317.13 774.883C318.299 772.191 318.668 769.231 319.026 766.319C319.793 760.086 320.578 753.792 322.727 747.892C327.506 734.767 336.12 733.046 347.927 728.495C364.918 721.947 381.54 714.366 398.552 707.942C413.198 702.412 425.645 694.784 434.265 681.247C440.745 671.072 444.182 659.195 445.762 647.235C451.114 606.734 434.486 563.997 403.171 537.762" fill="white"/>
<path d="M326.667 551.343C336.276 569.685 344.654 588.66 351.691 608.135C353.396 612.853 355.505 617.755 355.972 622.794C356.224 625.504 355.985 628.237 355.26 630.859C353.855 635.942 350.702 640.308 346.98 643.967C338.142 652.656 326.38 658.167 315.153 663.059C309.68 665.443 304.133 667.65 298.622 669.944C292.567 672.464 286.736 675.338 280.863 678.256C276.184 680.58 271.425 682.757 266.771 685.128C264.591 686.238 262.473 687.464 260.401 688.764C258.575 689.909 256.303 691.038 254.966 692.773C253.407 694.798 253.836 697.541 253.938 699.926C254.047 702.471 254.19 705.015 254.461 707.549C254.947 712.101 255.792 716.68 257.351 720.996C258.045 722.919 258.884 724.8 260.002 726.517C260.486 727.259 261.277 727.389 262.055 727.055C262.329 726.938 262.071 727.048 262.15 727.015C262.283 726.96 262.416 726.904 262.549 726.851C262.977 726.679 263.405 726.51 263.836 726.348C264.84 725.969 265.855 725.618 266.881 725.305C268.771 724.729 271.097 723.997 273.04 724.298C273.477 724.366 273.663 724.438 273.936 724.624C273.874 724.582 274.012 724.784 274.009 724.804C273.899 725.583 273.268 726.057 272.697 726.561C271.813 727.342 270.912 728.106 270.004 728.859C268.387 730.202 266.718 731.473 265.063 732.767C263.495 733.995 263.016 735.445 263.271 737.394C264.379 745.861 267.267 753.954 270.663 761.748C272.253 765.399 273.969 768.954 276.376 772.146C278.513 774.981 280.977 777.538 283.781 779.72C289.356 784.059 296.377 786.979 303.548 786.109C310.53 785.263 316.733 780.81 319.052 774.053C320.392 770.148 320.54 765.867 321.105 761.805C321.699 757.536 322.474 753.269 323.861 749.178C325.762 743.573 329.011 738.85 334.175 735.836C339.479 732.739 345.589 731.028 351.28 728.792C359.609 725.52 367.85 722.032 376.107 718.584C384.226 715.193 392.402 711.977 400.589 708.758C407.082 706.204 413.407 703.134 419.124 699.106C424.787 695.116 429.755 690.275 433.786 684.634C438.405 678.171 441.695 670.797 443.954 663.201C448.178 648.995 449.143 633.723 447.541 619.025C446.001 604.898 442.077 591.104 436.015 578.253C430 565.504 421.836 553.725 411.886 543.728C409.441 541.272 406.884 538.931 404.231 536.701C402.762 535.465 400.628 537.578 402.109 538.823C412.831 547.836 421.839 558.743 428.798 570.892C435.755 583.039 440.639 596.342 443.214 610.101C445.824 624.05 446.004 638.544 443.419 652.511C440.638 667.536 434.411 682.084 422.816 692.391C411.565 702.394 397.081 706.724 383.423 712.326C375.219 715.691 367.065 719.175 358.859 722.533C352.091 725.302 345.191 727.732 338.426 730.497C333.41 732.547 328.777 735.183 325.444 739.564C320.906 745.527 319.312 753.283 318.277 760.54C317.695 764.616 317.544 768.894 316.294 772.839C315.258 776.109 313.051 778.877 310.161 780.712C304.165 784.518 296.567 783.688 290.496 780.516C284.183 777.219 278.99 771.76 275.701 765.472C271.816 758.042 268.762 749.816 267.026 741.612C266.817 740.625 266.63 739.634 266.466 738.639C266.33 737.809 265.88 736.493 266.288 735.708C266.639 735.032 267.7 734.505 268.29 734.05C269.15 733.385 270.004 732.713 270.849 732.029C272.468 730.718 274.237 729.424 275.658 727.895C276.678 726.797 277.304 725.397 276.856 723.897C275.51 719.386 268.333 721.676 265.352 722.641C263.719 723.17 262.117 723.787 260.54 724.464L262.594 725.002C260.25 721.405 259.119 717.117 258.286 712.949C257.288 707.953 257.037 702.86 256.855 697.78C256.814 696.644 256.666 695.365 257.462 694.444C258.229 693.556 259.426 692.955 260.399 692.324C262.454 690.991 264.547 689.717 266.701 688.551C271.245 686.093 276.003 684.005 280.632 681.713C286.702 678.708 292.707 675.642 298.958 673.031C304.501 670.716 310.082 668.494 315.599 666.114C327.005 661.193 338.746 655.673 347.969 647.168C351.996 643.455 355.445 639.045 357.417 633.897C358.36 631.434 358.894 628.819 359.034 626.186C359.264 621.836 358.164 617.627 356.775 613.542C350.141 594.027 341.99 574.97 332.721 556.566C331.586 554.31 330.43 552.065 329.258 549.828C328.361 548.117 325.77 549.632 326.667 551.343Z" fill="black"/>
<path d="M376.274 566.786C380.984 577.483 385.686 588.236 388.867 599.508C391.446 608.643 394.621 619.512 389.821 628.47C387.441 632.913 383.623 636.804 380.071 640.33C376.431 643.944 372.507 647.273 368.406 650.351C359.912 656.725 350.744 662.153 341.496 667.346C330.034 673.781 318.3 679.723 306.338 685.171C304.582 685.971 306.106 688.558 307.853 687.763C318.872 682.744 329.699 677.307 340.297 671.449C349.927 666.126 359.496 660.571 368.393 654.074C376.828 647.913 385.098 640.771 391.095 632.134C397.217 623.317 395.355 612.394 392.831 602.682C389.465 589.734 384.244 577.487 378.866 565.271C378.089 563.507 375.502 565.033 376.274 566.786Z" fill="black"/>
<path d="M392.632 559.471C398.495 572.482 403.303 586.016 407.878 599.526C409.988 605.756 411.813 612.134 412.099 618.741C412.368 624.968 411.686 631.29 409.991 637.292C408.355 643.085 405.312 647.932 401.101 652.207C396.662 656.714 391.585 660.657 386.452 664.335C380.864 668.338 375.058 672.022 369.277 675.737C363.627 679.368 358.012 683.056 352.308 686.604C339.573 694.527 326.352 701.853 312.043 706.525C310.215 707.122 310.998 710.021 312.841 709.419C325.941 705.142 338.186 698.707 349.939 691.583C355.914 687.96 361.778 684.159 367.642 680.36C373.541 676.539 379.505 672.815 385.285 668.814C390.78 665.011 396.153 660.951 401.066 656.413C405.52 652.299 409.41 647.566 411.638 641.872C413.896 636.102 414.871 629.723 415.108 623.557C415.367 616.839 414.313 610.303 412.414 603.87C410.117 596.086 407.204 588.448 404.416 580.829C401.591 573.111 398.601 565.451 395.224 557.956C394.432 556.198 391.844 557.722 392.632 559.471Z" fill="black"/>
<path d="M403.506 552.629C411.769 565.978 419.908 579.687 424.878 594.66C429.669 609.096 431.596 624.602 429.654 639.73C427.814 654.06 422.11 668.418 411.497 678.52C406.475 683.301 400.509 686.899 394.379 690.072C387.369 693.7 380.191 697.014 373.084 700.444C357.783 707.829 342.483 715.214 327.183 722.599C325.233 723.54 323.283 724.481 321.333 725.422C319.594 726.262 321.114 728.851 322.848 728.014C338.523 720.448 354.198 712.882 369.874 705.316C377.385 701.691 384.924 698.119 392.402 694.425C398.773 691.278 405.031 687.852 410.554 683.342C421.957 674.03 428.89 660.121 431.682 645.842C434.671 630.557 433.609 614.614 429.516 599.633C425.286 584.148 417.546 569.927 409.266 556.277C408.219 554.551 407.161 552.831 406.098 551.114C405.083 549.475 402.486 550.98 403.506 552.629Z" fill="black"/>
<path d="M577.785 615.689C580.156 610.116 583.16 604.857 586.161 599.606C589.201 594.284 592.1 588.92 594.603 583.321C597.117 577.697 599.341 571.924 600.871 565.949C601.618 563.029 602.18 560.068 602.557 557.078C602.745 555.582 602.879 554.079 602.952 552.574C602.985 551.895 603.005 551.216 603.013 550.537C603.022 549.809 603.181 548.858 602.804 548.191C602.475 547.611 601.634 547.277 601.083 546.966C600.42 546.592 599.751 546.231 599.074 545.882C597.722 545.185 596.343 544.542 594.945 543.943C592.219 542.775 589.428 541.79 586.581 540.961C581.047 539.349 575.36 538.295 569.628 537.714C558.109 536.544 546.413 537.443 535.11 539.884C522.119 542.69 509.429 547.534 497.895 554.142C497.444 554.4 497.14 554.916 497.151 555.438C497.336 564.2 497.52 572.963 497.704 581.725C497.716 582.292 497.688 582.551 497.535 583.095C496.748 585.911 496.118 588.783 495.439 591.626C494.078 597.323 492.791 603.037 491.57 608.766C489.095 620.387 486.895 632.067 484.921 643.783C482.708 656.917 480.783 670.097 479.057 683.302C478.959 684.05 479.826 684.883 480.557 684.803C491.135 683.642 501.539 685.309 511.723 688.106C521.626 690.825 531.824 693.67 541.053 698.248C546.15 700.777 550.466 704.065 554.785 707.725C555.565 708.385 557.073 708.267 557.294 707.062C561.74 682.735 566.409 658.405 572.093 634.333C573.617 627.875 575.374 621.462 577.937 615.331C578.252 614.577 577.596 613.688 576.889 613.485C576.027 613.237 575.353 613.789 575.043 614.533C570.452 625.516 568.251 637.408 565.738 648.993C563.1 661.158 560.628 673.359 558.275 685.582C556.949 692.47 555.66 699.365 554.399 706.264L556.908 705.602C553.011 702.301 549.136 699.151 544.618 696.716C539.966 694.209 535.026 692.259 530.03 690.558C525.01 688.848 519.92 687.318 514.823 685.858C509.619 684.367 504.354 683.041 498.995 682.245C492.93 681.345 486.663 681.131 480.557 681.801L482.058 683.302C485.143 659.712 488.907 636.202 493.76 612.908C494.955 607.173 496.215 601.453 497.548 595.749C498.214 592.897 498.898 590.05 499.601 587.207C499.984 585.658 500.678 583.957 500.719 582.359C500.833 577.962 500.533 573.514 500.44 569.118C500.345 564.558 500.249 559.998 500.153 555.438L499.409 556.733C522.912 543.27 551.81 536.611 578.629 542.089C586.383 543.672 593.92 546.203 600.751 550.244L600.007 548.949C600.263 567.592 591.181 584.697 582.218 600.458C579.677 604.926 577.208 609.439 575.194 614.174C574.874 614.926 574.975 615.774 575.732 616.227C576.359 616.603 577.469 616.434 577.785 615.689Z" fill="black"/>
<path d="M549.732 600.835C564.681 635.964 582.712 669.788 602.025 702.692C602.255 703.085 602.489 703.476 602.72 703.869C610.641 703.047 618.437 700.935 625.949 698.196C629.03 697.073 632.063 695.845 635.037 694.558C641.168 691.906 647.202 688.987 652.852 685.422C659.94 680.949 666.376 675.455 671.939 669.187C666.783 659.085 661.708 648.945 656.766 638.74C649.766 624.281 643.262 610.67 640.564 594.597C637.834 578.338 637.23 561.691 632.758 545.749C630.62 538.126 627.454 529.239 622.923 521.397C621.668 521.239 620.408 521.112 619.148 521.031C607.491 520.281 595.775 522.664 584.856 526.814C567.881 533.264 552.432 544.183 541.747 558.865" fill="white"/>
<path d="M548.436 601.593C560.24 629.303 573.924 656.174 588.657 682.433C592.833 689.876 597.084 697.278 601.425 704.627C601.672 705.045 602.209 705.425 602.72 705.37C613.317 704.236 623.503 701.014 633.302 696.914C642.946 692.878 652.323 688.214 660.624 681.796C665.1 678.336 669.234 674.47 673 670.248C673.469 669.722 673.553 669.054 673.235 668.429C669.126 660.378 665.067 652.302 661.086 644.186C657.357 636.584 653.59 628.982 650.267 621.191C647.076 613.711 644.4 605.988 642.732 598.019C640.95 589.508 640.156 580.8 639.083 572.181C637.007 555.491 633.746 538.901 625.959 523.826C625.508 522.952 625.04 522.086 624.556 521.23C623.954 520.164 623.415 519.95 622.216 519.811C620.036 519.558 617.845 519.424 615.65 519.398C611.393 519.348 607.142 519.708 602.938 520.368C594.759 521.654 586.812 524.183 579.24 527.505C565.733 533.43 553.343 542.287 543.902 553.668C542.705 555.111 541.558 556.595 540.451 558.108C539.309 559.668 541.912 561.167 543.042 559.623C556.69 540.968 578.374 528.077 600.975 523.744C608.205 522.358 615.609 522.001 622.923 522.897L621.627 522.154C626.475 530.606 629.822 539.938 632.163 549.376C634.693 559.578 635.815 570.044 637.087 580.456C638.33 590.623 639.767 600.681 642.984 610.441C646.028 619.678 650.164 628.507 654.385 637.253C659.675 648.214 665.111 659.103 670.643 669.944L670.878 668.126C664.326 675.471 656.663 681.668 648.094 686.513C639.178 691.555 629.532 695.671 619.753 698.71C614.2 700.436 608.507 701.749 602.72 702.369L604.016 703.112C588.718 677.21 574.316 650.732 561.521 623.499C557.882 615.756 554.381 607.949 551.028 600.078C550.273 598.306 547.687 599.834 548.436 601.593Z" fill="black"/>
<path d="M633.874 550.104C615.236 547.723 596.212 551.334 577.717 553.555C553.016 556.522 527.333 557.338 504.919 568.132C502.882 569.113 500.863 570.191 498.989 571.456L499.222 582.548C498.895 583.834 498.579 585.123 498.26 586.411C498.571 586.428 498.883 586.443 499.192 586.454C523.377 587.332 547.467 583.493 571.645 582.457C595.169 581.449 619.625 583.341 640.49 594.133C638.069 579.496 637.311 564.556 633.874 550.104Z" fill="black"/>
<path d="M633.874 548.603C622.03 547.123 610.083 547.996 598.278 549.409C586.762 550.787 575.286 552.379 563.747 553.577C552.826 554.71 541.875 555.857 531.108 558.067C520.545 560.235 509.725 563.392 500.346 568.84C499.292 569.452 497.619 570.097 497.489 571.463C497.464 571.72 497.5 571.998 497.505 572.255L497.597 576.63L497.695 581.298C497.73 582.95 497.215 584.386 496.813 586.012C496.57 586.994 497.274 587.861 498.26 587.912C517.973 588.914 537.723 586.342 557.345 584.84C575.406 583.458 593.741 582.833 611.642 586.136C621.382 587.934 630.91 590.893 639.732 595.429C640.969 596.064 642.148 595.022 641.937 593.734C639.533 579.086 638.734 564.184 635.321 549.705C634.878 547.826 631.983 548.621 632.427 550.503C635.84 564.98 636.639 579.884 639.042 594.532L641.247 592.837C625.336 584.658 607.468 581.492 589.724 580.849C570.416 580.15 551.19 582.471 531.973 583.945C520.781 584.803 509.484 585.481 498.26 584.91L499.707 586.81C500.106 585.2 500.744 583.552 500.709 581.881L500.63 578.113C500.583 575.894 500.536 573.675 500.49 571.456L499.746 572.752C506.852 568.023 515.334 565.133 523.525 562.933C531.827 560.704 540.33 559.306 548.851 558.236C557.501 557.15 566.185 556.377 574.846 555.391C584.033 554.346 593.175 552.931 602.369 551.945C612.832 550.823 623.402 550.296 633.874 551.605C635.785 551.843 635.768 548.84 633.874 548.603Z" fill="black"/>
<path d="M372.644 550.365C372.199 540.173 367.098 530.483 359.7 523.458C352.301 516.433 342.754 511.935 332.845 509.504C321.341 506.682 308.86 506.607 297.969 511.265C284.651 516.96 274.789 529.575 271.368 543.65C266.441 563.919 274.86 581.695 285.743 598.151C291.501 606.857 298.654 614.611 303.969 623.594C308.023 630.447 310.941 637.903 313.73 645.361C332.087 694.441 347.421 744.902 363.054 794.897C365.281 802.019 367.547 809.136 369.632 816.305C370.872 820.569 372.425 824.38 374.284 828.444C374.723 829.403 375.192 830.402 376.03 831.043C376.942 831.743 378.144 831.906 379.285 832.046C384.176 832.645 389.1 833.212 394.036 833.102C398.434 833.003 404.076 832.468 408.089 830.627C407.544 828.48 404.673 816.126 409.391 816.443C410.461 816.515 411.199 817.511 411.772 818.418C413.535 821.213 415.194 824.073 416.743 826.992C417.074 827.615 417.427 828.271 418.03 828.637C418.587 828.977 419.272 829.014 419.925 829.031C428.626 829.258 437.276 827.601 445.691 825.373C448.07 824.743 450.445 824.065 452.712 823.108C463.147 818.704 473.605 808.494 472.849 796.25C472.529 791.082 469.781 786.046 465.417 783.259C462.944 781.68 460.08 780.847 457.261 780.033C451.228 778.292 445.137 776.522 439.65 773.468C427.446 766.675 427.107 757.897 424.479 745.519C420.534 726.931 416.153 708.435 411.344 690.051C401.69 653.139 390.478 616.486 376.167 581.093" fill="white"/>
<path d="M374.145 550.366C372.511 518.604 334.893 501.647 306.835 507.013C292.944 509.669 281.254 518.817 274.578 531.191C267.537 544.24 266.834 559.513 271.424 573.488C276.33 588.429 285.774 600.982 295.131 613.374C300.127 619.989 304.449 626.858 307.789 634.461C311.279 642.403 314.129 650.647 317.08 658.8C329.142 692.122 339.921 725.888 350.501 759.703C355.803 776.652 361.197 793.579 366.358 810.571C367.608 814.684 368.719 818.838 370.279 822.848C371.003 824.712 371.792 826.551 372.613 828.374C373.27 829.833 373.912 831.387 375.272 832.339C376.718 833.352 378.507 833.454 380.203 833.659C382.346 833.918 384.492 834.164 386.644 834.341C390.613 834.667 394.599 834.724 398.567 834.343C402.103 834.004 405.583 833.362 408.846 831.923C409.454 831.655 409.685 830.819 409.536 830.228C408.858 827.535 408.325 824.754 408.238 821.973C408.209 821.043 407.996 818.798 408.837 818.1C409.896 817.222 411.947 821.555 412.415 822.347C413.257 823.769 414.073 825.206 414.861 826.658C415.441 827.725 415.942 828.931 416.939 829.681C417.999 830.478 419.268 830.521 420.546 830.544C422.201 830.574 423.858 830.53 425.51 830.431C432.167 830.032 438.742 828.726 445.187 827.057C450.713 825.625 455.936 823.721 460.635 820.42C464.77 817.515 468.455 813.858 471.007 809.469C476.124 800.665 475.605 788.644 466.777 782.371C461.98 778.963 455.528 778.103 450.043 776.272C444.67 774.479 439.112 772.193 434.91 768.277C428.33 762.145 427.561 752.808 425.793 744.494C420.159 717.999 413.636 691.689 406.258 665.626C399.022 640.062 390.873 614.737 381.278 589.955C380.079 586.859 378.857 583.772 377.614 580.694C376.9 578.926 373.996 579.698 374.72 581.492C384.709 606.23 393.199 631.549 400.693 657.147C408.278 683.054 414.959 709.234 420.793 735.59C422.049 741.263 423.219 746.949 424.388 752.64C425.214 756.654 426.185 760.697 428.124 764.34C433.223 773.916 444.255 777.77 454.032 780.657C459.61 782.305 465.49 783.567 468.853 788.789C471.756 793.294 471.997 798.821 470.318 803.82C466.84 814.175 456.533 820.834 446.481 823.606C440.031 825.385 433.429 826.829 426.748 827.344C425.201 827.464 423.65 827.534 422.099 827.548C421.308 827.555 420.465 827.606 419.678 827.52C418.681 827.41 418.49 827.048 418.039 826.235C416.437 823.349 414.889 820.418 413.068 817.661C411.96 815.984 410.348 814.428 408.171 815.086C406.84 815.489 406.038 816.668 405.637 817.937C404.673 820.992 405.362 824.651 405.926 827.718C406.13 828.827 406.366 829.932 406.642 831.026L407.331 829.332C400.693 832.258 392.464 831.889 385.414 831.231C383.371 831.04 381.317 830.836 379.285 830.545C377.244 830.253 376.435 829.522 375.58 827.687C373.888 824.057 372.407 820.32 371.25 816.485C366.328 800.174 361.204 783.924 356.129 767.66C346.046 735.341 335.865 703.044 324.644 671.1C321.852 663.151 318.995 655.225 316.06 647.329C313.297 639.897 310.517 632.42 306.734 625.434C303.028 618.59 298.199 612.492 293.494 606.325C288.924 600.335 284.671 594.129 280.998 587.544C273.888 574.794 269.378 560.389 272.431 545.748C275.098 532.962 283.012 521.248 294.419 514.708C307.637 507.13 324.073 507.896 338.13 512.593C351.628 517.103 364.081 526.417 369.059 540.169C370.248 543.457 370.964 546.874 371.144 550.366C371.243 552.288 374.245 552.299 374.145 550.366Z" fill="black"/>
<path d="M321.571 560.579C312.291 561.355 302.965 562.121 293.646 561.727C289.676 561.559 285.787 560.658 281.941 559.72C280.044 559.258 278.149 558.795 276.238 558.422C274.655 558.114 273.137 557.664 271.487 557.85C271.357 557.864 271.218 557.886 271.119 557.972C270.999 558.078 270.97 558.25 270.951 558.408C270.536 561.796 271.308 565.212 272.253 568.491C273.503 572.827 275.067 577.073 276.927 581.185C277.091 581.546 277.263 581.916 277.545 582.195C277.906 582.553 278.407 582.725 278.889 582.885C280.414 582.885 282.572 584.122 284.027 584.611C285.783 585.201 287.619 585.622 289.42 586.092C291.945 586.751 294.474 587.411 297.049 587.829C300.02 588.312 303.033 588.471 306.017 588.863C313.649 589.866 321.15 592.03 328.846 591.919C337.148 591.798 345.433 590.842 353.557 589.138C360.219 587.741 366.774 585.842 373.158 583.481C386.785 578.441 399.983 571.192 409.369 560.1C412.902 555.925 415.923 551.05 416.566 545.619C416.645 544.953 416.675 544.228 416.31 543.664C415.507 542.422 413.615 542.867 412.249 543.435C383.722 555.296 352.357 558.006 321.571 560.579Z" fill="black"/>
<path d="M321.571 559.078C315.541 559.582 309.506 560.082 303.456 560.262C297.337 560.445 291.343 560.333 285.349 558.985C282.441 558.331 279.559 557.569 276.637 556.975C274.804 556.603 270.613 555.206 269.626 557.592C269.194 558.636 269.304 560.074 269.355 561.183C269.424 562.708 269.664 564.233 269.989 565.723C270.601 568.531 271.488 571.294 272.44 574.003C273.382 576.684 274.403 579.378 275.632 581.942C276.806 584.393 279.236 584.23 281.449 585.164C283.917 586.206 286.431 586.868 289.022 587.539C292.011 588.314 294.996 589.066 298.061 589.483C300.89 589.868 303.744 590.041 306.571 590.442C309.592 590.87 312.585 591.468 315.587 592.006C321.487 593.064 327.246 593.577 333.239 593.278C345.1 592.688 356.882 590.459 368.174 586.796C378.045 583.594 387.752 579.401 396.371 573.57C400.541 570.748 404.474 567.544 407.959 563.904C411.504 560.202 414.736 556.054 416.647 551.259C417.497 549.125 418.667 545.923 417.932 543.621C417.214 541.374 414.752 541.089 412.785 541.655C410.149 542.413 407.604 543.704 405.02 544.638C402.371 545.597 399.696 546.485 397.002 547.309C375.209 553.98 352.431 556.424 329.812 558.38C327.065 558.618 324.318 558.848 321.571 559.078C319.66 559.238 319.643 562.241 321.571 562.079C339.722 560.562 357.923 559.014 375.834 555.58C384.734 553.873 393.553 551.691 402.149 548.81C404.317 548.083 406.47 547.313 408.605 546.495C409.603 546.113 410.597 545.721 411.588 545.318C412.454 544.965 413.413 544.445 414.365 544.381C415.362 544.315 415.148 545.018 415.034 545.835C414.89 546.87 414.633 547.895 414.317 548.89C413.677 550.904 412.715 552.795 411.594 554.583C407.265 561.48 400.751 567.107 394.002 571.547C387.121 576.074 379.599 579.56 371.867 582.36C362.936 585.595 353.67 587.935 344.261 589.246C339.397 589.923 334.488 590.305 329.579 590.405C324.802 590.503 320.124 589.794 315.438 588.94C310.731 588.081 306.054 587.338 301.292 586.856C296.452 586.366 291.8 585.189 287.106 583.949C285.162 583.436 283.388 582.686 281.519 581.974C280.719 581.67 279.66 581.685 278.926 581.313C278.079 580.884 277.716 579.299 277.364 578.468C275.58 574.248 274.02 569.85 272.986 565.381C272.719 564.226 272.498 563.059 272.402 561.876C272.358 561.338 272.334 560.798 272.337 560.258C272.339 559.873 272.211 559.061 272.415 558.729L271.518 559.419C273.18 558.866 275.623 559.809 277.27 560.164C279.32 560.607 281.35 561.132 283.392 561.612C287.517 562.58 291.614 563.2 295.853 563.299C304.443 563.501 313.019 562.794 321.571 562.079C323.482 561.92 323.499 558.917 321.571 559.078Z" fill="black"/>
<path d="M646.162 359.438C626.879 328.341 605.723 295.318 579.388 270.969C573.044 265.103 565.226 259.753 556.595 260.163C550.274 260.463 544.415 263.91 540.037 268.479C535.658 273.048 532.577 278.685 529.764 284.354C512.792 318.554 502.156 356.233 491.267 392.741C482.629 421.7 474.698 450.869 467.483 480.215C463.804 495.175 460.312 510.182 457.007 525.229C454.121 538.373 450.051 553.086 454.459 566.43C459.95 583.056 476.734 581.148 490.808 580.459C522.75 578.895 554.399 573.935 585.895 568.598C626.536 561.711 667.418 554.079 705.405 538.615C720.111 532.629 728.387 523.225 725.502 506.182C721.611 483.204 705.25 460.964 694.126 440.89C681.521 418.145 668.577 395.582 654.86 373.486C651.996 368.873 649.101 364.178 646.162 359.438Z" fill="white"/>
<path d="M647.458 358.681C631.172 332.422 614.471 306.063 593.574 283.165C588.568 277.679 583.365 272.191 577.642 267.441C572.241 262.957 565.873 259.083 558.692 258.674C542.919 257.777 533.69 272.91 527.685 285.185C513.381 314.427 503.727 345.642 494.454 376.759C484.692 409.515 475.332 442.361 467.093 475.538C462.934 492.281 459.063 509.089 455.317 525.929C453.603 533.636 451.721 541.35 451.165 549.249C450.656 556.486 451.28 564.351 454.714 570.877C459.965 580.855 471.186 582.582 481.44 582.377C496.84 582.071 512.279 580.613 527.566 578.816C544.722 576.8 561.795 574.142 578.831 571.3C595.22 568.566 611.603 565.758 627.886 562.447C644.016 559.167 660.055 555.377 675.815 550.608C683.663 548.233 691.439 545.613 699.104 542.698C705.07 540.43 711.2 538.192 716.383 534.373C720.456 531.373 723.788 527.558 725.701 522.838C727.864 517.505 727.903 511.631 726.988 506.023C724.565 491.176 717.282 477.449 709.813 464.586C706.031 458.072 702.063 451.669 698.279 445.157C694.177 438.096 690.299 430.902 686.282 423.792C677.89 408.939 669.307 394.194 660.411 379.637C656.129 372.63 651.785 365.66 647.458 358.681C646.442 357.042 643.844 358.548 644.866 360.196C653.579 374.249 662.273 388.309 670.628 402.579C678.904 416.713 686.727 431.098 694.891 445.293C702.258 458.104 710.456 470.478 716.66 483.924C719.7 490.513 722.234 497.383 723.67 504.51C724.797 510.097 725.093 515.937 723.073 521.361C718.922 532.506 706.49 536.76 696.341 540.544C681.421 546.107 666.109 550.564 650.642 554.326C634.998 558.13 619.191 561.227 603.344 564.057C587.052 566.966 570.725 569.722 554.36 572.187C537.654 574.705 520.88 576.831 504.031 578.123C497.17 578.649 490.29 579.072 483.413 579.32C478.345 579.502 473.129 579.51 468.22 578.078C463.326 576.649 459.412 573.569 457.113 568.986C453.8 562.383 453.626 554.41 454.34 547.211C455.116 539.393 457.107 531.737 458.795 524.082C460.613 515.839 462.487 507.607 464.417 499.389C472.078 466.768 480.623 434.355 490.037 402.196C498.979 371.651 507.677 340.859 519.457 311.258C522.402 303.859 525.561 296.546 528.992 289.359C532.231 282.574 535.543 275.507 540.715 269.946C545.41 264.897 551.876 261.191 558.951 261.694C566.173 262.207 572.55 266.792 577.74 271.493C599.893 291.56 617.192 316.652 633.228 341.677C637.162 347.815 641.023 354 644.866 360.196C645.882 361.834 648.479 360.328 647.458 358.681Z" fill="black"/>
<path d="M329.315 574.501C409.022 574.501 473.638 509.885 473.638 430.178C473.638 350.471 409.022 285.855 329.315 285.855C249.608 285.855 184.992 350.471 184.992 430.178C184.992 509.885 249.608 574.501 329.315 574.501Z" fill="white"/>
<path d="M472.137 430.178C472.116 445.186 469.797 460.124 465.159 474.403C460.708 488.107 454.14 501.091 445.804 512.841C437.531 524.503 427.458 534.949 416.098 543.633C404.687 552.357 391.963 559.387 378.471 564.321C364.47 569.441 349.696 572.341 334.799 572.897C319.791 573.458 304.738 571.697 290.286 567.602C276.319 563.644 263.009 557.532 250.88 549.557C238.964 541.721 228.255 532.085 219.16 521.102C209.988 510.025 202.47 497.503 197.045 484.182C191.481 470.521 188.035 456.004 186.915 441.294C185.765 426.201 186.958 410.944 190.55 396.236C193.989 382.151 199.581 368.64 207.096 356.241C214.527 343.979 223.801 332.876 234.515 323.35C245.214 313.836 257.352 305.961 270.384 300.033C283.783 293.939 298.197 289.95 312.823 288.288C327.827 286.582 343.106 287.198 357.906 290.215C372.222 293.132 386.054 298.252 398.811 305.374C411.285 312.339 422.677 321.162 432.553 331.485C442.484 341.866 450.822 353.729 457.237 366.585C463.761 379.66 468.213 393.746 470.463 408.182C471.597 415.456 472.127 422.818 472.137 430.178C472.14 432.109 475.141 432.112 475.138 430.178C475.117 414.921 472.768 399.67 468.053 385.154C463.505 371.151 456.822 357.842 448.286 345.845C439.788 333.901 429.54 323.286 417.914 314.361C406.254 305.41 393.247 298.272 379.45 293.207C365.214 287.981 350.152 285.053 335.001 284.464C319.679 283.869 304.242 285.679 289.487 289.86C275.288 293.883 261.696 300.099 249.365 308.207C237.134 316.25 226.104 326.123 216.797 337.423C207.46 348.759 199.871 361.434 194.296 375.02C188.567 388.979 185.097 403.82 183.928 418.861C182.736 434.21 183.979 449.765 187.609 464.728C191.1 479.114 196.832 492.97 204.504 505.629C212.092 518.151 221.579 529.539 232.534 539.254C243.488 548.968 255.877 557.045 269.218 563.072C282.918 569.26 297.496 573.282 312.427 575.023C327.762 576.812 343.381 576.138 358.511 573.074C373.074 570.125 387.177 564.891 400.159 557.666C412.96 550.54 424.692 541.455 434.806 530.856C444.892 520.285 453.406 508.197 459.914 495.114C466.567 481.737 471.158 467.35 473.418 452.58C474.552 445.165 475.128 437.679 475.138 430.178C475.141 428.246 472.14 428.243 472.137 430.178Z" fill="black"/>
<path d="M535.522 471.991C499.659 492.498 458.008 501.762 416.698 502.168C392.206 502.409 367.748 499.621 343.774 494.706C321.747 490.19 299.065 484.727 279.059 474.368C275.454 472.501 268.682 468.485 264.365 470.535C258.851 473.153 260.691 481.67 265.495 483.925C259.995 483.98 254.508 485.198 249.501 487.474C246.172 488.988 242.849 491.208 241.582 494.638C240.315 498.067 242.203 502.754 245.838 503.148C242.668 504.246 239.539 506.526 238.964 509.831C238.389 513.137 241.881 516.854 244.924 515.44C242.238 516.488 240.784 519.931 241.911 522.585C243.038 525.238 246.532 526.582 249.144 525.363C244.682 527.445 245.848 534.771 248.799 537.366C253.076 541.127 256.693 537.229 261.064 535.868C271.684 532.563 283.541 531.8 294.58 532.818C305.741 533.846 317.423 538.892 328.435 541.542C409.523 561.058 495.403 560.923 577.072 544.864C586.546 543.002 595.976 540.914 605.35 538.604" fill="white"/>
<path d="M534.765 470.696C499.166 490.976 458.115 500.167 417.346 500.66C395.153 500.929 372.974 498.701 351.169 494.629C330.719 490.81 310.042 486.202 290.781 478.179C285.967 476.173 281.368 473.794 276.716 471.453C273.209 469.687 268.782 467.593 264.777 468.78C257.084 471.06 258.558 482.086 264.738 485.221L265.496 482.424C261.179 482.504 256.878 483.188 252.784 484.573C249.178 485.792 245.401 487.427 242.708 490.204C240.468 492.514 239.234 495.539 239.885 498.752C240.457 501.575 242.495 504.13 245.44 504.595V501.701C241.587 503.112 237.266 506.178 237.406 510.782C237.522 514.615 241.435 518.379 245.323 516.887L244.166 514.144C240.858 515.634 239.1 519.778 240.54 523.163C241.977 526.541 246.173 528.176 249.543 526.81L248.387 524.067C240.944 527.912 245.477 541.685 253.806 540.351C256.459 539.926 258.686 538.263 261.191 537.407C264.082 536.418 267.116 535.754 270.118 535.211C276.337 534.087 282.692 533.736 289.002 533.962C295.258 534.186 301.272 535.21 307.297 536.891C313.305 538.566 319.196 540.636 325.217 542.266C337.723 545.651 350.582 548.049 363.348 550.211C388.807 554.522 414.569 557.022 440.377 557.803C466.426 558.591 492.524 557.636 518.455 555.046C544.491 552.445 570.379 548.233 595.886 542.395C599.18 541.641 602.468 540.858 605.749 540.051C607.624 539.59 606.83 536.695 604.951 537.157C580.227 543.235 555.128 547.801 529.844 550.8C505.004 553.747 479.983 555.196 454.968 555.061C429.758 554.925 404.54 553.192 379.57 549.7C367.208 547.971 354.904 545.819 342.693 543.231C336.692 541.959 330.661 540.686 324.754 539.024C318.955 537.392 313.261 535.409 307.45 533.818C296.087 530.709 284.273 530.164 272.612 531.792C266.996 532.576 261.512 533.822 256.387 536.279C253.957 537.445 251.431 538.175 249.386 535.831C248.262 534.543 247.723 532.651 247.688 530.971C247.65 529.151 248.222 527.527 249.901 526.659C251.383 525.893 250.338 523.27 248.745 523.916C246.755 524.723 244.211 524.125 243.305 521.997C242.404 519.879 243.723 517.617 245.681 516.736C247.215 516.045 246.116 513.383 244.525 513.993C242.026 514.951 239.978 512.006 240.523 509.717C241.148 507.09 243.892 505.454 246.238 504.595C247.469 504.144 247.846 501.955 246.238 501.701C243.878 501.328 242.628 499.076 242.69 496.802C242.764 494.063 244.928 491.898 247.087 490.489C252.422 487.005 259.203 485.542 265.496 485.425C266.913 485.399 267.63 483.328 266.253 482.629C263.599 481.283 262.007 478.009 262.587 475.068C263.39 470.997 267.705 471.15 270.847 472.175C274.489 473.364 277.805 475.464 281.233 477.138C285.687 479.313 290.253 481.26 294.885 483.023C313.616 490.155 333.487 494.505 353.177 498.037C393.44 505.259 435.061 506.116 475.079 496.891C496.463 491.962 517.198 484.158 536.28 473.287C537.958 472.331 536.447 469.737 534.765 470.696Z" fill="black"/>
<path d="M333.235 431.967C369.098 452.474 410.749 461.737 452.059 462.144C476.551 462.385 501.008 459.597 524.983 454.681C547.009 450.165 569.692 444.703 589.698 434.344C593.303 432.477 600.075 428.46 604.392 430.511C609.905 433.129 608.066 441.646 603.261 443.9C608.762 443.956 614.248 445.173 619.256 447.45C622.584 448.963 625.908 451.184 627.175 454.613C628.442 458.043 626.553 462.729 622.918 463.124C626.089 464.221 629.218 466.502 629.793 469.807C630.368 473.112 626.875 476.83 623.833 475.416C626.518 476.463 627.972 479.907 626.846 482.56C625.719 485.213 622.225 486.557 619.613 485.339C624.075 487.42 622.909 494.747 619.958 497.342C615.681 501.103 612.063 497.204 607.693 495.844C597.073 492.538 585.215 491.775 574.176 492.793C563.016 493.822 551.334 498.868 540.322 501.518C516.442 507.265 492.154 511.32 467.701 513.632C435.98 516.632 403.821 516.689 372.427 511.241C341.034 505.792 310.367 494.702 284.105 476.661" fill="white"/>
<path d="M332.477 433.263C366.57 452.689 405.645 462.091 444.695 463.478C465.92 464.231 487.188 462.607 508.149 459.27C528.226 456.075 548.492 451.805 567.747 445.211C572.981 443.418 578.142 441.41 583.189 439.144C587.505 437.206 591.594 434.745 595.942 432.893C599.081 431.556 604.474 429.99 605.988 434.362C607.048 437.422 605.324 441.181 602.504 442.605C601.126 443.3 601.844 445.375 603.261 445.401C609.564 445.516 616.421 446.982 621.749 450.513C623.848 451.904 625.954 454.023 626.065 456.692C626.16 458.995 624.91 461.303 622.519 461.676C620.913 461.927 621.288 464.121 622.519 464.571C624.948 465.458 627.82 467.196 628.293 469.979C628.672 472.21 626.58 474.885 624.232 473.969C622.662 473.356 621.523 476.018 623.076 476.711C625.089 477.611 626.46 480.057 625.363 482.191C624.357 484.149 621.922 484.677 620.012 483.892C618.44 483.245 617.355 485.864 618.855 486.634C622.049 488.276 621.446 493.171 619.53 495.619C617.848 497.769 615.515 497.658 613.239 496.664C610.918 495.65 608.764 494.56 606.311 493.869C595.343 490.782 583.367 490.053 572.078 491.532C560.596 493.036 549.824 497.717 538.608 500.386C526.332 503.306 513.949 505.781 501.493 507.8C476.675 511.824 451.491 514.188 426.337 514.165C402.068 514.142 377.74 511.753 354.166 505.852C332.294 500.376 311.114 491.93 291.945 479.998C289.549 478.507 287.191 476.958 284.862 475.365C283.265 474.271 281.762 476.871 283.348 477.956C302.603 491.138 324.196 500.667 346.633 506.959C370.682 513.703 395.676 516.706 420.614 517.117C446.705 517.546 472.848 515.266 498.618 511.276C511.534 509.276 524.374 506.789 537.102 503.822C543.105 502.423 548.967 500.664 554.85 498.837C560.684 497.025 566.599 495.22 572.679 494.456C578.65 493.706 584.784 493.69 590.777 494.172C596.644 494.645 603.135 495.457 608.597 497.778C610.778 498.705 612.838 500.068 615.235 500.363C617.528 500.645 619.768 499.738 621.359 498.072C623.751 495.566 624.736 491.292 623.669 487.995C623.111 486.272 621.988 484.874 620.37 484.043L619.214 486.785C622.51 488.141 626.637 486.57 628.141 483.317C629.714 479.917 627.963 475.627 624.59 474.12L623.434 476.862C627.27 478.36 631.153 474.66 631.338 470.892C631.566 466.227 627.221 463.102 623.317 461.676V464.57C626.23 464.116 628.276 461.588 628.862 458.795C629.545 455.537 628.283 452.464 626.006 450.131C623.424 447.487 619.848 445.908 616.417 444.702C612.19 443.217 607.735 442.481 603.261 442.399L604.019 445.196C609.392 442.483 611.534 433.623 606.155 429.813C603.035 427.603 598.991 428.467 595.691 429.773C591.829 431.302 588.242 433.475 584.493 435.251C565.763 444.126 545.399 448.954 525.19 453.109C483.245 461.734 439.629 463.799 397.58 454.667C375.34 449.838 353.784 441.949 333.992 430.671C332.311 429.713 330.797 432.306 332.477 433.263Z" fill="black"/>
<path d="M216.578 457.651C215.54 464.181 204.801 464.768 200.001 463.936C187.404 461.754 175.577 453.598 172.994 440.676C170.237 426.879 172.874 412.001 180.493 400.14C182.064 397.696 183.957 395.275 186.635 394.15C187.054 393.974 187.512 393.831 187.957 393.921C188.974 394.128 189.364 395.367 189.445 396.401C189.696 399.625 188.929 403.245 190.89 405.817C192.471 407.891 195.535 408.759 196.419 411.213C197.112 413.138 196.032 415.398 194.29 416.471C192.548 417.544 190.33 417.595 188.348 417.084C189.336 417.339 190.811 420.043 192.704 420.521C194.977 421.095 197.693 421.058 200.059 421.379C203.415 421.836 206.733 422.576 209.964 423.591C211.772 424.159 213.794 425.061 214.281 426.892C214.821 428.92 213.167 430.832 211.562 432.184C213.415 432.352 215.203 433.167 216.545 434.457C217.235 435.121 217.828 435.952 217.943 436.903C218.098 438.191 217.352 439.425 216.452 440.36C215.385 441.469 214.06 442.328 212.612 442.849C213.98 443.313 215.248 444.069 216.307 445.051C216.838 445.545 217.329 446.113 217.566 446.798C218.023 448.115 217.435 449.614 216.461 450.611C215.486 451.608 214.185 452.206 212.912 452.775C215.198 452.913 216.938 455.389 216.578 457.651Z" fill="white"/>
<path d="M215.131 457.252C214.562 460.405 211.443 461.659 208.621 462.264C205.601 462.912 202.386 462.901 199.361 462.295C191.216 460.666 183.144 456.447 178.347 449.48C175.828 445.823 174.569 441.76 173.945 437.395C173.237 432.432 173.245 427.317 173.931 422.352C174.637 417.25 176.057 412.194 178.192 407.504C179.232 405.22 180.432 403.008 181.789 400.898C183.058 398.925 184.552 396.891 186.681 395.784C187.257 395.485 187.559 395.222 187.833 395.848C188.055 396.356 187.986 397.039 187.997 397.576C188.026 398.965 187.944 400.356 188.051 401.743C188.253 404.36 189.157 406.585 191.235 408.251C192.632 409.371 195.416 410.615 195.115 412.795C194.698 415.812 191.12 416.199 188.747 415.637C186.843 415.187 186.155 417.87 187.949 418.532C188.389 418.694 189.242 419.928 189.694 420.352C190.578 421.18 191.522 421.79 192.711 422.064C195.726 422.759 198.893 422.648 201.942 423.182C204.837 423.689 207.959 424.271 210.673 425.432C211.606 425.831 212.853 426.478 212.884 427.647C212.922 429.066 211.466 430.29 210.501 431.124C209.406 432.07 210.401 433.551 211.562 433.685C213.245 433.88 216.059 435.039 216.431 436.951C216.832 439.01 213.762 440.808 212.213 441.402C210.817 441.938 210.769 443.775 212.213 444.296C213.541 444.776 216.175 446.056 216.219 447.732C216.273 449.779 213.663 450.801 212.155 451.479C210.64 452.16 211.62 454.134 212.912 454.276C214.528 454.453 215.239 456.248 215.077 457.651C214.857 459.567 217.86 459.551 218.079 457.651C218.447 454.449 216.049 451.618 212.912 451.274L213.669 454.071C216.427 452.831 219.519 450.797 219.19 447.331C218.901 444.287 215.599 442.337 213.011 441.402V444.296C216.058 443.127 220.043 440.279 219.39 436.504C218.78 432.979 214.748 431.052 211.562 430.684L212.623 433.246C214.965 431.222 217.13 427.965 215.001 424.989C213.153 422.406 209.232 421.725 206.357 421.037C202.667 420.155 198.995 419.862 195.242 419.443C193.675 419.268 192.587 419.019 191.47 417.889C190.626 417.035 189.909 416.066 188.747 415.637L187.949 418.532C190.73 419.19 193.813 419.001 196.034 417.019C197.874 415.376 198.684 412.632 197.669 410.336C196.653 408.037 194.316 407.136 192.606 405.482C190.602 403.545 191.026 400.509 191.003 397.973C190.983 395.722 190.555 392.243 187.51 392.401C184.801 392.541 182.343 395.12 180.798 397.111C177.277 401.649 174.777 407.133 173.061 412.589C171.308 418.16 170.426 424.037 170.429 429.876C170.432 435.382 171.016 441.211 173.192 446.316C177.091 455.463 185.803 461.623 195.142 464.35C199.516 465.628 203.941 466.091 208.454 465.342C212.555 464.661 217.205 462.589 218.025 458.05C218.366 456.162 215.475 455.351 215.131 457.252Z" fill="black"/>
<path d="M665.034 457.082C668.758 462.546 678.722 458.498 682.71 455.699C693.173 448.356 700.395 435.935 697.222 423.146C693.834 409.489 685.106 397.156 673.156 389.676C670.694 388.134 667.949 386.751 665.047 386.875C664.593 386.895 664.117 386.96 663.753 387.232C662.922 387.853 663.097 389.139 663.465 390.109C664.612 393.133 666.849 396.081 666.172 399.242C665.626 401.793 663.224 403.884 663.471 406.481C664.037 412.427 671.411 409.57 674.165 407.399C674.792 408.913 673.402 410.466 672.087 411.444C666.267 415.77 659.141 418.486 654.403 423.976C653.925 424.531 653.46 425.14 653.324 425.86C652.986 427.638 656.476 433.221 658.713 431.908C657.109 432.85 655.84 434.35 655.176 436.087C654.834 436.982 654.653 437.987 654.954 438.896C655.363 440.128 656.564 440.925 657.776 441.387C659.214 441.936 660.779 442.148 662.311 442.002C661.272 443.005 660.447 444.229 659.908 445.569C659.638 446.242 659.436 446.965 659.513 447.686C659.662 449.072 660.833 450.177 662.139 450.664C663.446 451.15 664.878 451.136 666.272 451.108C664.263 452.208 663.745 455.189 665.034 457.082Z" fill="white"/>
<path d="M663.739 457.839C666.492 461.685 671.324 461.749 675.522 460.621C679.901 459.443 683.698 457.115 687.097 454.159C695.379 446.956 700.849 436.179 699.13 425.044C698.291 419.616 696.082 414.229 693.49 409.417C690.799 404.423 687.346 399.805 683.308 395.82C681.378 393.915 679.303 392.165 677.12 390.558C674.701 388.778 672.11 387.048 669.257 386.053C667.008 385.269 662.722 384.474 661.808 387.545C661.05 390.091 663.135 392.799 664.056 395.023C664.684 396.54 665.079 398.105 664.472 399.696C663.935 401.101 662.999 402.321 662.448 403.726C661.589 405.913 661.853 408.744 663.724 410.349C666.821 413.007 672.142 410.836 674.922 408.695L672.718 407.798C673.239 409.455 670.149 411.013 669.008 411.759C667.31 412.869 665.557 413.891 663.816 414.93C660.39 416.976 656.935 419.127 654.153 422.025C653.037 423.188 651.729 424.588 651.809 426.319C651.868 427.577 652.489 428.841 653.135 429.892C654.419 431.982 656.802 434.549 659.47 433.204L657.955 430.613C655.28 432.268 652.576 435.748 653.457 439.097C654.403 442.7 659.121 443.732 662.311 443.503L661.25 440.941C659.231 442.966 657.072 446.362 658.44 449.269C659.853 452.274 663.335 452.661 666.271 452.609L665.514 449.812C662.786 451.475 662.073 455.163 663.739 457.839C664.757 459.476 667.355 457.971 666.33 456.325C665.538 455.052 665.665 453.235 667.029 452.404C668.273 451.646 667.791 449.58 666.271 449.607C664.68 449.636 662.039 449.804 661.182 448.06C660.392 446.451 662.32 444.118 663.372 443.063C664.24 442.192 663.645 440.405 662.311 440.501C660.614 440.623 656.897 440.442 656.354 438.298C655.857 436.333 657.98 434.126 659.47 433.204C661.123 432.181 659.674 429.746 657.955 430.613C658.004 430.588 658.294 430.684 657.849 430.574C657.724 430.544 657.553 430.423 657.446 430.354C657.031 430.088 656.676 429.681 656.369 429.301C655.727 428.51 655.074 427.494 654.859 426.482C654.645 425.468 656.101 424.299 656.838 423.58C658.084 422.367 659.453 421.298 660.887 420.316C663.784 418.334 666.882 416.671 669.842 414.789C672.414 413.154 676.776 410.704 675.611 407C675.353 406.178 674.214 405.481 673.407 406.103C672.285 406.967 671.002 407.645 669.654 408.08C668.561 408.433 666.952 408.886 665.881 408.223C664.473 407.353 664.958 405.274 665.567 404.08C666.621 402.011 667.916 400.11 667.787 397.678C667.648 395.071 666.266 392.809 665.234 390.483C665.023 390.009 664.774 389.494 664.694 388.977C664.602 388.376 664.602 388.514 665.046 388.376C666.268 387.998 668.216 388.805 669.316 389.284C673.74 391.21 677.778 394.58 681.185 397.942C688.133 404.799 693.179 413.532 695.631 422.982C698.082 432.425 694.6 441.942 688.137 448.964C685.076 452.289 681.459 455.255 677.211 456.906C674.093 458.118 668.723 459.668 666.33 456.325C665.215 454.768 662.611 456.264 663.739 457.839Z" fill="black"/>
<path d="M674.654 399.676C675.803 403.56 673.482 407.257 671.307 410.289C670.834 410.948 671.192 411.96 671.846 412.343C672.601 412.784 673.425 412.465 673.899 411.804C676.568 408.083 678.938 403.576 677.548 398.878C677.001 397.03 674.104 397.817 674.654 399.676Z" fill="black"/>
<path d="M181.835 411.885C182.365 415.311 185.486 417.371 188.241 418.977C188.919 419.373 189.915 419.156 190.294 418.439C190.674 417.72 190.48 416.808 189.755 416.386C189.125 416.018 188.495 415.65 187.886 415.248C187.735 415.148 187.584 415.045 187.436 414.94C187.346 414.877 187.259 414.812 187.171 414.748C186.991 414.618 187.202 414.731 187.214 414.785C187.194 414.691 186.875 414.511 186.792 414.44C186.644 414.312 186.5 414.181 186.36 414.045C186.119 413.813 185.906 413.561 185.685 413.31C185.556 413.164 185.899 413.61 185.705 413.338C185.657 413.27 185.608 413.203 185.561 413.135C185.467 412.998 185.378 412.858 185.294 412.715C185.211 412.572 185.133 412.426 185.061 412.278C185.044 412.241 184.945 412.096 184.958 412.053C184.937 412.118 185.081 412.363 184.983 412.091C184.865 411.765 184.782 411.43 184.729 411.087C184.675 410.74 184.329 410.36 184.039 410.19C183.718 410.002 183.244 409.922 182.883 410.039C182.036 410.313 181.706 411.051 181.835 411.885Z" fill="black"/>
<path d="M538.806 360.827C544.678 355.779 553.545 354.654 560.493 358.07C562.22 358.919 563.743 356.331 562.008 355.478C553.776 351.431 543.637 352.726 536.684 358.705C535.217 359.966 537.348 362.081 538.806 360.827Z" fill="black"/>
<path d="M540.715 378.658C545.007 375.295 551.761 375.366 555.995 378.787C556.625 379.296 557.502 379.403 558.118 378.787C558.644 378.261 558.751 377.177 558.118 376.665C552.494 372.121 544.276 372.082 538.593 376.536C537.954 377.037 538.068 378.134 538.593 378.658C539.223 379.289 540.075 379.16 540.715 378.658Z" fill="black"/>
<path d="M501.041 372.179L501.197 372.152C501.087 372.164 501.085 372.164 501.192 372.152C501.323 372.136 501.454 372.124 501.586 372.114C501.823 372.095 502.06 372.086 502.298 372.085C502.695 372.082 503.346 372.123 503.597 372.159C503.889 372.2 504.527 372.34 504.946 372.462C505.175 372.529 505.401 372.603 505.625 372.683C505.75 372.728 505.874 372.775 505.996 372.825C505.819 372.753 506.093 372.868 506.148 372.894C507.915 373.708 509.291 374.87 510.253 376.419C510.681 377.107 511.593 377.374 512.306 376.957C512.993 376.556 513.274 375.595 512.845 374.904C510.207 370.66 505.141 368.465 500.243 369.284C499.443 369.418 498.996 370.407 499.195 371.13C499.428 371.979 500.238 372.313 501.041 372.179Z" fill="black"/>
<path d="M414.469 360.296C406.328 356.046 396.171 357.149 389.079 362.951C387.584 364.175 389.718 366.287 391.202 365.073C397.203 360.163 406.099 359.309 412.954 362.887C414.665 363.78 416.184 361.191 414.469 360.296Z" fill="black"/>
<path d="M416.657 378.095C410.352 375.154 402.248 376.846 397.919 382.405C397.422 383.044 397.296 383.904 397.919 384.527C398.437 385.045 399.541 385.17 400.042 384.527C403.493 380.094 409.97 378.274 415.142 380.686C415.876 381.029 416.76 380.893 417.195 380.148C417.575 379.498 417.395 378.439 416.657 378.095Z" fill="black"/>
<path d="M452.335 362.349C447.378 362.657 442.975 366.02 441.385 370.728C441.133 371.472 441.674 372.401 442.433 372.574C443.264 372.763 444.009 372.322 444.279 371.526C444.322 371.396 444.367 371.267 444.415 371.139C444.427 371.107 444.566 370.771 444.493 370.939C444.429 371.086 444.594 370.726 444.614 370.684C444.663 370.582 444.714 370.481 444.767 370.38C445 369.937 445.269 369.518 445.558 369.109C445.813 368.748 445.374 369.323 445.654 368.98C445.726 368.892 445.798 368.804 445.872 368.718C446.035 368.528 446.204 368.344 446.38 368.166C446.555 367.987 446.737 367.815 446.924 367.649C447.009 367.573 447.095 367.499 447.182 367.426C447.199 367.412 447.546 367.138 447.306 367.321C447.704 367.018 448.125 366.743 448.561 366.497C448.759 366.386 448.961 366.28 449.165 366.181C449.288 366.121 449.412 366.065 449.537 366.009C449.297 366.117 449.609 365.982 449.682 365.954C450.128 365.784 450.585 365.645 451.049 365.538C451.293 365.481 451.538 365.442 451.784 365.396C451.455 365.457 451.887 365.386 451.927 365.382C452.063 365.368 452.199 365.359 452.335 365.35C453.117 365.302 453.874 364.695 453.836 363.85C453.801 363.078 453.174 362.297 452.335 362.349Z" fill="black"/>
<path d="M474.35 796.25C474.054 792.221 472.59 788.425 469.996 785.315C467.137 781.886 463.11 780.197 458.93 778.956C450.422 776.43 440.812 774.195 434.318 767.705C431.605 764.994 429.904 761.64 428.783 758.004C428.567 757.302 427.707 756.636 426.937 756.956C409.653 764.148 391.507 769.21 372.988 771.959C367.626 772.755 362.277 773.312 356.864 773.554C355.925 773.596 355.114 774.483 355.417 775.453C359.337 788.032 363.379 800.578 367.151 813.201C368.055 816.225 368.912 819.253 370.032 822.206C371.075 824.954 372.125 827.907 373.612 830.448C375.154 833.083 377.734 833.362 380.509 833.695C383.856 834.098 387.212 834.461 390.583 834.577C396.656 834.786 403.227 834.422 408.846 831.923C409.453 831.653 409.685 830.82 409.536 830.228C409.119 828.573 408.78 826.892 408.534 825.203C408.247 823.223 407.935 820.944 408.462 818.979C408.563 818.602 408.602 818.446 408.811 818.141C408.906 818.003 408.996 817.923 409.138 817.934C409.341 817.949 409.868 818.306 410.174 818.719C410.838 819.618 411.386 820.63 411.962 821.586C413.097 823.474 414.183 825.391 415.225 827.333C416.133 829.023 417.106 830.271 419.137 830.483C423.464 830.935 428.075 830.327 432.358 829.712C436.832 829.069 441.252 828.088 445.622 826.943C452.911 825.034 459.56 822.014 465.101 816.804C470.764 811.479 474.766 804.192 474.35 796.25C474.249 794.328 471.247 794.316 471.348 796.25C471.722 803.375 468.169 809.754 463.114 814.553C460.607 816.933 457.755 818.926 454.691 820.522C450.992 822.449 446.976 823.524 442.949 824.529C438.543 825.628 434.077 826.558 429.563 827.073C427.325 827.329 425.075 827.492 422.823 827.537C421.746 827.559 420.604 827.639 419.531 827.515C418.504 827.395 418.268 826.658 417.817 825.818C416.775 823.877 415.689 821.96 414.553 820.072C413.622 818.523 412.699 816.487 411.114 815.489C408.966 814.136 406.59 815.4 405.767 817.574C404.91 819.835 405.185 822.521 405.484 824.864C405.749 826.938 406.131 828.998 406.642 831.026L407.332 829.331C402.734 831.376 397.273 831.651 392.309 831.612C389.265 831.589 386.229 831.335 383.205 831.005C381.778 830.85 380.336 830.721 378.918 830.496C377.432 830.26 376.61 829.767 375.92 828.407C373.301 823.238 371.631 817.698 369.976 812.17C368.208 806.262 366.342 800.384 364.501 794.498C362.433 787.885 360.373 781.27 358.311 774.655L356.864 776.555C375.761 775.709 394.717 771.541 412.619 765.532C417.724 763.819 422.764 761.918 427.735 759.85L425.889 758.802C426.875 762.001 428.251 765.041 430.317 767.692C432.715 770.767 435.885 773.133 439.295 774.984C443.448 777.239 447.938 778.811 452.447 780.183C456.742 781.489 461.576 782.308 465.287 784.978C468.872 787.557 471.029 791.894 471.348 796.25C471.489 798.165 474.491 798.18 474.35 796.25Z" fill="black"/>
<path d="M268.606 684.227C264.58 686.146 260.689 688.418 257.025 690.96C255.257 692.186 254.06 693.577 253.862 695.804C253.665 698.017 253.941 700.338 254.066 702.55C254.316 706.943 254.802 711.321 255.793 715.612C256.666 719.392 257.869 723.243 260.002 726.517C260.486 727.259 261.277 727.389 262.055 727.055C262.397 726.909 261.904 727.114 262.339 726.937C262.593 726.833 262.847 726.73 263.102 726.63C263.838 726.341 264.58 726.067 265.328 725.81C266.946 725.254 268.597 724.762 270.282 724.457C271.383 724.257 273.089 724.026 273.871 724.582C273.914 724.613 273.969 724.667 273.977 724.728C273.99 724.817 274.007 725.071 273.863 725.363C273.598 725.904 272.964 726.327 272.52 726.717C271.81 727.34 271.091 727.952 270.367 728.557C269.16 729.567 267.936 730.556 266.693 731.521C265.612 732.359 264.292 733.115 263.617 734.348C262.98 735.512 263.184 736.803 263.361 738.055C263.601 739.745 263.909 741.425 264.28 743.092C265.66 749.299 267.874 755.276 270.384 761.106C272.655 766.379 275.255 771.293 279.192 775.523C282.756 779.354 287.084 782.52 291.956 784.466C296.774 786.391 302.309 786.919 307.303 785.333C312.117 783.804 316.365 780.292 318.426 775.64C319.798 772.542 320.173 769.18 320.584 765.851C321.03 762.241 321.496 758.629 322.261 755.07C323.574 748.954 325.738 742.83 330.459 738.51C330.931 738.078 331.038 737.232 330.694 736.691C320.718 721.05 313.104 703.624 309.554 685.363C308.478 679.829 307.784 674.235 307.241 668.626C307.159 667.774 306.33 666.774 305.342 667.179C299.455 669.594 293.533 671.944 287.834 674.782C281.442 677.966 275.06 681.17 268.606 684.227C266.861 685.053 268.382 687.641 270.12 686.818C276.428 683.831 282.667 680.703 288.913 677.591C294.528 674.793 300.339 672.453 306.14 670.073L304.24 668.626C305.201 678.569 306.735 688.4 309.58 697.991C312.257 707.014 315.803 715.786 320.068 724.174C322.512 728.982 325.202 733.659 328.102 738.206L328.337 736.388C319.281 744.675 318.97 757.711 317.165 768.981C316.726 771.724 316.004 774.391 314.4 776.696C312.997 778.711 311.047 780.321 308.878 781.451C304.235 783.872 298.667 783.677 293.827 781.975C288.889 780.238 284.556 776.956 281.053 773.117C277.099 768.783 274.637 763.598 272.398 758.229C269.948 752.355 267.874 746.283 266.708 740.014C266.566 739.251 266.435 738.486 266.322 737.718C266.238 737.142 266.03 736.421 266.23 735.862C266.425 735.316 267.139 734.931 267.576 734.598C268.241 734.09 268.902 733.578 269.558 733.061C270.794 732.086 272.012 731.089 273.211 730.071C274.305 729.142 275.555 728.238 276.353 727.026C277.465 725.338 277.102 723.008 275.321 721.948C273.81 721.048 271.884 721.2 270.22 721.444C266.878 721.933 263.633 723.136 260.541 724.463L262.594 725.002C260.663 722.038 259.588 718.613 258.776 715.196C257.863 711.35 257.377 707.445 257.125 703.503C256.989 701.377 256.866 699.239 256.832 697.108C256.818 696.238 256.794 695.325 257.328 694.587C257.874 693.833 258.873 693.324 259.636 692.822C263.007 690.605 266.476 688.556 270.12 686.818C271.863 685.987 270.342 683.399 268.606 684.227Z" fill="black"/>
<path d="M292.708 572.446C297.617 584.83 306.558 594.802 313.576 605.958C321.053 617.842 326.437 630.869 331.306 643.994C341.497 671.465 351.348 699.139 360.107 727.103C365.074 742.961 369.603 758.96 373.422 775.135C373.865 777.015 376.76 776.219 376.316 774.338C369.491 745.424 360.384 717.116 350.613 689.08C345.819 675.325 340.907 661.609 335.932 647.919C331.166 634.801 326.115 621.692 319.206 609.528C315.512 603.024 311.133 596.999 306.823 590.899C302.536 584.834 298.352 578.586 295.602 571.649C294.898 569.874 291.995 570.648 292.708 572.446Z" fill="black"/>
<path d="M326.51 575.835C327.683 581.767 330.384 587.224 333.376 592.431C336.493 597.856 339.786 603.149 342.525 608.784C348.173 620.406 352.189 632.728 356.133 645.007C364.562 671.25 372.305 697.706 379.98 724.178C384.331 739.187 388.676 754.199 393.023 769.209C393.56 771.061 396.457 770.273 395.918 768.411C388.218 741.828 380.603 715.219 372.718 688.69C368.769 675.401 364.733 662.137 360.534 648.925C356.609 636.577 352.697 624.175 347.452 612.309C344.575 605.802 341.129 599.661 337.507 593.547C334.055 587.72 330.732 581.75 329.404 575.037C329.03 573.144 326.136 573.945 326.51 575.835Z" fill="black"/>
<path d="M348.973 572.904C361.763 595.951 371.851 620.39 380.293 645.334C388.855 670.631 395.753 696.459 402.012 722.411C405.474 736.765 408.736 751.167 411.976 765.573C412.4 767.456 415.294 766.659 414.871 764.775C409.029 738.801 403.107 712.834 396.096 687.145C389.086 661.457 381.008 636.031 370.783 611.439C365.094 597.757 358.756 584.347 351.565 571.389C350.627 569.7 348.034 571.212 348.973 572.904Z" fill="black"/>
<path d="M568.754 642.306C567.742 646.952 563.115 665.112 561.57 669.609C561.528 663.786 560.83 657.968 559.492 652.3C556.776 640.799 551.455 629.971 549.54 618.31C548.654 612.918 548.514 607.405 549.124 601.975L568.754 642.306Z" fill="black"/>
<path d="M567.307 641.907C566.3 646.503 565.098 651.062 563.915 655.615C562.735 660.156 561.637 664.766 560.123 669.211L563.071 669.61C562.977 660.503 561.212 651.687 558.401 643.049C555.674 634.671 552.348 626.416 550.949 617.673C550.119 612.488 550.06 607.191 550.625 601.975L547.828 602.733C550.045 607.286 552.261 611.84 554.477 616.394C557.991 623.613 561.505 630.832 565.019 638.051C565.832 639.722 566.645 641.393 567.458 643.064C568.304 644.8 570.893 643.28 570.05 641.549C567.834 636.995 565.617 632.442 563.401 627.888C559.887 620.669 556.373 613.45 552.86 606.231C552.046 604.56 551.233 602.889 550.42 601.218C549.7 599.738 547.766 600.654 547.623 601.975C546.647 610.994 547.848 619.876 550.428 628.535C552.955 637.016 556.411 645.219 558.314 653.882C559.449 659.053 560.015 664.317 560.069 669.609C560.087 671.347 562.479 671.588 563.017 670.008C564.531 665.564 565.629 660.954 566.809 656.413C567.992 651.86 569.194 647.301 570.201 642.705C570.614 640.822 567.721 640.019 567.307 641.907Z" fill="black"/>
<path d="M480.04 324.427C480.028 324.447 480.017 324.467 480.005 324.486C478.252 327.481 476.399 330.458 475.297 333.749C474.195 337.039 473.905 340.743 475.287 343.926C471.923 343.386 468.997 340.723 468.143 337.425C467.333 334.298 468.279 331.021 469.091 327.895C469.902 324.769 470.561 321.348 469.245 318.398C467.007 313.383 461.927 315.69 457.808 314.959C456.426 314.714 454.99 314.247 454.098 313.164C452.945 311.763 453.008 309.758 453.13 307.948C453.404 303.866 455.015 300.691 455.805 296.913C456.545 293.366 457.803 292.241 452.06 291.988C422.973 290.708 393.528 285.5 367.812 271.848C360.044 267.724 352.574 262.774 346.807 256.135C341.039 249.497 337.073 241.003 337.122 232.209C337.155 226.148 339.066 220.227 341.703 214.77C352.469 192.487 375.032 177.668 398.815 170.824C422.597 163.98 447.77 164.121 472.505 164.897C479.993 165.132 486.203 167.985 493.372 169.211C501.761 170.645 510.013 172.482 517.943 175.646C530.855 180.799 542.768 189.349 549.9 201.283C557.032 213.218 558.775 228.763 552.485 241.162C548.996 248.042 543.344 253.585 537.333 258.42C517.894 274.052 483.648 278.915 478.04 307.058C477.005 312.253 482.66 312.803 482.53 317.688C482.466 320.109 481.263 322.335 480.04 324.427Z" fill="#B78437"/>
<path d="M502.946 204.027C495.883 195.303 483.118 194.354 473.277 198.367C463.608 202.31 455.77 209.733 448.647 217.252C446.619 214.999 444.539 212.815 442.289 210.871C434.09 203.788 423.73 198.267 412.563 199.508C401.392 200.749 391.485 207.491 388.016 218.478C384.654 229.123 388.843 240.422 398.224 246.363C407.821 252.44 419.609 251.526 429.642 247.151C436.932 243.972 442.94 239.059 448.504 233.6C451.63 236.873 454.947 239.937 458.847 242.378C473.122 250.864 496.726 246.904 505.331 231.945C510.356 223.209 509.235 211.797 502.946 204.027ZM422.711 237.893C420.571 238.639 417.981 239.294 416.083 239.449C413.482 239.661 411.505 239.492 409.665 239.054C407.268 238.482 406.286 238.091 404.399 236.967C403.132 236.212 403.135 236.233 402.232 235.41C401.945 235.147 401.663 234.876 401.392 234.597C401.237 234.437 400.225 233.181 400.347 233.387C398.002 229.97 397.593 226.312 398.516 222.652C399.517 218.686 401.84 215.512 405.318 213.393C414.093 208.048 424.462 210.986 432.541 217.32C435.603 219.72 438.325 222.474 440.953 225.323C435.616 230.637 429.811 235.419 422.711 237.893ZM497.242 220.802C497.227 221.1 497.201 221.398 497.173 221.695C497.158 221.782 497.139 221.893 497.115 222.038C496.988 222.575 496.884 223.111 496.733 223.642C496.684 223.812 496.163 225.196 496.239 225.097C495.84 225.929 495.347 226.695 494.864 227.481C494.812 227.567 494.771 227.636 494.738 227.694C494.695 227.739 494.645 227.792 494.584 227.859C494.206 228.273 493.842 228.694 493.444 229.091C493.159 229.376 492.867 229.652 492.566 229.92C492.348 230.115 492.124 230.304 491.898 230.49C491.865 230.514 491.834 230.537 491.796 230.565C490.97 231.125 490.146 231.673 489.274 232.158C488.832 232.403 488.384 232.636 487.931 232.857C487.658 232.99 487.383 233.118 487.106 233.242C487.054 233.263 486.999 233.285 486.934 233.311C484.809 234.085 482.665 234.715 480.433 235.104C480.337 235.121 479.49 235.226 479.401 235.244C479.034 235.281 478.667 235.32 478.299 235.346C477.094 235.432 475.884 235.457 474.677 235.418C473.812 235.39 472.946 235.326 472.086 235.228C471.894 235.191 471.25 235.089 471.147 235.069C470.503 234.945 469.862 234.8 469.228 234.632C468.461 234.428 467.712 234.177 466.967 233.908C466.84 233.851 466.241 233.612 466.123 233.554C465.575 233.284 465.044 232.986 464.519 232.674C461.445 230.749 458.74 228.296 456.178 225.632C462.692 218.667 470.267 210.716 479.405 208.092C483.532 206.908 488.013 206.846 491.577 208.892C494.511 210.575 496.141 213.157 496.971 216.829C496.985 216.891 497.137 217.789 497.172 217.895C497.232 218.495 497.264 219.1 497.267 219.701C497.269 220.068 497.26 220.436 497.242 220.802Z" fill="white"/>
<path d="M753.843 788.939C752.068 786.237 752.222 782.78 753.814 780.02C755.525 777.053 758.721 775.563 762.088 775.617C770.197 775.747 774.721 783.677 774.187 791.072C774.065 792.762 776.751 793.109 777.135 791.471C778.372 786.196 784.136 782.874 789.378 783.588C794.958 784.348 797.851 789.84 797.198 795.095C796.833 798.031 795.343 800.833 792.819 802.446L794.638 804.803C800.038 800.441 809.108 799.242 814.495 804.307C818.874 808.424 819.931 816.258 815.473 820.701L817.595 822.823C819.509 820.407 823.741 820.053 825.721 822.646C827.634 825.15 826.194 829.371 823.286 830.381C821.473 831.011 822.252 833.912 824.084 833.276C828.804 831.636 831.256 825.39 828.313 821.131C825.444 816.981 818.613 816.737 815.473 820.701C814.304 822.176 816.19 824.224 817.595 822.823C821.961 818.473 822.267 811.613 819.626 806.272C816.63 800.212 809.82 797.395 803.296 798.136C799.309 798.589 795.632 800.163 792.516 802.68C791.188 803.753 792.911 805.946 794.334 805.037C800.19 801.296 801.781 793.191 798.817 787.109C795.598 780.504 787.549 779.05 781.324 782.105C777.876 783.797 775.126 786.899 774.241 790.673L777.189 791.072C777.71 783.848 774.114 776.288 767.117 773.586C760.674 771.099 753.066 773.565 750.425 780.184C749.096 783.514 749.259 787.42 751.252 790.454C752.308 792.061 754.908 790.559 753.843 788.939Z" fill="black"/>
<path d="M759.371 823.744C760.26 822.897 761.158 822.041 762.146 821.389C762.585 821.1 763.136 820.785 763.529 820.631C763.805 820.523 764.092 820.437 764.38 820.369C764.37 820.372 764.884 820.272 764.655 820.303C764.776 820.286 764.899 820.282 765.02 820.279C765.143 820.276 765.265 820.286 765.388 820.285C765.659 820.282 765.347 820.264 765.504 820.29C765.749 820.33 765.991 820.39 766.227 820.466C766.344 820.504 766.463 820.543 766.576 820.593C766.333 820.486 766.748 820.692 766.753 820.695C766.861 820.754 766.963 820.82 767.068 820.883C767.107 820.906 767.364 821.095 767.175 820.947C767.362 821.094 767.525 821.265 767.687 821.439C767.971 821.742 767.625 821.326 767.748 821.521C767.809 821.618 767.864 821.718 767.924 821.815C768.101 822.104 767.905 821.629 767.983 821.958C768.009 822.068 768.044 822.176 768.066 822.288C768.105 822.484 768.098 821.991 768.064 822.369C768.051 822.511 768.055 822.653 768.04 822.796C767.954 823.603 768.791 824.297 769.54 824.297C770.423 824.297 770.955 823.605 771.041 822.796C771.372 819.686 768.263 817.475 765.462 817.289C762.189 817.071 759.45 819.525 757.249 821.621C755.847 822.956 757.972 825.076 759.371 823.744Z" fill="black"/>
<path d="M182.802 820.643C180.23 818.315 177.573 815.94 175.875 812.868C174.358 810.123 173.719 806.425 175.422 803.611C176.652 801.579 179.537 800.365 181.812 801.297C184.696 802.479 184.515 806.452 184.441 809.004L187.389 808.605C185.495 800.994 187.868 792.304 193.715 786.972C194.808 785.976 197.053 784.425 198.546 785.484C199.368 786.067 199.579 787.272 199.784 788.184C200.045 789.347 200.245 790.527 200.386 791.711C200.972 796.635 200.625 801.611 199.402 806.413C198.985 808.052 201.267 809.052 202.145 807.569C203.955 804.514 208.461 803.651 211.409 805.556C215.768 808.374 213.306 813.885 210.245 816.583L212.367 818.705C214.806 816.449 218.561 815.402 221.415 817.583C223.686 819.319 224.67 822.761 223.546 825.41C223.228 826.162 223.327 827.01 224.085 827.463C224.711 827.839 225.822 827.67 226.138 826.925C227.851 822.884 226.808 818.001 223.275 815.258C219.209 812.101 213.809 813.286 210.245 816.583C208.818 817.903 210.927 819.974 212.367 818.705C216.912 814.7 218.936 807.086 213.165 803.124C208.835 800.153 202.228 801.54 199.553 806.054L202.296 807.211C203.446 802.692 203.903 797.995 203.546 793.342C203.374 791.105 203.09 788.802 202.497 786.633C202.012 784.86 201.056 783.213 199.277 782.507C195.631 781.061 191.951 784.177 189.772 786.768C187.366 789.63 185.604 793 184.63 796.612C183.502 800.79 183.45 805.204 184.495 809.403C184.911 811.077 187.394 810.67 187.442 809.004C187.532 805.923 187.427 802.53 185.232 800.12C183.383 798.089 180.403 797.603 177.838 798.333C171.11 800.249 170.259 808.161 172.913 813.668C174.663 817.3 177.739 820.103 180.679 822.765C182.108 824.059 184.238 821.942 182.802 820.643Z" fill="black"/>
<path d="M404.445 457.8C401.924 461.543 400.882 465.98 399.896 470.32C398.79 475.193 397.83 480.099 397.018 485.03C395.398 494.865 394.356 504.791 393.895 514.749C393.806 516.68 396.807 516.675 396.896 514.749C397.345 505.059 398.336 495.399 399.912 485.828C400.698 481.056 401.622 476.308 402.684 471.59C403.64 467.339 404.566 462.983 407.037 459.315C408.119 457.708 405.52 456.205 404.445 457.8Z" fill="black"/>
<path d="M484.416 512.92C488.386 526.331 488.905 540.614 485.863 554.27C485.444 556.152 488.337 556.956 488.757 555.068C491.915 540.894 491.433 526.049 487.31 512.122C486.763 510.274 483.865 511.061 484.416 512.92Z" fill="black"/>
<path d="M505.563 351.602C509.442 348.794 514.39 347.796 519.037 349.014C520.907 349.504 521.705 346.61 519.835 346.119C514.472 344.714 508.551 345.751 504.048 349.01C503.393 349.485 503.072 350.316 503.51 351.064C503.889 351.711 504.903 352.08 505.563 351.602Z" fill="black"/>
<path d="M432.381 350.223C435.149 347.499 438.775 343.952 443.055 344.663C443.854 344.796 444.671 344.454 444.901 343.615C445.099 342.897 444.657 341.902 443.853 341.769C441.191 341.327 438.58 341.931 436.235 343.233C433.978 344.486 432.085 346.304 430.258 348.101C428.879 349.458 431.002 351.58 432.381 350.223Z" fill="black"/>
<path d="M427.661 357.667C431.521 367.874 434.786 378.294 437.443 388.878C437.913 390.75 440.808 389.957 440.337 388.08C437.681 377.496 434.415 367.076 430.556 356.869C429.879 355.079 426.976 355.855 427.661 357.667Z" fill="black"/>
<path d="M423.059 404.099C420.055 402.308 416.368 400.443 412.839 401.839C409.609 403.117 408.077 406.513 407.256 409.665C406.759 411.572 406.471 413.532 406.235 415.486C405.999 417.436 405.916 419.427 406.384 421.353C407.204 424.731 409.864 427.413 413.451 427.512C417.409 427.621 420.535 424.274 420.56 420.405C420.572 418.473 417.571 418.471 417.558 420.405C417.539 423.445 414.352 425.527 411.601 424.008C408.417 422.249 408.925 417.641 409.346 414.656C409.772 411.631 410.271 407.768 412.574 405.519C415.192 402.964 419.004 405.176 421.544 406.691C423.207 407.682 424.718 405.088 423.059 404.099Z" fill="black"/>
<path d="M419.186 420.104C416.435 420.209 414.1 418.218 411.503 417.303C410.265 416.866 408.924 416.662 407.815 415.96C407.63 416.61 407.843 417.299 408.067 417.937C408.71 419.769 409.497 421.627 410.925 422.942C412.353 424.258 414.579 424.886 416.284 423.957C416.877 423.633 417.368 423.148 417.797 422.625C418.16 422.183 418.484 421.709 418.764 421.211" fill="black"/>
<path d="M419.186 418.603C417.435 418.641 415.842 417.684 414.211 416.867C413.284 416.402 412.333 415.976 411.339 415.673C410.392 415.383 409.426 415.181 408.572 414.664C407.773 414.181 406.578 414.618 406.367 415.561C405.951 417.422 406.952 419.505 407.776 421.14C408.55 422.676 409.672 424.113 411.183 424.98C412.626 425.808 414.464 426.187 416.08 425.663C417.876 425.081 419.146 423.555 420.06 421.968C421.026 420.291 418.433 418.778 417.468 420.453C417.15 421.006 416.805 421.521 416.37 421.981C416.023 422.349 415.595 422.668 415.282 422.769C415.128 422.818 414.969 422.86 414.81 422.888C415.007 422.853 414.712 422.892 414.644 422.895C414.508 422.9 414.372 422.894 414.236 422.892C413.836 422.886 414.374 422.949 413.981 422.861C413.365 422.725 413.08 422.626 412.552 422.302C411.661 421.755 410.943 420.748 410.41 419.709C410.129 419.16 409.92 418.652 409.705 418.07C409.522 417.576 409.152 416.849 409.262 416.359L407.057 417.256C408.046 417.854 409.157 418.161 410.257 418.483C411.268 418.778 412.09 419.148 413.03 419.627C414.971 420.616 416.946 421.653 419.186 421.605C421.114 421.563 421.121 418.561 419.186 418.603Z" fill="black"/>
<path d="M521.476 382.987C518.017 380.946 513.518 381.419 510.619 384.215C507.821 386.913 506.696 391.701 509.776 394.629C511.544 396.31 513.923 396.838 516.276 397.058C517.085 397.134 517.777 396.314 517.777 395.558C517.777 394.683 517.087 394.133 516.276 394.057C514.543 393.894 512.646 393.478 511.528 392.118C510.575 390.96 510.868 389.153 511.562 387.884C512.31 386.516 513.509 385.44 515.017 384.98C516.679 384.473 518.44 384.681 519.961 385.579C521.629 386.563 523.14 383.969 521.476 382.987Z" fill="black"/>
<path d="M519.407 405.902C522.523 408.492 526.749 408.317 530.297 406.731C533.787 405.172 536.679 402.227 538.305 398.785C538.651 398.052 538.509 397.166 537.767 396.732C537.114 396.35 536.061 396.534 535.714 397.27C534.382 400.087 532.234 402.387 529.454 403.817C527.12 405.017 523.721 405.601 521.529 403.779C520.906 403.262 520.017 403.169 519.407 403.779C518.874 404.312 518.781 405.381 519.407 405.902Z" fill="black"/>
<path d="M534.504 396.607C535.391 397.524 536.464 398.298 537.629 398.821C537.801 398.931 537.987 398.99 538.187 398.999C538.387 399.044 538.586 399.035 538.786 398.972C539.134 398.876 539.511 398.607 539.682 398.283C539.866 397.934 539.959 397.512 539.834 397.126C539.721 396.777 539.493 396.386 539.144 396.229C538.484 395.933 537.862 395.56 537.289 395.118L537.593 395.353C537.25 395.086 536.928 394.797 536.626 394.485C536.361 394.211 535.943 394.045 535.565 394.045C535.197 394.045 534.757 394.209 534.503 394.485C534.241 394.771 534.046 395.146 534.064 395.546C534.082 395.948 534.219 396.314 534.504 396.607Z" fill="black"/>
<path d="M420.263 306.3C414.363 310.18 410.005 315.933 405.13 321.042C386.468 340.601 358.667 351.05 331.741 348.625C330.513 348.515 329.22 348.354 328.233 347.615C327.274 346.897 326.757 345.749 326.278 344.651C323.424 338.108 320.569 331.565 317.715 325.022C327.4 324.637 336.983 321.897 345.408 317.105C337.081 317.138 328.752 316.661 320.483 315.678C318.51 315.444 316.41 315.123 314.933 313.795C312.062 311.214 312.92 306.214 310.343 303.34C319.961 302.532 329.58 301.723 339.198 300.915C329.778 296.11 319.483 293.029 308.972 291.871C308.814 287.138 307.88 282.432 306.219 277.998C322.872 273.346 340.722 274.773 357.503 278.94C374.283 283.107 390.266 289.916 406.408 296.111C407.574 296.559 408.787 297.011 410.034 296.928C411.586 296.825 412.95 295.914 414.412 295.383C420.032 293.343 426.56 297.621 428.362 303.322C430.165 309.023 428.132 315.36 424.62 320.199C421.759 316.901 418.176 314.233 414.197 312.436" fill="black"/>
<path d="M419.506 305.004C412.414 309.737 407.49 316.814 401.404 322.654C395.664 328.161 389.164 332.833 382.163 336.605C368.115 344.174 352.062 348.025 336.103 347.405C334.978 347.362 333.854 347.296 332.731 347.208C331.635 347.122 330.298 347.137 329.331 346.545C328.346 345.941 327.915 344.672 327.474 343.666C326.909 342.373 326.346 341.079 325.782 339.786C323.525 334.612 321.268 329.438 319.011 324.264L317.715 326.522C327.701 326.089 337.458 323.311 346.165 318.401C347.467 317.666 346.884 315.6 345.408 315.604C337.406 315.626 329.407 315.198 321.456 314.291C319.859 314.109 318.071 313.999 316.646 313.183C315.457 312.502 314.853 311.338 314.454 310.071C313.594 307.342 313.321 304.545 311.404 302.279L310.343 304.841C319.962 304.032 329.58 303.224 339.198 302.416C340.558 302.302 341.396 300.349 339.956 299.619C330.249 294.7 319.783 291.591 308.972 290.37L310.473 291.871C310.284 286.991 309.356 282.183 307.667 277.599L306.619 279.445C326.064 274.08 346.572 277.008 365.584 282.721C375.309 285.644 384.798 289.283 394.251 292.978C396.543 293.874 398.834 294.773 401.126 295.667C403.428 296.565 405.82 297.785 408.248 298.271C410.76 298.774 412.546 297.646 414.811 296.83C416.453 296.239 418.168 296.244 419.833 296.746C423.855 297.959 426.738 301.602 427.385 305.686C428.161 310.587 426.123 315.522 423.325 319.442L425.682 319.138C422.706 315.755 419.049 313.023 414.955 311.14C413.212 310.339 411.685 312.925 413.44 313.732C417.333 315.522 420.729 318.043 423.56 321.26C424.25 322.045 425.394 321.689 425.917 320.957C430.876 314.008 432.98 303.475 426.048 297.02C423.264 294.428 419.444 292.889 415.623 293.523C413.421 293.889 411.316 295.759 409.046 295.377C407.819 295.17 406.629 294.597 405.475 294.151C404.142 293.637 402.811 293.119 401.481 292.6C381.822 284.928 362.038 276.858 340.916 274.364C329.203 272.98 317.229 273.404 305.821 276.551C305.088 276.753 304.491 277.633 304.773 278.397C306.372 282.737 307.293 287.248 307.472 291.871C307.506 292.751 308.137 293.277 308.973 293.371C319.225 294.529 329.241 297.548 338.441 302.211L339.198 299.415C329.58 300.223 319.962 301.031 310.343 301.839C309.006 301.952 308.418 303.379 309.282 304.401C311.124 306.58 311.013 309.923 312.168 312.458C313.647 315.704 316.785 316.715 320.087 317.131C328.476 318.188 336.955 318.629 345.408 318.605L344.651 315.809C336.408 320.457 327.171 323.11 317.716 323.521C316.49 323.574 315.964 324.735 316.42 325.779C318.511 330.572 320.602 335.366 322.692 340.159C323.657 342.37 324.472 344.769 325.679 346.86C326.849 348.887 328.657 349.76 330.917 350.039C339.023 351.04 347.463 350.456 355.48 349.037C371.836 346.142 387.398 338.807 399.998 327.979C403.621 324.867 406.877 321.419 410.068 317.874C413.421 314.148 416.826 310.396 421.021 307.596C422.62 306.529 421.118 303.928 419.506 305.004Z" fill="black"/>
<path d="M506.649 327.336C531.321 316.42 551.616 295.945 562.315 271.177C563.863 267.593 564.941 262.763 561.89 260.326C560.332 259.082 558.163 258.956 556.179 259.159C552.485 259.535 548.945 260.847 545.599 262.456C533.53 268.258 523.64 277.962 516.018 288.973C508.395 299.984 502.897 312.314 497.975 324.769C497.735 325.377 497.493 326.041 497.675 326.668C497.853 327.283 498.395 327.711 498.906 328.097C502.027 330.448 505.147 332.8 508.267 335.151C509.498 330.783 510.728 326.415 511.959 322.047" fill="black"/>
<path d="M507.406 328.631C519.497 323.255 530.555 315.626 539.965 306.329C549.319 297.087 557.084 286.171 562.59 274.222C564.766 269.499 567.951 261.177 561.377 258.295C558.18 256.893 554.2 257.726 550.997 258.698C547.533 259.749 544.216 261.349 541.075 263.135C528.741 270.15 519.018 281.028 511.598 292.985C507.465 299.645 503.992 306.692 500.866 313.873C499.333 317.396 497.77 320.944 496.458 324.555C495.816 326.322 496.216 327.857 497.691 329.039C499.237 330.278 500.857 331.434 502.439 332.626C504.13 333.9 505.82 335.174 507.51 336.447C508.305 337.046 509.477 336.394 509.715 335.551C510.945 331.183 512.175 326.815 513.406 322.447C513.93 320.584 511.035 319.789 510.512 321.649C509.281 326.017 508.051 330.385 506.82 334.753L509.025 333.856C507.465 332.68 505.904 331.504 504.344 330.328C502.801 329.165 501.11 328.076 499.66 326.798C499.274 326.458 499.157 326.419 499.161 325.918C499.163 325.574 499.468 325.056 499.591 324.743C499.925 323.893 500.266 323.045 500.609 322.198C501.302 320.482 502.008 318.77 502.734 317.068C505.541 310.49 508.616 304.016 512.198 297.823C518.796 286.417 527.303 275.832 538.299 268.395C543.699 264.743 550.269 260.945 556.93 260.601C559.75 260.455 562.218 261.531 562.329 264.656C562.428 267.423 561.206 270.074 560.079 272.532C554.989 283.631 547.973 293.807 539.471 302.565C529.883 312.441 518.471 320.446 505.891 326.04C504.13 326.823 505.655 329.41 507.406 328.631Z" fill="black"/>
<path d="M560.513 266.789C563.588 295.837 571.588 324.357 584.068 350.767C586.452 355.811 589.026 360.823 592.562 365.138C592.851 359.975 595.514 354.838 599.971 352.216C604.428 349.593 610.636 349.936 614.354 353.53C617.553 356.622 618.5 361.393 618.453 365.843C618.398 371.056 617.036 376.544 613.295 380.177C623.864 375.519 633.324 368.366 640.683 359.464C641.447 358.54 642.217 357.535 642.378 356.346C642.579 354.875 641.809 353.463 641.054 352.183C628.75 331.334 617.697 312.936 602.272 294.278C597.313 288.278 591.973 282.436 587.237 276.284C582.992 270.77 577.441 265.355 570.628 263.241C564.868 261.453 557.987 263.445 556.642 269.981" fill="black"/>
<path d="M559.012 266.789C561.933 294.14 569.1 320.938 580.274 346.074C583.395 353.095 586.635 360.191 591.501 366.199C592.39 367.297 593.985 366.304 594.063 365.138C594.533 358.13 599.784 351.532 607.264 352.03C610.666 352.257 613.58 354.14 615.189 357.137C616.912 360.345 617.142 364.243 616.869 367.807C616.551 371.953 615.228 376.123 612.234 379.116C610.953 380.396 612.569 382.132 614.053 381.473C624.735 376.729 634.498 369.469 641.872 360.37C642.751 359.285 643.577 358.152 643.826 356.746C644.11 355.136 643.544 353.609 642.797 352.209C641.29 349.383 639.538 346.663 637.9 343.912C634.707 338.551 631.48 333.21 628.154 327.931C621.549 317.445 614.523 307.23 606.818 297.519C602.691 292.318 598.307 287.337 594.022 282.267C590.082 277.605 586.595 272.46 582.037 268.362C577.787 264.541 572.204 261.001 566.279 261.118C561.032 261.221 556.372 264.311 555.194 269.582C554.774 271.463 557.667 272.267 558.089 270.38C559.019 266.212 562.617 264.056 566.747 264.12C571.684 264.196 576.367 267.298 579.915 270.484C584.129 274.269 587.354 278.968 590.974 283.289C594.954 288.04 599.071 292.674 602.972 297.491C610.267 306.5 616.939 315.993 623.206 325.741C626.355 330.64 629.407 335.6 632.412 340.589C633.93 343.11 635.437 345.639 636.938 348.172C637.683 349.427 638.425 350.684 639.168 351.94C639.898 353.178 641.188 354.801 640.856 356.337C640.558 357.713 639.164 358.971 638.269 359.993C637.261 361.144 636.217 362.264 635.139 363.351C632.984 365.524 630.695 367.568 628.289 369.458C623.465 373.248 618.141 376.393 612.538 378.881L614.356 381.238C617.546 378.051 619.141 373.789 619.706 369.379C620.257 365.08 620.014 360.455 618.197 356.465C614.469 348.28 603.872 346.882 597.215 352.341C593.411 355.46 591.386 360.31 591.062 365.138L593.623 364.077C589.416 358.882 586.564 352.709 583.812 346.662C581.031 340.554 578.497 334.335 576.206 328.026C571.614 315.382 567.999 302.384 565.403 289.185C563.945 281.773 562.816 274.301 562.014 266.789C561.811 264.889 558.807 264.868 559.012 266.789Z" fill="black"/>
<path d="M587.651 265.39C585.183 262.534 582.098 260.213 578.67 258.634C579.035 251.901 579.507 244.824 583.161 239.157C585.38 235.717 588.89 232.918 592.697 231.419C603.97 226.978 613.896 240.696 611.449 250.948C610.385 255.402 606.999 259.02 603.074 261.381C599.15 263.742 594.685 265.018 590.279 266.269C589.613 266.459 588.732 266.57 588.379 265.973" fill="black"/>
<path d="M588.712 264.329C586.128 261.387 582.971 259.005 579.427 257.338L580.171 258.634C580.525 252.14 580.91 245.144 584.676 239.584C587.578 235.299 593.274 231.261 598.696 232.186C603.374 232.984 606.956 236.84 608.841 241.004C610.912 245.577 610.887 250.789 607.963 254.983C605.984 257.822 603.062 259.856 599.982 261.342C598.169 262.216 596.27 262.892 594.354 263.501C593.436 263.793 592.513 264.067 591.587 264.335C591.198 264.447 589.528 265.016 589.44 264.912C588.191 263.436 586.077 265.568 587.318 267.034C588.529 268.465 590.444 267.786 591.958 267.352C593.879 266.8 595.796 266.227 597.673 265.537C601.248 264.224 604.685 262.507 607.531 259.938C612.408 255.536 614.363 249.274 612.686 242.921C611.252 237.486 607.467 232.329 602.196 230.117C596.029 227.529 589.479 230.301 584.906 234.705C578.427 240.944 577.631 250.156 577.169 258.634C577.143 259.118 577.465 259.719 577.913 259.929C581.251 261.5 584.155 263.679 586.589 266.451C587.866 267.906 589.982 265.776 588.712 264.329Z" fill="black"/>
</svg>
